%TF.GenerationSoftware,KiCad,Pcbnew,7.0.1-0*%
%TF.CreationDate,2023-08-30T12:53:19-04:00*%
%TF.ProjectId,MP2_DFN,4d50325f-4446-44e2-9e6b-696361645f70,rev?*%
%TF.SameCoordinates,Original*%
%TF.FileFunction,Soldermask,Top*%
%TF.FilePolarity,Negative*%
%FSLAX46Y46*%
G04 Gerber Fmt 4.6, Leading zero omitted, Abs format (unit mm)*
G04 Created by KiCad (PCBNEW 7.0.1-0) date 2023-08-30 12:53:19*
%MOMM*%
%LPD*%
G01*
G04 APERTURE LIST*
G04 Aperture macros list*
%AMRoundRect*
0 Rectangle with rounded corners*
0 $1 Rounding radius*
0 $2 $3 $4 $5 $6 $7 $8 $9 X,Y pos of 4 corners*
0 Add a 4 corners polygon primitive as box body*
4,1,4,$2,$3,$4,$5,$6,$7,$8,$9,$2,$3,0*
0 Add four circle primitives for the rounded corners*
1,1,$1+$1,$2,$3*
1,1,$1+$1,$4,$5*
1,1,$1+$1,$6,$7*
1,1,$1+$1,$8,$9*
0 Add four rect primitives between the rounded corners*
20,1,$1+$1,$2,$3,$4,$5,0*
20,1,$1+$1,$4,$5,$6,$7,0*
20,1,$1+$1,$6,$7,$8,$9,0*
20,1,$1+$1,$8,$9,$2,$3,0*%
%AMFreePoly0*
4,1,217,3.898453,3.715000,3.911988,3.710597,3.915082,3.710106,3.927653,3.710106,3.937854,3.702694,3.940638,3.701275,3.952627,3.697374,3.960011,3.687202,3.962227,3.684985,3.972394,3.677598,3.976291,3.665606,3.977710,3.662821,3.985116,3.652619,3.985111,3.640049,3.985601,3.636954,3.990000,3.623417,3.990000,2.376585,3.985595,2.363027,3.985106,2.359937,3.985106,2.347347,
3.977706,2.337162,3.976285,2.334374,3.972394,2.322400,3.962210,2.315001,3.959998,2.312789,3.952598,2.302603,3.940625,2.298713,3.937837,2.297293,3.927653,2.289894,3.915063,2.289894,3.911973,2.289405,3.898415,2.285000,2.850000,2.285000,2.842929,2.282071,2.840000,2.275000,2.840000,1.725000,2.842929,1.717929,2.850000,1.715000,3.898415,1.715000,3.911973,1.710595,
3.915063,1.710106,3.927653,1.710106,3.937837,1.702706,3.940625,1.701285,3.952599,1.697394,3.959998,1.687211,3.962211,1.684998,3.972394,1.677599,3.976285,1.665625,3.977706,1.662837,3.985106,1.652653,3.985106,1.640063,3.985595,1.636973,3.990000,1.623415,3.990000,0.376585,3.985595,0.363027,3.985106,0.359937,3.985106,0.347347,3.977706,0.337162,3.976285,0.334374,
3.972394,0.322400,3.962210,0.315001,3.959998,0.312789,3.952598,0.302603,3.940625,0.298713,3.937837,0.297293,3.927653,0.289894,3.915063,0.289894,3.911973,0.289405,3.898415,0.285000,2.850000,0.285000,2.842929,0.282071,2.840000,0.275000,2.840000,-0.275000,2.842929,-0.282071,2.850000,-0.285000,3.898415,-0.285000,3.911973,-0.289405,3.915063,-0.289894,3.927653,-0.289894,
3.937837,-0.297293,3.940625,-0.298713,3.952598,-0.302603,3.959998,-0.312789,3.962210,-0.315001,3.972394,-0.322400,3.976285,-0.334374,3.977706,-0.337162,3.985106,-0.347347,3.985106,-0.359937,3.985595,-0.363027,3.990000,-0.376585,3.990000,-1.623415,3.985595,-1.636973,3.985106,-1.640063,3.985106,-1.652653,3.977706,-1.662837,3.976285,-1.665625,3.972394,-1.677599,3.962211,-1.684998,
3.959998,-1.687211,3.952599,-1.697394,3.940625,-1.701285,3.937837,-1.702706,3.927653,-1.710106,3.915063,-1.710106,3.911973,-1.710595,3.898415,-1.715000,2.850000,-1.715000,2.842929,-1.717929,2.840000,-1.725000,2.840000,-2.275000,2.842929,-2.282071,2.850000,-2.285000,3.898415,-2.285000,3.911973,-2.289405,3.915063,-2.289894,3.927653,-2.289894,3.937837,-2.297293,3.940625,-2.298713,
3.952598,-2.302603,3.959998,-2.312789,3.962210,-2.315001,3.972394,-2.322400,3.976285,-2.334374,3.977706,-2.337162,3.985106,-2.347347,3.985106,-2.359937,3.985595,-2.363027,3.990000,-2.376585,3.990000,-3.623417,3.985601,-3.636954,3.985111,-3.640049,3.985116,-3.652619,3.977710,-3.662821,3.976291,-3.665606,3.972394,-3.677598,3.962227,-3.684985,3.960011,-3.687202,3.952627,-3.697374,
3.940638,-3.701275,3.937854,-3.702694,3.927653,-3.710106,3.915082,-3.710106,3.911988,-3.710597,3.898453,-3.715000,2.661620,-3.715499,2.648043,-3.711094,2.644957,-3.710606,2.632347,-3.710606,2.622178,-3.703218,2.619386,-3.701796,2.607430,-3.697916,2.600015,-3.687719,2.597805,-3.685510,2.587604,-3.678098,2.583719,-3.666143,2.582297,-3.663353,2.574904,-3.653186,2.574899,-3.640576,
2.574410,-3.637490,2.570000,-3.623915,2.570000,-3.600491,2.567071,-3.593420,2.560001,-3.590491,-2.748425,-3.590000,-2.761976,-3.585596,-2.765067,-3.585106,-2.777653,-3.585106,-2.787841,-3.577703,-2.790629,-3.576283,-2.802603,-3.572391,-2.810000,-3.562209,-2.812213,-3.559996,-2.822394,-3.552599,-2.826286,-3.540621,-2.827707,-3.537833,-2.835108,-3.527644,-2.835107,-3.515059,-2.835597,-3.511968,
-2.840000,-3.498418,-2.840000,3.498418,-2.835597,3.511968,-2.835107,3.515059,-2.835108,3.527644,-2.827707,3.537833,-2.826286,3.540621,-2.822394,3.552599,-2.812213,3.559996,-2.810000,3.562209,-2.802603,3.572391,-2.790629,3.576283,-2.787841,3.577703,-2.777653,3.585106,-2.765067,3.585106,-2.761976,3.585596,-2.748425,3.590000,2.560001,3.590491,2.567071,3.593420,2.570000,3.600491,
2.570000,3.623915,2.574410,3.637490,2.574899,3.640576,2.574904,3.653186,2.582297,3.663353,2.583719,3.666143,2.587604,3.678098,2.597805,3.685510,2.600015,3.687719,2.607430,3.697916,2.619386,3.701796,2.622178,3.703218,2.632347,3.710606,2.644957,3.710606,2.648043,3.711094,2.661620,3.715499,3.898453,3.715000,3.898453,3.715000,$1*%
G04 Aperture macros list end*
%ADD10C,5.348756*%
%ADD11RoundRect,0.215000X-0.250000X0.225000X-0.250000X-0.225000X0.250000X-0.225000X0.250000X0.225000X0*%
%ADD12RoundRect,0.215000X-0.375000X0.225000X-0.375000X-0.225000X0.375000X-0.225000X0.375000X0.225000X0*%
%ADD13RoundRect,0.190000X0.275000X-0.200000X0.275000X0.200000X-0.275000X0.200000X-0.275000X-0.200000X0*%
%ADD14C,1.980000*%
%ADD15RoundRect,0.118750X1.546250X-1.158750X1.546250X1.158750X-1.546250X1.158750X-1.546250X-1.158750X0*%
%ADD16RoundRect,0.240000X-1.100000X0.325000X-1.100000X-0.325000X1.100000X-0.325000X1.100000X0.325000X0*%
%ADD17RoundRect,0.240000X-0.262500X-0.450000X0.262500X-0.450000X0.262500X0.450000X-0.262500X0.450000X0*%
%ADD18RoundRect,0.240000X0.450000X-0.262500X0.450000X0.262500X-0.450000X0.262500X-0.450000X-0.262500X0*%
%ADD19RoundRect,0.102500X0.112500X-0.187500X0.112500X0.187500X-0.112500X0.187500X-0.112500X-0.187500X0*%
%ADD20R,1.230000X1.260000*%
%ADD21C,0.780000*%
%ADD22FreePoly0,90.000000*%
%ADD23R,0.880000X0.380000*%
%ADD24RoundRect,0.215000X0.250000X-0.225000X0.250000X0.225000X-0.250000X0.225000X-0.250000X-0.225000X0*%
%ADD25RoundRect,0.190000X-0.275000X0.200000X-0.275000X-0.200000X0.275000X-0.200000X0.275000X0.200000X0*%
%ADD26RoundRect,0.190000X-0.200000X-0.275000X0.200000X-0.275000X0.200000X0.275000X-0.200000X0.275000X0*%
%ADD27RoundRect,0.240000X1.100000X-0.325000X1.100000X0.325000X-1.100000X0.325000X-1.100000X-0.325000X0*%
%ADD28C,2.480000*%
%ADD29RoundRect,0.240000X-0.450000X0.262500X-0.450000X-0.262500X0.450000X-0.262500X0.450000X0.262500X0*%
%ADD30RoundRect,0.215000X-0.225000X-0.250000X0.225000X-0.250000X0.225000X0.250000X-0.225000X0.250000X0*%
%ADD31RoundRect,0.240000X0.350000X0.625000X-0.350000X0.625000X-0.350000X-0.625000X0.350000X-0.625000X0*%
%ADD32O,1.180000X1.730000*%
%ADD33R,2.380000X2.380000*%
%ADD34C,2.380000*%
%ADD35RoundRect,0.190000X0.200000X0.275000X-0.200000X0.275000X-0.200000X-0.275000X0.200000X-0.275000X0*%
%ADD36C,2.980000*%
%ADD37R,0.380000X0.880000*%
%ADD38RoundRect,0.215000X0.225000X0.250000X-0.225000X0.250000X-0.225000X-0.250000X0.225000X-0.250000X0*%
%ADD39RoundRect,0.240000X-0.475000X0.250000X-0.475000X-0.250000X0.475000X-0.250000X0.475000X0.250000X0*%
%ADD40RoundRect,0.240000X-1.000000X-0.900000X1.000000X-0.900000X1.000000X0.900000X-1.000000X0.900000X0*%
%ADD41C,1.380000*%
%ADD42O,1.380000X1.380000*%
%ADD43C,1.504000*%
%ADD44RoundRect,0.215000X0.225000X0.375000X-0.225000X0.375000X-0.225000X-0.375000X0.225000X-0.375000X0*%
%ADD45RoundRect,0.140000X0.825000X0.150000X-0.825000X0.150000X-0.825000X-0.150000X0.825000X-0.150000X0*%
%ADD46RoundRect,0.140000X0.150000X-0.825000X0.150000X0.825000X-0.150000X0.825000X-0.150000X-0.825000X0*%
%ADD47RoundRect,0.208750X-0.256250X0.218750X-0.256250X-0.218750X0.256250X-0.218750X0.256250X0.218750X0*%
%ADD48R,5.980000X3.980000*%
G04 APERTURE END LIST*
D10*
X157674378Y-56650000D02*
G75*
G03*
X157674378Y-56650000I-2674378J0D01*
G01*
X157674378Y-91000000D02*
G75*
G03*
X157674378Y-91000000I-2674378J0D01*
G01*
D11*
%TO.C,C7*%
X101400000Y-101125000D03*
X101400000Y-102675000D03*
%TD*%
D12*
%TO.C,D2*%
X88700000Y-98150000D03*
X88700000Y-101450000D03*
%TD*%
D13*
%TO.C,R33*%
X129400000Y-102725000D03*
X129400000Y-101075000D03*
%TD*%
D11*
%TO.C,C27*%
X89125000Y-102950000D03*
X89125000Y-104500000D03*
%TD*%
D13*
%TO.C,RG11*%
X96621300Y-85531250D03*
X96621300Y-83881250D03*
%TD*%
D14*
%TO.C,TpGND1*%
X76750000Y-91030000D03*
%TD*%
D15*
%TO.C,SHA2*%
X80271500Y-91885800D03*
X80271500Y-87310800D03*
%TD*%
D16*
%TO.C,CD5*%
X118617000Y-71245400D03*
X118617000Y-74195400D03*
%TD*%
D13*
%TO.C,RG5*%
X64262000Y-85400550D03*
X64262000Y-83750550D03*
%TD*%
D17*
%TO.C,R7*%
X83612500Y-98050000D03*
X85437500Y-98050000D03*
%TD*%
D11*
%TO.C,C18*%
X134600000Y-101125000D03*
X134600000Y-102675000D03*
%TD*%
D18*
%TO.C,R3*%
X148367800Y-42414800D03*
X148367800Y-40589800D03*
%TD*%
D19*
%TO.C,D4*%
X123850000Y-106050000D03*
X123850000Y-103950000D03*
%TD*%
D20*
%TO.C,QA5*%
X76699000Y-68473300D03*
D21*
X76699000Y-60403300D03*
X76699000Y-62153300D03*
X76699000Y-63903300D03*
X76699000Y-65653300D03*
X78699000Y-60403300D03*
X78699000Y-62153300D03*
X78699000Y-63903300D03*
X78699000Y-65653300D03*
D22*
X79699000Y-63593300D03*
D21*
X80699000Y-60403300D03*
X80699000Y-62153300D03*
X80699000Y-63903300D03*
X80699000Y-65653300D03*
X82699000Y-60403300D03*
X82699000Y-62153300D03*
X82699000Y-63903300D03*
X82699000Y-65653300D03*
D20*
X78699000Y-68473300D03*
X80699000Y-68473300D03*
X82699000Y-68473300D03*
%TD*%
D23*
%TO.C,RN4*%
X146219000Y-112128260D03*
X146219000Y-111328260D03*
X146219000Y-110528260D03*
X146219000Y-109728260D03*
X144519000Y-109728260D03*
X144519000Y-110528260D03*
X144519000Y-111328260D03*
X144519000Y-112128260D03*
%TD*%
D24*
%TO.C,CGS16*%
X120904000Y-88392000D03*
X120904000Y-86842000D03*
%TD*%
D25*
%TO.C,R36*%
X100150000Y-110575000D03*
X100150000Y-112225000D03*
%TD*%
D20*
%TO.C,QB3*%
X98637500Y-68627200D03*
D21*
X98637500Y-60557200D03*
X98637500Y-62307200D03*
X98637500Y-64057200D03*
X98637500Y-65807200D03*
X100637500Y-60557200D03*
X100637500Y-62307200D03*
X100637500Y-64057200D03*
X100637500Y-65807200D03*
D22*
X101637500Y-63747200D03*
D21*
X102637500Y-60557200D03*
X102637500Y-62307200D03*
X102637500Y-64057200D03*
X102637500Y-65807200D03*
X104637500Y-60557200D03*
X104637500Y-62307200D03*
X104637500Y-64057200D03*
X104637500Y-65807200D03*
D20*
X100637500Y-68627200D03*
X102637500Y-68627200D03*
X104637500Y-68627200D03*
%TD*%
D13*
%TO.C,RG13*%
X118293500Y-68605400D03*
X118293500Y-66955400D03*
%TD*%
D24*
%TO.C,C23*%
X127500000Y-102675000D03*
X127500000Y-101125000D03*
%TD*%
%TO.C,CGS17*%
X129032000Y-82423000D03*
X129032000Y-80873000D03*
%TD*%
D13*
%TO.C,RG2*%
X64205000Y-68633800D03*
X64205000Y-66983800D03*
%TD*%
D20*
%TO.C,QC1*%
X120726000Y-68747800D03*
D21*
X120726000Y-60677800D03*
X120726000Y-62427800D03*
X120726000Y-64177800D03*
X120726000Y-65927800D03*
X122726000Y-60677800D03*
X122726000Y-62427800D03*
X122726000Y-64177800D03*
X122726000Y-65927800D03*
D22*
X123726000Y-63867800D03*
D21*
X124726000Y-60677800D03*
X124726000Y-62427800D03*
X124726000Y-64177800D03*
X124726000Y-65927800D03*
X126726000Y-60677800D03*
X126726000Y-62427800D03*
X126726000Y-64177800D03*
X126726000Y-65927800D03*
D20*
X122726000Y-68747800D03*
X124726000Y-68747800D03*
X126726000Y-68747800D03*
%TD*%
D11*
%TO.C,C19*%
X148650000Y-101225000D03*
X148650000Y-102775000D03*
%TD*%
D25*
%TO.C,R39*%
X119400000Y-110575000D03*
X119400000Y-112225000D03*
%TD*%
D26*
%TO.C,R20*%
X112325000Y-112050000D03*
X113975000Y-112050000D03*
%TD*%
%TO.C,R23*%
X112275000Y-106300000D03*
X113925000Y-106300000D03*
%TD*%
D27*
%TO.C,CX2*%
X65250000Y-53395200D03*
X65250000Y-50445200D03*
%TD*%
D25*
%TO.C,R37*%
X116900000Y-110575000D03*
X116900000Y-112225000D03*
%TD*%
D28*
%TO.C,U6*%
X52654000Y-111813260D03*
X52654000Y-106733260D03*
X72974000Y-99113260D03*
X72974000Y-119433260D03*
%TD*%
D11*
%TO.C,CGS4*%
X85900000Y-63625000D03*
X85900000Y-65175000D03*
%TD*%
D29*
%TO.C,RS3*%
X118300000Y-79400000D03*
X118300000Y-81225000D03*
%TD*%
D13*
%TO.C,R17*%
X98400000Y-102725000D03*
X98400000Y-101075000D03*
%TD*%
D20*
%TO.C,QB1*%
X88359300Y-68635000D03*
D21*
X88359300Y-60565000D03*
X88359300Y-62315000D03*
X88359300Y-64065000D03*
X88359300Y-65815000D03*
X90359300Y-60565000D03*
X90359300Y-62315000D03*
X90359300Y-64065000D03*
X90359300Y-65815000D03*
D22*
X91359300Y-63755000D03*
D21*
X92359300Y-60565000D03*
X92359300Y-62315000D03*
X92359300Y-64065000D03*
X92359300Y-65815000D03*
X94359300Y-60565000D03*
X94359300Y-62315000D03*
X94359300Y-64065000D03*
X94359300Y-65815000D03*
D20*
X90359300Y-68635000D03*
X92359300Y-68635000D03*
X94359300Y-68635000D03*
%TD*%
D11*
%TO.C,C33*%
X120700000Y-101100000D03*
X120700000Y-102650000D03*
%TD*%
D13*
%TO.C,R35*%
X122600000Y-102725000D03*
X122600000Y-101075000D03*
%TD*%
D30*
%TO.C,CGS10*%
X54325000Y-87300000D03*
X55875000Y-87300000D03*
%TD*%
D24*
%TO.C,CGS12*%
X74600000Y-82100000D03*
X74600000Y-80550000D03*
%TD*%
D20*
%TO.C,QC4*%
X131202600Y-84736400D03*
D21*
X131202600Y-76666400D03*
X131202600Y-78416400D03*
X131202600Y-80166400D03*
X131202600Y-81916400D03*
X133202600Y-76666400D03*
X133202600Y-78416400D03*
X133202600Y-80166400D03*
X133202600Y-81916400D03*
D22*
X134202600Y-79856400D03*
D21*
X135202600Y-76666400D03*
X135202600Y-78416400D03*
X135202600Y-80166400D03*
X135202600Y-81916400D03*
X137202600Y-76666400D03*
X137202600Y-78416400D03*
X137202600Y-80166400D03*
X137202600Y-81916400D03*
D20*
X133202600Y-84736400D03*
X135202600Y-84736400D03*
X137202600Y-84736400D03*
%TD*%
D31*
%TO.C,J4*%
X117700000Y-119700000D03*
D32*
X115700000Y-119700000D03*
X113700000Y-119700000D03*
X111700000Y-119700000D03*
X109700000Y-119700000D03*
X107700000Y-119700000D03*
%TD*%
D33*
%TO.C,CR1*%
X57350000Y-38000000D03*
D34*
X57350000Y-45500000D03*
%TD*%
D13*
%TO.C,R27*%
X99900000Y-102725000D03*
X99900000Y-101075000D03*
%TD*%
%TO.C,R32*%
X101710000Y-106025000D03*
X101710000Y-104375000D03*
%TD*%
D35*
%TO.C,R22*%
X117250000Y-105700000D03*
X115600000Y-105700000D03*
%TD*%
D26*
%TO.C,R43*%
X90655000Y-110555000D03*
X92305000Y-110555000D03*
%TD*%
D13*
%TO.C,RG8*%
X96526400Y-68619600D03*
X96526400Y-66969600D03*
%TD*%
%TO.C,R40*%
X147100000Y-106925000D03*
X147100000Y-105275000D03*
%TD*%
D36*
%TO.C,TpGND4*%
X72569000Y-106778260D03*
%TD*%
D20*
%TO.C,QA3*%
X66377500Y-68473300D03*
D21*
X66377500Y-60403300D03*
X66377500Y-62153300D03*
X66377500Y-63903300D03*
X66377500Y-65653300D03*
X68377500Y-60403300D03*
X68377500Y-62153300D03*
X68377500Y-63903300D03*
X68377500Y-65653300D03*
D22*
X69377500Y-63593300D03*
D21*
X70377500Y-60403300D03*
X70377500Y-62153300D03*
X70377500Y-63903300D03*
X70377500Y-65653300D03*
X72377500Y-60403300D03*
X72377500Y-62153300D03*
X72377500Y-63903300D03*
X72377500Y-65653300D03*
D20*
X68377500Y-68473300D03*
X70377500Y-68473300D03*
X72377500Y-68473300D03*
%TD*%
D29*
%TO.C,R14*%
X148291600Y-44349000D03*
X148291600Y-46174000D03*
%TD*%
D37*
%TO.C,RN2*%
X125750000Y-110500000D03*
X124950000Y-110500000D03*
X124150000Y-110500000D03*
X123350000Y-110500000D03*
X123350000Y-112200000D03*
X124150000Y-112200000D03*
X124950000Y-112200000D03*
X125750000Y-112200000D03*
%TD*%
D24*
%TO.C,CGS18*%
X139319000Y-82375000D03*
X139319000Y-80825000D03*
%TD*%
%TO.C,C6*%
X147869000Y-112153260D03*
X147869000Y-110603260D03*
%TD*%
D11*
%TO.C,CGS5*%
X96500000Y-64025000D03*
X96500000Y-65575000D03*
%TD*%
D13*
%TO.C,RG1*%
X53778200Y-68873600D03*
X53778200Y-67223600D03*
%TD*%
D25*
%TO.C,R29*%
X101800000Y-110575000D03*
X101800000Y-112225000D03*
%TD*%
D13*
%TO.C,RG12*%
X106934000Y-85468250D03*
X106934000Y-83818250D03*
%TD*%
D14*
%TO.C,TpGND2*%
X109100000Y-91100000D03*
%TD*%
D13*
%TO.C,R34*%
X126000000Y-102725000D03*
X126000000Y-101075000D03*
%TD*%
D15*
%TO.C,SHB1*%
X92322300Y-92047500D03*
X92322300Y-87472500D03*
%TD*%
D11*
%TO.C,CGS7*%
X118300000Y-63950000D03*
X118300000Y-65500000D03*
%TD*%
D15*
%TO.C,SHA1*%
X60459500Y-91885800D03*
X60459500Y-87310800D03*
%TD*%
D13*
%TO.C,R48*%
X82125000Y-108950000D03*
X82125000Y-107300000D03*
%TD*%
D24*
%TO.C,C10*%
X88630000Y-115695000D03*
X88630000Y-114145000D03*
%TD*%
D29*
%TO.C,RS2*%
X85670000Y-78877500D03*
X85670000Y-80702500D03*
%TD*%
D37*
%TO.C,RN3*%
X135769000Y-110478260D03*
X134969000Y-110478260D03*
X134169000Y-110478260D03*
X133369000Y-110478260D03*
X133369000Y-112178260D03*
X134169000Y-112178260D03*
X134969000Y-112178260D03*
X135769000Y-112178260D03*
%TD*%
D13*
%TO.C,R50*%
X89125000Y-108975000D03*
X89125000Y-107325000D03*
%TD*%
D20*
%TO.C,QB4*%
X98724400Y-84696500D03*
D21*
X98724400Y-76626500D03*
X98724400Y-78376500D03*
X98724400Y-80126500D03*
X98724400Y-81876500D03*
X100724400Y-76626500D03*
X100724400Y-78376500D03*
X100724400Y-80126500D03*
X100724400Y-81876500D03*
D22*
X101724400Y-79816500D03*
D21*
X102724400Y-76626500D03*
X102724400Y-78376500D03*
X102724400Y-80126500D03*
X102724400Y-81876500D03*
X104724400Y-76626500D03*
X104724400Y-78376500D03*
X104724400Y-80126500D03*
X104724400Y-81876500D03*
D20*
X100724400Y-84696500D03*
X102724400Y-84696500D03*
X104724400Y-84696500D03*
%TD*%
D15*
%TO.C,SHB3*%
X112642300Y-92047500D03*
X112642300Y-87472500D03*
%TD*%
D11*
%TO.C,CGS3*%
X74500000Y-64025000D03*
X74500000Y-65575000D03*
%TD*%
D13*
%TO.C,R16*%
X102900000Y-102725000D03*
X102900000Y-101075000D03*
%TD*%
%TO.C,R25*%
X107625000Y-102725000D03*
X107625000Y-101075000D03*
%TD*%
D19*
%TO.C,D5*%
X127250000Y-106050000D03*
X127250000Y-103950000D03*
%TD*%
D27*
%TO.C,CX3*%
X69000000Y-53395200D03*
X69000000Y-50445200D03*
%TD*%
D13*
%TO.C,R24*%
X104550000Y-102725000D03*
X104550000Y-101075000D03*
%TD*%
D17*
%TO.C,R5*%
X76687500Y-98100000D03*
X78512500Y-98100000D03*
%TD*%
D13*
%TO.C,R28*%
X131669000Y-109115760D03*
X131669000Y-107465760D03*
%TD*%
D23*
%TO.C,RN1*%
X140669000Y-109728260D03*
X140669000Y-110528260D03*
X140669000Y-111328260D03*
X140669000Y-112128260D03*
X142369000Y-112128260D03*
X142369000Y-111328260D03*
X142369000Y-110528260D03*
X142369000Y-109728260D03*
%TD*%
D13*
%TO.C,R31*%
X110750000Y-106675000D03*
X110750000Y-105025000D03*
%TD*%
D24*
%TO.C,C15*%
X140250000Y-102675000D03*
X140250000Y-101125000D03*
%TD*%
D15*
%TO.C,SHA3*%
X70365500Y-91885800D03*
X70365500Y-87310800D03*
%TD*%
%TO.C,SHC3*%
X145342000Y-92007900D03*
X145342000Y-87432900D03*
%TD*%
D13*
%TO.C,RG16*%
X118410000Y-84620000D03*
X118410000Y-82970000D03*
%TD*%
D26*
%TO.C,R19*%
X112325000Y-110450000D03*
X113975000Y-110450000D03*
%TD*%
D13*
%TO.C,R6*%
X119100000Y-102725000D03*
X119100000Y-101075000D03*
%TD*%
D16*
%TO.C,CD4*%
X114020700Y-71158000D03*
X114020700Y-74108000D03*
%TD*%
%TO.C,CD3*%
X81692800Y-70713800D03*
X81692800Y-73663800D03*
%TD*%
D24*
%TO.C,C14*%
X138700000Y-102675000D03*
X138700000Y-101125000D03*
%TD*%
D30*
%TO.C,C20*%
X110775000Y-108550000D03*
X112325000Y-108550000D03*
%TD*%
D13*
%TO.C,R52*%
X96150000Y-108975000D03*
X96150000Y-107325000D03*
%TD*%
D31*
%TO.C,J2*%
X132600000Y-119700000D03*
D32*
X130600000Y-119700000D03*
X128600000Y-119700000D03*
X126600000Y-119700000D03*
X124600000Y-119700000D03*
X122600000Y-119700000D03*
%TD*%
D14*
%TO.C,U7*%
X79320000Y-119675000D03*
X81860000Y-119675000D03*
X84400000Y-119675000D03*
%TD*%
D11*
%TO.C,CGS8*%
X128900000Y-64150000D03*
X128900000Y-65700000D03*
%TD*%
D38*
%TO.C,C17*%
X138975000Y-112200000D03*
X137425000Y-112200000D03*
%TD*%
D11*
%TO.C,C26*%
X82119000Y-102950000D03*
X82119000Y-104500000D03*
%TD*%
%TO.C,C29*%
X117600000Y-101150000D03*
X117600000Y-102700000D03*
%TD*%
D15*
%TO.C,SHB2*%
X102450000Y-92047500D03*
X102450000Y-87472500D03*
%TD*%
D24*
%TO.C,C24*%
X124100000Y-102675000D03*
X124100000Y-101125000D03*
%TD*%
D13*
%TO.C,R15*%
X145650000Y-102825000D03*
X145650000Y-101175000D03*
%TD*%
D27*
%TO.C,CX5*%
X89000000Y-53395200D03*
X89000000Y-50445200D03*
%TD*%
D39*
%TO.C,CS1*%
X53620000Y-76460000D03*
X53620000Y-78360000D03*
%TD*%
D25*
%TO.C,R30*%
X110750000Y-110425000D03*
X110750000Y-112075000D03*
%TD*%
D40*
%TO.C,D7*%
X51150000Y-93800000D03*
X55450000Y-93800000D03*
%TD*%
D11*
%TO.C,CGS15*%
X106900000Y-80650000D03*
X106900000Y-82200000D03*
%TD*%
D24*
%TO.C,C25*%
X98500000Y-112175000D03*
X98500000Y-110625000D03*
%TD*%
D27*
%TO.C,CX8*%
X125750000Y-53395200D03*
X125750000Y-50445200D03*
%TD*%
D25*
%TO.C,R9*%
X130169000Y-107465760D03*
X130169000Y-109115760D03*
%TD*%
D30*
%TO.C,C3*%
X92200000Y-101450000D03*
X93750000Y-101450000D03*
%TD*%
D12*
%TO.C,D1*%
X81600000Y-98150000D03*
X81600000Y-101450000D03*
%TD*%
D31*
%TO.C,J1*%
X102800000Y-119700000D03*
D32*
X100800000Y-119700000D03*
X98800000Y-119700000D03*
X96800000Y-119700000D03*
X94800000Y-119700000D03*
X92800000Y-119700000D03*
X90800000Y-119700000D03*
%TD*%
D11*
%TO.C,CGS14*%
X96600000Y-80900000D03*
X96600000Y-82450000D03*
%TD*%
D26*
%TO.C,R45*%
X85125000Y-99900000D03*
X86775000Y-99900000D03*
%TD*%
D20*
%TO.C,QC3*%
X131114600Y-68747800D03*
D21*
X131114600Y-60677800D03*
X131114600Y-62427800D03*
X131114600Y-64177800D03*
X131114600Y-65927800D03*
X133114600Y-60677800D03*
X133114600Y-62427800D03*
X133114600Y-64177800D03*
X133114600Y-65927800D03*
D22*
X134114600Y-63867800D03*
D21*
X135114600Y-60677800D03*
X135114600Y-62427800D03*
X135114600Y-64177800D03*
X135114600Y-65927800D03*
X137114600Y-60677800D03*
X137114600Y-62427800D03*
X137114600Y-64177800D03*
X137114600Y-65927800D03*
D20*
X133114600Y-68747800D03*
X135114600Y-68747800D03*
X137114600Y-68747800D03*
%TD*%
D13*
%TO.C,R38*%
X147150000Y-102825000D03*
X147150000Y-101175000D03*
%TD*%
D24*
%TO.C,CGS11*%
X64262000Y-82300000D03*
X64262000Y-80750000D03*
%TD*%
D26*
%TO.C,R21*%
X115325000Y-107500000D03*
X116975000Y-107500000D03*
%TD*%
D27*
%TO.C,CX20*%
X145750000Y-53395200D03*
X145750000Y-50445200D03*
%TD*%
D19*
%TO.C,D6*%
X130650000Y-106050000D03*
X130650000Y-103950000D03*
%TD*%
D24*
%TO.C,C8*%
X90155000Y-115695000D03*
X90155000Y-114145000D03*
%TD*%
D13*
%TO.C,RG18*%
X139319000Y-85555650D03*
X139319000Y-83905650D03*
%TD*%
D11*
%TO.C,CGS6*%
X106900000Y-63950000D03*
X106900000Y-65500000D03*
%TD*%
D13*
%TO.C,RG4*%
X53956000Y-85878400D03*
X53956000Y-84228400D03*
%TD*%
%TO.C,RG3*%
X74506500Y-68630450D03*
X74506500Y-66980450D03*
%TD*%
D11*
%TO.C,C30*%
X114400000Y-101150000D03*
X114400000Y-102700000D03*
%TD*%
D30*
%TO.C,C1*%
X78125000Y-101400000D03*
X79675000Y-101400000D03*
%TD*%
D24*
%TO.C,C12*%
X79700000Y-111950000D03*
X79700000Y-110400000D03*
%TD*%
D13*
%TO.C,RG17*%
X129031000Y-85618650D03*
X129031000Y-83968650D03*
%TD*%
D25*
%TO.C,R49*%
X83675000Y-99825000D03*
X83675000Y-101475000D03*
%TD*%
D30*
%TO.C,C2*%
X85175000Y-101425000D03*
X86725000Y-101425000D03*
%TD*%
D13*
%TO.C,RG6*%
X74506500Y-85337550D03*
X74506500Y-83687550D03*
%TD*%
%TO.C,RG9*%
X106940400Y-68594200D03*
X106940400Y-66944200D03*
%TD*%
%TO.C,R26*%
X109150000Y-102700000D03*
X109150000Y-101050000D03*
%TD*%
D26*
%TO.C,R42*%
X94225000Y-110545000D03*
X95875000Y-110545000D03*
%TD*%
D13*
%TO.C,R67*%
X95000000Y-115725000D03*
X95000000Y-114075000D03*
%TD*%
D11*
%TO.C,CGS2*%
X64200000Y-64050000D03*
X64200000Y-65600000D03*
%TD*%
D24*
%TO.C,C22*%
X130900000Y-102675000D03*
X130900000Y-101125000D03*
%TD*%
D13*
%TO.C,TH1*%
X96650000Y-78750000D03*
X96650000Y-77100000D03*
%TD*%
D39*
%TO.C,C5*%
X51200000Y-85050000D03*
X51200000Y-86950000D03*
%TD*%
%TO.C,CS2*%
X85670000Y-75380000D03*
X85670000Y-77280000D03*
%TD*%
D12*
%TO.C,D3*%
X95650000Y-98175000D03*
X95650000Y-101475000D03*
%TD*%
D33*
%TO.C,CR2*%
X77350000Y-38000000D03*
D34*
X77350000Y-45500000D03*
%TD*%
D20*
%TO.C,QC5*%
X141427000Y-68747800D03*
D21*
X141427000Y-60677800D03*
X141427000Y-62427800D03*
X141427000Y-64177800D03*
X141427000Y-65927800D03*
X143427000Y-60677800D03*
X143427000Y-62427800D03*
X143427000Y-64177800D03*
X143427000Y-65927800D03*
D22*
X144427000Y-63867800D03*
D21*
X145427000Y-60677800D03*
X145427000Y-62427800D03*
X145427000Y-64177800D03*
X145427000Y-65927800D03*
X147427000Y-60677800D03*
X147427000Y-62427800D03*
X147427000Y-64177800D03*
X147427000Y-65927800D03*
D20*
X143427000Y-68747800D03*
X145427000Y-68747800D03*
X147427000Y-68747800D03*
%TD*%
D33*
%TO.C,CR3*%
X97350000Y-38000000D03*
D34*
X97350000Y-45500000D03*
%TD*%
D13*
%TO.C,R11*%
X112850000Y-102675000D03*
X112850000Y-101025000D03*
%TD*%
D20*
%TO.C,QA2*%
X56003500Y-84475300D03*
D21*
X56003500Y-76405300D03*
X56003500Y-78155300D03*
X56003500Y-79905300D03*
X56003500Y-81655300D03*
X58003500Y-76405300D03*
X58003500Y-78155300D03*
X58003500Y-79905300D03*
X58003500Y-81655300D03*
D22*
X59003500Y-79595300D03*
D21*
X60003500Y-76405300D03*
X60003500Y-78155300D03*
X60003500Y-79905300D03*
X60003500Y-81655300D03*
X62003500Y-76405300D03*
X62003500Y-78155300D03*
X62003500Y-79905300D03*
X62003500Y-81655300D03*
D20*
X58003500Y-84475300D03*
X60003500Y-84475300D03*
X62003500Y-84475300D03*
%TD*%
D26*
%TO.C,R44*%
X78075000Y-99850000D03*
X79725000Y-99850000D03*
%TD*%
D24*
%TO.C,C13*%
X78175000Y-111950000D03*
X78175000Y-110400000D03*
%TD*%
D13*
%TO.C,RG15*%
X139191000Y-68848550D03*
X139191000Y-67198550D03*
%TD*%
D26*
%TO.C,R18*%
X115325000Y-109000000D03*
X116975000Y-109000000D03*
%TD*%
D25*
%TO.C,R41*%
X106100000Y-101075000D03*
X106100000Y-102725000D03*
%TD*%
D14*
%TO.C,TpGND3*%
X141800000Y-90900000D03*
%TD*%
D13*
%TO.C,R4*%
X145600000Y-106925000D03*
X145600000Y-105275000D03*
%TD*%
D11*
%TO.C,C28*%
X96150000Y-102950000D03*
X96150000Y-104500000D03*
%TD*%
D24*
%TO.C,C11*%
X76650000Y-111950000D03*
X76650000Y-110400000D03*
%TD*%
%TO.C,C16*%
X141800000Y-102675000D03*
X141800000Y-101125000D03*
%TD*%
D20*
%TO.C,QA1*%
X56003500Y-68473300D03*
D21*
X56003500Y-60403300D03*
X56003500Y-62153300D03*
X56003500Y-63903300D03*
X56003500Y-65653300D03*
X58003500Y-60403300D03*
X58003500Y-62153300D03*
X58003500Y-63903300D03*
X58003500Y-65653300D03*
D22*
X59003500Y-63593300D03*
D21*
X60003500Y-60403300D03*
X60003500Y-62153300D03*
X60003500Y-63903300D03*
X60003500Y-65653300D03*
X62003500Y-60403300D03*
X62003500Y-62153300D03*
X62003500Y-63903300D03*
X62003500Y-65653300D03*
D20*
X58003500Y-68473300D03*
X60003500Y-68473300D03*
X62003500Y-68473300D03*
%TD*%
D29*
%TO.C,RS1*%
X53638500Y-79946200D03*
X53638500Y-81771200D03*
%TD*%
D25*
%TO.C,RG10*%
X85900000Y-82975000D03*
X85900000Y-84625000D03*
%TD*%
D41*
%TO.C,NTC1*%
X133914000Y-108678260D03*
D42*
X135814000Y-108678260D03*
%TD*%
D13*
%TO.C,RG7*%
X85858400Y-68187800D03*
X85858400Y-66537800D03*
%TD*%
D20*
%TO.C,QA4*%
X66377500Y-84475300D03*
D21*
X66377500Y-76405300D03*
X66377500Y-78155300D03*
X66377500Y-79905300D03*
X66377500Y-81655300D03*
X68377500Y-76405300D03*
X68377500Y-78155300D03*
X68377500Y-79905300D03*
X68377500Y-81655300D03*
D22*
X69377500Y-79595300D03*
D21*
X70377500Y-76405300D03*
X70377500Y-78155300D03*
X70377500Y-79905300D03*
X70377500Y-81655300D03*
X72377500Y-76405300D03*
X72377500Y-78155300D03*
X72377500Y-79905300D03*
X72377500Y-81655300D03*
D20*
X68377500Y-84475300D03*
X70377500Y-84475300D03*
X72377500Y-84475300D03*
%TD*%
D25*
%TO.C,R47*%
X76650000Y-99850000D03*
X76650000Y-101500000D03*
%TD*%
D43*
%TO.C,U5*%
X147329000Y-99028260D03*
X144789000Y-99028260D03*
X142249000Y-99028260D03*
X139709000Y-99028260D03*
X137169000Y-99028260D03*
X134629000Y-99028260D03*
X132089000Y-99028260D03*
X129549000Y-99028260D03*
X127009000Y-99028260D03*
X124469000Y-99028260D03*
X121929000Y-99028260D03*
X119389000Y-99028260D03*
X116849000Y-99028260D03*
X114309000Y-99028260D03*
X111769000Y-99028260D03*
X109229000Y-99028260D03*
X106689000Y-99028260D03*
X104149000Y-99028260D03*
X101609000Y-99028260D03*
X99069000Y-99028260D03*
X99069000Y-114268260D03*
X101609000Y-114268260D03*
X104149000Y-114268260D03*
X106689000Y-114268260D03*
X109229000Y-114268260D03*
X111769000Y-114268260D03*
X114285395Y-114278253D03*
X116849000Y-114268260D03*
X119389000Y-114268260D03*
X121929000Y-114268260D03*
X124469000Y-114268260D03*
X127009000Y-114268260D03*
X129549000Y-114268260D03*
X132089000Y-114268260D03*
X134629000Y-114268260D03*
X137169000Y-114268260D03*
X139709000Y-114268260D03*
X142249000Y-114268260D03*
X144789000Y-114268260D03*
X147329000Y-114268260D03*
%TD*%
D11*
%TO.C,CGS9*%
X139200000Y-64200000D03*
X139200000Y-65750000D03*
%TD*%
D37*
%TO.C,RN7*%
X86300000Y-112200000D03*
X87100000Y-112200000D03*
X87900000Y-112200000D03*
X88700000Y-112200000D03*
X88700000Y-110500000D03*
X87900000Y-110500000D03*
X87100000Y-110500000D03*
X86300000Y-110500000D03*
%TD*%
D27*
%TO.C,CX6*%
X105500000Y-53395200D03*
X105500000Y-50445200D03*
%TD*%
D20*
%TO.C,QB5*%
X109175600Y-68611400D03*
D21*
X109175600Y-60541400D03*
X109175600Y-62291400D03*
X109175600Y-64041400D03*
X109175600Y-65791400D03*
X111175600Y-60541400D03*
X111175600Y-62291400D03*
X111175600Y-64041400D03*
X111175600Y-65791400D03*
D22*
X112175600Y-63731400D03*
D21*
X113175600Y-60541400D03*
X113175600Y-62291400D03*
X113175600Y-64041400D03*
X113175600Y-65791400D03*
X115175600Y-60541400D03*
X115175600Y-62291400D03*
X115175600Y-64041400D03*
X115175600Y-65791400D03*
D20*
X111175600Y-68611400D03*
X113175600Y-68611400D03*
X115175600Y-68611400D03*
%TD*%
D27*
%TO.C,CX4*%
X85250000Y-53395200D03*
X85250000Y-50445200D03*
%TD*%
D15*
%TO.C,SHC2*%
X134844000Y-92007900D03*
X134844000Y-87432900D03*
%TD*%
D26*
%TO.C,R46*%
X92150000Y-99925000D03*
X93800000Y-99925000D03*
%TD*%
D44*
%TO.C,D11*%
X84675000Y-111575000D03*
X81375000Y-111575000D03*
%TD*%
D25*
%TO.C,R12*%
X138419000Y-106703260D03*
X138419000Y-108353260D03*
%TD*%
D45*
%TO.C,U4*%
X108725000Y-112070000D03*
X108725000Y-110800000D03*
X108725000Y-109530000D03*
X108725000Y-108260000D03*
X108725000Y-106990000D03*
X108725000Y-105720000D03*
X108725000Y-104450000D03*
X103775000Y-104450000D03*
X103775000Y-105720000D03*
X103775000Y-106990000D03*
X103775000Y-108260000D03*
X103775000Y-109530000D03*
X103775000Y-110800000D03*
X103775000Y-112070000D03*
%TD*%
D39*
%TO.C,CS3*%
X118330000Y-75920000D03*
X118330000Y-77820000D03*
%TD*%
D46*
%TO.C,U1*%
X76714000Y-108400000D03*
X77984000Y-108400000D03*
X79254000Y-108400000D03*
X80524000Y-108400000D03*
X80524000Y-103450000D03*
X79254000Y-103450000D03*
X77984000Y-103450000D03*
X76714000Y-103450000D03*
%TD*%
D20*
%TO.C,QB6*%
X109133700Y-84637000D03*
D21*
X109133700Y-76567000D03*
X109133700Y-78317000D03*
X109133700Y-80067000D03*
X109133700Y-81817000D03*
X111133700Y-76567000D03*
X111133700Y-78317000D03*
X111133700Y-80067000D03*
X111133700Y-81817000D03*
D22*
X112133700Y-79757000D03*
D21*
X113133700Y-76567000D03*
X113133700Y-78317000D03*
X113133700Y-80067000D03*
X113133700Y-81817000D03*
X115133700Y-76567000D03*
X115133700Y-78317000D03*
X115133700Y-80067000D03*
X115133700Y-81817000D03*
D20*
X111133700Y-84637000D03*
X113133700Y-84637000D03*
X115133700Y-84637000D03*
%TD*%
D11*
%TO.C,C4*%
X148600000Y-105325000D03*
X148600000Y-106875000D03*
%TD*%
D46*
%TO.C,U2*%
X83720000Y-108400000D03*
X84990000Y-108400000D03*
X86260000Y-108400000D03*
X87530000Y-108400000D03*
X87530000Y-103450000D03*
X86260000Y-103450000D03*
X84990000Y-103450000D03*
X83720000Y-103450000D03*
%TD*%
D47*
%TO.C,D9*%
X93300000Y-114100000D03*
X93300000Y-115675000D03*
%TD*%
D20*
%TO.C,QA6*%
X76831500Y-84475300D03*
D21*
X76831500Y-76405300D03*
X76831500Y-78155300D03*
X76831500Y-79905300D03*
X76831500Y-81655300D03*
X78831500Y-76405300D03*
X78831500Y-78155300D03*
X78831500Y-79905300D03*
X78831500Y-81655300D03*
D22*
X79831500Y-79595300D03*
D21*
X80831500Y-76405300D03*
X80831500Y-78155300D03*
X80831500Y-79905300D03*
X80831500Y-81655300D03*
X82831500Y-76405300D03*
X82831500Y-78155300D03*
X82831500Y-79905300D03*
X82831500Y-81655300D03*
D20*
X78831500Y-84475300D03*
X80831500Y-84475300D03*
X82831500Y-84475300D03*
%TD*%
D24*
%TO.C,C9*%
X91680000Y-115695000D03*
X91680000Y-114145000D03*
%TD*%
D13*
%TO.C,RG14*%
X128889500Y-68851900D03*
X128889500Y-67201900D03*
%TD*%
D20*
%TO.C,QB2*%
X88296800Y-84637000D03*
D21*
X88296800Y-76567000D03*
X88296800Y-78317000D03*
X88296800Y-80067000D03*
X88296800Y-81817000D03*
X90296800Y-76567000D03*
X90296800Y-78317000D03*
X90296800Y-80067000D03*
X90296800Y-81817000D03*
D22*
X91296800Y-79757000D03*
D21*
X92296800Y-76567000D03*
X92296800Y-78317000D03*
X92296800Y-80067000D03*
X92296800Y-81817000D03*
X94296800Y-76567000D03*
X94296800Y-78317000D03*
X94296800Y-80067000D03*
X94296800Y-81817000D03*
D20*
X90296800Y-84637000D03*
X92296800Y-84637000D03*
X94296800Y-84637000D03*
%TD*%
D37*
%TO.C,RN5*%
X129369000Y-112190760D03*
X130169000Y-112190760D03*
X130969000Y-112190760D03*
X131769000Y-112190760D03*
X131769000Y-110490760D03*
X130969000Y-110490760D03*
X130169000Y-110490760D03*
X129369000Y-110490760D03*
%TD*%
D20*
%TO.C,QC2*%
X120825800Y-84736400D03*
D21*
X120825800Y-76666400D03*
X120825800Y-78416400D03*
X120825800Y-80166400D03*
X120825800Y-81916400D03*
X122825800Y-76666400D03*
X122825800Y-78416400D03*
X122825800Y-80166400D03*
X122825800Y-81916400D03*
D22*
X123825800Y-79856400D03*
D21*
X124825800Y-76666400D03*
X124825800Y-78416400D03*
X124825800Y-80166400D03*
X124825800Y-81916400D03*
X126825800Y-76666400D03*
X126825800Y-78416400D03*
X126825800Y-80166400D03*
X126825800Y-81916400D03*
D20*
X122825800Y-84736400D03*
X124825800Y-84736400D03*
X126825800Y-84736400D03*
%TD*%
D27*
%TO.C,CX1*%
X51000000Y-54600000D03*
X51000000Y-51650000D03*
%TD*%
D31*
%TO.C,J3*%
X147500000Y-119700000D03*
D32*
X145500000Y-119700000D03*
X143500000Y-119700000D03*
X141500000Y-119700000D03*
X139500000Y-119700000D03*
X137500000Y-119700000D03*
%TD*%
D25*
%TO.C,R51*%
X90700000Y-99875000D03*
X90700000Y-101525000D03*
%TD*%
D11*
%TO.C,C32*%
X110700000Y-101125000D03*
X110700000Y-102675000D03*
%TD*%
D24*
%TO.C,CGS1*%
X53594000Y-65304000D03*
X53594000Y-63754000D03*
%TD*%
D11*
%TO.C,C21*%
X137150000Y-101125000D03*
X137150000Y-102675000D03*
%TD*%
D33*
%TO.C,CR5*%
X137350000Y-38000000D03*
D34*
X137350000Y-45500000D03*
%TD*%
D29*
%TO.C,R1*%
X51600000Y-65975000D03*
X51600000Y-67800000D03*
%TD*%
D15*
%TO.C,SHC1*%
X125022000Y-92007900D03*
X125022000Y-87432900D03*
%TD*%
D27*
%TO.C,CX9*%
X129250000Y-53395200D03*
X129250000Y-50445200D03*
%TD*%
D16*
%TO.C,CD2*%
X85655200Y-70766400D03*
X85655200Y-73716400D03*
%TD*%
D20*
%TO.C,QC6*%
X141508000Y-84736400D03*
D21*
X141508000Y-76666400D03*
X141508000Y-78416400D03*
X141508000Y-80166400D03*
X141508000Y-81916400D03*
X143508000Y-76666400D03*
X143508000Y-78416400D03*
X143508000Y-80166400D03*
X143508000Y-81916400D03*
D22*
X144508000Y-79856400D03*
D21*
X145508000Y-76666400D03*
X145508000Y-78416400D03*
X145508000Y-80166400D03*
X145508000Y-81916400D03*
X147508000Y-76666400D03*
X147508000Y-78416400D03*
X147508000Y-80166400D03*
X147508000Y-81916400D03*
D20*
X143508000Y-84736400D03*
X145508000Y-84736400D03*
X147508000Y-84736400D03*
%TD*%
D27*
%TO.C,CX7*%
X109000000Y-53395200D03*
X109000000Y-50445200D03*
%TD*%
D46*
%TO.C,U3*%
X90745000Y-108425000D03*
X92015000Y-108425000D03*
X93285000Y-108425000D03*
X94555000Y-108425000D03*
X94555000Y-103475000D03*
X93285000Y-103475000D03*
X92015000Y-103475000D03*
X90745000Y-103475000D03*
%TD*%
D11*
%TO.C,CGS13*%
X89408000Y-86614000D03*
X89408000Y-88164000D03*
%TD*%
D16*
%TO.C,CD6*%
X152729300Y-64884900D03*
X152729300Y-67834900D03*
%TD*%
D25*
%TO.C,R13*%
X127200000Y-110525000D03*
X127200000Y-112175000D03*
%TD*%
D33*
%TO.C,CR4*%
X117350000Y-38000000D03*
D34*
X117350000Y-45500000D03*
%TD*%
D17*
%TO.C,R10*%
X90700000Y-98075000D03*
X92525000Y-98075000D03*
%TD*%
D28*
%TO.C,Tp12V1*%
X52700000Y-116800000D03*
%TD*%
D18*
%TO.C,R2*%
X51628200Y-64087500D03*
X51628200Y-62262500D03*
%TD*%
D13*
%TO.C,R8*%
X116100000Y-102725000D03*
X116100000Y-101075000D03*
%TD*%
D48*
%TO.C,PHA_1*%
X59290000Y-72500000D03*
%TD*%
%TO.C,PHB_2*%
X108500000Y-72500000D03*
%TD*%
%TO.C,PHC_2*%
X140850000Y-72500000D03*
%TD*%
%TO.C,PHC_1*%
X123983100Y-72500000D03*
%TD*%
%TO.C,PHB_1*%
X91802000Y-72500000D03*
%TD*%
%TO.C,PHA_2*%
X76054000Y-72500000D03*
%TD*%
M02*
