%TF.GenerationSoftware,KiCad,Pcbnew,7.0.1-0*%
%TF.CreationDate,2023-08-30T12:53:19-04:00*%
%TF.ProjectId,MP2_DFN,4d50325f-4446-44e2-9e6b-696361645f70,rev?*%
%TF.SameCoordinates,Original*%
%TF.FileFunction,Legend,Bot*%
%TF.FilePolarity,Positive*%
%FSLAX46Y46*%
G04 Gerber Fmt 4.6, Leading zero omitted, Abs format (unit mm)*
G04 Created by KiCad (PCBNEW 7.0.1-0) date 2023-08-30 12:53:19*
%MOMM*%
%LPD*%
G01*
G04 APERTURE LIST*
%ADD10C,0.150000*%
%ADD11C,0.100000*%
%ADD12C,0.200000*%
%ADD13C,0.300000*%
%ADD14C,0.120000*%
G04 APERTURE END LIST*
D10*
X74650000Y-119550000D02*
X77800000Y-119550000D01*
X69938095Y-106425238D02*
X70033333Y-106377619D01*
X70033333Y-106377619D02*
X70176190Y-106377619D01*
X70176190Y-106377619D02*
X70319047Y-106425238D01*
X70319047Y-106425238D02*
X70414285Y-106520476D01*
X70414285Y-106520476D02*
X70461904Y-106615714D01*
X70461904Y-106615714D02*
X70509523Y-106806190D01*
X70509523Y-106806190D02*
X70509523Y-106949047D01*
X70509523Y-106949047D02*
X70461904Y-107139523D01*
X70461904Y-107139523D02*
X70414285Y-107234761D01*
X70414285Y-107234761D02*
X70319047Y-107330000D01*
X70319047Y-107330000D02*
X70176190Y-107377619D01*
X70176190Y-107377619D02*
X70080952Y-107377619D01*
X70080952Y-107377619D02*
X69938095Y-107330000D01*
X69938095Y-107330000D02*
X69890476Y-107282380D01*
X69890476Y-107282380D02*
X69890476Y-106949047D01*
X69890476Y-106949047D02*
X70080952Y-106949047D01*
X69461904Y-107377619D02*
X69461904Y-106377619D01*
X69461904Y-106377619D02*
X68890476Y-107377619D01*
X68890476Y-107377619D02*
X68890476Y-106377619D01*
X68414285Y-107377619D02*
X68414285Y-106377619D01*
X68414285Y-106377619D02*
X68176190Y-106377619D01*
X68176190Y-106377619D02*
X68033333Y-106425238D01*
X68033333Y-106425238D02*
X67938095Y-106520476D01*
X67938095Y-106520476D02*
X67890476Y-106615714D01*
X67890476Y-106615714D02*
X67842857Y-106806190D01*
X67842857Y-106806190D02*
X67842857Y-106949047D01*
X67842857Y-106949047D02*
X67890476Y-107139523D01*
X67890476Y-107139523D02*
X67938095Y-107234761D01*
X67938095Y-107234761D02*
X68033333Y-107330000D01*
X68033333Y-107330000D02*
X68176190Y-107377619D01*
X68176190Y-107377619D02*
X68414285Y-107377619D01*
X122261904Y-45577619D02*
X122261904Y-44577619D01*
X122261904Y-44577619D02*
X121690476Y-45577619D01*
X121690476Y-45577619D02*
X121690476Y-44577619D01*
X121214285Y-45053809D02*
X120880952Y-45053809D01*
X120738095Y-45577619D02*
X121214285Y-45577619D01*
X121214285Y-45577619D02*
X121214285Y-44577619D01*
X121214285Y-44577619D02*
X120738095Y-44577619D01*
X119785714Y-44625238D02*
X119880952Y-44577619D01*
X119880952Y-44577619D02*
X120023809Y-44577619D01*
X120023809Y-44577619D02*
X120166666Y-44625238D01*
X120166666Y-44625238D02*
X120261904Y-44720476D01*
X120261904Y-44720476D02*
X120309523Y-44815714D01*
X120309523Y-44815714D02*
X120357142Y-45006190D01*
X120357142Y-45006190D02*
X120357142Y-45149047D01*
X120357142Y-45149047D02*
X120309523Y-45339523D01*
X120309523Y-45339523D02*
X120261904Y-45434761D01*
X120261904Y-45434761D02*
X120166666Y-45530000D01*
X120166666Y-45530000D02*
X120023809Y-45577619D01*
X120023809Y-45577619D02*
X119928571Y-45577619D01*
X119928571Y-45577619D02*
X119785714Y-45530000D01*
X119785714Y-45530000D02*
X119738095Y-45482380D01*
X119738095Y-45482380D02*
X119738095Y-45149047D01*
X119738095Y-45149047D02*
X119928571Y-45149047D01*
X81600704Y-45597619D02*
X81600704Y-44597619D01*
X81600704Y-44597619D02*
X81029276Y-45597619D01*
X81029276Y-45597619D02*
X81029276Y-44597619D01*
X80553085Y-45073809D02*
X80219752Y-45073809D01*
X80076895Y-45597619D02*
X80553085Y-45597619D01*
X80553085Y-45597619D02*
X80553085Y-44597619D01*
X80553085Y-44597619D02*
X80076895Y-44597619D01*
X79124514Y-44645238D02*
X79219752Y-44597619D01*
X79219752Y-44597619D02*
X79362609Y-44597619D01*
X79362609Y-44597619D02*
X79505466Y-44645238D01*
X79505466Y-44645238D02*
X79600704Y-44740476D01*
X79600704Y-44740476D02*
X79648323Y-44835714D01*
X79648323Y-44835714D02*
X79695942Y-45026190D01*
X79695942Y-45026190D02*
X79695942Y-45169047D01*
X79695942Y-45169047D02*
X79648323Y-45359523D01*
X79648323Y-45359523D02*
X79600704Y-45454761D01*
X79600704Y-45454761D02*
X79505466Y-45550000D01*
X79505466Y-45550000D02*
X79362609Y-45597619D01*
X79362609Y-45597619D02*
X79267371Y-45597619D01*
X79267371Y-45597619D02*
X79124514Y-45550000D01*
X79124514Y-45550000D02*
X79076895Y-45502380D01*
X79076895Y-45502380D02*
X79076895Y-45169047D01*
X79076895Y-45169047D02*
X79267371Y-45169047D01*
D11*
X105495237Y-116485047D02*
X105247618Y-116485047D01*
X105247618Y-116485047D02*
X105380951Y-116637428D01*
X105380951Y-116637428D02*
X105323808Y-116637428D01*
X105323808Y-116637428D02*
X105285713Y-116656476D01*
X105285713Y-116656476D02*
X105266665Y-116675523D01*
X105266665Y-116675523D02*
X105247618Y-116713619D01*
X105247618Y-116713619D02*
X105247618Y-116808857D01*
X105247618Y-116808857D02*
X105266665Y-116846952D01*
X105266665Y-116846952D02*
X105285713Y-116866000D01*
X105285713Y-116866000D02*
X105323808Y-116885047D01*
X105323808Y-116885047D02*
X105438094Y-116885047D01*
X105438094Y-116885047D02*
X105476189Y-116866000D01*
X105476189Y-116866000D02*
X105495237Y-116846952D01*
X105133332Y-116485047D02*
X104999999Y-116885047D01*
X104999999Y-116885047D02*
X104866666Y-116485047D01*
X104771428Y-116485047D02*
X104523809Y-116485047D01*
X104523809Y-116485047D02*
X104657142Y-116637428D01*
X104657142Y-116637428D02*
X104599999Y-116637428D01*
X104599999Y-116637428D02*
X104561904Y-116656476D01*
X104561904Y-116656476D02*
X104542856Y-116675523D01*
X104542856Y-116675523D02*
X104523809Y-116713619D01*
X104523809Y-116713619D02*
X104523809Y-116808857D01*
X104523809Y-116808857D02*
X104542856Y-116846952D01*
X104542856Y-116846952D02*
X104561904Y-116866000D01*
X104561904Y-116866000D02*
X104599999Y-116885047D01*
X104599999Y-116885047D02*
X104714285Y-116885047D01*
X104714285Y-116885047D02*
X104752380Y-116866000D01*
X104752380Y-116866000D02*
X104771428Y-116846952D01*
D10*
X101869904Y-45597619D02*
X101869904Y-44597619D01*
X101869904Y-44597619D02*
X101298476Y-45597619D01*
X101298476Y-45597619D02*
X101298476Y-44597619D01*
X100822285Y-45073809D02*
X100488952Y-45073809D01*
X100346095Y-45597619D02*
X100822285Y-45597619D01*
X100822285Y-45597619D02*
X100822285Y-44597619D01*
X100822285Y-44597619D02*
X100346095Y-44597619D01*
X99393714Y-44645238D02*
X99488952Y-44597619D01*
X99488952Y-44597619D02*
X99631809Y-44597619D01*
X99631809Y-44597619D02*
X99774666Y-44645238D01*
X99774666Y-44645238D02*
X99869904Y-44740476D01*
X99869904Y-44740476D02*
X99917523Y-44835714D01*
X99917523Y-44835714D02*
X99965142Y-45026190D01*
X99965142Y-45026190D02*
X99965142Y-45169047D01*
X99965142Y-45169047D02*
X99917523Y-45359523D01*
X99917523Y-45359523D02*
X99869904Y-45454761D01*
X99869904Y-45454761D02*
X99774666Y-45550000D01*
X99774666Y-45550000D02*
X99631809Y-45597619D01*
X99631809Y-45597619D02*
X99536571Y-45597619D01*
X99536571Y-45597619D02*
X99393714Y-45550000D01*
X99393714Y-45550000D02*
X99346095Y-45502380D01*
X99346095Y-45502380D02*
X99346095Y-45169047D01*
X99346095Y-45169047D02*
X99536571Y-45169047D01*
X61991904Y-38485619D02*
X61991904Y-37485619D01*
X61991904Y-37485619D02*
X61610952Y-37485619D01*
X61610952Y-37485619D02*
X61515714Y-37533238D01*
X61515714Y-37533238D02*
X61468095Y-37580857D01*
X61468095Y-37580857D02*
X61420476Y-37676095D01*
X61420476Y-37676095D02*
X61420476Y-37818952D01*
X61420476Y-37818952D02*
X61468095Y-37914190D01*
X61468095Y-37914190D02*
X61515714Y-37961809D01*
X61515714Y-37961809D02*
X61610952Y-38009428D01*
X61610952Y-38009428D02*
X61991904Y-38009428D01*
X60801428Y-37485619D02*
X60610952Y-37485619D01*
X60610952Y-37485619D02*
X60515714Y-37533238D01*
X60515714Y-37533238D02*
X60420476Y-37628476D01*
X60420476Y-37628476D02*
X60372857Y-37818952D01*
X60372857Y-37818952D02*
X60372857Y-38152285D01*
X60372857Y-38152285D02*
X60420476Y-38342761D01*
X60420476Y-38342761D02*
X60515714Y-38438000D01*
X60515714Y-38438000D02*
X60610952Y-38485619D01*
X60610952Y-38485619D02*
X60801428Y-38485619D01*
X60801428Y-38485619D02*
X60896666Y-38438000D01*
X60896666Y-38438000D02*
X60991904Y-38342761D01*
X60991904Y-38342761D02*
X61039523Y-38152285D01*
X61039523Y-38152285D02*
X61039523Y-37818952D01*
X61039523Y-37818952D02*
X60991904Y-37628476D01*
X60991904Y-37628476D02*
X60896666Y-37533238D01*
X60896666Y-37533238D02*
X60801428Y-37485619D01*
X59991904Y-38438000D02*
X59849047Y-38485619D01*
X59849047Y-38485619D02*
X59610952Y-38485619D01*
X59610952Y-38485619D02*
X59515714Y-38438000D01*
X59515714Y-38438000D02*
X59468095Y-38390380D01*
X59468095Y-38390380D02*
X59420476Y-38295142D01*
X59420476Y-38295142D02*
X59420476Y-38199904D01*
X59420476Y-38199904D02*
X59468095Y-38104666D01*
X59468095Y-38104666D02*
X59515714Y-38057047D01*
X59515714Y-38057047D02*
X59610952Y-38009428D01*
X59610952Y-38009428D02*
X59801428Y-37961809D01*
X59801428Y-37961809D02*
X59896666Y-37914190D01*
X59896666Y-37914190D02*
X59944285Y-37866571D01*
X59944285Y-37866571D02*
X59991904Y-37771333D01*
X59991904Y-37771333D02*
X59991904Y-37676095D01*
X59991904Y-37676095D02*
X59944285Y-37580857D01*
X59944285Y-37580857D02*
X59896666Y-37533238D01*
X59896666Y-37533238D02*
X59801428Y-37485619D01*
X59801428Y-37485619D02*
X59563333Y-37485619D01*
X59563333Y-37485619D02*
X59420476Y-37533238D01*
X115308038Y-116261904D02*
X115260419Y-116166666D01*
X115260419Y-116166666D02*
X115260419Y-116023809D01*
X115260419Y-116023809D02*
X115308038Y-115880952D01*
X115308038Y-115880952D02*
X115403276Y-115785714D01*
X115403276Y-115785714D02*
X115498514Y-115738095D01*
X115498514Y-115738095D02*
X115688990Y-115690476D01*
X115688990Y-115690476D02*
X115831847Y-115690476D01*
X115831847Y-115690476D02*
X116022323Y-115738095D01*
X116022323Y-115738095D02*
X116117561Y-115785714D01*
X116117561Y-115785714D02*
X116212800Y-115880952D01*
X116212800Y-115880952D02*
X116260419Y-116023809D01*
X116260419Y-116023809D02*
X116260419Y-116119047D01*
X116260419Y-116119047D02*
X116212800Y-116261904D01*
X116212800Y-116261904D02*
X116165180Y-116309523D01*
X116165180Y-116309523D02*
X115831847Y-116309523D01*
X115831847Y-116309523D02*
X115831847Y-116119047D01*
X116260419Y-116738095D02*
X115260419Y-116738095D01*
X115260419Y-116738095D02*
X116260419Y-117309523D01*
X116260419Y-117309523D02*
X115260419Y-117309523D01*
X116260419Y-117785714D02*
X115260419Y-117785714D01*
X115260419Y-117785714D02*
X115260419Y-118023809D01*
X115260419Y-118023809D02*
X115308038Y-118166666D01*
X115308038Y-118166666D02*
X115403276Y-118261904D01*
X115403276Y-118261904D02*
X115498514Y-118309523D01*
X115498514Y-118309523D02*
X115688990Y-118357142D01*
X115688990Y-118357142D02*
X115831847Y-118357142D01*
X115831847Y-118357142D02*
X116022323Y-118309523D01*
X116022323Y-118309523D02*
X116117561Y-118261904D01*
X116117561Y-118261904D02*
X116212800Y-118166666D01*
X116212800Y-118166666D02*
X116260419Y-118023809D01*
X116260419Y-118023809D02*
X116260419Y-117785714D01*
X104355951Y-119431666D02*
X103594047Y-119431666D01*
X136952019Y-116071428D02*
X137952019Y-116404761D01*
X137952019Y-116404761D02*
X136952019Y-116738094D01*
X137904400Y-117499999D02*
X137952019Y-117404761D01*
X137952019Y-117404761D02*
X137952019Y-117214285D01*
X137952019Y-117214285D02*
X137904400Y-117119047D01*
X137904400Y-117119047D02*
X137856780Y-117071428D01*
X137856780Y-117071428D02*
X137761542Y-117023809D01*
X137761542Y-117023809D02*
X137475828Y-117023809D01*
X137475828Y-117023809D02*
X137380590Y-117071428D01*
X137380590Y-117071428D02*
X137332971Y-117119047D01*
X137332971Y-117119047D02*
X137285352Y-117214285D01*
X137285352Y-117214285D02*
X137285352Y-117404761D01*
X137285352Y-117404761D02*
X137332971Y-117499999D01*
X137904400Y-118357142D02*
X137952019Y-118261904D01*
X137952019Y-118261904D02*
X137952019Y-118071428D01*
X137952019Y-118071428D02*
X137904400Y-117976190D01*
X137904400Y-117976190D02*
X137856780Y-117928571D01*
X137856780Y-117928571D02*
X137761542Y-117880952D01*
X137761542Y-117880952D02*
X137475828Y-117880952D01*
X137475828Y-117880952D02*
X137380590Y-117928571D01*
X137380590Y-117928571D02*
X137332971Y-117976190D01*
X137332971Y-117976190D02*
X137285352Y-118071428D01*
X137285352Y-118071428D02*
X137285352Y-118261904D01*
X137285352Y-118261904D02*
X137332971Y-118357142D01*
X122067619Y-116071428D02*
X123067619Y-116404761D01*
X123067619Y-116404761D02*
X122067619Y-116738094D01*
X123020000Y-117499999D02*
X123067619Y-117404761D01*
X123067619Y-117404761D02*
X123067619Y-117214285D01*
X123067619Y-117214285D02*
X123020000Y-117119047D01*
X123020000Y-117119047D02*
X122972380Y-117071428D01*
X122972380Y-117071428D02*
X122877142Y-117023809D01*
X122877142Y-117023809D02*
X122591428Y-117023809D01*
X122591428Y-117023809D02*
X122496190Y-117071428D01*
X122496190Y-117071428D02*
X122448571Y-117119047D01*
X122448571Y-117119047D02*
X122400952Y-117214285D01*
X122400952Y-117214285D02*
X122400952Y-117404761D01*
X122400952Y-117404761D02*
X122448571Y-117499999D01*
X123020000Y-118357142D02*
X123067619Y-118261904D01*
X123067619Y-118261904D02*
X123067619Y-118071428D01*
X123067619Y-118071428D02*
X123020000Y-117976190D01*
X123020000Y-117976190D02*
X122972380Y-117928571D01*
X122972380Y-117928571D02*
X122877142Y-117880952D01*
X122877142Y-117880952D02*
X122591428Y-117880952D01*
X122591428Y-117880952D02*
X122496190Y-117928571D01*
X122496190Y-117928571D02*
X122448571Y-117976190D01*
X122448571Y-117976190D02*
X122400952Y-118071428D01*
X122400952Y-118071428D02*
X122400952Y-118261904D01*
X122400952Y-118261904D02*
X122448571Y-118357142D01*
X142154304Y-38485619D02*
X142154304Y-37485619D01*
X142154304Y-37485619D02*
X141773352Y-37485619D01*
X141773352Y-37485619D02*
X141678114Y-37533238D01*
X141678114Y-37533238D02*
X141630495Y-37580857D01*
X141630495Y-37580857D02*
X141582876Y-37676095D01*
X141582876Y-37676095D02*
X141582876Y-37818952D01*
X141582876Y-37818952D02*
X141630495Y-37914190D01*
X141630495Y-37914190D02*
X141678114Y-37961809D01*
X141678114Y-37961809D02*
X141773352Y-38009428D01*
X141773352Y-38009428D02*
X142154304Y-38009428D01*
X140963828Y-37485619D02*
X140773352Y-37485619D01*
X140773352Y-37485619D02*
X140678114Y-37533238D01*
X140678114Y-37533238D02*
X140582876Y-37628476D01*
X140582876Y-37628476D02*
X140535257Y-37818952D01*
X140535257Y-37818952D02*
X140535257Y-38152285D01*
X140535257Y-38152285D02*
X140582876Y-38342761D01*
X140582876Y-38342761D02*
X140678114Y-38438000D01*
X140678114Y-38438000D02*
X140773352Y-38485619D01*
X140773352Y-38485619D02*
X140963828Y-38485619D01*
X140963828Y-38485619D02*
X141059066Y-38438000D01*
X141059066Y-38438000D02*
X141154304Y-38342761D01*
X141154304Y-38342761D02*
X141201923Y-38152285D01*
X141201923Y-38152285D02*
X141201923Y-37818952D01*
X141201923Y-37818952D02*
X141154304Y-37628476D01*
X141154304Y-37628476D02*
X141059066Y-37533238D01*
X141059066Y-37533238D02*
X140963828Y-37485619D01*
X140154304Y-38438000D02*
X140011447Y-38485619D01*
X140011447Y-38485619D02*
X139773352Y-38485619D01*
X139773352Y-38485619D02*
X139678114Y-38438000D01*
X139678114Y-38438000D02*
X139630495Y-38390380D01*
X139630495Y-38390380D02*
X139582876Y-38295142D01*
X139582876Y-38295142D02*
X139582876Y-38199904D01*
X139582876Y-38199904D02*
X139630495Y-38104666D01*
X139630495Y-38104666D02*
X139678114Y-38057047D01*
X139678114Y-38057047D02*
X139773352Y-38009428D01*
X139773352Y-38009428D02*
X139963828Y-37961809D01*
X139963828Y-37961809D02*
X140059066Y-37914190D01*
X140059066Y-37914190D02*
X140106685Y-37866571D01*
X140106685Y-37866571D02*
X140154304Y-37771333D01*
X140154304Y-37771333D02*
X140154304Y-37676095D01*
X140154304Y-37676095D02*
X140106685Y-37580857D01*
X140106685Y-37580857D02*
X140059066Y-37533238D01*
X140059066Y-37533238D02*
X139963828Y-37485619D01*
X139963828Y-37485619D02*
X139725733Y-37485619D01*
X139725733Y-37485619D02*
X139582876Y-37533238D01*
D12*
X61705713Y-89109928D02*
X61205713Y-90609928D01*
X61205713Y-90609928D02*
X60705713Y-89109928D01*
X59705714Y-89824214D02*
X59491428Y-89895642D01*
X59491428Y-89895642D02*
X59419999Y-89967071D01*
X59419999Y-89967071D02*
X59348571Y-90109928D01*
X59348571Y-90109928D02*
X59348571Y-90324214D01*
X59348571Y-90324214D02*
X59419999Y-90467071D01*
X59419999Y-90467071D02*
X59491428Y-90538500D01*
X59491428Y-90538500D02*
X59634285Y-90609928D01*
X59634285Y-90609928D02*
X60205714Y-90609928D01*
X60205714Y-90609928D02*
X60205714Y-89109928D01*
X60205714Y-89109928D02*
X59705714Y-89109928D01*
X59705714Y-89109928D02*
X59562857Y-89181357D01*
X59562857Y-89181357D02*
X59491428Y-89252785D01*
X59491428Y-89252785D02*
X59419999Y-89395642D01*
X59419999Y-89395642D02*
X59419999Y-89538500D01*
X59419999Y-89538500D02*
X59491428Y-89681357D01*
X59491428Y-89681357D02*
X59562857Y-89752785D01*
X59562857Y-89752785D02*
X59705714Y-89824214D01*
X59705714Y-89824214D02*
X60205714Y-89824214D01*
X58062857Y-90609928D02*
X58062857Y-89824214D01*
X58062857Y-89824214D02*
X58134285Y-89681357D01*
X58134285Y-89681357D02*
X58277142Y-89609928D01*
X58277142Y-89609928D02*
X58562857Y-89609928D01*
X58562857Y-89609928D02*
X58705714Y-89681357D01*
X58062857Y-90538500D02*
X58205714Y-90609928D01*
X58205714Y-90609928D02*
X58562857Y-90609928D01*
X58562857Y-90609928D02*
X58705714Y-90538500D01*
X58705714Y-90538500D02*
X58777142Y-90395642D01*
X58777142Y-90395642D02*
X58777142Y-90252785D01*
X58777142Y-90252785D02*
X58705714Y-90109928D01*
X58705714Y-90109928D02*
X58562857Y-90038500D01*
X58562857Y-90038500D02*
X58205714Y-90038500D01*
X58205714Y-90038500D02*
X58062857Y-89967071D01*
X57562856Y-89609928D02*
X56991428Y-89609928D01*
X57348571Y-89109928D02*
X57348571Y-90395642D01*
X57348571Y-90395642D02*
X57277142Y-90538500D01*
X57277142Y-90538500D02*
X57134285Y-90609928D01*
X57134285Y-90609928D02*
X56991428Y-90609928D01*
X56491428Y-90038500D02*
X55348571Y-90038500D01*
D10*
X102103219Y-116071428D02*
X103103219Y-116404761D01*
X103103219Y-116404761D02*
X102103219Y-116738094D01*
X103055600Y-117499999D02*
X103103219Y-117404761D01*
X103103219Y-117404761D02*
X103103219Y-117214285D01*
X103103219Y-117214285D02*
X103055600Y-117119047D01*
X103055600Y-117119047D02*
X103007980Y-117071428D01*
X103007980Y-117071428D02*
X102912742Y-117023809D01*
X102912742Y-117023809D02*
X102627028Y-117023809D01*
X102627028Y-117023809D02*
X102531790Y-117071428D01*
X102531790Y-117071428D02*
X102484171Y-117119047D01*
X102484171Y-117119047D02*
X102436552Y-117214285D01*
X102436552Y-117214285D02*
X102436552Y-117404761D01*
X102436552Y-117404761D02*
X102484171Y-117499999D01*
X103055600Y-118357142D02*
X103103219Y-118261904D01*
X103103219Y-118261904D02*
X103103219Y-118071428D01*
X103103219Y-118071428D02*
X103055600Y-117976190D01*
X103055600Y-117976190D02*
X103007980Y-117928571D01*
X103007980Y-117928571D02*
X102912742Y-117880952D01*
X102912742Y-117880952D02*
X102627028Y-117880952D01*
X102627028Y-117880952D02*
X102531790Y-117928571D01*
X102531790Y-117928571D02*
X102484171Y-117976190D01*
X102484171Y-117976190D02*
X102436552Y-118071428D01*
X102436552Y-118071428D02*
X102436552Y-118261904D01*
X102436552Y-118261904D02*
X102484171Y-118357142D01*
D11*
X105076189Y-121785047D02*
X105266665Y-121785047D01*
X105266665Y-121785047D02*
X105285713Y-121975523D01*
X105285713Y-121975523D02*
X105266665Y-121956476D01*
X105266665Y-121956476D02*
X105228570Y-121937428D01*
X105228570Y-121937428D02*
X105133332Y-121937428D01*
X105133332Y-121937428D02*
X105095237Y-121956476D01*
X105095237Y-121956476D02*
X105076189Y-121975523D01*
X105076189Y-121975523D02*
X105057142Y-122013619D01*
X105057142Y-122013619D02*
X105057142Y-122108857D01*
X105057142Y-122108857D02*
X105076189Y-122146952D01*
X105076189Y-122146952D02*
X105095237Y-122166000D01*
X105095237Y-122166000D02*
X105133332Y-122185047D01*
X105133332Y-122185047D02*
X105228570Y-122185047D01*
X105228570Y-122185047D02*
X105266665Y-122166000D01*
X105266665Y-122166000D02*
X105285713Y-122146952D01*
X104942856Y-121785047D02*
X104809523Y-122185047D01*
X104809523Y-122185047D02*
X104676190Y-121785047D01*
D10*
X145307142Y-103985952D02*
X145116666Y-104652619D01*
X145116666Y-104652619D02*
X144926190Y-104176428D01*
X144926190Y-104176428D02*
X144735714Y-104652619D01*
X144735714Y-104652619D02*
X144545238Y-103985952D01*
X144164285Y-104652619D02*
X144164285Y-103985952D01*
X144164285Y-103652619D02*
X144211904Y-103700238D01*
X144211904Y-103700238D02*
X144164285Y-103747857D01*
X144164285Y-103747857D02*
X144116666Y-103700238D01*
X144116666Y-103700238D02*
X144164285Y-103652619D01*
X144164285Y-103652619D02*
X144164285Y-103747857D01*
X143830952Y-103985952D02*
X143450000Y-103985952D01*
X143688095Y-103652619D02*
X143688095Y-104509761D01*
X143688095Y-104509761D02*
X143640476Y-104605000D01*
X143640476Y-104605000D02*
X143545238Y-104652619D01*
X143545238Y-104652619D02*
X143450000Y-104652619D01*
X143116666Y-104652619D02*
X143116666Y-103652619D01*
X142688095Y-104652619D02*
X142688095Y-104128809D01*
X142688095Y-104128809D02*
X142735714Y-104033571D01*
X142735714Y-104033571D02*
X142830952Y-103985952D01*
X142830952Y-103985952D02*
X142973809Y-103985952D01*
X142973809Y-103985952D02*
X143069047Y-104033571D01*
X143069047Y-104033571D02*
X143116666Y-104081190D01*
X141021428Y-103985952D02*
X141021428Y-104795476D01*
X141021428Y-104795476D02*
X141069047Y-104890714D01*
X141069047Y-104890714D02*
X141116666Y-104938333D01*
X141116666Y-104938333D02*
X141211904Y-104985952D01*
X141211904Y-104985952D02*
X141354761Y-104985952D01*
X141354761Y-104985952D02*
X141449999Y-104938333D01*
X141021428Y-104605000D02*
X141116666Y-104652619D01*
X141116666Y-104652619D02*
X141307142Y-104652619D01*
X141307142Y-104652619D02*
X141402380Y-104605000D01*
X141402380Y-104605000D02*
X141449999Y-104557380D01*
X141449999Y-104557380D02*
X141497618Y-104462142D01*
X141497618Y-104462142D02*
X141497618Y-104176428D01*
X141497618Y-104176428D02*
X141449999Y-104081190D01*
X141449999Y-104081190D02*
X141402380Y-104033571D01*
X141402380Y-104033571D02*
X141307142Y-103985952D01*
X141307142Y-103985952D02*
X141116666Y-103985952D01*
X141116666Y-103985952D02*
X141021428Y-104033571D01*
X140545237Y-104652619D02*
X140545237Y-103985952D01*
X140545237Y-104176428D02*
X140497618Y-104081190D01*
X140497618Y-104081190D02*
X140449999Y-104033571D01*
X140449999Y-104033571D02*
X140354761Y-103985952D01*
X140354761Y-103985952D02*
X140259523Y-103985952D01*
X139545237Y-104605000D02*
X139640475Y-104652619D01*
X139640475Y-104652619D02*
X139830951Y-104652619D01*
X139830951Y-104652619D02*
X139926189Y-104605000D01*
X139926189Y-104605000D02*
X139973808Y-104509761D01*
X139973808Y-104509761D02*
X139973808Y-104128809D01*
X139973808Y-104128809D02*
X139926189Y-104033571D01*
X139926189Y-104033571D02*
X139830951Y-103985952D01*
X139830951Y-103985952D02*
X139640475Y-103985952D01*
X139640475Y-103985952D02*
X139545237Y-104033571D01*
X139545237Y-104033571D02*
X139497618Y-104128809D01*
X139497618Y-104128809D02*
X139497618Y-104224047D01*
X139497618Y-104224047D02*
X139973808Y-104319285D01*
X138640475Y-104652619D02*
X138640475Y-104128809D01*
X138640475Y-104128809D02*
X138688094Y-104033571D01*
X138688094Y-104033571D02*
X138783332Y-103985952D01*
X138783332Y-103985952D02*
X138973808Y-103985952D01*
X138973808Y-103985952D02*
X139069046Y-104033571D01*
X138640475Y-104605000D02*
X138735713Y-104652619D01*
X138735713Y-104652619D02*
X138973808Y-104652619D01*
X138973808Y-104652619D02*
X139069046Y-104605000D01*
X139069046Y-104605000D02*
X139116665Y-104509761D01*
X139116665Y-104509761D02*
X139116665Y-104414523D01*
X139116665Y-104414523D02*
X139069046Y-104319285D01*
X139069046Y-104319285D02*
X138973808Y-104271666D01*
X138973808Y-104271666D02*
X138735713Y-104271666D01*
X138735713Y-104271666D02*
X138640475Y-104224047D01*
X138307141Y-103985952D02*
X137926189Y-103985952D01*
X138164284Y-103652619D02*
X138164284Y-104509761D01*
X138164284Y-104509761D02*
X138116665Y-104605000D01*
X138116665Y-104605000D02*
X138021427Y-104652619D01*
X138021427Y-104652619D02*
X137926189Y-104652619D01*
X136973807Y-103985952D02*
X136592855Y-103985952D01*
X136830950Y-103652619D02*
X136830950Y-104509761D01*
X136830950Y-104509761D02*
X136783331Y-104605000D01*
X136783331Y-104605000D02*
X136688093Y-104652619D01*
X136688093Y-104652619D02*
X136592855Y-104652619D01*
X136259521Y-104652619D02*
X136259521Y-103652619D01*
X135830950Y-104652619D02*
X135830950Y-104128809D01*
X135830950Y-104128809D02*
X135878569Y-104033571D01*
X135878569Y-104033571D02*
X135973807Y-103985952D01*
X135973807Y-103985952D02*
X136116664Y-103985952D01*
X136116664Y-103985952D02*
X136211902Y-104033571D01*
X136211902Y-104033571D02*
X136259521Y-104081190D01*
X134926188Y-104652619D02*
X134926188Y-104128809D01*
X134926188Y-104128809D02*
X134973807Y-104033571D01*
X134973807Y-104033571D02*
X135069045Y-103985952D01*
X135069045Y-103985952D02*
X135259521Y-103985952D01*
X135259521Y-103985952D02*
X135354759Y-104033571D01*
X134926188Y-104605000D02*
X135021426Y-104652619D01*
X135021426Y-104652619D02*
X135259521Y-104652619D01*
X135259521Y-104652619D02*
X135354759Y-104605000D01*
X135354759Y-104605000D02*
X135402378Y-104509761D01*
X135402378Y-104509761D02*
X135402378Y-104414523D01*
X135402378Y-104414523D02*
X135354759Y-104319285D01*
X135354759Y-104319285D02*
X135259521Y-104271666D01*
X135259521Y-104271666D02*
X135021426Y-104271666D01*
X135021426Y-104271666D02*
X134926188Y-104224047D01*
X134449997Y-103985952D02*
X134449997Y-104652619D01*
X134449997Y-104081190D02*
X134402378Y-104033571D01*
X134402378Y-104033571D02*
X134307140Y-103985952D01*
X134307140Y-103985952D02*
X134164283Y-103985952D01*
X134164283Y-103985952D02*
X134069045Y-104033571D01*
X134069045Y-104033571D02*
X134021426Y-104128809D01*
X134021426Y-104128809D02*
X134021426Y-104652619D01*
X133545235Y-104652619D02*
X133545235Y-103652619D01*
X133449997Y-104271666D02*
X133164283Y-104652619D01*
X133164283Y-103985952D02*
X133545235Y-104366904D01*
X132783330Y-104605000D02*
X132688092Y-104652619D01*
X132688092Y-104652619D02*
X132497616Y-104652619D01*
X132497616Y-104652619D02*
X132402378Y-104605000D01*
X132402378Y-104605000D02*
X132354759Y-104509761D01*
X132354759Y-104509761D02*
X132354759Y-104462142D01*
X132354759Y-104462142D02*
X132402378Y-104366904D01*
X132402378Y-104366904D02*
X132497616Y-104319285D01*
X132497616Y-104319285D02*
X132640473Y-104319285D01*
X132640473Y-104319285D02*
X132735711Y-104271666D01*
X132735711Y-104271666D02*
X132783330Y-104176428D01*
X132783330Y-104176428D02*
X132783330Y-104128809D01*
X132783330Y-104128809D02*
X132735711Y-104033571D01*
X132735711Y-104033571D02*
X132640473Y-103985952D01*
X132640473Y-103985952D02*
X132497616Y-103985952D01*
X132497616Y-103985952D02*
X132402378Y-104033571D01*
X131307139Y-103985952D02*
X130926187Y-103985952D01*
X131164282Y-103652619D02*
X131164282Y-104509761D01*
X131164282Y-104509761D02*
X131116663Y-104605000D01*
X131116663Y-104605000D02*
X131021425Y-104652619D01*
X131021425Y-104652619D02*
X130926187Y-104652619D01*
X130449996Y-104652619D02*
X130545234Y-104605000D01*
X130545234Y-104605000D02*
X130592853Y-104557380D01*
X130592853Y-104557380D02*
X130640472Y-104462142D01*
X130640472Y-104462142D02*
X130640472Y-104176428D01*
X130640472Y-104176428D02*
X130592853Y-104081190D01*
X130592853Y-104081190D02*
X130545234Y-104033571D01*
X130545234Y-104033571D02*
X130449996Y-103985952D01*
X130449996Y-103985952D02*
X130307139Y-103985952D01*
X130307139Y-103985952D02*
X130211901Y-104033571D01*
X130211901Y-104033571D02*
X130164282Y-104081190D01*
X130164282Y-104081190D02*
X130116663Y-104176428D01*
X130116663Y-104176428D02*
X130116663Y-104462142D01*
X130116663Y-104462142D02*
X130164282Y-104557380D01*
X130164282Y-104557380D02*
X130211901Y-104605000D01*
X130211901Y-104605000D02*
X130307139Y-104652619D01*
X130307139Y-104652619D02*
X130449996Y-104652619D01*
X129688091Y-104557380D02*
X129640472Y-104605000D01*
X129640472Y-104605000D02*
X129688091Y-104652619D01*
X129688091Y-104652619D02*
X129735710Y-104605000D01*
X129735710Y-104605000D02*
X129688091Y-104557380D01*
X129688091Y-104557380D02*
X129688091Y-104652619D01*
X129688091Y-104033571D02*
X129640472Y-104081190D01*
X129640472Y-104081190D02*
X129688091Y-104128809D01*
X129688091Y-104128809D02*
X129735710Y-104081190D01*
X129735710Y-104081190D02*
X129688091Y-104033571D01*
X129688091Y-104033571D02*
X129688091Y-104128809D01*
X144783333Y-105605952D02*
X144783333Y-106415476D01*
X144783333Y-106415476D02*
X144830952Y-106510714D01*
X144830952Y-106510714D02*
X144878571Y-106558333D01*
X144878571Y-106558333D02*
X144973809Y-106605952D01*
X144973809Y-106605952D02*
X145116666Y-106605952D01*
X145116666Y-106605952D02*
X145211904Y-106558333D01*
X144783333Y-106225000D02*
X144878571Y-106272619D01*
X144878571Y-106272619D02*
X145069047Y-106272619D01*
X145069047Y-106272619D02*
X145164285Y-106225000D01*
X145164285Y-106225000D02*
X145211904Y-106177380D01*
X145211904Y-106177380D02*
X145259523Y-106082142D01*
X145259523Y-106082142D02*
X145259523Y-105796428D01*
X145259523Y-105796428D02*
X145211904Y-105701190D01*
X145211904Y-105701190D02*
X145164285Y-105653571D01*
X145164285Y-105653571D02*
X145069047Y-105605952D01*
X145069047Y-105605952D02*
X144878571Y-105605952D01*
X144878571Y-105605952D02*
X144783333Y-105653571D01*
X144307142Y-106272619D02*
X144307142Y-105605952D01*
X144307142Y-105272619D02*
X144354761Y-105320238D01*
X144354761Y-105320238D02*
X144307142Y-105367857D01*
X144307142Y-105367857D02*
X144259523Y-105320238D01*
X144259523Y-105320238D02*
X144307142Y-105272619D01*
X144307142Y-105272619D02*
X144307142Y-105367857D01*
X143973809Y-105605952D02*
X143592857Y-105605952D01*
X143830952Y-105272619D02*
X143830952Y-106129761D01*
X143830952Y-106129761D02*
X143783333Y-106225000D01*
X143783333Y-106225000D02*
X143688095Y-106272619D01*
X143688095Y-106272619D02*
X143592857Y-106272619D01*
X143259523Y-106272619D02*
X143259523Y-105272619D01*
X142830952Y-106272619D02*
X142830952Y-105748809D01*
X142830952Y-105748809D02*
X142878571Y-105653571D01*
X142878571Y-105653571D02*
X142973809Y-105605952D01*
X142973809Y-105605952D02*
X143116666Y-105605952D01*
X143116666Y-105605952D02*
X143211904Y-105653571D01*
X143211904Y-105653571D02*
X143259523Y-105701190D01*
X141926190Y-105605952D02*
X141926190Y-106272619D01*
X142354761Y-105605952D02*
X142354761Y-106129761D01*
X142354761Y-106129761D02*
X142307142Y-106225000D01*
X142307142Y-106225000D02*
X142211904Y-106272619D01*
X142211904Y-106272619D02*
X142069047Y-106272619D01*
X142069047Y-106272619D02*
X141973809Y-106225000D01*
X141973809Y-106225000D02*
X141926190Y-106177380D01*
X141449999Y-106272619D02*
X141449999Y-105272619D01*
X141449999Y-105653571D02*
X141354761Y-105605952D01*
X141354761Y-105605952D02*
X141164285Y-105605952D01*
X141164285Y-105605952D02*
X141069047Y-105653571D01*
X141069047Y-105653571D02*
X141021428Y-105701190D01*
X141021428Y-105701190D02*
X140973809Y-105796428D01*
X140973809Y-105796428D02*
X140973809Y-106082142D01*
X140973809Y-106082142D02*
X141021428Y-106177380D01*
X141021428Y-106177380D02*
X141069047Y-106225000D01*
X141069047Y-106225000D02*
X141164285Y-106272619D01*
X141164285Y-106272619D02*
X141354761Y-106272619D01*
X141354761Y-106272619D02*
X141449999Y-106225000D01*
X140545237Y-106177380D02*
X140497618Y-106225000D01*
X140497618Y-106225000D02*
X140545237Y-106272619D01*
X140545237Y-106272619D02*
X140592856Y-106225000D01*
X140592856Y-106225000D02*
X140545237Y-106177380D01*
X140545237Y-106177380D02*
X140545237Y-106272619D01*
X139640476Y-106225000D02*
X139735714Y-106272619D01*
X139735714Y-106272619D02*
X139926190Y-106272619D01*
X139926190Y-106272619D02*
X140021428Y-106225000D01*
X140021428Y-106225000D02*
X140069047Y-106177380D01*
X140069047Y-106177380D02*
X140116666Y-106082142D01*
X140116666Y-106082142D02*
X140116666Y-105796428D01*
X140116666Y-105796428D02*
X140069047Y-105701190D01*
X140069047Y-105701190D02*
X140021428Y-105653571D01*
X140021428Y-105653571D02*
X139926190Y-105605952D01*
X139926190Y-105605952D02*
X139735714Y-105605952D01*
X139735714Y-105605952D02*
X139640476Y-105653571D01*
X139069047Y-106272619D02*
X139164285Y-106225000D01*
X139164285Y-106225000D02*
X139211904Y-106177380D01*
X139211904Y-106177380D02*
X139259523Y-106082142D01*
X139259523Y-106082142D02*
X139259523Y-105796428D01*
X139259523Y-105796428D02*
X139211904Y-105701190D01*
X139211904Y-105701190D02*
X139164285Y-105653571D01*
X139164285Y-105653571D02*
X139069047Y-105605952D01*
X139069047Y-105605952D02*
X138926190Y-105605952D01*
X138926190Y-105605952D02*
X138830952Y-105653571D01*
X138830952Y-105653571D02*
X138783333Y-105701190D01*
X138783333Y-105701190D02*
X138735714Y-105796428D01*
X138735714Y-105796428D02*
X138735714Y-106082142D01*
X138735714Y-106082142D02*
X138783333Y-106177380D01*
X138783333Y-106177380D02*
X138830952Y-106225000D01*
X138830952Y-106225000D02*
X138926190Y-106272619D01*
X138926190Y-106272619D02*
X139069047Y-106272619D01*
X138307142Y-106272619D02*
X138307142Y-105605952D01*
X138307142Y-105701190D02*
X138259523Y-105653571D01*
X138259523Y-105653571D02*
X138164285Y-105605952D01*
X138164285Y-105605952D02*
X138021428Y-105605952D01*
X138021428Y-105605952D02*
X137926190Y-105653571D01*
X137926190Y-105653571D02*
X137878571Y-105748809D01*
X137878571Y-105748809D02*
X137878571Y-106272619D01*
X137878571Y-105748809D02*
X137830952Y-105653571D01*
X137830952Y-105653571D02*
X137735714Y-105605952D01*
X137735714Y-105605952D02*
X137592857Y-105605952D01*
X137592857Y-105605952D02*
X137497618Y-105653571D01*
X137497618Y-105653571D02*
X137449999Y-105748809D01*
X137449999Y-105748809D02*
X137449999Y-106272619D01*
X136259524Y-105225000D02*
X137116666Y-106510714D01*
X135926190Y-106272619D02*
X135926190Y-105272619D01*
X135926190Y-105653571D02*
X135830952Y-105605952D01*
X135830952Y-105605952D02*
X135640476Y-105605952D01*
X135640476Y-105605952D02*
X135545238Y-105653571D01*
X135545238Y-105653571D02*
X135497619Y-105701190D01*
X135497619Y-105701190D02*
X135450000Y-105796428D01*
X135450000Y-105796428D02*
X135450000Y-106082142D01*
X135450000Y-106082142D02*
X135497619Y-106177380D01*
X135497619Y-106177380D02*
X135545238Y-106225000D01*
X135545238Y-106225000D02*
X135640476Y-106272619D01*
X135640476Y-106272619D02*
X135830952Y-106272619D01*
X135830952Y-106272619D02*
X135926190Y-106225000D01*
X134592857Y-106272619D02*
X134592857Y-105748809D01*
X134592857Y-105748809D02*
X134640476Y-105653571D01*
X134640476Y-105653571D02*
X134735714Y-105605952D01*
X134735714Y-105605952D02*
X134926190Y-105605952D01*
X134926190Y-105605952D02*
X135021428Y-105653571D01*
X134592857Y-106225000D02*
X134688095Y-106272619D01*
X134688095Y-106272619D02*
X134926190Y-106272619D01*
X134926190Y-106272619D02*
X135021428Y-106225000D01*
X135021428Y-106225000D02*
X135069047Y-106129761D01*
X135069047Y-106129761D02*
X135069047Y-106034523D01*
X135069047Y-106034523D02*
X135021428Y-105939285D01*
X135021428Y-105939285D02*
X134926190Y-105891666D01*
X134926190Y-105891666D02*
X134688095Y-105891666D01*
X134688095Y-105891666D02*
X134592857Y-105844047D01*
X133688095Y-106272619D02*
X133688095Y-105272619D01*
X133688095Y-106225000D02*
X133783333Y-106272619D01*
X133783333Y-106272619D02*
X133973809Y-106272619D01*
X133973809Y-106272619D02*
X134069047Y-106225000D01*
X134069047Y-106225000D02*
X134116666Y-106177380D01*
X134116666Y-106177380D02*
X134164285Y-106082142D01*
X134164285Y-106082142D02*
X134164285Y-105796428D01*
X134164285Y-105796428D02*
X134116666Y-105701190D01*
X134116666Y-105701190D02*
X134069047Y-105653571D01*
X134069047Y-105653571D02*
X133973809Y-105605952D01*
X133973809Y-105605952D02*
X133783333Y-105605952D01*
X133783333Y-105605952D02*
X133688095Y-105653571D01*
X132783333Y-105605952D02*
X132783333Y-106415476D01*
X132783333Y-106415476D02*
X132830952Y-106510714D01*
X132830952Y-106510714D02*
X132878571Y-106558333D01*
X132878571Y-106558333D02*
X132973809Y-106605952D01*
X132973809Y-106605952D02*
X133116666Y-106605952D01*
X133116666Y-106605952D02*
X133211904Y-106558333D01*
X132783333Y-106225000D02*
X132878571Y-106272619D01*
X132878571Y-106272619D02*
X133069047Y-106272619D01*
X133069047Y-106272619D02*
X133164285Y-106225000D01*
X133164285Y-106225000D02*
X133211904Y-106177380D01*
X133211904Y-106177380D02*
X133259523Y-106082142D01*
X133259523Y-106082142D02*
X133259523Y-105796428D01*
X133259523Y-105796428D02*
X133211904Y-105701190D01*
X133211904Y-105701190D02*
X133164285Y-105653571D01*
X133164285Y-105653571D02*
X133069047Y-105605952D01*
X133069047Y-105605952D02*
X132878571Y-105605952D01*
X132878571Y-105605952D02*
X132783333Y-105653571D01*
X132307142Y-106272619D02*
X132307142Y-105605952D01*
X132307142Y-105272619D02*
X132354761Y-105320238D01*
X132354761Y-105320238D02*
X132307142Y-105367857D01*
X132307142Y-105367857D02*
X132259523Y-105320238D01*
X132259523Y-105320238D02*
X132307142Y-105272619D01*
X132307142Y-105272619D02*
X132307142Y-105367857D01*
X131830952Y-105605952D02*
X131830952Y-106272619D01*
X131830952Y-105701190D02*
X131783333Y-105653571D01*
X131783333Y-105653571D02*
X131688095Y-105605952D01*
X131688095Y-105605952D02*
X131545238Y-105605952D01*
X131545238Y-105605952D02*
X131450000Y-105653571D01*
X131450000Y-105653571D02*
X131402381Y-105748809D01*
X131402381Y-105748809D02*
X131402381Y-106272619D01*
X130545238Y-106225000D02*
X130640476Y-106272619D01*
X130640476Y-106272619D02*
X130830952Y-106272619D01*
X130830952Y-106272619D02*
X130926190Y-106225000D01*
X130926190Y-106225000D02*
X130973809Y-106129761D01*
X130973809Y-106129761D02*
X130973809Y-105748809D01*
X130973809Y-105748809D02*
X130926190Y-105653571D01*
X130926190Y-105653571D02*
X130830952Y-105605952D01*
X130830952Y-105605952D02*
X130640476Y-105605952D01*
X130640476Y-105605952D02*
X130545238Y-105653571D01*
X130545238Y-105653571D02*
X130497619Y-105748809D01*
X130497619Y-105748809D02*
X130497619Y-105844047D01*
X130497619Y-105844047D02*
X130973809Y-105939285D01*
X129688095Y-106225000D02*
X129783333Y-106272619D01*
X129783333Y-106272619D02*
X129973809Y-106272619D01*
X129973809Y-106272619D02*
X130069047Y-106225000D01*
X130069047Y-106225000D02*
X130116666Y-106129761D01*
X130116666Y-106129761D02*
X130116666Y-105748809D01*
X130116666Y-105748809D02*
X130069047Y-105653571D01*
X130069047Y-105653571D02*
X129973809Y-105605952D01*
X129973809Y-105605952D02*
X129783333Y-105605952D01*
X129783333Y-105605952D02*
X129688095Y-105653571D01*
X129688095Y-105653571D02*
X129640476Y-105748809D01*
X129640476Y-105748809D02*
X129640476Y-105844047D01*
X129640476Y-105844047D02*
X130116666Y-105939285D01*
X129211904Y-106272619D02*
X129211904Y-105605952D01*
X129211904Y-105796428D02*
X129164285Y-105701190D01*
X129164285Y-105701190D02*
X129116666Y-105653571D01*
X129116666Y-105653571D02*
X129021428Y-105605952D01*
X129021428Y-105605952D02*
X128926190Y-105605952D01*
D11*
X120445237Y-116485047D02*
X120197618Y-116485047D01*
X120197618Y-116485047D02*
X120330951Y-116637428D01*
X120330951Y-116637428D02*
X120273808Y-116637428D01*
X120273808Y-116637428D02*
X120235713Y-116656476D01*
X120235713Y-116656476D02*
X120216665Y-116675523D01*
X120216665Y-116675523D02*
X120197618Y-116713619D01*
X120197618Y-116713619D02*
X120197618Y-116808857D01*
X120197618Y-116808857D02*
X120216665Y-116846952D01*
X120216665Y-116846952D02*
X120235713Y-116866000D01*
X120235713Y-116866000D02*
X120273808Y-116885047D01*
X120273808Y-116885047D02*
X120388094Y-116885047D01*
X120388094Y-116885047D02*
X120426189Y-116866000D01*
X120426189Y-116866000D02*
X120445237Y-116846952D01*
X120083332Y-116485047D02*
X119949999Y-116885047D01*
X119949999Y-116885047D02*
X119816666Y-116485047D01*
X119721428Y-116485047D02*
X119473809Y-116485047D01*
X119473809Y-116485047D02*
X119607142Y-116637428D01*
X119607142Y-116637428D02*
X119549999Y-116637428D01*
X119549999Y-116637428D02*
X119511904Y-116656476D01*
X119511904Y-116656476D02*
X119492856Y-116675523D01*
X119492856Y-116675523D02*
X119473809Y-116713619D01*
X119473809Y-116713619D02*
X119473809Y-116808857D01*
X119473809Y-116808857D02*
X119492856Y-116846952D01*
X119492856Y-116846952D02*
X119511904Y-116866000D01*
X119511904Y-116866000D02*
X119549999Y-116885047D01*
X119549999Y-116885047D02*
X119664285Y-116885047D01*
X119664285Y-116885047D02*
X119702380Y-116866000D01*
X119702380Y-116866000D02*
X119721428Y-116846952D01*
D10*
X136261504Y-110367619D02*
X136261504Y-109367619D01*
X136261504Y-109367619D02*
X135690076Y-110367619D01*
X135690076Y-110367619D02*
X135690076Y-109367619D01*
X135356742Y-109367619D02*
X134785314Y-109367619D01*
X135071028Y-110367619D02*
X135071028Y-109367619D01*
X133880552Y-110272380D02*
X133928171Y-110320000D01*
X133928171Y-110320000D02*
X134071028Y-110367619D01*
X134071028Y-110367619D02*
X134166266Y-110367619D01*
X134166266Y-110367619D02*
X134309123Y-110320000D01*
X134309123Y-110320000D02*
X134404361Y-110224761D01*
X134404361Y-110224761D02*
X134451980Y-110129523D01*
X134451980Y-110129523D02*
X134499599Y-109939047D01*
X134499599Y-109939047D02*
X134499599Y-109796190D01*
X134499599Y-109796190D02*
X134451980Y-109605714D01*
X134451980Y-109605714D02*
X134404361Y-109510476D01*
X134404361Y-109510476D02*
X134309123Y-109415238D01*
X134309123Y-109415238D02*
X134166266Y-109367619D01*
X134166266Y-109367619D02*
X134071028Y-109367619D01*
X134071028Y-109367619D02*
X133928171Y-109415238D01*
X133928171Y-109415238D02*
X133880552Y-109462857D01*
X132928171Y-110367619D02*
X133499599Y-110367619D01*
X133213885Y-110367619D02*
X133213885Y-109367619D01*
X133213885Y-109367619D02*
X133309123Y-109510476D01*
X133309123Y-109510476D02*
X133404361Y-109605714D01*
X133404361Y-109605714D02*
X133499599Y-109653333D01*
X76938095Y-118877619D02*
X77509523Y-118877619D01*
X77223809Y-118877619D02*
X77223809Y-117877619D01*
X77223809Y-117877619D02*
X77319047Y-118020476D01*
X77319047Y-118020476D02*
X77414285Y-118115714D01*
X77414285Y-118115714D02*
X77509523Y-118163333D01*
X76557142Y-117972857D02*
X76509523Y-117925238D01*
X76509523Y-117925238D02*
X76414285Y-117877619D01*
X76414285Y-117877619D02*
X76176190Y-117877619D01*
X76176190Y-117877619D02*
X76080952Y-117925238D01*
X76080952Y-117925238D02*
X76033333Y-117972857D01*
X76033333Y-117972857D02*
X75985714Y-118068095D01*
X75985714Y-118068095D02*
X75985714Y-118163333D01*
X75985714Y-118163333D02*
X76033333Y-118306190D01*
X76033333Y-118306190D02*
X76604761Y-118877619D01*
X76604761Y-118877619D02*
X75985714Y-118877619D01*
X75699999Y-117877619D02*
X75366666Y-118877619D01*
X75366666Y-118877619D02*
X75033333Y-117877619D01*
D12*
X149045713Y-88783928D02*
X148545713Y-90283928D01*
X148545713Y-90283928D02*
X148045713Y-88783928D01*
X147045714Y-89498214D02*
X146831428Y-89569642D01*
X146831428Y-89569642D02*
X146759999Y-89641071D01*
X146759999Y-89641071D02*
X146688571Y-89783928D01*
X146688571Y-89783928D02*
X146688571Y-89998214D01*
X146688571Y-89998214D02*
X146759999Y-90141071D01*
X146759999Y-90141071D02*
X146831428Y-90212500D01*
X146831428Y-90212500D02*
X146974285Y-90283928D01*
X146974285Y-90283928D02*
X147545714Y-90283928D01*
X147545714Y-90283928D02*
X147545714Y-88783928D01*
X147545714Y-88783928D02*
X147045714Y-88783928D01*
X147045714Y-88783928D02*
X146902857Y-88855357D01*
X146902857Y-88855357D02*
X146831428Y-88926785D01*
X146831428Y-88926785D02*
X146759999Y-89069642D01*
X146759999Y-89069642D02*
X146759999Y-89212500D01*
X146759999Y-89212500D02*
X146831428Y-89355357D01*
X146831428Y-89355357D02*
X146902857Y-89426785D01*
X146902857Y-89426785D02*
X147045714Y-89498214D01*
X147045714Y-89498214D02*
X147545714Y-89498214D01*
X145402857Y-90283928D02*
X145402857Y-89498214D01*
X145402857Y-89498214D02*
X145474285Y-89355357D01*
X145474285Y-89355357D02*
X145617142Y-89283928D01*
X145617142Y-89283928D02*
X145902857Y-89283928D01*
X145902857Y-89283928D02*
X146045714Y-89355357D01*
X145402857Y-90212500D02*
X145545714Y-90283928D01*
X145545714Y-90283928D02*
X145902857Y-90283928D01*
X145902857Y-90283928D02*
X146045714Y-90212500D01*
X146045714Y-90212500D02*
X146117142Y-90069642D01*
X146117142Y-90069642D02*
X146117142Y-89926785D01*
X146117142Y-89926785D02*
X146045714Y-89783928D01*
X146045714Y-89783928D02*
X145902857Y-89712500D01*
X145902857Y-89712500D02*
X145545714Y-89712500D01*
X145545714Y-89712500D02*
X145402857Y-89641071D01*
X144902856Y-89283928D02*
X144331428Y-89283928D01*
X144688571Y-88783928D02*
X144688571Y-90069642D01*
X144688571Y-90069642D02*
X144617142Y-90212500D01*
X144617142Y-90212500D02*
X144474285Y-90283928D01*
X144474285Y-90283928D02*
X144331428Y-90283928D01*
X143831428Y-89712500D02*
X142688571Y-89712500D01*
D10*
X127785390Y-116977619D02*
X127785390Y-117691904D01*
X127785390Y-117691904D02*
X127833009Y-117834761D01*
X127833009Y-117834761D02*
X127928247Y-117930000D01*
X127928247Y-117930000D02*
X128071104Y-117977619D01*
X128071104Y-117977619D02*
X128166342Y-117977619D01*
X127356818Y-117072857D02*
X127309199Y-117025238D01*
X127309199Y-117025238D02*
X127213961Y-116977619D01*
X127213961Y-116977619D02*
X126975866Y-116977619D01*
X126975866Y-116977619D02*
X126880628Y-117025238D01*
X126880628Y-117025238D02*
X126833009Y-117072857D01*
X126833009Y-117072857D02*
X126785390Y-117168095D01*
X126785390Y-117168095D02*
X126785390Y-117263333D01*
X126785390Y-117263333D02*
X126833009Y-117406190D01*
X126833009Y-117406190D02*
X127404437Y-117977619D01*
X127404437Y-117977619D02*
X126785390Y-117977619D01*
X147225238Y-116261904D02*
X147177619Y-116166666D01*
X147177619Y-116166666D02*
X147177619Y-116023809D01*
X147177619Y-116023809D02*
X147225238Y-115880952D01*
X147225238Y-115880952D02*
X147320476Y-115785714D01*
X147320476Y-115785714D02*
X147415714Y-115738095D01*
X147415714Y-115738095D02*
X147606190Y-115690476D01*
X147606190Y-115690476D02*
X147749047Y-115690476D01*
X147749047Y-115690476D02*
X147939523Y-115738095D01*
X147939523Y-115738095D02*
X148034761Y-115785714D01*
X148034761Y-115785714D02*
X148130000Y-115880952D01*
X148130000Y-115880952D02*
X148177619Y-116023809D01*
X148177619Y-116023809D02*
X148177619Y-116119047D01*
X148177619Y-116119047D02*
X148130000Y-116261904D01*
X148130000Y-116261904D02*
X148082380Y-116309523D01*
X148082380Y-116309523D02*
X147749047Y-116309523D01*
X147749047Y-116309523D02*
X147749047Y-116119047D01*
X148177619Y-116738095D02*
X147177619Y-116738095D01*
X147177619Y-116738095D02*
X148177619Y-117309523D01*
X148177619Y-117309523D02*
X147177619Y-117309523D01*
X148177619Y-117785714D02*
X147177619Y-117785714D01*
X147177619Y-117785714D02*
X147177619Y-118023809D01*
X147177619Y-118023809D02*
X147225238Y-118166666D01*
X147225238Y-118166666D02*
X147320476Y-118261904D01*
X147320476Y-118261904D02*
X147415714Y-118309523D01*
X147415714Y-118309523D02*
X147606190Y-118357142D01*
X147606190Y-118357142D02*
X147749047Y-118357142D01*
X147749047Y-118357142D02*
X147939523Y-118309523D01*
X147939523Y-118309523D02*
X148034761Y-118261904D01*
X148034761Y-118261904D02*
X148130000Y-118166666D01*
X148130000Y-118166666D02*
X148177619Y-118023809D01*
X148177619Y-118023809D02*
X148177619Y-117785714D01*
D12*
X61705713Y-57109928D02*
X61205713Y-58609928D01*
X61205713Y-58609928D02*
X60705713Y-57109928D01*
X59705714Y-57824214D02*
X59491428Y-57895642D01*
X59491428Y-57895642D02*
X59419999Y-57967071D01*
X59419999Y-57967071D02*
X59348571Y-58109928D01*
X59348571Y-58109928D02*
X59348571Y-58324214D01*
X59348571Y-58324214D02*
X59419999Y-58467071D01*
X59419999Y-58467071D02*
X59491428Y-58538500D01*
X59491428Y-58538500D02*
X59634285Y-58609928D01*
X59634285Y-58609928D02*
X60205714Y-58609928D01*
X60205714Y-58609928D02*
X60205714Y-57109928D01*
X60205714Y-57109928D02*
X59705714Y-57109928D01*
X59705714Y-57109928D02*
X59562857Y-57181357D01*
X59562857Y-57181357D02*
X59491428Y-57252785D01*
X59491428Y-57252785D02*
X59419999Y-57395642D01*
X59419999Y-57395642D02*
X59419999Y-57538500D01*
X59419999Y-57538500D02*
X59491428Y-57681357D01*
X59491428Y-57681357D02*
X59562857Y-57752785D01*
X59562857Y-57752785D02*
X59705714Y-57824214D01*
X59705714Y-57824214D02*
X60205714Y-57824214D01*
X58062857Y-58609928D02*
X58062857Y-57824214D01*
X58062857Y-57824214D02*
X58134285Y-57681357D01*
X58134285Y-57681357D02*
X58277142Y-57609928D01*
X58277142Y-57609928D02*
X58562857Y-57609928D01*
X58562857Y-57609928D02*
X58705714Y-57681357D01*
X58062857Y-58538500D02*
X58205714Y-58609928D01*
X58205714Y-58609928D02*
X58562857Y-58609928D01*
X58562857Y-58609928D02*
X58705714Y-58538500D01*
X58705714Y-58538500D02*
X58777142Y-58395642D01*
X58777142Y-58395642D02*
X58777142Y-58252785D01*
X58777142Y-58252785D02*
X58705714Y-58109928D01*
X58705714Y-58109928D02*
X58562857Y-58038500D01*
X58562857Y-58038500D02*
X58205714Y-58038500D01*
X58205714Y-58038500D02*
X58062857Y-57967071D01*
X57562856Y-57609928D02*
X56991428Y-57609928D01*
X57348571Y-57109928D02*
X57348571Y-58395642D01*
X57348571Y-58395642D02*
X57277142Y-58538500D01*
X57277142Y-58538500D02*
X57134285Y-58609928D01*
X57134285Y-58609928D02*
X56991428Y-58609928D01*
X56491428Y-58038500D02*
X55348571Y-58038500D01*
X55919999Y-58609928D02*
X55919999Y-57467071D01*
D10*
X142001904Y-45597619D02*
X142001904Y-44597619D01*
X142001904Y-44597619D02*
X141430476Y-45597619D01*
X141430476Y-45597619D02*
X141430476Y-44597619D01*
X140954285Y-45073809D02*
X140620952Y-45073809D01*
X140478095Y-45597619D02*
X140954285Y-45597619D01*
X140954285Y-45597619D02*
X140954285Y-44597619D01*
X140954285Y-44597619D02*
X140478095Y-44597619D01*
X139525714Y-44645238D02*
X139620952Y-44597619D01*
X139620952Y-44597619D02*
X139763809Y-44597619D01*
X139763809Y-44597619D02*
X139906666Y-44645238D01*
X139906666Y-44645238D02*
X140001904Y-44740476D01*
X140001904Y-44740476D02*
X140049523Y-44835714D01*
X140049523Y-44835714D02*
X140097142Y-45026190D01*
X140097142Y-45026190D02*
X140097142Y-45169047D01*
X140097142Y-45169047D02*
X140049523Y-45359523D01*
X140049523Y-45359523D02*
X140001904Y-45454761D01*
X140001904Y-45454761D02*
X139906666Y-45550000D01*
X139906666Y-45550000D02*
X139763809Y-45597619D01*
X139763809Y-45597619D02*
X139668571Y-45597619D01*
X139668571Y-45597619D02*
X139525714Y-45550000D01*
X139525714Y-45550000D02*
X139478095Y-45502380D01*
X139478095Y-45502380D02*
X139478095Y-45169047D01*
X139478095Y-45169047D02*
X139668571Y-45169047D01*
X130040038Y-116261904D02*
X129992419Y-116166666D01*
X129992419Y-116166666D02*
X129992419Y-116023809D01*
X129992419Y-116023809D02*
X130040038Y-115880952D01*
X130040038Y-115880952D02*
X130135276Y-115785714D01*
X130135276Y-115785714D02*
X130230514Y-115738095D01*
X130230514Y-115738095D02*
X130420990Y-115690476D01*
X130420990Y-115690476D02*
X130563847Y-115690476D01*
X130563847Y-115690476D02*
X130754323Y-115738095D01*
X130754323Y-115738095D02*
X130849561Y-115785714D01*
X130849561Y-115785714D02*
X130944800Y-115880952D01*
X130944800Y-115880952D02*
X130992419Y-116023809D01*
X130992419Y-116023809D02*
X130992419Y-116119047D01*
X130992419Y-116119047D02*
X130944800Y-116261904D01*
X130944800Y-116261904D02*
X130897180Y-116309523D01*
X130897180Y-116309523D02*
X130563847Y-116309523D01*
X130563847Y-116309523D02*
X130563847Y-116119047D01*
X130992419Y-116738095D02*
X129992419Y-116738095D01*
X129992419Y-116738095D02*
X130992419Y-117309523D01*
X130992419Y-117309523D02*
X129992419Y-117309523D01*
X130992419Y-117785714D02*
X129992419Y-117785714D01*
X129992419Y-117785714D02*
X129992419Y-118023809D01*
X129992419Y-118023809D02*
X130040038Y-118166666D01*
X130040038Y-118166666D02*
X130135276Y-118261904D01*
X130135276Y-118261904D02*
X130230514Y-118309523D01*
X130230514Y-118309523D02*
X130420990Y-118357142D01*
X130420990Y-118357142D02*
X130563847Y-118357142D01*
X130563847Y-118357142D02*
X130754323Y-118309523D01*
X130754323Y-118309523D02*
X130849561Y-118261904D01*
X130849561Y-118261904D02*
X130944800Y-118166666D01*
X130944800Y-118166666D02*
X130992419Y-118023809D01*
X130992419Y-118023809D02*
X130992419Y-117785714D01*
X84635714Y-117277619D02*
X85111904Y-117277619D01*
X85111904Y-117277619D02*
X85159523Y-117753809D01*
X85159523Y-117753809D02*
X85111904Y-117706190D01*
X85111904Y-117706190D02*
X85016666Y-117658571D01*
X85016666Y-117658571D02*
X84778571Y-117658571D01*
X84778571Y-117658571D02*
X84683333Y-117706190D01*
X84683333Y-117706190D02*
X84635714Y-117753809D01*
X84635714Y-117753809D02*
X84588095Y-117849047D01*
X84588095Y-117849047D02*
X84588095Y-118087142D01*
X84588095Y-118087142D02*
X84635714Y-118182380D01*
X84635714Y-118182380D02*
X84683333Y-118230000D01*
X84683333Y-118230000D02*
X84778571Y-118277619D01*
X84778571Y-118277619D02*
X85016666Y-118277619D01*
X85016666Y-118277619D02*
X85111904Y-118230000D01*
X85111904Y-118230000D02*
X85159523Y-118182380D01*
X84302380Y-117277619D02*
X83969047Y-118277619D01*
X83969047Y-118277619D02*
X83635714Y-117277619D01*
X97469390Y-116987619D02*
X97469390Y-117701904D01*
X97469390Y-117701904D02*
X97517009Y-117844761D01*
X97517009Y-117844761D02*
X97612247Y-117940000D01*
X97612247Y-117940000D02*
X97755104Y-117987619D01*
X97755104Y-117987619D02*
X97850342Y-117987619D01*
X96469390Y-117987619D02*
X97040818Y-117987619D01*
X96755104Y-117987619D02*
X96755104Y-116987619D01*
X96755104Y-116987619D02*
X96850342Y-117130476D01*
X96850342Y-117130476D02*
X96945580Y-117225714D01*
X96945580Y-117225714D02*
X97040818Y-117273333D01*
X143076190Y-116977619D02*
X143076190Y-117691904D01*
X143076190Y-117691904D02*
X143123809Y-117834761D01*
X143123809Y-117834761D02*
X143219047Y-117930000D01*
X143219047Y-117930000D02*
X143361904Y-117977619D01*
X143361904Y-117977619D02*
X143457142Y-117977619D01*
X142695237Y-116977619D02*
X142076190Y-116977619D01*
X142076190Y-116977619D02*
X142409523Y-117358571D01*
X142409523Y-117358571D02*
X142266666Y-117358571D01*
X142266666Y-117358571D02*
X142171428Y-117406190D01*
X142171428Y-117406190D02*
X142123809Y-117453809D01*
X142123809Y-117453809D02*
X142076190Y-117549047D01*
X142076190Y-117549047D02*
X142076190Y-117787142D01*
X142076190Y-117787142D02*
X142123809Y-117882380D01*
X142123809Y-117882380D02*
X142171428Y-117930000D01*
X142171428Y-117930000D02*
X142266666Y-117977619D01*
X142266666Y-117977619D02*
X142552380Y-117977619D01*
X142552380Y-117977619D02*
X142647618Y-117930000D01*
X142647618Y-117930000D02*
X142695237Y-117882380D01*
X113053390Y-116977619D02*
X113053390Y-117691904D01*
X113053390Y-117691904D02*
X113101009Y-117834761D01*
X113101009Y-117834761D02*
X113196247Y-117930000D01*
X113196247Y-117930000D02*
X113339104Y-117977619D01*
X113339104Y-117977619D02*
X113434342Y-117977619D01*
X112148628Y-117310952D02*
X112148628Y-117977619D01*
X112386723Y-116930000D02*
X112624818Y-117644285D01*
X112624818Y-117644285D02*
X112005771Y-117644285D01*
X102022304Y-38485619D02*
X102022304Y-37485619D01*
X102022304Y-37485619D02*
X101641352Y-37485619D01*
X101641352Y-37485619D02*
X101546114Y-37533238D01*
X101546114Y-37533238D02*
X101498495Y-37580857D01*
X101498495Y-37580857D02*
X101450876Y-37676095D01*
X101450876Y-37676095D02*
X101450876Y-37818952D01*
X101450876Y-37818952D02*
X101498495Y-37914190D01*
X101498495Y-37914190D02*
X101546114Y-37961809D01*
X101546114Y-37961809D02*
X101641352Y-38009428D01*
X101641352Y-38009428D02*
X102022304Y-38009428D01*
X100831828Y-37485619D02*
X100641352Y-37485619D01*
X100641352Y-37485619D02*
X100546114Y-37533238D01*
X100546114Y-37533238D02*
X100450876Y-37628476D01*
X100450876Y-37628476D02*
X100403257Y-37818952D01*
X100403257Y-37818952D02*
X100403257Y-38152285D01*
X100403257Y-38152285D02*
X100450876Y-38342761D01*
X100450876Y-38342761D02*
X100546114Y-38438000D01*
X100546114Y-38438000D02*
X100641352Y-38485619D01*
X100641352Y-38485619D02*
X100831828Y-38485619D01*
X100831828Y-38485619D02*
X100927066Y-38438000D01*
X100927066Y-38438000D02*
X101022304Y-38342761D01*
X101022304Y-38342761D02*
X101069923Y-38152285D01*
X101069923Y-38152285D02*
X101069923Y-37818952D01*
X101069923Y-37818952D02*
X101022304Y-37628476D01*
X101022304Y-37628476D02*
X100927066Y-37533238D01*
X100927066Y-37533238D02*
X100831828Y-37485619D01*
X100022304Y-38438000D02*
X99879447Y-38485619D01*
X99879447Y-38485619D02*
X99641352Y-38485619D01*
X99641352Y-38485619D02*
X99546114Y-38438000D01*
X99546114Y-38438000D02*
X99498495Y-38390380D01*
X99498495Y-38390380D02*
X99450876Y-38295142D01*
X99450876Y-38295142D02*
X99450876Y-38199904D01*
X99450876Y-38199904D02*
X99498495Y-38104666D01*
X99498495Y-38104666D02*
X99546114Y-38057047D01*
X99546114Y-38057047D02*
X99641352Y-38009428D01*
X99641352Y-38009428D02*
X99831828Y-37961809D01*
X99831828Y-37961809D02*
X99927066Y-37914190D01*
X99927066Y-37914190D02*
X99974685Y-37866571D01*
X99974685Y-37866571D02*
X100022304Y-37771333D01*
X100022304Y-37771333D02*
X100022304Y-37676095D01*
X100022304Y-37676095D02*
X99974685Y-37580857D01*
X99974685Y-37580857D02*
X99927066Y-37533238D01*
X99927066Y-37533238D02*
X99831828Y-37485619D01*
X99831828Y-37485619D02*
X99593733Y-37485619D01*
X99593733Y-37485619D02*
X99450876Y-37533238D01*
D12*
X145519142Y-57414328D02*
X145019142Y-58914328D01*
X145019142Y-58914328D02*
X144519142Y-57414328D01*
X143519143Y-58128614D02*
X143304857Y-58200042D01*
X143304857Y-58200042D02*
X143233428Y-58271471D01*
X143233428Y-58271471D02*
X143162000Y-58414328D01*
X143162000Y-58414328D02*
X143162000Y-58628614D01*
X143162000Y-58628614D02*
X143233428Y-58771471D01*
X143233428Y-58771471D02*
X143304857Y-58842900D01*
X143304857Y-58842900D02*
X143447714Y-58914328D01*
X143447714Y-58914328D02*
X144019143Y-58914328D01*
X144019143Y-58914328D02*
X144019143Y-57414328D01*
X144019143Y-57414328D02*
X143519143Y-57414328D01*
X143519143Y-57414328D02*
X143376286Y-57485757D01*
X143376286Y-57485757D02*
X143304857Y-57557185D01*
X143304857Y-57557185D02*
X143233428Y-57700042D01*
X143233428Y-57700042D02*
X143233428Y-57842900D01*
X143233428Y-57842900D02*
X143304857Y-57985757D01*
X143304857Y-57985757D02*
X143376286Y-58057185D01*
X143376286Y-58057185D02*
X143519143Y-58128614D01*
X143519143Y-58128614D02*
X144019143Y-58128614D01*
X141876286Y-58914328D02*
X141876286Y-58128614D01*
X141876286Y-58128614D02*
X141947714Y-57985757D01*
X141947714Y-57985757D02*
X142090571Y-57914328D01*
X142090571Y-57914328D02*
X142376286Y-57914328D01*
X142376286Y-57914328D02*
X142519143Y-57985757D01*
X141876286Y-58842900D02*
X142019143Y-58914328D01*
X142019143Y-58914328D02*
X142376286Y-58914328D01*
X142376286Y-58914328D02*
X142519143Y-58842900D01*
X142519143Y-58842900D02*
X142590571Y-58700042D01*
X142590571Y-58700042D02*
X142590571Y-58557185D01*
X142590571Y-58557185D02*
X142519143Y-58414328D01*
X142519143Y-58414328D02*
X142376286Y-58342900D01*
X142376286Y-58342900D02*
X142019143Y-58342900D01*
X142019143Y-58342900D02*
X141876286Y-58271471D01*
X141376285Y-57914328D02*
X140804857Y-57914328D01*
X141162000Y-57414328D02*
X141162000Y-58700042D01*
X141162000Y-58700042D02*
X141090571Y-58842900D01*
X141090571Y-58842900D02*
X140947714Y-58914328D01*
X140947714Y-58914328D02*
X140804857Y-58914328D01*
X140304857Y-58342900D02*
X139162000Y-58342900D01*
X139733428Y-58914328D02*
X139733428Y-57771471D01*
D10*
X100169638Y-116261904D02*
X100122019Y-116166666D01*
X100122019Y-116166666D02*
X100122019Y-116023809D01*
X100122019Y-116023809D02*
X100169638Y-115880952D01*
X100169638Y-115880952D02*
X100264876Y-115785714D01*
X100264876Y-115785714D02*
X100360114Y-115738095D01*
X100360114Y-115738095D02*
X100550590Y-115690476D01*
X100550590Y-115690476D02*
X100693447Y-115690476D01*
X100693447Y-115690476D02*
X100883923Y-115738095D01*
X100883923Y-115738095D02*
X100979161Y-115785714D01*
X100979161Y-115785714D02*
X101074400Y-115880952D01*
X101074400Y-115880952D02*
X101122019Y-116023809D01*
X101122019Y-116023809D02*
X101122019Y-116119047D01*
X101122019Y-116119047D02*
X101074400Y-116261904D01*
X101074400Y-116261904D02*
X101026780Y-116309523D01*
X101026780Y-116309523D02*
X100693447Y-116309523D01*
X100693447Y-116309523D02*
X100693447Y-116119047D01*
X101122019Y-116738095D02*
X100122019Y-116738095D01*
X100122019Y-116738095D02*
X101122019Y-117309523D01*
X101122019Y-117309523D02*
X100122019Y-117309523D01*
X101122019Y-117785714D02*
X100122019Y-117785714D01*
X100122019Y-117785714D02*
X100122019Y-118023809D01*
X100122019Y-118023809D02*
X100169638Y-118166666D01*
X100169638Y-118166666D02*
X100264876Y-118261904D01*
X100264876Y-118261904D02*
X100360114Y-118309523D01*
X100360114Y-118309523D02*
X100550590Y-118357142D01*
X100550590Y-118357142D02*
X100693447Y-118357142D01*
X100693447Y-118357142D02*
X100883923Y-118309523D01*
X100883923Y-118309523D02*
X100979161Y-118261904D01*
X100979161Y-118261904D02*
X101074400Y-118166666D01*
X101074400Y-118166666D02*
X101122019Y-118023809D01*
X101122019Y-118023809D02*
X101122019Y-117785714D01*
D11*
X120026189Y-121785047D02*
X120216665Y-121785047D01*
X120216665Y-121785047D02*
X120235713Y-121975523D01*
X120235713Y-121975523D02*
X120216665Y-121956476D01*
X120216665Y-121956476D02*
X120178570Y-121937428D01*
X120178570Y-121937428D02*
X120083332Y-121937428D01*
X120083332Y-121937428D02*
X120045237Y-121956476D01*
X120045237Y-121956476D02*
X120026189Y-121975523D01*
X120026189Y-121975523D02*
X120007142Y-122013619D01*
X120007142Y-122013619D02*
X120007142Y-122108857D01*
X120007142Y-122108857D02*
X120026189Y-122146952D01*
X120026189Y-122146952D02*
X120045237Y-122166000D01*
X120045237Y-122166000D02*
X120083332Y-122185047D01*
X120083332Y-122185047D02*
X120178570Y-122185047D01*
X120178570Y-122185047D02*
X120216665Y-122166000D01*
X120216665Y-122166000D02*
X120235713Y-122146952D01*
X119892856Y-121785047D02*
X119759523Y-122185047D01*
X119759523Y-122185047D02*
X119626190Y-121785047D01*
X135645237Y-116085047D02*
X135397618Y-116085047D01*
X135397618Y-116085047D02*
X135530951Y-116237428D01*
X135530951Y-116237428D02*
X135473808Y-116237428D01*
X135473808Y-116237428D02*
X135435713Y-116256476D01*
X135435713Y-116256476D02*
X135416665Y-116275523D01*
X135416665Y-116275523D02*
X135397618Y-116313619D01*
X135397618Y-116313619D02*
X135397618Y-116408857D01*
X135397618Y-116408857D02*
X135416665Y-116446952D01*
X135416665Y-116446952D02*
X135435713Y-116466000D01*
X135435713Y-116466000D02*
X135473808Y-116485047D01*
X135473808Y-116485047D02*
X135588094Y-116485047D01*
X135588094Y-116485047D02*
X135626189Y-116466000D01*
X135626189Y-116466000D02*
X135645237Y-116446952D01*
X135283332Y-116085047D02*
X135149999Y-116485047D01*
X135149999Y-116485047D02*
X135016666Y-116085047D01*
X134921428Y-116085047D02*
X134673809Y-116085047D01*
X134673809Y-116085047D02*
X134807142Y-116237428D01*
X134807142Y-116237428D02*
X134749999Y-116237428D01*
X134749999Y-116237428D02*
X134711904Y-116256476D01*
X134711904Y-116256476D02*
X134692856Y-116275523D01*
X134692856Y-116275523D02*
X134673809Y-116313619D01*
X134673809Y-116313619D02*
X134673809Y-116408857D01*
X134673809Y-116408857D02*
X134692856Y-116446952D01*
X134692856Y-116446952D02*
X134711904Y-116466000D01*
X134711904Y-116466000D02*
X134749999Y-116485047D01*
X134749999Y-116485047D02*
X134864285Y-116485047D01*
X134864285Y-116485047D02*
X134902380Y-116466000D01*
X134902380Y-116466000D02*
X134921428Y-116446952D01*
D10*
X61839504Y-45597619D02*
X61839504Y-44597619D01*
X61839504Y-44597619D02*
X61268076Y-45597619D01*
X61268076Y-45597619D02*
X61268076Y-44597619D01*
X60791885Y-45073809D02*
X60458552Y-45073809D01*
X60315695Y-45597619D02*
X60791885Y-45597619D01*
X60791885Y-45597619D02*
X60791885Y-44597619D01*
X60791885Y-44597619D02*
X60315695Y-44597619D01*
X59363314Y-44645238D02*
X59458552Y-44597619D01*
X59458552Y-44597619D02*
X59601409Y-44597619D01*
X59601409Y-44597619D02*
X59744266Y-44645238D01*
X59744266Y-44645238D02*
X59839504Y-44740476D01*
X59839504Y-44740476D02*
X59887123Y-44835714D01*
X59887123Y-44835714D02*
X59934742Y-45026190D01*
X59934742Y-45026190D02*
X59934742Y-45169047D01*
X59934742Y-45169047D02*
X59887123Y-45359523D01*
X59887123Y-45359523D02*
X59839504Y-45454761D01*
X59839504Y-45454761D02*
X59744266Y-45550000D01*
X59744266Y-45550000D02*
X59601409Y-45597619D01*
X59601409Y-45597619D02*
X59506171Y-45597619D01*
X59506171Y-45597619D02*
X59363314Y-45550000D01*
X59363314Y-45550000D02*
X59315695Y-45502380D01*
X59315695Y-45502380D02*
X59315695Y-45169047D01*
X59315695Y-45169047D02*
X59506171Y-45169047D01*
X122414304Y-38465619D02*
X122414304Y-37465619D01*
X122414304Y-37465619D02*
X122033352Y-37465619D01*
X122033352Y-37465619D02*
X121938114Y-37513238D01*
X121938114Y-37513238D02*
X121890495Y-37560857D01*
X121890495Y-37560857D02*
X121842876Y-37656095D01*
X121842876Y-37656095D02*
X121842876Y-37798952D01*
X121842876Y-37798952D02*
X121890495Y-37894190D01*
X121890495Y-37894190D02*
X121938114Y-37941809D01*
X121938114Y-37941809D02*
X122033352Y-37989428D01*
X122033352Y-37989428D02*
X122414304Y-37989428D01*
X121223828Y-37465619D02*
X121033352Y-37465619D01*
X121033352Y-37465619D02*
X120938114Y-37513238D01*
X120938114Y-37513238D02*
X120842876Y-37608476D01*
X120842876Y-37608476D02*
X120795257Y-37798952D01*
X120795257Y-37798952D02*
X120795257Y-38132285D01*
X120795257Y-38132285D02*
X120842876Y-38322761D01*
X120842876Y-38322761D02*
X120938114Y-38418000D01*
X120938114Y-38418000D02*
X121033352Y-38465619D01*
X121033352Y-38465619D02*
X121223828Y-38465619D01*
X121223828Y-38465619D02*
X121319066Y-38418000D01*
X121319066Y-38418000D02*
X121414304Y-38322761D01*
X121414304Y-38322761D02*
X121461923Y-38132285D01*
X121461923Y-38132285D02*
X121461923Y-37798952D01*
X121461923Y-37798952D02*
X121414304Y-37608476D01*
X121414304Y-37608476D02*
X121319066Y-37513238D01*
X121319066Y-37513238D02*
X121223828Y-37465619D01*
X120414304Y-38418000D02*
X120271447Y-38465619D01*
X120271447Y-38465619D02*
X120033352Y-38465619D01*
X120033352Y-38465619D02*
X119938114Y-38418000D01*
X119938114Y-38418000D02*
X119890495Y-38370380D01*
X119890495Y-38370380D02*
X119842876Y-38275142D01*
X119842876Y-38275142D02*
X119842876Y-38179904D01*
X119842876Y-38179904D02*
X119890495Y-38084666D01*
X119890495Y-38084666D02*
X119938114Y-38037047D01*
X119938114Y-38037047D02*
X120033352Y-37989428D01*
X120033352Y-37989428D02*
X120223828Y-37941809D01*
X120223828Y-37941809D02*
X120319066Y-37894190D01*
X120319066Y-37894190D02*
X120366685Y-37846571D01*
X120366685Y-37846571D02*
X120414304Y-37751333D01*
X120414304Y-37751333D02*
X120414304Y-37656095D01*
X120414304Y-37656095D02*
X120366685Y-37560857D01*
X120366685Y-37560857D02*
X120319066Y-37513238D01*
X120319066Y-37513238D02*
X120223828Y-37465619D01*
X120223828Y-37465619D02*
X119985733Y-37465619D01*
X119985733Y-37465619D02*
X119842876Y-37513238D01*
X119330951Y-119406666D02*
X118569047Y-119406666D01*
X134105951Y-119106666D02*
X133344047Y-119106666D01*
X81753104Y-38485619D02*
X81753104Y-37485619D01*
X81753104Y-37485619D02*
X81372152Y-37485619D01*
X81372152Y-37485619D02*
X81276914Y-37533238D01*
X81276914Y-37533238D02*
X81229295Y-37580857D01*
X81229295Y-37580857D02*
X81181676Y-37676095D01*
X81181676Y-37676095D02*
X81181676Y-37818952D01*
X81181676Y-37818952D02*
X81229295Y-37914190D01*
X81229295Y-37914190D02*
X81276914Y-37961809D01*
X81276914Y-37961809D02*
X81372152Y-38009428D01*
X81372152Y-38009428D02*
X81753104Y-38009428D01*
X80562628Y-37485619D02*
X80372152Y-37485619D01*
X80372152Y-37485619D02*
X80276914Y-37533238D01*
X80276914Y-37533238D02*
X80181676Y-37628476D01*
X80181676Y-37628476D02*
X80134057Y-37818952D01*
X80134057Y-37818952D02*
X80134057Y-38152285D01*
X80134057Y-38152285D02*
X80181676Y-38342761D01*
X80181676Y-38342761D02*
X80276914Y-38438000D01*
X80276914Y-38438000D02*
X80372152Y-38485619D01*
X80372152Y-38485619D02*
X80562628Y-38485619D01*
X80562628Y-38485619D02*
X80657866Y-38438000D01*
X80657866Y-38438000D02*
X80753104Y-38342761D01*
X80753104Y-38342761D02*
X80800723Y-38152285D01*
X80800723Y-38152285D02*
X80800723Y-37818952D01*
X80800723Y-37818952D02*
X80753104Y-37628476D01*
X80753104Y-37628476D02*
X80657866Y-37533238D01*
X80657866Y-37533238D02*
X80562628Y-37485619D01*
X79753104Y-38438000D02*
X79610247Y-38485619D01*
X79610247Y-38485619D02*
X79372152Y-38485619D01*
X79372152Y-38485619D02*
X79276914Y-38438000D01*
X79276914Y-38438000D02*
X79229295Y-38390380D01*
X79229295Y-38390380D02*
X79181676Y-38295142D01*
X79181676Y-38295142D02*
X79181676Y-38199904D01*
X79181676Y-38199904D02*
X79229295Y-38104666D01*
X79229295Y-38104666D02*
X79276914Y-38057047D01*
X79276914Y-38057047D02*
X79372152Y-38009428D01*
X79372152Y-38009428D02*
X79562628Y-37961809D01*
X79562628Y-37961809D02*
X79657866Y-37914190D01*
X79657866Y-37914190D02*
X79705485Y-37866571D01*
X79705485Y-37866571D02*
X79753104Y-37771333D01*
X79753104Y-37771333D02*
X79753104Y-37676095D01*
X79753104Y-37676095D02*
X79705485Y-37580857D01*
X79705485Y-37580857D02*
X79657866Y-37533238D01*
X79657866Y-37533238D02*
X79562628Y-37485619D01*
X79562628Y-37485619D02*
X79324533Y-37485619D01*
X79324533Y-37485619D02*
X79181676Y-37533238D01*
D11*
X135226189Y-121385047D02*
X135416665Y-121385047D01*
X135416665Y-121385047D02*
X135435713Y-121575523D01*
X135435713Y-121575523D02*
X135416665Y-121556476D01*
X135416665Y-121556476D02*
X135378570Y-121537428D01*
X135378570Y-121537428D02*
X135283332Y-121537428D01*
X135283332Y-121537428D02*
X135245237Y-121556476D01*
X135245237Y-121556476D02*
X135226189Y-121575523D01*
X135226189Y-121575523D02*
X135207142Y-121613619D01*
X135207142Y-121613619D02*
X135207142Y-121708857D01*
X135207142Y-121708857D02*
X135226189Y-121746952D01*
X135226189Y-121746952D02*
X135245237Y-121766000D01*
X135245237Y-121766000D02*
X135283332Y-121785047D01*
X135283332Y-121785047D02*
X135378570Y-121785047D01*
X135378570Y-121785047D02*
X135416665Y-121766000D01*
X135416665Y-121766000D02*
X135435713Y-121746952D01*
X135092856Y-121385047D02*
X134959523Y-121785047D01*
X134959523Y-121785047D02*
X134826190Y-121385047D01*
D13*
X145093333Y-103292714D02*
X145093333Y-101492714D01*
X145093333Y-101492714D02*
X144560000Y-102778428D01*
X144560000Y-102778428D02*
X144026666Y-101492714D01*
X144026666Y-101492714D02*
X144026666Y-103292714D01*
X143264762Y-103292714D02*
X143264762Y-101492714D01*
X143264762Y-101492714D02*
X142655238Y-101492714D01*
X142655238Y-101492714D02*
X142502857Y-101578428D01*
X142502857Y-101578428D02*
X142426667Y-101664142D01*
X142426667Y-101664142D02*
X142350476Y-101835571D01*
X142350476Y-101835571D02*
X142350476Y-102092714D01*
X142350476Y-102092714D02*
X142426667Y-102264142D01*
X142426667Y-102264142D02*
X142502857Y-102349857D01*
X142502857Y-102349857D02*
X142655238Y-102435571D01*
X142655238Y-102435571D02*
X143264762Y-102435571D01*
X141740953Y-101664142D02*
X141664762Y-101578428D01*
X141664762Y-101578428D02*
X141512381Y-101492714D01*
X141512381Y-101492714D02*
X141131429Y-101492714D01*
X141131429Y-101492714D02*
X140979048Y-101578428D01*
X140979048Y-101578428D02*
X140902857Y-101664142D01*
X140902857Y-101664142D02*
X140826667Y-101835571D01*
X140826667Y-101835571D02*
X140826667Y-102007000D01*
X140826667Y-102007000D02*
X140902857Y-102264142D01*
X140902857Y-102264142D02*
X141817143Y-103292714D01*
X141817143Y-103292714D02*
X140826667Y-103292714D01*
X140140952Y-102607000D02*
X138921905Y-102607000D01*
X138160000Y-103292714D02*
X138160000Y-101492714D01*
X138160000Y-101492714D02*
X137779048Y-101492714D01*
X137779048Y-101492714D02*
X137550476Y-101578428D01*
X137550476Y-101578428D02*
X137398095Y-101749857D01*
X137398095Y-101749857D02*
X137321905Y-101921285D01*
X137321905Y-101921285D02*
X137245714Y-102264142D01*
X137245714Y-102264142D02*
X137245714Y-102521285D01*
X137245714Y-102521285D02*
X137321905Y-102864142D01*
X137321905Y-102864142D02*
X137398095Y-103035571D01*
X137398095Y-103035571D02*
X137550476Y-103207000D01*
X137550476Y-103207000D02*
X137779048Y-103292714D01*
X137779048Y-103292714D02*
X138160000Y-103292714D01*
X136026667Y-102349857D02*
X136560000Y-102349857D01*
X136560000Y-103292714D02*
X136560000Y-101492714D01*
X136560000Y-101492714D02*
X135798095Y-101492714D01*
X135188571Y-103292714D02*
X135188571Y-101492714D01*
X135188571Y-101492714D02*
X134274285Y-103292714D01*
X134274285Y-103292714D02*
X134274285Y-101492714D01*
X132445714Y-102092714D02*
X132064762Y-103292714D01*
X132064762Y-103292714D02*
X131683809Y-102092714D01*
X130769523Y-101492714D02*
X130617142Y-101492714D01*
X130617142Y-101492714D02*
X130464761Y-101578428D01*
X130464761Y-101578428D02*
X130388571Y-101664142D01*
X130388571Y-101664142D02*
X130312380Y-101835571D01*
X130312380Y-101835571D02*
X130236190Y-102178428D01*
X130236190Y-102178428D02*
X130236190Y-102607000D01*
X130236190Y-102607000D02*
X130312380Y-102949857D01*
X130312380Y-102949857D02*
X130388571Y-103121285D01*
X130388571Y-103121285D02*
X130464761Y-103207000D01*
X130464761Y-103207000D02*
X130617142Y-103292714D01*
X130617142Y-103292714D02*
X130769523Y-103292714D01*
X130769523Y-103292714D02*
X130921904Y-103207000D01*
X130921904Y-103207000D02*
X130998095Y-103121285D01*
X130998095Y-103121285D02*
X131074285Y-102949857D01*
X131074285Y-102949857D02*
X131150476Y-102607000D01*
X131150476Y-102607000D02*
X131150476Y-102178428D01*
X131150476Y-102178428D02*
X131074285Y-101835571D01*
X131074285Y-101835571D02*
X130998095Y-101664142D01*
X130998095Y-101664142D02*
X130921904Y-101578428D01*
X130921904Y-101578428D02*
X130769523Y-101492714D01*
X129550475Y-103121285D02*
X129474285Y-103207000D01*
X129474285Y-103207000D02*
X129550475Y-103292714D01*
X129550475Y-103292714D02*
X129626666Y-103207000D01*
X129626666Y-103207000D02*
X129550475Y-103121285D01*
X129550475Y-103121285D02*
X129550475Y-103292714D01*
X127950475Y-103292714D02*
X128864761Y-103292714D01*
X128407618Y-103292714D02*
X128407618Y-101492714D01*
X128407618Y-101492714D02*
X128559999Y-101749857D01*
X128559999Y-101749857D02*
X128712380Y-101921285D01*
X128712380Y-101921285D02*
X128864761Y-102007000D01*
D10*
%TO.C,D10*%
X73014285Y-113862619D02*
X73014285Y-112862619D01*
X73014285Y-112862619D02*
X72776190Y-112862619D01*
X72776190Y-112862619D02*
X72633333Y-112910238D01*
X72633333Y-112910238D02*
X72538095Y-113005476D01*
X72538095Y-113005476D02*
X72490476Y-113100714D01*
X72490476Y-113100714D02*
X72442857Y-113291190D01*
X72442857Y-113291190D02*
X72442857Y-113434047D01*
X72442857Y-113434047D02*
X72490476Y-113624523D01*
X72490476Y-113624523D02*
X72538095Y-113719761D01*
X72538095Y-113719761D02*
X72633333Y-113815000D01*
X72633333Y-113815000D02*
X72776190Y-113862619D01*
X72776190Y-113862619D02*
X73014285Y-113862619D01*
X71490476Y-113862619D02*
X72061904Y-113862619D01*
X71776190Y-113862619D02*
X71776190Y-112862619D01*
X71776190Y-112862619D02*
X71871428Y-113005476D01*
X71871428Y-113005476D02*
X71966666Y-113100714D01*
X71966666Y-113100714D02*
X72061904Y-113148333D01*
X70871428Y-112862619D02*
X70776190Y-112862619D01*
X70776190Y-112862619D02*
X70680952Y-112910238D01*
X70680952Y-112910238D02*
X70633333Y-112957857D01*
X70633333Y-112957857D02*
X70585714Y-113053095D01*
X70585714Y-113053095D02*
X70538095Y-113243571D01*
X70538095Y-113243571D02*
X70538095Y-113481666D01*
X70538095Y-113481666D02*
X70585714Y-113672142D01*
X70585714Y-113672142D02*
X70633333Y-113767380D01*
X70633333Y-113767380D02*
X70680952Y-113815000D01*
X70680952Y-113815000D02*
X70776190Y-113862619D01*
X70776190Y-113862619D02*
X70871428Y-113862619D01*
X70871428Y-113862619D02*
X70966666Y-113815000D01*
X70966666Y-113815000D02*
X71014285Y-113767380D01*
X71014285Y-113767380D02*
X71061904Y-113672142D01*
X71061904Y-113672142D02*
X71109523Y-113481666D01*
X71109523Y-113481666D02*
X71109523Y-113243571D01*
X71109523Y-113243571D02*
X71061904Y-113053095D01*
X71061904Y-113053095D02*
X71014285Y-112957857D01*
X71014285Y-112957857D02*
X70966666Y-112910238D01*
X70966666Y-112910238D02*
X70871428Y-112862619D01*
%TO.C,D8*%
X62287619Y-107511905D02*
X61287619Y-107511905D01*
X61287619Y-107511905D02*
X61287619Y-107750000D01*
X61287619Y-107750000D02*
X61335238Y-107892857D01*
X61335238Y-107892857D02*
X61430476Y-107988095D01*
X61430476Y-107988095D02*
X61525714Y-108035714D01*
X61525714Y-108035714D02*
X61716190Y-108083333D01*
X61716190Y-108083333D02*
X61859047Y-108083333D01*
X61859047Y-108083333D02*
X62049523Y-108035714D01*
X62049523Y-108035714D02*
X62144761Y-107988095D01*
X62144761Y-107988095D02*
X62240000Y-107892857D01*
X62240000Y-107892857D02*
X62287619Y-107750000D01*
X62287619Y-107750000D02*
X62287619Y-107511905D01*
X61716190Y-108654762D02*
X61668571Y-108559524D01*
X61668571Y-108559524D02*
X61620952Y-108511905D01*
X61620952Y-108511905D02*
X61525714Y-108464286D01*
X61525714Y-108464286D02*
X61478095Y-108464286D01*
X61478095Y-108464286D02*
X61382857Y-108511905D01*
X61382857Y-108511905D02*
X61335238Y-108559524D01*
X61335238Y-108559524D02*
X61287619Y-108654762D01*
X61287619Y-108654762D02*
X61287619Y-108845238D01*
X61287619Y-108845238D02*
X61335238Y-108940476D01*
X61335238Y-108940476D02*
X61382857Y-108988095D01*
X61382857Y-108988095D02*
X61478095Y-109035714D01*
X61478095Y-109035714D02*
X61525714Y-109035714D01*
X61525714Y-109035714D02*
X61620952Y-108988095D01*
X61620952Y-108988095D02*
X61668571Y-108940476D01*
X61668571Y-108940476D02*
X61716190Y-108845238D01*
X61716190Y-108845238D02*
X61716190Y-108654762D01*
X61716190Y-108654762D02*
X61763809Y-108559524D01*
X61763809Y-108559524D02*
X61811428Y-108511905D01*
X61811428Y-108511905D02*
X61906666Y-108464286D01*
X61906666Y-108464286D02*
X62097142Y-108464286D01*
X62097142Y-108464286D02*
X62192380Y-108511905D01*
X62192380Y-108511905D02*
X62240000Y-108559524D01*
X62240000Y-108559524D02*
X62287619Y-108654762D01*
X62287619Y-108654762D02*
X62287619Y-108845238D01*
X62287619Y-108845238D02*
X62240000Y-108940476D01*
X62240000Y-108940476D02*
X62192380Y-108988095D01*
X62192380Y-108988095D02*
X62097142Y-109035714D01*
X62097142Y-109035714D02*
X61906666Y-109035714D01*
X61906666Y-109035714D02*
X61811428Y-108988095D01*
X61811428Y-108988095D02*
X61763809Y-108940476D01*
X61763809Y-108940476D02*
X61716190Y-108845238D01*
D14*
%TO.C,JP1*%
X134800000Y-120950000D02*
X135400000Y-120950000D01*
X136100000Y-120300000D02*
X136100000Y-117500000D01*
X134100000Y-117500000D02*
X134100000Y-120300000D01*
X135400000Y-116850000D02*
X134800000Y-116850000D01*
X134100000Y-120250000D02*
G75*
G03*
X134800000Y-120950000I699999J-1D01*
G01*
X135400000Y-120950000D02*
G75*
G03*
X136100000Y-120250000I1J699999D01*
G01*
X134800000Y-116850000D02*
G75*
G03*
X134100000Y-117550000I0J-700000D01*
G01*
X136100000Y-117550000D02*
G75*
G03*
X135400000Y-116850000I-700000J0D01*
G01*
%TO.C,D10*%
X75310000Y-117550000D02*
X69800000Y-117550000D01*
X75310000Y-114250000D02*
X75310000Y-117550000D01*
X75310000Y-114250000D02*
X69800000Y-114250000D01*
%TO.C,JP3*%
X119650000Y-121375000D02*
X120250000Y-121375000D01*
X120950000Y-120725000D02*
X120950000Y-117925000D01*
X118950000Y-117925000D02*
X118950000Y-120725000D01*
X120250000Y-117275000D02*
X119650000Y-117275000D01*
X118950000Y-120675000D02*
G75*
G03*
X119650000Y-121375000I699999J-1D01*
G01*
X120250000Y-121375000D02*
G75*
G03*
X120950000Y-120675000I1J699999D01*
G01*
X119650000Y-117275000D02*
G75*
G03*
X118950000Y-117975000I0J-700000D01*
G01*
X120950000Y-117975000D02*
G75*
G03*
X120250000Y-117275000I-700000J0D01*
G01*
%TO.C,D8*%
X54475000Y-115160000D02*
X60975000Y-115160000D01*
X54475000Y-115160000D02*
X54475000Y-103850000D01*
X60975000Y-115160000D02*
X60975000Y-103850000D01*
%TO.C,JP2*%
X104675000Y-121400000D02*
X105275000Y-121400000D01*
X105975000Y-120750000D02*
X105975000Y-117950000D01*
X103975000Y-117950000D02*
X103975000Y-120750000D01*
X105275000Y-117300000D02*
X104675000Y-117300000D01*
X103975000Y-120700000D02*
G75*
G03*
X104675000Y-121400000I699999J-1D01*
G01*
X105275000Y-121400000D02*
G75*
G03*
X105975000Y-120700000I1J699999D01*
G01*
X104675000Y-117300000D02*
G75*
G03*
X103975000Y-118000000I0J-700000D01*
G01*
X105975000Y-118000000D02*
G75*
G03*
X105275000Y-117300000I-700000J0D01*
G01*
%TD*%
M02*
