%TF.GenerationSoftware,KiCad,Pcbnew,7.0.1-0*%
%TF.CreationDate,2023-08-30T12:53:19-04:00*%
%TF.ProjectId,MP2_DFN,4d50325f-4446-44e2-9e6b-696361645f70,rev?*%
%TF.SameCoordinates,Original*%
%TF.FileFunction,Paste,Top*%
%TF.FilePolarity,Positive*%
%FSLAX46Y46*%
G04 Gerber Fmt 4.6, Leading zero omitted, Abs format (unit mm)*
G04 Created by KiCad (PCBNEW 7.0.1-0) date 2023-08-30 12:53:19*
%MOMM*%
%LPD*%
G01*
G04 APERTURE LIST*
G04 Aperture macros list*
%AMRoundRect*
0 Rectangle with rounded corners*
0 $1 Rounding radius*
0 $2 $3 $4 $5 $6 $7 $8 $9 X,Y pos of 4 corners*
0 Add a 4 corners polygon primitive as box body*
4,1,4,$2,$3,$4,$5,$6,$7,$8,$9,$2,$3,0*
0 Add four circle primitives for the rounded corners*
1,1,$1+$1,$2,$3*
1,1,$1+$1,$4,$5*
1,1,$1+$1,$6,$7*
1,1,$1+$1,$8,$9*
0 Add four rect primitives between the rounded corners*
20,1,$1+$1,$2,$3,$4,$5,0*
20,1,$1+$1,$4,$5,$6,$7,0*
20,1,$1+$1,$6,$7,$8,$9,0*
20,1,$1+$1,$8,$9,$2,$3,0*%
%AMFreePoly0*
4,1,141,3.900040,3.725000,3.915082,3.720106,3.930902,3.720106,3.943732,3.710784,3.958812,3.705878,3.968104,3.693076,3.980902,3.683779,3.985802,3.668696,3.995118,3.655864,3.995111,3.640045,4.000000,3.625000,4.000000,2.375000,3.995106,2.359937,3.995106,2.344098,3.985796,2.331284,3.980902,2.316221,3.968088,2.306911,3.958779,2.294098,3.943715,2.289203,3.930902,2.279894,
3.915063,2.279894,3.900000,2.275000,2.850000,2.275000,2.850000,1.725000,3.900000,1.725000,3.915063,1.720106,3.930902,1.720106,3.943715,1.710796,3.958779,1.705902,3.968088,1.693088,3.980902,1.683779,3.985796,1.668715,3.995106,1.655902,3.995106,1.640063,4.000000,1.625000,4.000000,0.375000,3.995106,0.359937,3.995106,0.344098,3.985796,0.331284,3.980902,0.316221,
3.968088,0.306911,3.958779,0.294098,3.943715,0.289203,3.930902,0.279894,3.915063,0.279894,3.900000,0.275000,2.850000,0.275000,2.850000,-0.275000,3.900000,-0.275000,3.915063,-0.279894,3.930902,-0.279894,3.943715,-0.289203,3.958779,-0.294098,3.968088,-0.306911,3.980902,-0.316221,3.985796,-0.331284,3.995106,-0.344098,3.995106,-0.359937,4.000000,-0.375000,4.000000,-1.625000,
3.995106,-1.640063,3.995106,-1.655902,3.985796,-1.668715,3.980902,-1.683779,3.968088,-1.693088,3.958779,-1.705902,3.943715,-1.710796,3.930902,-1.720106,3.915063,-1.720106,3.900000,-1.725000,2.850000,-1.725000,2.850000,-2.275000,3.900000,-2.275000,3.915063,-2.279894,3.930902,-2.279894,3.943715,-2.289203,3.958779,-2.294098,3.968088,-2.306911,3.980902,-2.316221,3.985796,-2.331284,
3.995106,-2.344098,3.995106,-2.359937,4.000000,-2.375000,4.000000,-3.625000,3.995111,-3.640045,3.995118,-3.655864,3.985802,-3.668696,3.980902,-3.683779,3.968104,-3.693076,3.958812,-3.705878,3.943732,-3.710784,3.930902,-3.720106,3.915082,-3.720106,3.900040,-3.725000,2.660040,-3.725500,2.644957,-3.720606,2.629098,-3.720606,2.616300,-3.711308,2.601254,-3.706426,2.591927,-3.693600,
2.579098,-3.684279,2.574209,-3.669234,2.564906,-3.656440,2.564899,-3.640580,2.560000,-3.625500,2.560000,-3.600491,-2.750009,-3.600000,-2.765067,-3.595106,-2.780902,-3.595106,-2.793719,-3.585793,-2.808786,-3.580897,-2.818091,-3.568086,-2.830902,-3.558779,-2.835797,-3.543711,-2.845109,-3.530893,-2.845107,-3.515058,-2.850000,-3.500000,-2.850000,3.500000,-2.845107,3.515058,-2.845109,3.530893,
-2.835797,3.543711,-2.830902,3.558779,-2.818091,3.568086,-2.808786,3.580897,-2.793719,3.585793,-2.780902,3.595106,-2.765067,3.595106,-2.750009,3.600000,2.560000,3.600491,2.560000,3.625500,2.564899,3.640580,2.564906,3.656440,2.574209,3.669234,2.579098,3.684279,2.591927,3.693600,2.601254,3.706426,2.616300,3.711308,2.629098,3.720606,2.644957,3.720606,2.660040,3.725500,
3.900040,3.725000,3.900040,3.725000,$1*%
G04 Aperture macros list end*
%ADD10RoundRect,0.225000X-0.250000X0.225000X-0.250000X-0.225000X0.250000X-0.225000X0.250000X0.225000X0*%
%ADD11RoundRect,0.225000X-0.375000X0.225000X-0.375000X-0.225000X0.375000X-0.225000X0.375000X0.225000X0*%
%ADD12RoundRect,0.200000X0.275000X-0.200000X0.275000X0.200000X-0.275000X0.200000X-0.275000X-0.200000X0*%
%ADD13RoundRect,0.128750X1.546250X-1.158750X1.546250X1.158750X-1.546250X1.158750X-1.546250X-1.158750X0*%
%ADD14RoundRect,0.250000X-1.100000X0.325000X-1.100000X-0.325000X1.100000X-0.325000X1.100000X0.325000X0*%
%ADD15RoundRect,0.250000X-0.262500X-0.450000X0.262500X-0.450000X0.262500X0.450000X-0.262500X0.450000X0*%
%ADD16RoundRect,0.250000X0.450000X-0.262500X0.450000X0.262500X-0.450000X0.262500X-0.450000X-0.262500X0*%
%ADD17RoundRect,0.112500X0.112500X-0.187500X0.112500X0.187500X-0.112500X0.187500X-0.112500X-0.187500X0*%
%ADD18R,1.250000X1.280000*%
%ADD19FreePoly0,90.000000*%
%ADD20R,0.900000X0.400000*%
%ADD21RoundRect,0.225000X0.250000X-0.225000X0.250000X0.225000X-0.250000X0.225000X-0.250000X-0.225000X0*%
%ADD22RoundRect,0.200000X-0.275000X0.200000X-0.275000X-0.200000X0.275000X-0.200000X0.275000X0.200000X0*%
%ADD23RoundRect,0.200000X-0.200000X-0.275000X0.200000X-0.275000X0.200000X0.275000X-0.200000X0.275000X0*%
%ADD24RoundRect,0.250000X1.100000X-0.325000X1.100000X0.325000X-1.100000X0.325000X-1.100000X-0.325000X0*%
%ADD25RoundRect,0.250000X-0.450000X0.262500X-0.450000X-0.262500X0.450000X-0.262500X0.450000X0.262500X0*%
%ADD26RoundRect,0.225000X-0.225000X-0.250000X0.225000X-0.250000X0.225000X0.250000X-0.225000X0.250000X0*%
%ADD27RoundRect,0.200000X0.200000X0.275000X-0.200000X0.275000X-0.200000X-0.275000X0.200000X-0.275000X0*%
%ADD28R,0.400000X0.900000*%
%ADD29RoundRect,0.225000X0.225000X0.250000X-0.225000X0.250000X-0.225000X-0.250000X0.225000X-0.250000X0*%
%ADD30RoundRect,0.250000X-0.475000X0.250000X-0.475000X-0.250000X0.475000X-0.250000X0.475000X0.250000X0*%
%ADD31RoundRect,0.250000X-1.000000X-0.900000X1.000000X-0.900000X1.000000X0.900000X-1.000000X0.900000X0*%
%ADD32RoundRect,0.225000X0.225000X0.375000X-0.225000X0.375000X-0.225000X-0.375000X0.225000X-0.375000X0*%
%ADD33RoundRect,0.150000X0.825000X0.150000X-0.825000X0.150000X-0.825000X-0.150000X0.825000X-0.150000X0*%
%ADD34RoundRect,0.150000X0.150000X-0.825000X0.150000X0.825000X-0.150000X0.825000X-0.150000X-0.825000X0*%
%ADD35RoundRect,0.218750X-0.256250X0.218750X-0.256250X-0.218750X0.256250X-0.218750X0.256250X0.218750X0*%
G04 APERTURE END LIST*
D10*
%TO.C,C7*%
X101400000Y-101125000D03*
X101400000Y-102675000D03*
%TD*%
D11*
%TO.C,D2*%
X88700000Y-98150000D03*
X88700000Y-101450000D03*
%TD*%
D12*
%TO.C,R33*%
X129400000Y-102725000D03*
X129400000Y-101075000D03*
%TD*%
D10*
%TO.C,C27*%
X89125000Y-102950000D03*
X89125000Y-104500000D03*
%TD*%
D12*
%TO.C,RG11*%
X96621300Y-85531250D03*
X96621300Y-83881250D03*
%TD*%
D13*
%TO.C,SHA2*%
X80271500Y-91885800D03*
X80271500Y-87310800D03*
%TD*%
D14*
%TO.C,CD5*%
X118617000Y-71245400D03*
X118617000Y-74195400D03*
%TD*%
D12*
%TO.C,RG5*%
X64262000Y-85400550D03*
X64262000Y-83750550D03*
%TD*%
D15*
%TO.C,R7*%
X83612500Y-98050000D03*
X85437500Y-98050000D03*
%TD*%
D10*
%TO.C,C18*%
X134600000Y-101125000D03*
X134600000Y-102675000D03*
%TD*%
D16*
%TO.C,R3*%
X148367800Y-42414800D03*
X148367800Y-40589800D03*
%TD*%
D17*
%TO.C,D4*%
X123850000Y-106050000D03*
X123850000Y-103950000D03*
%TD*%
D18*
%TO.C,QA5*%
X76699000Y-68473300D03*
D19*
X79699000Y-63593300D03*
D18*
X78699000Y-68473300D03*
X80699000Y-68473300D03*
X82699000Y-68473300D03*
%TD*%
D20*
%TO.C,RN4*%
X146219000Y-112128260D03*
X146219000Y-111328260D03*
X146219000Y-110528260D03*
X146219000Y-109728260D03*
X144519000Y-109728260D03*
X144519000Y-110528260D03*
X144519000Y-111328260D03*
X144519000Y-112128260D03*
%TD*%
D21*
%TO.C,CGS16*%
X120904000Y-88392000D03*
X120904000Y-86842000D03*
%TD*%
D22*
%TO.C,R36*%
X100150000Y-110575000D03*
X100150000Y-112225000D03*
%TD*%
D18*
%TO.C,QB3*%
X98637500Y-68627200D03*
D19*
X101637500Y-63747200D03*
D18*
X100637500Y-68627200D03*
X102637500Y-68627200D03*
X104637500Y-68627200D03*
%TD*%
D12*
%TO.C,RG13*%
X118293500Y-68605400D03*
X118293500Y-66955400D03*
%TD*%
D21*
%TO.C,C23*%
X127500000Y-102675000D03*
X127500000Y-101125000D03*
%TD*%
%TO.C,CGS17*%
X129032000Y-82423000D03*
X129032000Y-80873000D03*
%TD*%
D12*
%TO.C,RG2*%
X64205000Y-68633800D03*
X64205000Y-66983800D03*
%TD*%
D18*
%TO.C,QC1*%
X120726000Y-68747800D03*
D19*
X123726000Y-63867800D03*
D18*
X122726000Y-68747800D03*
X124726000Y-68747800D03*
X126726000Y-68747800D03*
%TD*%
D10*
%TO.C,C19*%
X148650000Y-101225000D03*
X148650000Y-102775000D03*
%TD*%
D22*
%TO.C,R39*%
X119400000Y-110575000D03*
X119400000Y-112225000D03*
%TD*%
D23*
%TO.C,R20*%
X112325000Y-112050000D03*
X113975000Y-112050000D03*
%TD*%
%TO.C,R23*%
X112275000Y-106300000D03*
X113925000Y-106300000D03*
%TD*%
D24*
%TO.C,CX2*%
X65250000Y-53395200D03*
X65250000Y-50445200D03*
%TD*%
D22*
%TO.C,R37*%
X116900000Y-110575000D03*
X116900000Y-112225000D03*
%TD*%
D10*
%TO.C,CGS4*%
X85900000Y-63625000D03*
X85900000Y-65175000D03*
%TD*%
D25*
%TO.C,RS3*%
X118300000Y-79400000D03*
X118300000Y-81225000D03*
%TD*%
D12*
%TO.C,R17*%
X98400000Y-102725000D03*
X98400000Y-101075000D03*
%TD*%
D18*
%TO.C,QB1*%
X88359300Y-68635000D03*
D19*
X91359300Y-63755000D03*
D18*
X90359300Y-68635000D03*
X92359300Y-68635000D03*
X94359300Y-68635000D03*
%TD*%
D10*
%TO.C,C33*%
X120700000Y-101100000D03*
X120700000Y-102650000D03*
%TD*%
D12*
%TO.C,R35*%
X122600000Y-102725000D03*
X122600000Y-101075000D03*
%TD*%
D26*
%TO.C,CGS10*%
X54325000Y-87300000D03*
X55875000Y-87300000D03*
%TD*%
D21*
%TO.C,CGS12*%
X74600000Y-82100000D03*
X74600000Y-80550000D03*
%TD*%
D18*
%TO.C,QC4*%
X131202600Y-84736400D03*
D19*
X134202600Y-79856400D03*
D18*
X133202600Y-84736400D03*
X135202600Y-84736400D03*
X137202600Y-84736400D03*
%TD*%
D12*
%TO.C,R27*%
X99900000Y-102725000D03*
X99900000Y-101075000D03*
%TD*%
%TO.C,R32*%
X101710000Y-106025000D03*
X101710000Y-104375000D03*
%TD*%
D27*
%TO.C,R22*%
X117250000Y-105700000D03*
X115600000Y-105700000D03*
%TD*%
D23*
%TO.C,R43*%
X90655000Y-110555000D03*
X92305000Y-110555000D03*
%TD*%
D12*
%TO.C,RG8*%
X96526400Y-68619600D03*
X96526400Y-66969600D03*
%TD*%
%TO.C,R40*%
X147100000Y-106925000D03*
X147100000Y-105275000D03*
%TD*%
D18*
%TO.C,QA3*%
X66377500Y-68473300D03*
D19*
X69377500Y-63593300D03*
D18*
X68377500Y-68473300D03*
X70377500Y-68473300D03*
X72377500Y-68473300D03*
%TD*%
D25*
%TO.C,R14*%
X148291600Y-44349000D03*
X148291600Y-46174000D03*
%TD*%
D28*
%TO.C,RN2*%
X125750000Y-110500000D03*
X124950000Y-110500000D03*
X124150000Y-110500000D03*
X123350000Y-110500000D03*
X123350000Y-112200000D03*
X124150000Y-112200000D03*
X124950000Y-112200000D03*
X125750000Y-112200000D03*
%TD*%
D21*
%TO.C,CGS18*%
X139319000Y-82375000D03*
X139319000Y-80825000D03*
%TD*%
%TO.C,C6*%
X147869000Y-112153260D03*
X147869000Y-110603260D03*
%TD*%
D10*
%TO.C,CGS5*%
X96500000Y-64025000D03*
X96500000Y-65575000D03*
%TD*%
D12*
%TO.C,RG1*%
X53778200Y-68873600D03*
X53778200Y-67223600D03*
%TD*%
D22*
%TO.C,R29*%
X101800000Y-110575000D03*
X101800000Y-112225000D03*
%TD*%
D12*
%TO.C,RG12*%
X106934000Y-85468250D03*
X106934000Y-83818250D03*
%TD*%
%TO.C,R34*%
X126000000Y-102725000D03*
X126000000Y-101075000D03*
%TD*%
D13*
%TO.C,SHB1*%
X92322300Y-92047500D03*
X92322300Y-87472500D03*
%TD*%
D10*
%TO.C,CGS7*%
X118300000Y-63950000D03*
X118300000Y-65500000D03*
%TD*%
D13*
%TO.C,SHA1*%
X60459500Y-91885800D03*
X60459500Y-87310800D03*
%TD*%
D12*
%TO.C,R48*%
X82125000Y-108950000D03*
X82125000Y-107300000D03*
%TD*%
D21*
%TO.C,C10*%
X88630000Y-115695000D03*
X88630000Y-114145000D03*
%TD*%
D25*
%TO.C,RS2*%
X85670000Y-78877500D03*
X85670000Y-80702500D03*
%TD*%
D28*
%TO.C,RN3*%
X135769000Y-110478260D03*
X134969000Y-110478260D03*
X134169000Y-110478260D03*
X133369000Y-110478260D03*
X133369000Y-112178260D03*
X134169000Y-112178260D03*
X134969000Y-112178260D03*
X135769000Y-112178260D03*
%TD*%
D12*
%TO.C,R50*%
X89125000Y-108975000D03*
X89125000Y-107325000D03*
%TD*%
D18*
%TO.C,QB4*%
X98724400Y-84696500D03*
D19*
X101724400Y-79816500D03*
D18*
X100724400Y-84696500D03*
X102724400Y-84696500D03*
X104724400Y-84696500D03*
%TD*%
D13*
%TO.C,SHB3*%
X112642300Y-92047500D03*
X112642300Y-87472500D03*
%TD*%
D10*
%TO.C,CGS3*%
X74500000Y-64025000D03*
X74500000Y-65575000D03*
%TD*%
D12*
%TO.C,R16*%
X102900000Y-102725000D03*
X102900000Y-101075000D03*
%TD*%
%TO.C,R25*%
X107625000Y-102725000D03*
X107625000Y-101075000D03*
%TD*%
D17*
%TO.C,D5*%
X127250000Y-106050000D03*
X127250000Y-103950000D03*
%TD*%
D24*
%TO.C,CX3*%
X69000000Y-53395200D03*
X69000000Y-50445200D03*
%TD*%
D12*
%TO.C,R24*%
X104550000Y-102725000D03*
X104550000Y-101075000D03*
%TD*%
D15*
%TO.C,R5*%
X76687500Y-98100000D03*
X78512500Y-98100000D03*
%TD*%
D12*
%TO.C,R28*%
X131669000Y-109115760D03*
X131669000Y-107465760D03*
%TD*%
D20*
%TO.C,RN1*%
X140669000Y-109728260D03*
X140669000Y-110528260D03*
X140669000Y-111328260D03*
X140669000Y-112128260D03*
X142369000Y-112128260D03*
X142369000Y-111328260D03*
X142369000Y-110528260D03*
X142369000Y-109728260D03*
%TD*%
D12*
%TO.C,R31*%
X110750000Y-106675000D03*
X110750000Y-105025000D03*
%TD*%
D21*
%TO.C,C15*%
X140250000Y-102675000D03*
X140250000Y-101125000D03*
%TD*%
D13*
%TO.C,SHA3*%
X70365500Y-91885800D03*
X70365500Y-87310800D03*
%TD*%
%TO.C,SHC3*%
X145342000Y-92007900D03*
X145342000Y-87432900D03*
%TD*%
D12*
%TO.C,RG16*%
X118410000Y-84620000D03*
X118410000Y-82970000D03*
%TD*%
D23*
%TO.C,R19*%
X112325000Y-110450000D03*
X113975000Y-110450000D03*
%TD*%
D12*
%TO.C,R6*%
X119100000Y-102725000D03*
X119100000Y-101075000D03*
%TD*%
D14*
%TO.C,CD4*%
X114020700Y-71158000D03*
X114020700Y-74108000D03*
%TD*%
%TO.C,CD3*%
X81692800Y-70713800D03*
X81692800Y-73663800D03*
%TD*%
D21*
%TO.C,C14*%
X138700000Y-102675000D03*
X138700000Y-101125000D03*
%TD*%
D26*
%TO.C,C20*%
X110775000Y-108550000D03*
X112325000Y-108550000D03*
%TD*%
D12*
%TO.C,R52*%
X96150000Y-108975000D03*
X96150000Y-107325000D03*
%TD*%
D10*
%TO.C,CGS8*%
X128900000Y-64150000D03*
X128900000Y-65700000D03*
%TD*%
D29*
%TO.C,C17*%
X138975000Y-112200000D03*
X137425000Y-112200000D03*
%TD*%
D10*
%TO.C,C26*%
X82119000Y-102950000D03*
X82119000Y-104500000D03*
%TD*%
%TO.C,C29*%
X117600000Y-101150000D03*
X117600000Y-102700000D03*
%TD*%
D13*
%TO.C,SHB2*%
X102450000Y-92047500D03*
X102450000Y-87472500D03*
%TD*%
D21*
%TO.C,C24*%
X124100000Y-102675000D03*
X124100000Y-101125000D03*
%TD*%
D12*
%TO.C,R15*%
X145650000Y-102825000D03*
X145650000Y-101175000D03*
%TD*%
D24*
%TO.C,CX5*%
X89000000Y-53395200D03*
X89000000Y-50445200D03*
%TD*%
D30*
%TO.C,CS1*%
X53620000Y-76460000D03*
X53620000Y-78360000D03*
%TD*%
D22*
%TO.C,R30*%
X110750000Y-110425000D03*
X110750000Y-112075000D03*
%TD*%
D31*
%TO.C,D7*%
X51150000Y-93800000D03*
X55450000Y-93800000D03*
%TD*%
D10*
%TO.C,CGS15*%
X106900000Y-80650000D03*
X106900000Y-82200000D03*
%TD*%
D21*
%TO.C,C25*%
X98500000Y-112175000D03*
X98500000Y-110625000D03*
%TD*%
D24*
%TO.C,CX8*%
X125750000Y-53395200D03*
X125750000Y-50445200D03*
%TD*%
D22*
%TO.C,R9*%
X130169000Y-107465760D03*
X130169000Y-109115760D03*
%TD*%
D26*
%TO.C,C3*%
X92200000Y-101450000D03*
X93750000Y-101450000D03*
%TD*%
D11*
%TO.C,D1*%
X81600000Y-98150000D03*
X81600000Y-101450000D03*
%TD*%
D10*
%TO.C,CGS14*%
X96600000Y-80900000D03*
X96600000Y-82450000D03*
%TD*%
D23*
%TO.C,R45*%
X85125000Y-99900000D03*
X86775000Y-99900000D03*
%TD*%
D18*
%TO.C,QC3*%
X131114600Y-68747800D03*
D19*
X134114600Y-63867800D03*
D18*
X133114600Y-68747800D03*
X135114600Y-68747800D03*
X137114600Y-68747800D03*
%TD*%
D12*
%TO.C,R38*%
X147150000Y-102825000D03*
X147150000Y-101175000D03*
%TD*%
D21*
%TO.C,CGS11*%
X64262000Y-82300000D03*
X64262000Y-80750000D03*
%TD*%
D23*
%TO.C,R21*%
X115325000Y-107500000D03*
X116975000Y-107500000D03*
%TD*%
D24*
%TO.C,CX20*%
X145750000Y-53395200D03*
X145750000Y-50445200D03*
%TD*%
D17*
%TO.C,D6*%
X130650000Y-106050000D03*
X130650000Y-103950000D03*
%TD*%
D21*
%TO.C,C8*%
X90155000Y-115695000D03*
X90155000Y-114145000D03*
%TD*%
D12*
%TO.C,RG18*%
X139319000Y-85555650D03*
X139319000Y-83905650D03*
%TD*%
D10*
%TO.C,CGS6*%
X106900000Y-63950000D03*
X106900000Y-65500000D03*
%TD*%
D12*
%TO.C,RG4*%
X53956000Y-85878400D03*
X53956000Y-84228400D03*
%TD*%
%TO.C,RG3*%
X74506500Y-68630450D03*
X74506500Y-66980450D03*
%TD*%
D10*
%TO.C,C30*%
X114400000Y-101150000D03*
X114400000Y-102700000D03*
%TD*%
D26*
%TO.C,C1*%
X78125000Y-101400000D03*
X79675000Y-101400000D03*
%TD*%
D21*
%TO.C,C12*%
X79700000Y-111950000D03*
X79700000Y-110400000D03*
%TD*%
D12*
%TO.C,RG17*%
X129031000Y-85618650D03*
X129031000Y-83968650D03*
%TD*%
D22*
%TO.C,R49*%
X83675000Y-99825000D03*
X83675000Y-101475000D03*
%TD*%
D26*
%TO.C,C2*%
X85175000Y-101425000D03*
X86725000Y-101425000D03*
%TD*%
D12*
%TO.C,RG6*%
X74506500Y-85337550D03*
X74506500Y-83687550D03*
%TD*%
%TO.C,RG9*%
X106940400Y-68594200D03*
X106940400Y-66944200D03*
%TD*%
%TO.C,R26*%
X109150000Y-102700000D03*
X109150000Y-101050000D03*
%TD*%
D23*
%TO.C,R42*%
X94225000Y-110545000D03*
X95875000Y-110545000D03*
%TD*%
D12*
%TO.C,R67*%
X95000000Y-115725000D03*
X95000000Y-114075000D03*
%TD*%
D10*
%TO.C,CGS2*%
X64200000Y-64050000D03*
X64200000Y-65600000D03*
%TD*%
D21*
%TO.C,C22*%
X130900000Y-102675000D03*
X130900000Y-101125000D03*
%TD*%
D12*
%TO.C,TH1*%
X96650000Y-78750000D03*
X96650000Y-77100000D03*
%TD*%
D30*
%TO.C,C5*%
X51200000Y-85050000D03*
X51200000Y-86950000D03*
%TD*%
%TO.C,CS2*%
X85670000Y-75380000D03*
X85670000Y-77280000D03*
%TD*%
D11*
%TO.C,D3*%
X95650000Y-98175000D03*
X95650000Y-101475000D03*
%TD*%
D18*
%TO.C,QC5*%
X141427000Y-68747800D03*
D19*
X144427000Y-63867800D03*
D18*
X143427000Y-68747800D03*
X145427000Y-68747800D03*
X147427000Y-68747800D03*
%TD*%
D12*
%TO.C,R11*%
X112850000Y-102675000D03*
X112850000Y-101025000D03*
%TD*%
D18*
%TO.C,QA2*%
X56003500Y-84475300D03*
D19*
X59003500Y-79595300D03*
D18*
X58003500Y-84475300D03*
X60003500Y-84475300D03*
X62003500Y-84475300D03*
%TD*%
D23*
%TO.C,R44*%
X78075000Y-99850000D03*
X79725000Y-99850000D03*
%TD*%
D21*
%TO.C,C13*%
X78175000Y-111950000D03*
X78175000Y-110400000D03*
%TD*%
D12*
%TO.C,RG15*%
X139191000Y-68848550D03*
X139191000Y-67198550D03*
%TD*%
D23*
%TO.C,R18*%
X115325000Y-109000000D03*
X116975000Y-109000000D03*
%TD*%
D22*
%TO.C,R41*%
X106100000Y-101075000D03*
X106100000Y-102725000D03*
%TD*%
D12*
%TO.C,R4*%
X145600000Y-106925000D03*
X145600000Y-105275000D03*
%TD*%
D10*
%TO.C,C28*%
X96150000Y-102950000D03*
X96150000Y-104500000D03*
%TD*%
D21*
%TO.C,C11*%
X76650000Y-111950000D03*
X76650000Y-110400000D03*
%TD*%
%TO.C,C16*%
X141800000Y-102675000D03*
X141800000Y-101125000D03*
%TD*%
D18*
%TO.C,QA1*%
X56003500Y-68473300D03*
D19*
X59003500Y-63593300D03*
D18*
X58003500Y-68473300D03*
X60003500Y-68473300D03*
X62003500Y-68473300D03*
%TD*%
D25*
%TO.C,RS1*%
X53638500Y-79946200D03*
X53638500Y-81771200D03*
%TD*%
D22*
%TO.C,RG10*%
X85900000Y-82975000D03*
X85900000Y-84625000D03*
%TD*%
D12*
%TO.C,RG7*%
X85858400Y-68187800D03*
X85858400Y-66537800D03*
%TD*%
D18*
%TO.C,QA4*%
X66377500Y-84475300D03*
D19*
X69377500Y-79595300D03*
D18*
X68377500Y-84475300D03*
X70377500Y-84475300D03*
X72377500Y-84475300D03*
%TD*%
D22*
%TO.C,R47*%
X76650000Y-99850000D03*
X76650000Y-101500000D03*
%TD*%
D10*
%TO.C,CGS9*%
X139200000Y-64200000D03*
X139200000Y-65750000D03*
%TD*%
D28*
%TO.C,RN7*%
X86300000Y-112200000D03*
X87100000Y-112200000D03*
X87900000Y-112200000D03*
X88700000Y-112200000D03*
X88700000Y-110500000D03*
X87900000Y-110500000D03*
X87100000Y-110500000D03*
X86300000Y-110500000D03*
%TD*%
D24*
%TO.C,CX6*%
X105500000Y-53395200D03*
X105500000Y-50445200D03*
%TD*%
D18*
%TO.C,QB5*%
X109175600Y-68611400D03*
D19*
X112175600Y-63731400D03*
D18*
X111175600Y-68611400D03*
X113175600Y-68611400D03*
X115175600Y-68611400D03*
%TD*%
D24*
%TO.C,CX4*%
X85250000Y-53395200D03*
X85250000Y-50445200D03*
%TD*%
D13*
%TO.C,SHC2*%
X134844000Y-92007900D03*
X134844000Y-87432900D03*
%TD*%
D23*
%TO.C,R46*%
X92150000Y-99925000D03*
X93800000Y-99925000D03*
%TD*%
D32*
%TO.C,D11*%
X84675000Y-111575000D03*
X81375000Y-111575000D03*
%TD*%
D22*
%TO.C,R12*%
X138419000Y-106703260D03*
X138419000Y-108353260D03*
%TD*%
D33*
%TO.C,U4*%
X108725000Y-112070000D03*
X108725000Y-110800000D03*
X108725000Y-109530000D03*
X108725000Y-108260000D03*
X108725000Y-106990000D03*
X108725000Y-105720000D03*
X108725000Y-104450000D03*
X103775000Y-104450000D03*
X103775000Y-105720000D03*
X103775000Y-106990000D03*
X103775000Y-108260000D03*
X103775000Y-109530000D03*
X103775000Y-110800000D03*
X103775000Y-112070000D03*
%TD*%
D30*
%TO.C,CS3*%
X118330000Y-75920000D03*
X118330000Y-77820000D03*
%TD*%
D34*
%TO.C,U1*%
X76714000Y-108400000D03*
X77984000Y-108400000D03*
X79254000Y-108400000D03*
X80524000Y-108400000D03*
X80524000Y-103450000D03*
X79254000Y-103450000D03*
X77984000Y-103450000D03*
X76714000Y-103450000D03*
%TD*%
D18*
%TO.C,QB6*%
X109133700Y-84637000D03*
D19*
X112133700Y-79757000D03*
D18*
X111133700Y-84637000D03*
X113133700Y-84637000D03*
X115133700Y-84637000D03*
%TD*%
D10*
%TO.C,C4*%
X148600000Y-105325000D03*
X148600000Y-106875000D03*
%TD*%
D34*
%TO.C,U2*%
X83720000Y-108400000D03*
X84990000Y-108400000D03*
X86260000Y-108400000D03*
X87530000Y-108400000D03*
X87530000Y-103450000D03*
X86260000Y-103450000D03*
X84990000Y-103450000D03*
X83720000Y-103450000D03*
%TD*%
D35*
%TO.C,D9*%
X93300000Y-114100000D03*
X93300000Y-115675000D03*
%TD*%
D18*
%TO.C,QA6*%
X76831500Y-84475300D03*
D19*
X79831500Y-79595300D03*
D18*
X78831500Y-84475300D03*
X80831500Y-84475300D03*
X82831500Y-84475300D03*
%TD*%
D21*
%TO.C,C9*%
X91680000Y-115695000D03*
X91680000Y-114145000D03*
%TD*%
D12*
%TO.C,RG14*%
X128889500Y-68851900D03*
X128889500Y-67201900D03*
%TD*%
D18*
%TO.C,QB2*%
X88296800Y-84637000D03*
D19*
X91296800Y-79757000D03*
D18*
X90296800Y-84637000D03*
X92296800Y-84637000D03*
X94296800Y-84637000D03*
%TD*%
D28*
%TO.C,RN5*%
X129369000Y-112190760D03*
X130169000Y-112190760D03*
X130969000Y-112190760D03*
X131769000Y-112190760D03*
X131769000Y-110490760D03*
X130969000Y-110490760D03*
X130169000Y-110490760D03*
X129369000Y-110490760D03*
%TD*%
D18*
%TO.C,QC2*%
X120825800Y-84736400D03*
D19*
X123825800Y-79856400D03*
D18*
X122825800Y-84736400D03*
X124825800Y-84736400D03*
X126825800Y-84736400D03*
%TD*%
D24*
%TO.C,CX1*%
X51000000Y-54600000D03*
X51000000Y-51650000D03*
%TD*%
D22*
%TO.C,R51*%
X90700000Y-99875000D03*
X90700000Y-101525000D03*
%TD*%
D10*
%TO.C,C32*%
X110700000Y-101125000D03*
X110700000Y-102675000D03*
%TD*%
D21*
%TO.C,CGS1*%
X53594000Y-65304000D03*
X53594000Y-63754000D03*
%TD*%
D10*
%TO.C,C21*%
X137150000Y-101125000D03*
X137150000Y-102675000D03*
%TD*%
D25*
%TO.C,R1*%
X51600000Y-65975000D03*
X51600000Y-67800000D03*
%TD*%
D13*
%TO.C,SHC1*%
X125022000Y-92007900D03*
X125022000Y-87432900D03*
%TD*%
D24*
%TO.C,CX9*%
X129250000Y-53395200D03*
X129250000Y-50445200D03*
%TD*%
D14*
%TO.C,CD2*%
X85655200Y-70766400D03*
X85655200Y-73716400D03*
%TD*%
D18*
%TO.C,QC6*%
X141508000Y-84736400D03*
D19*
X144508000Y-79856400D03*
D18*
X143508000Y-84736400D03*
X145508000Y-84736400D03*
X147508000Y-84736400D03*
%TD*%
D24*
%TO.C,CX7*%
X109000000Y-53395200D03*
X109000000Y-50445200D03*
%TD*%
D34*
%TO.C,U3*%
X90745000Y-108425000D03*
X92015000Y-108425000D03*
X93285000Y-108425000D03*
X94555000Y-108425000D03*
X94555000Y-103475000D03*
X93285000Y-103475000D03*
X92015000Y-103475000D03*
X90745000Y-103475000D03*
%TD*%
D10*
%TO.C,CGS13*%
X89408000Y-86614000D03*
X89408000Y-88164000D03*
%TD*%
D14*
%TO.C,CD6*%
X152729300Y-64884900D03*
X152729300Y-67834900D03*
%TD*%
D22*
%TO.C,R13*%
X127200000Y-110525000D03*
X127200000Y-112175000D03*
%TD*%
D15*
%TO.C,R10*%
X90700000Y-98075000D03*
X92525000Y-98075000D03*
%TD*%
D16*
%TO.C,R2*%
X51628200Y-64087500D03*
X51628200Y-62262500D03*
%TD*%
D12*
%TO.C,R8*%
X116100000Y-102725000D03*
X116100000Y-101075000D03*
%TD*%
M02*
