%TF.GenerationSoftware,KiCad,Pcbnew,7.0.2-0*%
%TF.CreationDate,2023-08-29T20:24:27-04:00*%
%TF.ProjectId,MP2_DFN,4d50325f-4446-44e2-9e6b-696361645f70,rev?*%
%TF.SameCoordinates,Original*%
%TF.FileFunction,Soldermask,Bot*%
%TF.FilePolarity,Negative*%
%FSLAX46Y46*%
G04 Gerber Fmt 4.6, Leading zero omitted, Abs format (unit mm)*
G04 Created by KiCad (PCBNEW 7.0.2-0) date 2023-08-29 20:24:27*
%MOMM*%
%LPD*%
G01*
G04 APERTURE LIST*
G04 Aperture macros list*
%AMRoundRect*
0 Rectangle with rounded corners*
0 $1 Rounding radius*
0 $2 $3 $4 $5 $6 $7 $8 $9 X,Y pos of 4 corners*
0 Add a 4 corners polygon primitive as box body*
4,1,4,$2,$3,$4,$5,$6,$7,$8,$9,$2,$3,0*
0 Add four circle primitives for the rounded corners*
1,1,$1+$1,$2,$3*
1,1,$1+$1,$4,$5*
1,1,$1+$1,$6,$7*
1,1,$1+$1,$8,$9*
0 Add four rect primitives between the rounded corners*
20,1,$1+$1,$2,$3,$4,$5,0*
20,1,$1+$1,$4,$5,$6,$7,0*
20,1,$1+$1,$6,$7,$8,$9,0*
20,1,$1+$1,$8,$9,$2,$3,0*%
%AMFreePoly0*
4,1,21,0.540000,-0.740000,0.007966,-0.740000,0.007071,-0.737840,0.000000,-0.734911,-0.069719,-0.734911,-0.203510,-0.695626,-0.320814,-0.620239,-0.412128,-0.514857,-0.470052,-0.388020,-0.490000,-0.249286,-0.490000,0.249286,-0.470052,0.388020,-0.412128,0.514857,-0.320814,0.620239,-0.203510,0.695626,-0.069719,0.734911,0.000000,0.734911,0.007071,0.737840,0.007966,0.740000,0.540000,0.740000,
0.540000,-0.740000,0.540000,-0.740000,$1*%
%AMFreePoly1*
4,1,21,-0.007071,0.737840,0.000000,0.734911,0.069719,0.734911,0.203510,0.695626,0.320814,0.620239,0.412128,0.514857,0.470052,0.388020,0.490000,0.249286,0.490000,-0.249286,0.470052,-0.388020,0.412128,-0.514857,0.320814,-0.620239,0.203510,-0.695626,0.069719,-0.734911,0.000000,-0.734911,-0.007071,-0.737840,-0.007966,-0.740000,-0.540000,-0.740000,-0.540000,0.740000,-0.007966,0.740000,
-0.007071,0.737840,-0.007071,0.737840,$1*%
G04 Aperture macros list end*
%ADD10C,0.150000*%
%ADD11C,5.050000*%
%ADD12C,6.078332*%
%ADD13C,1.980000*%
%ADD14C,0.780000*%
%ADD15C,2.480000*%
%ADD16RoundRect,0.240000X0.350000X0.625000X-0.350000X0.625000X-0.350000X-0.625000X0.350000X-0.625000X0*%
%ADD17O,1.180000X1.730000*%
%ADD18R,2.380000X2.380000*%
%ADD19C,2.380000*%
%ADD20C,2.980000*%
%ADD21C,1.380000*%
%ADD22O,1.380000X1.380000*%
%ADD23C,1.504000*%
%ADD24FreePoly0,90.000000*%
%ADD25R,1.480000X0.980000*%
%ADD26FreePoly1,90.000000*%
%ADD27RoundRect,0.240000X1.000000X0.650000X-1.000000X0.650000X-1.000000X-0.650000X1.000000X-0.650000X0*%
%ADD28R,5.980000X3.980000*%
%ADD29RoundRect,0.240000X-1.400000X-2.000000X1.400000X-2.000000X1.400000X2.000000X-1.400000X2.000000X0*%
G04 APERTURE END LIST*
D10*
X53682500Y-52200000D02*
X152817500Y-52200000D01*
X152817500Y-56243600D01*
X53682500Y-56243600D01*
X53682500Y-52200000D01*
G36*
X53682500Y-52200000D02*
G01*
X152817500Y-52200000D01*
X152817500Y-56243600D01*
X53682500Y-56243600D01*
X53682500Y-52200000D01*
G37*
X53682500Y-91406400D02*
X152817500Y-91406400D01*
X152817500Y-95450000D01*
X53682500Y-95450000D01*
X53682500Y-91406400D01*
G36*
X53682500Y-91406400D02*
G01*
X152817500Y-91406400D01*
X152817500Y-95450000D01*
X53682500Y-95450000D01*
X53682500Y-91406400D01*
G37*
X120637300Y-70057000D02*
X143737300Y-70057000D01*
X143737300Y-75057000D01*
X120637300Y-75057000D01*
X120637300Y-70057000D01*
G36*
X120637300Y-70057000D02*
G01*
X143737300Y-70057000D01*
X143737300Y-75057000D01*
X120637300Y-75057000D01*
X120637300Y-70057000D01*
G37*
X88430800Y-70057000D02*
X111530800Y-70057000D01*
X111530800Y-75057000D01*
X88430800Y-75057000D01*
X88430800Y-70057000D01*
G36*
X88430800Y-70057000D02*
G01*
X111530800Y-70057000D01*
X111530800Y-75057000D01*
X88430800Y-75057000D01*
X88430800Y-70057000D01*
G37*
D11*
X157525000Y-56650000D02*
G75*
G03*
X157525000Y-56650000I-2525000J0D01*
G01*
D12*
X158039166Y-56650000D02*
G75*
G03*
X158039166Y-56650000I-3039166J0D01*
G01*
X158039166Y-91000000D02*
G75*
G03*
X158039166Y-91000000I-3039166J0D01*
G01*
D10*
X56147400Y-70057000D02*
X79247400Y-70057000D01*
X79247400Y-75057000D01*
X56147400Y-75057000D01*
X56147400Y-70057000D01*
G36*
X56147400Y-70057000D02*
G01*
X79247400Y-70057000D01*
X79247400Y-75057000D01*
X56147400Y-75057000D01*
X56147400Y-70057000D01*
G37*
D11*
X157525000Y-91000000D02*
G75*
G03*
X157525000Y-91000000I-2525000J0D01*
G01*
D13*
%TO.C,TpGND1*%
X76750000Y-91030000D03*
%TD*%
D14*
%TO.C,QA5*%
X76699000Y-60403300D03*
X76699000Y-62153300D03*
X76699000Y-63903300D03*
X76699000Y-65653300D03*
X78699000Y-60403300D03*
X78699000Y-62153300D03*
X78699000Y-63903300D03*
X78699000Y-65653300D03*
X80699000Y-60403300D03*
X80699000Y-62153300D03*
X80699000Y-63903300D03*
X80699000Y-65653300D03*
X82699000Y-60403300D03*
X82699000Y-62153300D03*
X82699000Y-63903300D03*
X82699000Y-65653300D03*
%TD*%
%TO.C,QB3*%
X98637500Y-60557200D03*
X98637500Y-62307200D03*
X98637500Y-64057200D03*
X98637500Y-65807200D03*
X100637500Y-60557200D03*
X100637500Y-62307200D03*
X100637500Y-64057200D03*
X100637500Y-65807200D03*
X102637500Y-60557200D03*
X102637500Y-62307200D03*
X102637500Y-64057200D03*
X102637500Y-65807200D03*
X104637500Y-60557200D03*
X104637500Y-62307200D03*
X104637500Y-64057200D03*
X104637500Y-65807200D03*
%TD*%
%TO.C,QC1*%
X120726000Y-60677800D03*
X120726000Y-62427800D03*
X120726000Y-64177800D03*
X120726000Y-65927800D03*
X122726000Y-60677800D03*
X122726000Y-62427800D03*
X122726000Y-64177800D03*
X122726000Y-65927800D03*
X124726000Y-60677800D03*
X124726000Y-62427800D03*
X124726000Y-64177800D03*
X124726000Y-65927800D03*
X126726000Y-60677800D03*
X126726000Y-62427800D03*
X126726000Y-64177800D03*
X126726000Y-65927800D03*
%TD*%
D15*
%TO.C,U6*%
X52654000Y-111813260D03*
X52654000Y-106733260D03*
X72974000Y-99113260D03*
X72974000Y-119433260D03*
%TD*%
D14*
%TO.C,QB1*%
X88359300Y-60565000D03*
X88359300Y-62315000D03*
X88359300Y-64065000D03*
X88359300Y-65815000D03*
X90359300Y-60565000D03*
X90359300Y-62315000D03*
X90359300Y-64065000D03*
X90359300Y-65815000D03*
X92359300Y-60565000D03*
X92359300Y-62315000D03*
X92359300Y-64065000D03*
X92359300Y-65815000D03*
X94359300Y-60565000D03*
X94359300Y-62315000D03*
X94359300Y-64065000D03*
X94359300Y-65815000D03*
%TD*%
%TO.C,QC4*%
X131202600Y-76666400D03*
X131202600Y-78416400D03*
X131202600Y-80166400D03*
X131202600Y-81916400D03*
X133202600Y-76666400D03*
X133202600Y-78416400D03*
X133202600Y-80166400D03*
X133202600Y-81916400D03*
X135202600Y-76666400D03*
X135202600Y-78416400D03*
X135202600Y-80166400D03*
X135202600Y-81916400D03*
X137202600Y-76666400D03*
X137202600Y-78416400D03*
X137202600Y-80166400D03*
X137202600Y-81916400D03*
%TD*%
D16*
%TO.C,J4*%
X117700000Y-119700000D03*
D17*
X115700000Y-119700000D03*
X113700000Y-119700000D03*
X111700000Y-119700000D03*
X109700000Y-119700000D03*
X107700000Y-119700000D03*
%TD*%
D18*
%TO.C,CR1*%
X57350000Y-38000000D03*
D19*
X57350000Y-45500000D03*
%TD*%
D20*
%TO.C,TpGND4*%
X72569000Y-106778260D03*
%TD*%
D14*
%TO.C,QA3*%
X66377500Y-60403300D03*
X66377500Y-62153300D03*
X66377500Y-63903300D03*
X66377500Y-65653300D03*
X68377500Y-60403300D03*
X68377500Y-62153300D03*
X68377500Y-63903300D03*
X68377500Y-65653300D03*
X70377500Y-60403300D03*
X70377500Y-62153300D03*
X70377500Y-63903300D03*
X70377500Y-65653300D03*
X72377500Y-60403300D03*
X72377500Y-62153300D03*
X72377500Y-63903300D03*
X72377500Y-65653300D03*
%TD*%
D13*
%TO.C,TpGND2*%
X109100000Y-91100000D03*
%TD*%
D14*
%TO.C,QB4*%
X98724400Y-76626500D03*
X98724400Y-78376500D03*
X98724400Y-80126500D03*
X98724400Y-81876500D03*
X100724400Y-76626500D03*
X100724400Y-78376500D03*
X100724400Y-80126500D03*
X100724400Y-81876500D03*
X102724400Y-76626500D03*
X102724400Y-78376500D03*
X102724400Y-80126500D03*
X102724400Y-81876500D03*
X104724400Y-76626500D03*
X104724400Y-78376500D03*
X104724400Y-80126500D03*
X104724400Y-81876500D03*
%TD*%
D16*
%TO.C,J2*%
X132600000Y-119700000D03*
D17*
X130600000Y-119700000D03*
X128600000Y-119700000D03*
X126600000Y-119700000D03*
X124600000Y-119700000D03*
X122600000Y-119700000D03*
%TD*%
D13*
%TO.C,U7*%
X79320000Y-119675000D03*
X81860000Y-119675000D03*
X84400000Y-119675000D03*
%TD*%
D16*
%TO.C,J1*%
X102800000Y-119700000D03*
D17*
X100800000Y-119700000D03*
X98800000Y-119700000D03*
X96800000Y-119700000D03*
X94800000Y-119700000D03*
X92800000Y-119700000D03*
X90800000Y-119700000D03*
%TD*%
D14*
%TO.C,QC3*%
X131114600Y-60677800D03*
X131114600Y-62427800D03*
X131114600Y-64177800D03*
X131114600Y-65927800D03*
X133114600Y-60677800D03*
X133114600Y-62427800D03*
X133114600Y-64177800D03*
X133114600Y-65927800D03*
X135114600Y-60677800D03*
X135114600Y-62427800D03*
X135114600Y-64177800D03*
X135114600Y-65927800D03*
X137114600Y-60677800D03*
X137114600Y-62427800D03*
X137114600Y-64177800D03*
X137114600Y-65927800D03*
%TD*%
D18*
%TO.C,CR2*%
X77350000Y-38000000D03*
D19*
X77350000Y-45500000D03*
%TD*%
D14*
%TO.C,QC5*%
X141427000Y-60677800D03*
X141427000Y-62427800D03*
X141427000Y-64177800D03*
X141427000Y-65927800D03*
X143427000Y-60677800D03*
X143427000Y-62427800D03*
X143427000Y-64177800D03*
X143427000Y-65927800D03*
X145427000Y-60677800D03*
X145427000Y-62427800D03*
X145427000Y-64177800D03*
X145427000Y-65927800D03*
X147427000Y-60677800D03*
X147427000Y-62427800D03*
X147427000Y-64177800D03*
X147427000Y-65927800D03*
%TD*%
D18*
%TO.C,CR3*%
X97350000Y-38000000D03*
D19*
X97350000Y-45500000D03*
%TD*%
D14*
%TO.C,QA2*%
X56003500Y-76405300D03*
X56003500Y-78155300D03*
X56003500Y-79905300D03*
X56003500Y-81655300D03*
X58003500Y-76405300D03*
X58003500Y-78155300D03*
X58003500Y-79905300D03*
X58003500Y-81655300D03*
X60003500Y-76405300D03*
X60003500Y-78155300D03*
X60003500Y-79905300D03*
X60003500Y-81655300D03*
X62003500Y-76405300D03*
X62003500Y-78155300D03*
X62003500Y-79905300D03*
X62003500Y-81655300D03*
%TD*%
D13*
%TO.C,TpGND3*%
X141800000Y-90900000D03*
%TD*%
D14*
%TO.C,QA1*%
X56003500Y-60403300D03*
X56003500Y-62153300D03*
X56003500Y-63903300D03*
X56003500Y-65653300D03*
X58003500Y-60403300D03*
X58003500Y-62153300D03*
X58003500Y-63903300D03*
X58003500Y-65653300D03*
X60003500Y-60403300D03*
X60003500Y-62153300D03*
X60003500Y-63903300D03*
X60003500Y-65653300D03*
X62003500Y-60403300D03*
X62003500Y-62153300D03*
X62003500Y-63903300D03*
X62003500Y-65653300D03*
%TD*%
D21*
%TO.C,NTC1*%
X133914000Y-108678260D03*
D22*
X135814000Y-108678260D03*
%TD*%
D14*
%TO.C,QA4*%
X66377500Y-76405300D03*
X66377500Y-78155300D03*
X66377500Y-79905300D03*
X66377500Y-81655300D03*
X68377500Y-76405300D03*
X68377500Y-78155300D03*
X68377500Y-79905300D03*
X68377500Y-81655300D03*
X70377500Y-76405300D03*
X70377500Y-78155300D03*
X70377500Y-79905300D03*
X70377500Y-81655300D03*
X72377500Y-76405300D03*
X72377500Y-78155300D03*
X72377500Y-79905300D03*
X72377500Y-81655300D03*
%TD*%
D23*
%TO.C,U5*%
X147329000Y-99028260D03*
X144789000Y-99028260D03*
X142249000Y-99028260D03*
X139709000Y-99028260D03*
X137169000Y-99028260D03*
X134629000Y-99028260D03*
X132089000Y-99028260D03*
X129549000Y-99028260D03*
X127009000Y-99028260D03*
X124469000Y-99028260D03*
X121929000Y-99028260D03*
X119389000Y-99028260D03*
X116849000Y-99028260D03*
X114309000Y-99028260D03*
X111769000Y-99028260D03*
X109229000Y-99028260D03*
X106689000Y-99028260D03*
X104149000Y-99028260D03*
X101609000Y-99028260D03*
X99069000Y-99028260D03*
X99069000Y-114268260D03*
X101609000Y-114268260D03*
X104149000Y-114268260D03*
X106689000Y-114268260D03*
X109229000Y-114268260D03*
X111769000Y-114268260D03*
X114285395Y-114278253D03*
X116849000Y-114268260D03*
X119389000Y-114268260D03*
X121929000Y-114268260D03*
X124469000Y-114268260D03*
X127009000Y-114268260D03*
X129549000Y-114268260D03*
X132089000Y-114268260D03*
X134629000Y-114268260D03*
X137169000Y-114268260D03*
X139709000Y-114268260D03*
X142249000Y-114268260D03*
X144789000Y-114268260D03*
X147329000Y-114268260D03*
%TD*%
D14*
%TO.C,QB5*%
X109175600Y-60541400D03*
X109175600Y-62291400D03*
X109175600Y-64041400D03*
X109175600Y-65791400D03*
X111175600Y-60541400D03*
X111175600Y-62291400D03*
X111175600Y-64041400D03*
X111175600Y-65791400D03*
X113175600Y-60541400D03*
X113175600Y-62291400D03*
X113175600Y-64041400D03*
X113175600Y-65791400D03*
X115175600Y-60541400D03*
X115175600Y-62291400D03*
X115175600Y-64041400D03*
X115175600Y-65791400D03*
%TD*%
%TO.C,QB6*%
X109133700Y-76567000D03*
X109133700Y-78317000D03*
X109133700Y-80067000D03*
X109133700Y-81817000D03*
X111133700Y-76567000D03*
X111133700Y-78317000D03*
X111133700Y-80067000D03*
X111133700Y-81817000D03*
X113133700Y-76567000D03*
X113133700Y-78317000D03*
X113133700Y-80067000D03*
X113133700Y-81817000D03*
X115133700Y-76567000D03*
X115133700Y-78317000D03*
X115133700Y-80067000D03*
X115133700Y-81817000D03*
%TD*%
%TO.C,QA6*%
X76831500Y-76405300D03*
X76831500Y-78155300D03*
X76831500Y-79905300D03*
X76831500Y-81655300D03*
X78831500Y-76405300D03*
X78831500Y-78155300D03*
X78831500Y-79905300D03*
X78831500Y-81655300D03*
X80831500Y-76405300D03*
X80831500Y-78155300D03*
X80831500Y-79905300D03*
X80831500Y-81655300D03*
X82831500Y-76405300D03*
X82831500Y-78155300D03*
X82831500Y-79905300D03*
X82831500Y-81655300D03*
%TD*%
%TO.C,QB2*%
X88296800Y-76567000D03*
X88296800Y-78317000D03*
X88296800Y-80067000D03*
X88296800Y-81817000D03*
X90296800Y-76567000D03*
X90296800Y-78317000D03*
X90296800Y-80067000D03*
X90296800Y-81817000D03*
X92296800Y-76567000D03*
X92296800Y-78317000D03*
X92296800Y-80067000D03*
X92296800Y-81817000D03*
X94296800Y-76567000D03*
X94296800Y-78317000D03*
X94296800Y-80067000D03*
X94296800Y-81817000D03*
%TD*%
%TO.C,QC2*%
X120825800Y-76666400D03*
X120825800Y-78416400D03*
X120825800Y-80166400D03*
X120825800Y-81916400D03*
X122825800Y-76666400D03*
X122825800Y-78416400D03*
X122825800Y-80166400D03*
X122825800Y-81916400D03*
X124825800Y-76666400D03*
X124825800Y-78416400D03*
X124825800Y-80166400D03*
X124825800Y-81916400D03*
X126825800Y-76666400D03*
X126825800Y-78416400D03*
X126825800Y-80166400D03*
X126825800Y-81916400D03*
%TD*%
D16*
%TO.C,J3*%
X147500000Y-119700000D03*
D17*
X145500000Y-119700000D03*
X143500000Y-119700000D03*
X141500000Y-119700000D03*
X139500000Y-119700000D03*
X137500000Y-119700000D03*
%TD*%
D18*
%TO.C,CR5*%
X137350000Y-38000000D03*
D19*
X137350000Y-45500000D03*
%TD*%
D14*
%TO.C,QC6*%
X141508000Y-76666400D03*
X141508000Y-78416400D03*
X141508000Y-80166400D03*
X141508000Y-81916400D03*
X143508000Y-76666400D03*
X143508000Y-78416400D03*
X143508000Y-80166400D03*
X143508000Y-81916400D03*
X145508000Y-76666400D03*
X145508000Y-78416400D03*
X145508000Y-80166400D03*
X145508000Y-81916400D03*
X147508000Y-76666400D03*
X147508000Y-78416400D03*
X147508000Y-80166400D03*
X147508000Y-81916400D03*
%TD*%
D18*
%TO.C,CR4*%
X117350000Y-38000000D03*
D19*
X117350000Y-45500000D03*
%TD*%
D15*
%TO.C,Tp12V1*%
X52700000Y-116800000D03*
%TD*%
D24*
%TO.C,JP1*%
X135100000Y-120200000D03*
D25*
X135100000Y-118900000D03*
D26*
X135100000Y-117600000D03*
%TD*%
D27*
%TO.C,D10*%
X73800000Y-115900000D03*
X69800000Y-115900000D03*
%TD*%
D28*
%TO.C,PHA_1*%
X59290000Y-72500000D03*
%TD*%
%TO.C,PHB_2*%
X108500000Y-72500000D03*
%TD*%
%TO.C,PHC_2*%
X140850000Y-72500000D03*
%TD*%
%TO.C,PHC_1*%
X123983100Y-72500000D03*
%TD*%
D24*
%TO.C,JP3*%
X119950000Y-120625000D03*
D25*
X119950000Y-119325000D03*
D26*
X119950000Y-118025000D03*
%TD*%
D28*
%TO.C,PHB_1*%
X91802000Y-72500000D03*
%TD*%
%TO.C,PHA_2*%
X76054000Y-72500000D03*
%TD*%
D29*
%TO.C,D8*%
X57725000Y-112650000D03*
X57725000Y-103850000D03*
%TD*%
D24*
%TO.C,JP2*%
X104975000Y-120650000D03*
D25*
X104975000Y-119350000D03*
D26*
X104975000Y-118050000D03*
%TD*%
M02*
