  0
SECTION
  2
HEADER
  9
$ACADVER
  1
AC1014
  9
$ACADMAINTVER
 70
     9
  9
$DWGCODEPAGE
  3
ANSI_1252
  9
$INSBASE
 10
0.0
 20
0.0
 30
0.0
  9
$EXTMIN
 10
-64.75095517745063
 20
-41.54325805064617
 30
0.0
  9
$EXTMAX
 10
-39.530491541777
 20
-16.91653578671744
 30
0.0
  9
$LIMMIN
 10
0.0
 20
0.0
  9
$LIMMAX
 10
12.0
 20
9.0
  9
$ORTHOMODE
 70
     0
  9
$REGENMODE
 70
     1
  9
$FILLMODE
 70
     1
  9
$QTEXTMODE
 70
     0
  9
$MIRRTEXT
 70
     1
  9
$DRAGMODE
 70
     2
  9
$LTSCALE
 40
1.0
  9
$OSMODE
 70
    37
  9
$ATTMODE
 70
     1
  9
$TEXTSIZE
 40
0.2
  9
$TRACEWID
 40
0.05
  9
$TEXTSTYLE
  7
STANDARD
  9
$CLAYER
  8
DEFAULT
  9
$CELTYPE
  6
BYLAYER
  9
$CECOLOR
 62
   256
  9
$CELTSCALE
 40
1.0
  9
$DELOBJ
 70
     1
  9
$DISPSILH
 70
     0
  9
$DIMSCALE
 40
1.0
  9
$DIMASZ
 40
0.18
  9
$DIMEXO
 40
0.0625
  9
$DIMDLI
 40
0.38
  9
$DIMRND
 40
0.0
  9
$DIMDLE
 40
0.0
  9
$DIMEXE
 40
0.18
  9
$DIMTP
 40
0.0
  9
$DIMTM
 40
0.0
  9
$DIMTXT
 40
0.18
  9
$DIMCEN
 40
0.09
  9
$DIMTSZ
 40
0.0
  9
$DIMTOL
 70
     0
  9
$DIMLIM
 70
     0
  9
$DIMTIH
 70
     1
  9
$DIMTOH
 70
     1
  9
$DIMSE1
 70
     0
  9
$DIMSE2
 70
     0
  9
$DIMTAD
 70
     0
  9
$DIMZIN
 70
     0
  9
$DIMBLK
  1

  9
$DIMASO
 70
     1
  9
$DIMSHO
 70
     1
  9
$DIMPOST
  1

  9
$DIMAPOST
  1

  9
$DIMALT
 70
     0
  9
$DIMALTD
 70
     2
  9
$DIMALTF
 40
25.4
  9
$DIMLFAC
 40
1.0
  9
$DIMTOFL
 70
     0
  9
$DIMTVP
 40
0.0
  9
$DIMTIX
 70
     0
  9
$DIMSOXD
 70
     0
  9
$DIMSAH
 70
     0
  9
$DIMBLK1
  1

  9
$DIMBLK2
  1

  9
$DIMSTYLE
  2
STANDARD_ACAD
  9
$DIMCLRD
 70
     0
  9
$DIMCLRE
 70
     0
  9
$DIMCLRT
 70
     0
  9
$DIMTFAC
 40
1.0
  9
$DIMGAP
 40
0.09
  9
$DIMJUST
 70
     0
  9
$DIMSD1
 70
     0
  9
$DIMSD2
 70
     0
  9
$DIMTOLJ
 70
     1
  9
$DIMTZIN
 70
     0
  9
$DIMALTZ
 70
     0
  9
$DIMALTTZ
 70
     0
  9
$DIMFIT
 70
     5
  9
$DIMUPT
 70
     0
  9
$DIMUNIT
 70
     2
  9
$DIMDEC
 70
     4
  9
$DIMTDEC
 70
     4
  9
$DIMALTU
 70
     2
  9
$DIMALTTD
 70
     2
  9
$DIMTXSTY
  7
STANDARD
  9
$DIMAUNIT
 70
     0
  9
$LUNITS
 70
     2
  9
$LUPREC
 70
     3
  9
$SKETCHINC
 40
0.1
  9
$FILLETRAD
 40
0.0
  9
$AUNITS
 70
     0
  9
$AUPREC
 70
     0
  9
$MENU
  1
.
  9
$ELEVATION
 40
0.0
  9
$PELEVATION
 40
0.0
  9
$THICKNESS
 40
0.0
  9
$LIMCHECK
 70
     0
  9
$CHAMFERA
 40
0.0
  9
$CHAMFERB
 40
0.0
  9
$CHAMFERC
 40
0.0
  9
$CHAMFERD
 40
0.0
  9
$SKPOLY
 70
     0
  9
$TDCREATE
 40
2460244.844641563
  9
$TDUPDATE
 40
2460244.844663357
  9
$TDINDWG
 40
0.0000000116
  9
$TDUSRTIMER
 40
0.0000000116
  9
$USRTIMER
 70
     1
  9
$ANGBASE
 50
0.0
  9
$ANGDIR
 70
     0
  9
$PDMODE
 70
     0
  9
$PDSIZE
 40
0.0
  9
$PLINEWID
 40
0.0
  9
$COORDS
 70
     1
  9
$SPLFRAME
 70
     0
  9
$SPLINETYPE
 70
     6
  9
$SPLINESEGS
 70
     8
  9
$ATTDIA
 70
     0
  9
$ATTREQ
 70
     1
  9
$HANDLING
 70
     1
  9
$HANDSEED
  5
13C
  9
$SURFTAB1
 70
     6
  9
$SURFTAB2
 70
     6
  9
$SURFTYPE
 70
     6
  9
$SURFU
 70
     6
  9
$SURFV
 70
     6
  9
$UCSNAME
  2

  9
$UCSORG
 10
0.0
 20
0.0
 30
0.0
  9
$UCSXDIR
 10
1.0
 20
0.0
 30
0.0
  9
$UCSYDIR
 10
0.0
 20
1.0
 30
0.0
  9
$PUCSNAME
  2

  9
$PUCSORG
 10
0.0
 20
0.0
 30
0.0
  9
$PUCSXDIR
 10
1.0
 20
0.0
 30
0.0
  9
$PUCSYDIR
 10
0.0
 20
1.0
 30
0.0
  9
$USERI1
 70
     0
  9
$USERI2
 70
     0
  9
$USERI3
 70
     0
  9
$USERI4
 70
     0
  9
$USERI5
 70
     0
  9
$USERR1
 40
0.0
  9
$USERR2
 40
0.0
  9
$USERR3
 40
0.0
  9
$USERR4
 40
0.0
  9
$USERR5
 40
0.0
  9
$WORLDVIEW
 70
     1
  9
$SHADEDGE
 70
     3
  9
$SHADEDIF
 70
    70
  9
$TILEMODE
 70
     1
  9
$MAXACTVP
 70
    64
  9
$PINSBASE
 10
0.0
 20
0.0
 30
0.0
  9
$PLIMCHECK
 70
     0
  9
$PEXTMIN
 10
1.000000000000000E+20
 20
1.000000000000000E+20
 30
1.000000000000000E+20
  9
$PEXTMAX
 10
-1.000000000000000E+20
 20
-1.000000000000000E+20
 30
-1.000000000000000E+20
  9
$PLIMMIN
 10
0.0
 20
0.0
  9
$PLIMMAX
 10
12.0
 20
9.0
  9
$UNITMODE
 70
     0
  9
$VISRETAIN
 70
     1
  9
$PLINEGEN
 70
     0
  9
$PSLTSCALE
 70
     1
  9
$TREEDEPTH
 70
  3020
  9
$PICKSTYLE
 70
     1
  9
$CMLSTYLE
  2
STANDARD
  9
$CMLJUST
 70
     0
  9
$CMLSCALE
 40
1.0
  9
$PROXYGRAPHICS
 70
     1
  9
$MEASUREMENT
 70
     1
  0
ENDSEC
  0
SECTION
  2
CLASSES
  0
CLASS
  1
ACDBDICTIONARYWDFLT
  2
AcDbDictionaryWithDefault
  3
ObjectDBX Classes
 90
        0
280
     0
281
     0
  0
CLASS
  1
VISUALSTYLE
  2
AcDbVisualStyle
  3
ObjectDBX Classes
 90
     4095
280
     0
281
     0
  0
CLASS
  1
MATERIAL
  2
AcDbMaterial
  3
ObjectDBX Classes
 90
     1153
280
     0
281
     0
  0
CLASS
  1
SCALE
  2
AcDbScale
  3
ObjectDBX Classes
 90
     1153
280
     0
281
     0
  0
CLASS
  1
TABLESTYLE
  2
AcDbTableStyle
  3
ObjectDBX Classes
 90
     4095
280
     0
281
     0
  0
CLASS
  1
MLEADERSTYLE
  2
AcDbMLeaderStyle
  3
ACDB_MLEADERSTYLE_CLASS
 90
     4095
280
     0
281
     0
  0
CLASS
  1
SUN
  2
AcDbSun
  3
SCENEOE
 90
     1153
280
     0
281
     0
  0
CLASS
  1
DICTIONARYVAR
  2
AcDbDictionaryVar
  3
ObjectDBX Classes
 90
        0
280
     0
281
     0
  0
CLASS
  1
XRECORD
  2
AcDbXrecord
  3
ObjectDBX Classes
 90
        0
280
     0
281
     0
  0
CLASS
  1
LWPOLYLINE
  2
AcDbPolyline
  3
ObjectDBX Classes
 90
        0
280
     0
281
     1
  0
CLASS
  1
HATCH
  2
AcDbHatch
  3
ObjectDBX Classes
 90
        0
280
     0
281
     1
  0
CLASS
  1
ACDBPLACEHOLDER
  2
AcDbPlaceHolder
  3
ObjectDBX Classes
 90
        0
280
     0
281
     0
  0
CLASS
  1
LAYOUT
  2
AcDbLayout
  3
ObjectDBX Classes
 90
        0
280
     0
281
     0
  0
ENDSEC
  0
SECTION
  2
TABLES
  0
TABLE
  2
VPORT
  5
8
102
{ACAD_XDICTIONARY
360
131
102
}
330
0
100
AcDbSymbolTable
 70
     1
  0
VPORT
  5
29
330
8
100
AcDbSymbolTableRecord
100
AcDbViewportTableRecord
  2
*ACTIVE
 70
     0
 10
0.0
 20
0.0
 11
1.0
 21
1.0
 12
10.42990654205607
 22
4.5
 13
0.0
 23
0.0
 14
0.5
 24
0.5
 15
0.5
 25
0.5
 16
0.0
 26
0.0
 36
1.0
 17
0.0
 27
0.0
 37
0.0
 40
9.0
 41
1.972972972850329
 42
50.0
 43
0.0
 44
0.0
 50
0.0
 51
0.0
 71
     0
 72
   100
 73
     1
 74
     3
 75
     0
 76
     0
 77
     0
 78
     0
  0
ENDTAB
  0
TABLE
  2
LTYPE
  5
5
330
0
100
AcDbSymbolTable
 70
     1
  0
LTYPE
  5
14
330
5
100
AcDbSymbolTableRecord
100
AcDbLinetypeTableRecord
  2
BYBLOCK
 70
     0
  3

 72
    65
 73
     0
 40
0.0
  0
LTYPE
  5
15
330
5
100
AcDbSymbolTableRecord
100
AcDbLinetypeTableRecord
  2
BYLAYER
 70
     0
  3

 72
    65
 73
     0
 40
0.0
  0
LTYPE
  5
16
330
5
100
AcDbSymbolTableRecord
100
AcDbLinetypeTableRecord
  2
CONTINUOUS
 70
     0
  3
Solid line
 72
    65
 73
     0
 40
0.0
  0
ENDTAB
  0
TABLE
  2
LAYER
  5
2
330
0
100
AcDbSymbolTable
 70
     2
  0
LAYER
  5
10
330
2
100
AcDbSymbolTableRecord
100
AcDbLayerTableRecord
  2
0
 70
     0
 62
     7
  6
CONTINUOUS
  0
LAYER
  5
5F
330
2
100
AcDbSymbolTableRecord
100
AcDbLayerTableRecord
  2
DEFAULT
 70
     0
 62
    18
  6
CONTINUOUS
  0
ENDTAB
  0
TABLE
  2
STYLE
  5
3
330
0
100
AcDbSymbolTable
 70
     1
  0
STYLE
  5
11
330
3
100
AcDbSymbolTableRecord
100
AcDbTextStyleTableRecord
  2
STANDARD
 70
     0
 40
0.0
 41
1.0
 50
0.0
 71
     0
 42
0.2
  3
txt
  4

  0
ENDTAB
  0
TABLE
  2
VIEW
  5
6
330
0
100
AcDbSymbolTable
 70
     0
  0
ENDTAB
  0
TABLE
  2
UCS
  5
7
330
0
100
AcDbSymbolTable
 70
     0
  0
ENDTAB
  0
TABLE
  2
APPID
  5
9
330
0
100
AcDbSymbolTable
 70
     3
  0
APPID
  5
12
330
9
100
AcDbSymbolTableRecord
100
AcDbRegAppTableRecord
  2
ACAD
 70
     0
  0
APPID
  5
5E
330
9
100
AcDbSymbolTableRecord
100
AcDbRegAppTableRecord
  2
RHINO
 70
     0
  0
APPID
  5
13B
330
9
100
AcDbSymbolTableRecord
100
AcDbRegAppTableRecord
  2
ACAD_MLEADERVER
 70
     0
  0
ENDTAB
  0
TABLE
  2
DIMSTYLE
  5
A
330
0
100
AcDbSymbolTable
 70
     1
  0
DIMSTYLE
105
27
330
A
100
AcDbSymbolTableRecord
100
AcDbDimStyleTableRecord
  2
STANDARD_ACAD
 70
     0
  3

  4

  5

  6

  7

 40
1.0
 41
0.18
 42
0.0625
 43
0.38
 44
0.18
 45
0.0
 46
0.0
 47
0.0
 48
0.0
140
0.18
141
0.09
142
0.0
143
25.4
144
1.0
145
0.0
146
1.0
147
0.09
 71
     0
 72
     0
 73
     1
 74
     1
 75
     0
 76
     0
 77
     0
 78
     0
170
     0
171
     2
172
     0
173
     0
174
     0
175
     0
176
     0
177
     0
178
     0
270
     2
271
     4
272
     4
273
     2
274
     2
340
11
275
     0
280
     0
281
     0
282
     0
283
     1
284
     0
285
     0
286
     0
287
     3
288
     0
  0
ENDTAB
  0
TABLE
  2
BLOCK_RECORD
  5
1
330
0
100
AcDbSymbolTable
 70
     0
  0
BLOCK_RECORD
  5
1F
330
1
100
AcDbSymbolTableRecord
100
AcDbBlockTableRecord
  2
*MODEL_SPACE
  0
BLOCK_RECORD
  5
1B
330
1
100
AcDbSymbolTableRecord
100
AcDbBlockTableRecord
  2
*PAPER_SPACE
  0
ENDTAB
  0
ENDSEC
  0
SECTION
  2
BLOCKS
  0
BLOCK
  5
20
330
1F
100
AcDbEntity
  8
0
100
AcDbBlockBegin
  2
*MODEL_SPACE
 70
     0
 10
0.0
 20
0.0
 30
0.0
  3
*MODEL_SPACE
  1

  0
ENDBLK
  5
21
330
1F
100
AcDbEntity
  8
0
100
AcDbBlockEnd
  0
BLOCK
  5
1C
330
1B
100
AcDbEntity
 67
     1
  8
0
100
AcDbBlockBegin
  2
*PAPER_SPACE
 70
     0
 10
0.0
 20
0.0
 30
0.0
  3
*PAPER_SPACE
  1

  0
ENDBLK
  5
1D
330
1B
100
AcDbEntity
 67
     1
  8
0
100
AcDbBlockEnd
  0
ENDSEC
  0
SECTION
  2
ENTITIES
  0
LINE
  5
60
330
1F
100
AcDbEntity
  8
DEFAULT
100
AcDbLine
 10
-62.75095517745064
 20
-28.86433866072843
 30
0.0
 11
-60.78697446250375
 21
-28.86433866072842
 31
0.0
  0
ARC
  5
61
330
1F
100
AcDbEntity
  8
DEFAULT
100
AcDbCircle
 10
-60.78697446129972
 20
-26.86433866193245
 30
0.0
 40
1.999999998795971
100
AcDbArc
 50
269.9999999655071
 51
0.0000000344929883
  0
POLYLINE
  5
62
330
1F
100
AcDbEntity
  8
DEFAULT
100
AcDb2dPolyline
 66
     1
 10
0.0
 20
0.0
 30
0.0
  0
VERTEX
  5
63
330
62
100
AcDbEntity
  8
DEFAULT
100
AcDbVertex
100
AcDb2dVertex
 10
-58.78697446250374
 20
-26.86433866072842
 30
0.0
  0
VERTEX
  5
64
330
62
100
AcDbEntity
  8
DEFAULT
100
AcDbVertex
100
AcDb2dVertex
 10
-58.78697446250374
 20
-21.47856113565908
 30
0.0
  0
VERTEX
  5
65
330
62
100
AcDbEntity
  8
DEFAULT
100
AcDbVertex
100
AcDb2dVertex
 10
-58.78516967216756
 20
-21.37225179062214
 30
0.0
  0
VERTEX
  5
66
330
62
100
AcDbEntity
  8
DEFAULT
100
AcDbVertex
100
AcDb2dVertex
 10
-58.77976503491156
 20
-21.26612922901957
 30
0.0
  0
VERTEX
  5
67
330
62
100
AcDbEntity
  8
DEFAULT
100
AcDbVertex
100
AcDb2dVertex
 10
-58.77077950476493
 20
-21.1602790336953
 30
0.0
  0
VERTEX
  5
68
330
62
100
AcDbEntity
  8
DEFAULT
100
AcDbVertex
100
AcDb2dVertex
 10
-58.75823773911652
 20
-21.0547858382538
 30
0.0
  0
VERTEX
  5
69
330
62
100
AcDbEntity
  8
DEFAULT
100
AcDbVertex
100
AcDb2dVertex
 10
-58.74216998613065
 20
-20.94973310612193
 30
0.0
  0
VERTEX
  5
6A
330
62
100
AcDbEntity
  8
DEFAULT
100
AcDbVertex
100
AcDb2dVertex
 10
-58.72261195074462
 20
-20.84520291665147
 30
0.0
  0
VERTEX
  5
6B
330
62
100
AcDbEntity
  8
DEFAULT
100
AcDbVertex
100
AcDb2dVertex
 10
-58.69960464028512
 20
-20.74127575937682
 30
0.0
  0
VERTEX
  5
6C
330
62
100
AcDbEntity
  8
DEFAULT
100
AcDbVertex
100
AcDb2dVertex
 10
-58.67319419087657
 20
-20.63803033746374
 30
0.0
  0
VERTEX
  5
6D
330
62
100
AcDbEntity
  8
DEFAULT
100
AcDbVertex
100
AcDb2dVertex
 10
-58.6434316759374
 20
-20.53554338129737
 30
0.0
  0
VERTEX
  5
6E
330
62
100
AcDbEntity
  8
DEFAULT
100
AcDbVertex
100
AcDb2dVertex
 10
-58.61037289816729
 20
-20.43388947306294
 30
0.0
  0
VERTEX
  5
6F
330
62
100
AcDbEntity
  8
DEFAULT
100
AcDbVertex
100
AcDb2dVertex
 10
-58.57407816651963
 20
-20.33314088307235
 30
0.0
  0
VERTEX
  5
70
330
62
100
AcDbEntity
  8
DEFAULT
100
AcDbVertex
100
AcDb2dVertex
 10
-58.53461205972894
 20
-20.23336741848425
 30
0.0
  0
VERTEX
  5
71
330
62
100
AcDbEntity
  8
DEFAULT
100
AcDbVertex
100
AcDb2dVertex
 10
-58.49204317801986
 20
-20.13463628495747
 30
0.0
  0
VERTEX
  5
72
330
62
100
AcDbEntity
  8
DEFAULT
100
AcDbVertex
100
AcDb2dVertex
 10
-58.44644388466607
 20
-20.03701196166714
 30
0.0
  0
VERTEX
  5
73
330
62
100
AcDbEntity
  8
DEFAULT
100
AcDbVertex
100
AcDb2dVertex
 10
-58.39789003909063
 20
-19.94055609000267
 30
0.0
  0
VERTEX
  5
74
330
62
100
AcDbEntity
  8
DEFAULT
100
AcDbVertex
100
AcDb2dVertex
 10
-58.3464607232062
 20
-19.84532737615709
 30
0.0
  0
VERTEX
  5
75
330
62
100
AcDbEntity
  8
DEFAULT
100
AcDbVertex
100
AcDb2dVertex
 10
-58.29223796268541
 20
-19.75138150770973
 30
0.0
  0
VERTEX
  5
76
330
62
100
AcDbEntity
  8
DEFAULT
100
AcDbVertex
100
AcDb2dVertex
 10
-58.23530644482678
 20
-19.65877108420011
 30
0.0
  0
VERTEX
  5
77
330
62
100
AcDbEntity
  8
DEFAULT
100
AcDbVertex
100
AcDb2dVertex
 10
-58.17575323464343
 20
-19.56754556159089
 30
0.0
  0
VERTEX
  5
78
330
62
100
AcDbEntity
  8
DEFAULT
100
AcDbVertex
100
AcDb2dVertex
 10
-58.11366749075023
 20
-19.47775121042331
 30
0.0
  0
VERTEX
  5
79
330
62
100
AcDbEntity
  8
DEFAULT
100
AcDbVertex
100
AcDb2dVertex
 10
-58.04914018256091
 20
-19.3894310873798
 30
0.0
  0
VERTEX
  5
7A
330
62
100
AcDbEntity
  8
DEFAULT
100
AcDbVertex
100
AcDb2dVertex
 10
-57.98226381023319
 20
-19.30262501988676
 30
0.0
  0
VERTEX
  5
7B
330
62
100
AcDbEntity
  8
DEFAULT
100
AcDbVertex
100
AcDb2dVertex
 10
-57.91313212871566
 20
-19.21736960331601
 30
0.0
  0
VERTEX
  5
7C
330
62
100
AcDbEntity
  8
DEFAULT
100
AcDbVertex
100
AcDb2dVertex
 10
-57.84183987715964
 20
-19.13369821027672
 30
0.0
  0
VERTEX
  5
7D
330
62
100
AcDbEntity
  8
DEFAULT
100
AcDbVertex
100
AcDb2dVertex
 10
-57.76848251486085
 20
-19.05164101143083
 30
0.0
  0
VERTEX
  5
7E
330
62
100
AcDbEntity
  8
DEFAULT
100
AcDbVertex
100
AcDb2dVertex
 10
-57.69315596479399
 20
-18.97122500721454
 30
0.0
  0
VERTEX
  5
7F
330
62
100
AcDbEntity
  8
DEFAULT
100
AcDbVertex
100
AcDb2dVertex
 10
-57.61595636569684
 20
-18.89247406980612
 30
0.0
  0
VERTEX
  5
80
330
62
100
AcDbEntity
  8
DEFAULT
100
AcDbVertex
100
AcDb2dVertex
 10
-57.53697983355271
 20
-18.81540899464627
 30
0.0
  0
VERTEX
  5
81
330
62
100
AcDbEntity
  8
DEFAULT
100
AcDbVertex
100
AcDb2dVertex
 10
-57.4563222332111
 20
-18.74004756079102
 30
0.0
  0
VERTEX
  5
82
330
62
100
AcDbEntity
  8
DEFAULT
100
AcDbVertex
100
AcDb2dVertex
 10
-57.37407896077816
 20
-18.66640459935909
 30
0.0
  0
VERTEX
  5
83
330
62
100
AcDbEntity
  8
DEFAULT
100
AcDbVertex
100
AcDb2dVertex
 10
-57.29034473730142
 20
-18.59449206932416
 30
0.0
  0
VERTEX
  5
84
330
62
100
AcDbEntity
  8
DEFAULT
100
AcDbVertex
100
AcDb2dVertex
 10
-57.2052134141689
 20
-18.52431913989921
 30
0.0
  0
VERTEX
  5
85
330
62
100
AcDbEntity
  8
DEFAULT
100
AcDbVertex
100
AcDb2dVertex
 10
-57.10843650192685
 20
-18.44788685124551
 30
0.0
  0
VERTEX
  5
86
330
62
100
AcDbEntity
  8
DEFAULT
100
AcDbVertex
100
AcDb2dVertex
 10
-57.00830921734325
 20
-18.37228124719996
 30
0.0
  0
VERTEX
  5
87
330
62
100
AcDbEntity
  8
DEFAULT
100
AcDbVertex
100
AcDb2dVertex
 10
-56.90482974607389
 20
-18.29759116451151
 30
0.0
  0
VERTEX
  5
88
330
62
100
AcDbEntity
  8
DEFAULT
100
AcDbVertex
100
AcDb2dVertex
 10
-56.79800216669138
 20
-18.2239069704519
 30
0.0
  0
VERTEX
  5
89
330
62
100
AcDbEntity
  8
DEFAULT
100
AcDbVertex
100
AcDb2dVertex
 10
-56.68783669807399
 20
-18.15132036037005
 30
0.0
  0
VERTEX
  5
8A
330
62
100
AcDbEntity
  8
DEFAULT
100
AcDbVertex
100
AcDb2dVertex
 10
-56.57434993202705
 20
-18.07992413864664
 30
0.0
  0
VERTEX
  5
8B
330
62
100
AcDbEntity
  8
DEFAULT
100
AcDbVertex
100
AcDb2dVertex
 10
-56.45756504876196
 20
-18.00981198343998
 30
0.0
  0
VERTEX
  5
8C
330
62
100
AcDbEntity
  8
DEFAULT
100
AcDbVertex
100
AcDb2dVertex
 10
-56.3375120128409
 20
-17.94107819577907
 30
0.0
  0
VERTEX
  5
8D
330
62
100
AcDbEntity
  8
DEFAULT
100
AcDbVertex
100
AcDb2dVertex
 10
-56.21422774720553
 20
-17.8738174337323
 30
0.0
  0
VERTEX
  5
8E
330
62
100
AcDbEntity
  8
DEFAULT
100
AcDbVertex
100
AcDb2dVertex
 10
-56.08775628294417
 20
-17.80812443255618
 30
0.0
  0
VERTEX
  5
8F
330
62
100
AcDbEntity
  8
DEFAULT
100
AcDbVertex
100
AcDb2dVertex
 10
-55.95814888251772
 20
-17.74409371190785
 30
0.0
  0
VERTEX
  5
90
330
62
100
AcDbEntity
  8
DEFAULT
100
AcDbVertex
100
AcDb2dVertex
 10
-55.82546413426022
 20
-17.68181927138383
 30
0.0
  0
VERTEX
  5
91
330
62
100
AcDbEntity
  8
DEFAULT
100
AcDbVertex
100
AcDb2dVertex
 10
-55.68976801609784
 20
-17.62139427582464
 30
0.0
  0
VERTEX
  5
92
330
62
100
AcDbEntity
  8
DEFAULT
100
AcDbVertex
100
AcDb2dVertex
 10
-55.5511339265878
 20
-17.56291073199593
 30
0.0
  0
VERTEX
  5
93
330
62
100
AcDbEntity
  8
DEFAULT
100
AcDbVertex
100
AcDb2dVertex
 10
-55.40964268157079
 20
-17.50645915842108
 30
0.0
  0
VERTEX
  5
94
330
62
100
AcDbEntity
  8
DEFAULT
100
AcDbVertex
100
AcDb2dVertex
 10
-55.26538247495054
 20
-17.4521282502926
 30
0.0
  0
VERTEX
  5
95
330
62
100
AcDbEntity
  8
DEFAULT
100
AcDbVertex
100
AcDb2dVertex
 10
-55.1184488023668
 20
-17.40000454152882
 30
0.0
  0
VERTEX
  5
96
330
62
100
AcDbEntity
  8
DEFAULT
100
AcDbVertex
100
AcDb2dVertex
 10
-54.96894434680677
 20
-17.35017206616535
 30
0.0
  0
VERTEX
  5
97
330
62
100
AcDbEntity
  8
DEFAULT
100
AcDbVertex
100
AcDb2dVertex
 10
-54.81697882550539
 20
-17.30271202137305
 30
0.0
  0
VERTEX
  5
98
330
62
100
AcDbEntity
  8
DEFAULT
100
AcDbVertex
100
AcDb2dVertex
 10
-54.66266879781178
 20
-17.25770243447608
 30
0.0
  0
VERTEX
  5
99
330
62
100
AcDbEntity
  8
DEFAULT
100
AcDbVertex
100
AcDb2dVertex
 10
-54.50613743404639
 20
-17.21521783639996
 30
0.0
  0
VERTEX
  5
9A
330
62
100
AcDbEntity
  8
DEFAULT
100
AcDbVertex
100
AcDb2dVertex
 10
-54.34751424573287
 20
-17.17532894401004
 30
0.0
  0
VERTEX
  5
9B
330
62
100
AcDbEntity
  8
DEFAULT
100
AcDbVertex
100
AcDb2dVertex
 10
-54.1869347779612
 20
-17.13810235380314
 30
0.0
  0
VERTEX
  5
9C
330
62
100
AcDbEntity
  8
DEFAULT
100
AcDbVertex
100
AcDb2dVertex
 10
-54.02454026501236
 20
-17.10360024938796
 30
0.0
  0
VERTEX
  5
9D
330
62
100
AcDbEntity
  8
DEFAULT
100
AcDbVertex
100
AcDb2dVertex
 10
-53.86047725075149
 20
-17.07188012513285
 30
0.0
  0
VERTEX
  5
9E
330
62
100
AcDbEntity
  8
DEFAULT
100
AcDbVertex
100
AcDb2dVertex
 10
-53.69489717566406
 20
-17.04299452827231
 30
0.0
  0
VERTEX
  5
9F
330
62
100
AcDbEntity
  8
DEFAULT
100
AcDbVertex
100
AcDb2dVertex
 10
-53.52795593276669
 20
-17.01699082164577
 30
0.0
  0
VERTEX
  5
A0
330
62
100
AcDbEntity
  8
DEFAULT
100
AcDbVertex
100
AcDb2dVertex
 10
-53.35981339496357
 20
-16.99391096909594
 30
0.0
  0
VERTEX
  5
A1
330
62
100
AcDbEntity
  8
DEFAULT
100
AcDbVertex
100
AcDb2dVertex
 10
-53.19063291673467
 20
-16.97379134537971
 30
0.0
  0
VERTEX
  5
A2
330
62
100
AcDbEntity
  8
DEFAULT
100
AcDbVertex
100
AcDb2dVertex
 10
-53.02058081332888
 20
-16.95666257224427
 30
0.0
  0
VERTEX
  5
A3
330
62
100
AcDbEntity
  8
DEFAULT
100
AcDbVertex
100
AcDb2dVertex
 10
-52.84982582088956
 20
-16.94254938209805
 30
0.0
  0
VERTEX
  5
A4
330
62
100
AcDbEntity
  8
DEFAULT
100
AcDbVertex
100
AcDb2dVertex
 10
-52.67853854115492
 20
-16.9314705104624
 30
0.0
  0
VERTEX
  5
A5
330
62
100
AcDbEntity
  8
DEFAULT
100
AcDbVertex
100
AcDb2dVertex
 10
-52.50689087454958
 20
-16.92343861812949
 30
0.0
  0
VERTEX
  5
A6
330
62
100
AcDbEntity
  8
DEFAULT
100
AcDbVertex
100
AcDb2dVertex
 10
-52.33505544561381
 20
-16.91846024367822
 30
0.0
  0
VERTEX
  5
A7
330
62
100
AcDbEntity
  8
DEFAULT
100
AcDbVertex
100
AcDb2dVertex
 10
-52.16320502479823
 20
-16.91653578671744
 30
0.0
  0
VERTEX
  5
A8
330
62
100
AcDbEntity
  8
DEFAULT
100
AcDbVertex
100
AcDb2dVertex
 10
-51.99151195068672
 20
-16.91765952193812
 30
0.0
  0
VERTEX
  5
A9
330
62
100
AcDbEntity
  8
DEFAULT
100
AcDbVertex
100
AcDb2dVertex
 10
-51.82014755669451
 20
-16.92181964376795
 30
0.0
  0
VERTEX
  5
AA
330
62
100
AcDbEntity
  8
DEFAULT
100
AcDbVertex
100
AcDb2dVertex
 10
-51.64928160622596
 20
-16.92899834113779
 30
0.0
  0
VERTEX
  5
AB
330
62
100
AcDbEntity
  8
DEFAULT
100
AcDbVertex
100
AcDb2dVertex
 10
-51.4790817401657
 20
-16.93917190159278
 30
0.0
  0
VERTEX
  5
AC
330
62
100
AcDbEntity
  8
DEFAULT
100
AcDbVertex
100
AcDb2dVertex
 10
-51.30971294042072
 20
-16.95231084371675
 30
0.0
  0
VERTEX
  5
AD
330
62
100
AcDbEntity
  8
DEFAULT
100
AcDbVertex
100
AcDb2dVertex
 10
-51.14133701303425
 20
-16.9683800765903
 30
0.0
  0
VERTEX
  5
AE
330
62
100
AcDbEntity
  8
DEFAULT
100
AcDbVertex
100
AcDb2dVertex
 10
-50.97411209415499
 20
-16.98733908477325
 30
0.0
  0
VERTEX
  5
AF
330
62
100
AcDbEntity
  8
DEFAULT
100
AcDbVertex
100
AcDb2dVertex
 10
-50.80819218187546
 20
-17.00914213709568
 30
0.0
  0
VERTEX
  5
B0
330
62
100
AcDbEntity
  8
DEFAULT
100
AcDbVertex
100
AcDb2dVertex
 10
-50.64372669665222
 20
-17.03373851735922
 30
0.0
  0
VERTEX
  5
B1
330
62
100
AcDbEntity
  8
DEFAULT
100
AcDbVertex
100
AcDb2dVertex
 10
-50.48086007269749
 20
-17.0610727748951
 30
0.0
  0
VERTEX
  5
B2
330
62
100
AcDbEntity
  8
DEFAULT
100
AcDbVertex
100
AcDb2dVertex
 10
-50.31973138238678
 20
-17.09108499279807
 30
0.0
  0
VERTEX
  5
B3
330
62
100
AcDbEntity
  8
DEFAULT
100
AcDbVertex
100
AcDb2dVertex
 10
-50.16047399537221
 20
-17.123711071558
 30
0.0
  0
VERTEX
  5
B4
330
62
100
AcDbEntity
  8
DEFAULT
100
AcDbVertex
100
AcDb2dVertex
 10
-50.0032152737252
 20
-17.15888302574203
 30
0.0
  0
VERTEX
  5
B5
330
62
100
AcDbEntity
  8
DEFAULT
100
AcDbVertex
100
AcDb2dVertex
 10
-49.84807630406703
 20
-17.19652929134195
 30
0.0
  0
VERTEX
  5
B6
330
62
100
AcDbEntity
  8
DEFAULT
100
AcDbVertex
100
AcDb2dVertex
 10
-49.6951716672818
 20
-17.23657504139112
 30
0.0
  0
VERTEX
  5
B7
330
62
100
AcDbEntity
  8
DEFAULT
100
AcDbVertex
100
AcDb2dVertex
 10
-49.54460924605123
 20
-17.27894250747308
 30
0.0
  0
VERTEX
  5
B8
330
62
100
AcDbEntity
  8
DEFAULT
100
AcDbVertex
100
AcDb2dVertex
 10
-49.39649007010907
 20
-17.32355130478772
 30
0.0
  0
VERTEX
  5
B9
330
62
100
AcDbEntity
  8
DEFAULT
100
AcDbVertex
100
AcDb2dVertex
 10
-49.25090819878713
 20
-17.37031875850894
 30
0.0
  0
VERTEX
  5
BA
330
62
100
AcDbEntity
  8
DEFAULT
100
AcDbVertex
100
AcDb2dVertex
 10
-49.10795064012031
 20
-17.41916022925748
 30
0.0
  0
VERTEX
  5
BB
330
62
100
AcDbEntity
  8
DEFAULT
100
AcDbVertex
100
AcDb2dVertex
 10
-48.96769730549802
 20
-17.46998943562228
 30
0.0
  0
VERTEX
  5
BC
330
62
100
AcDbEntity
  8
DEFAULT
100
AcDbVertex
100
AcDb2dVertex
 10
-48.83022099859354
 20
-17.52271877178989
 30
0.0
  0
VERTEX
  5
BD
330
62
100
AcDbEntity
  8
DEFAULT
100
AcDbVertex
100
AcDb2dVertex
 10
-48.69558743707739
 20
-17.57725961848189
 30
0.0
  0
VERTEX
  5
BE
330
62
100
AcDbEntity
  8
DEFAULT
100
AcDbVertex
100
AcDb2dVertex
 10
-48.56385530542303
 20
-17.6335226455522
 30
0.0
  0
VERTEX
  5
BF
330
62
100
AcDbEntity
  8
DEFAULT
100
AcDbVertex
100
AcDb2dVertex
 10
-48.43507633694627
 20
-17.69141810475617
 30
0.0
  0
VERTEX
  5
C0
330
62
100
AcDbEntity
  8
DEFAULT
100
AcDbVertex
100
AcDb2dVertex
 10
-48.30929542308328
 20
-17.75085611136981
 30
0.0
  0
VERTEX
  5
C1
330
62
100
AcDbEntity
  8
DEFAULT
100
AcDbVertex
100
AcDb2dVertex
 10
-48.18655074780515
 20
-17.81174691350662
 30
0.0
  0
VERTEX
  5
C2
330
62
100
AcDbEntity
  8
DEFAULT
100
AcDbVertex
100
AcDb2dVertex
 10
-48.06687394498876
 20
-17.87400114814964
 30
0.0
  0
VERTEX
  5
C3
330
62
100
AcDbEntity
  8
DEFAULT
100
AcDbVertex
100
AcDb2dVertex
 10
-47.9502902765155
 20
-17.93753008308499
 30
0.0
  0
VERTEX
  5
C4
330
62
100
AcDbEntity
  8
DEFAULT
100
AcDbVertex
100
AcDb2dVertex
 10
-47.83681882884432
 20
-18.00224584408829
 30
0.0
  0
VERTEX
  5
C5
330
62
100
AcDbEntity
  8
DEFAULT
100
AcDbVertex
100
AcDb2dVertex
 10
-47.71463608827485
 20
-18.07529726808692
 30
0.0
  0
VERTEX
  5
C6
330
62
100
AcDbEntity
  8
DEFAULT
100
AcDbVertex
100
AcDb2dVertex
 10
-47.59392008998867
 20
-18.15112071961785
 30
0.0
  0
VERTEX
  5
C7
330
62
100
AcDbEntity
  8
DEFAULT
100
AcDbVertex
100
AcDb2dVertex
 10
-47.47484252903433
 20
-18.22971706956119
 30
0.0
  0
VERTEX
  5
C8
330
62
100
AcDbEntity
  8
DEFAULT
100
AcDbVertex
100
AcDb2dVertex
 10
-47.35757825720861
 20
-18.31108126408813
 30
0.0
  0
VERTEX
  5
C9
330
62
100
AcDbEntity
  8
DEFAULT
100
AcDbVertex
100
AcDb2dVertex
 10
-47.242304803238
 20
-18.39520205768086
 30
0.0
  0
VERTEX
  5
CA
330
62
100
AcDbEntity
  8
DEFAULT
100
AcDbVertex
100
AcDb2dVertex
 10
-47.12920185089117
 20
-18.4820617647353
 30
0.0
  0
VERTEX
  5
CB
330
62
100
AcDbEntity
  8
DEFAULT
100
AcDbVertex
100
AcDb2dVertex
 10
-47.01845067627426
 20
-18.57163603288955
 30
0.0
  0
VERTEX
  5
CC
330
62
100
AcDbEntity
  8
DEFAULT
100
AcDbVertex
100
AcDb2dVertex
 10
-46.91023354607769
 20
-18.66389364123012
 30
0.0
  0
VERTEX
  5
CD
330
62
100
AcDbEntity
  8
DEFAULT
100
AcDbVertex
100
AcDb2dVertex
 10
-46.80473307907877
 20
-18.75879632649472
 30
0.0
  0
VERTEX
  5
CE
330
62
100
AcDbEntity
  8
DEFAULT
100
AcDbVertex
100
AcDb2dVertex
 10
-46.70213157375117
 20
-18.85629864031336
 30
0.0
  0
VERTEX
  5
CF
330
62
100
AcDbEntity
  8
DEFAULT
100
AcDbVertex
100
AcDb2dVertex
 10
-46.60261030538437
 20
-18.9563478404042
 30
0.0
  0
VERTEX
  5
D0
330
62
100
AcDbEntity
  8
DEFAULT
100
AcDbVertex
100
AcDb2dVertex
 10
-46.50634879665937
 20
-19.05888381846619
 30
0.0
  0
VERTEX
  5
D1
330
62
100
AcDbEntity
  8
DEFAULT
100
AcDbVertex
100
AcDb2dVertex
 10
-46.41352406615797
 20
-19.16383906728608
 30
0.0
  0
VERTEX
  5
D2
330
62
100
AcDbEntity
  8
DEFAULT
100
AcDbVertex
100
AcDb2dVertex
 10
-46.32430985978463
 20
-19.27113868930233
 30
0.0
  0
VERTEX
  5
D3
330
62
100
AcDbEntity
  8
DEFAULT
100
AcDbVertex
100
AcDb2dVertex
 10
-46.23887587054739
 20
-19.38070044854412
 30
0.0
  0
VERTEX
  5
D4
330
62
100
AcDbEntity
  8
DEFAULT
100
AcDbVertex
100
AcDb2dVertex
 10
-46.15738695256236
 20
-19.49243486749263
 30
0.0
  0
VERTEX
  5
D5
330
62
100
AcDbEntity
  8
DEFAULT
100
AcDbVertex
100
AcDb2dVertex
 10
-46.08000233550752
 20
-19.60624536999654
 30
0.0
  0
VERTEX
  5
D6
330
62
100
AcDbEntity
  8
DEFAULT
100
AcDbVertex
100
AcDb2dVertex
 10
-46.00687484604297
 20
-19.72202847091992
 30
0.0
  0
VERTEX
  5
D7
330
62
100
AcDbEntity
  8
DEFAULT
100
AcDbVertex
100
AcDb2dVertex
 10
-45.97195334303961
 20
-19.78062557476842
 30
0.0
  0
VERTEX
  5
D8
330
62
100
AcDbEntity
  8
DEFAULT
100
AcDbVertex
100
AcDb2dVertex
 10
-45.93815014293076
 20
-19.83967401271325
 30
0.0
  0
VERTEX
  5
D9
330
62
100
AcDbEntity
  8
DEFAULT
100
AcDbVertex
100
AcDb2dVertex
 10
-45.90548221094235
 20
-19.89915901895693
 30
0.0
  0
VERTEX
  5
DA
330
62
100
AcDbEntity
  8
DEFAULT
100
AcDbVertex
100
AcDb2dVertex
 10
-45.87396597271474
 20
-19.9590654485844
 30
0.0
  0
VERTEX
  5
DB
330
62
100
AcDbEntity
  8
DEFAULT
100
AcDbVertex
100
AcDb2dVertex
 10
-45.84361729265172
 20
-20.01937778889485
 30
0.0
  0
VERTEX
  5
DC
330
62
100
AcDbEntity
  8
DEFAULT
100
AcDbVertex
100
AcDb2dVertex
 10
-45.81445145285878
 20
-20.08008017141392
 30
0.0
  0
VERTEX
  5
DD
330
62
100
AcDbEntity
  8
DEFAULT
100
AcDbVertex
100
AcDb2dVertex
 10
-45.786483132722
 20
-20.14115638457002
 30
0.0
  0
VERTEX
  5
DE
330
62
100
AcDbEntity
  8
DEFAULT
100
AcDbVertex
100
AcDb2dVertex
 10
-45.75972638917899
 20
-20.20258988701653
 30
0.0
  0
VERTEX
  5
DF
330
62
100
AcDbEntity
  8
DEFAULT
100
AcDbVertex
100
AcDb2dVertex
 10
-45.73419463773092
 20
-20.26436382157932
 30
0.0
  0
VERTEX
  5
E0
330
62
100
AcDbEntity
  8
DEFAULT
100
AcDbVertex
100
AcDb2dVertex
 10
-45.70990063424409
 20
-20.32646102980732
 30
0.0
  0
VERTEX
  5
E1
330
62
100
AcDbEntity
  8
DEFAULT
100
AcDbVertex
100
AcDb2dVertex
 10
-45.6868564575878
 20
-20.38886406710169
 30
0.0
  0
VERTEX
  5
E2
330
62
100
AcDbEntity
  8
DEFAULT
100
AcDbVertex
100
AcDb2dVertex
 10
-45.66507349315268
 20
-20.45155521839727
 30
0.0
  0
VERTEX
  5
E3
330
62
100
AcDbEntity
  8
DEFAULT
100
AcDbVertex
100
AcDb2dVertex
 10
-45.64456241729267
 20
-20.51451651436818
 30
0.0
  0
VERTEX
  5
E4
330
62
100
AcDbEntity
  8
DEFAULT
100
AcDbVertex
100
AcDb2dVertex
 10
-45.62533318273113
 20
-20.57772974812773
 30
0.0
  0
VERTEX
  5
E5
330
62
100
AcDbEntity
  8
DEFAULT
100
AcDbVertex
100
AcDb2dVertex
 10
-45.60739500496911
 20
-20.64117649239109
 30
0.0
  0
VERTEX
  5
E6
330
62
100
AcDbEntity
  8
DEFAULT
100
AcDbVertex
100
AcDb2dVertex
 10
-45.59075634973158
 20
-20.70483811706751
 30
0.0
  0
VERTEX
  5
E7
330
62
100
AcDbEntity
  8
DEFAULT
100
AcDbVertex
100
AcDb2dVertex
 10
-45.57542492148468
 20
-20.76869580724754
 30
0.0
  0
VERTEX
  5
E8
330
62
100
AcDbEntity
  8
DEFAULT
100
AcDbVertex
100
AcDb2dVertex
 10
-45.56140765305407
 20
-20.83273058154947
 30
0.0
  0
VERTEX
  5
E9
330
62
100
AcDbEntity
  8
DEFAULT
100
AcDbVertex
100
AcDb2dVertex
 10
-45.54871069637188
 20
-20.89692331078757
 30
0.0
  0
VERTEX
  5
EA
330
62
100
AcDbEntity
  8
DEFAULT
100
AcDbVertex
100
AcDb2dVertex
 10
-45.53733941437629
 20
-20.96125473692409
 30
0.0
  0
VERTEX
  5
EB
330
62
100
AcDbEntity
  8
DEFAULT
100
AcDbVertex
100
AcDb2dVertex
 10
-45.5272983740849
 20
-21.02570549226566
 30
0.0
  0
VERTEX
  5
EC
330
62
100
AcDbEntity
  8
DEFAULT
100
AcDbVertex
100
AcDb2dVertex
 10
-45.51859134085984
 20
-21.09025611886423
 30
0.0
  0
VERTEX
  5
ED
330
62
100
AcDbEntity
  8
DEFAULT
100
AcDbVertex
100
AcDb2dVertex
 10
-45.5112212738789
 20
-21.15488708808152
 30
0.0
  0
VERTEX
  5
EE
330
62
100
AcDbEntity
  8
DEFAULT
100
AcDbVertex
100
AcDb2dVertex
 10
-45.50519032282399
 20
-21.21957882027603
 30
0.0
  0
VERTEX
  5
EF
330
62
100
AcDbEntity
  8
DEFAULT
100
AcDbVertex
100
AcDb2dVertex
 10
-45.50049982579471
 20
-21.28431170457074
 30
0.0
  0
VERTEX
  5
F0
330
62
100
AcDbEntity
  8
DEFAULT
100
AcDbVertex
100
AcDb2dVertex
 10
-45.49715030845085
 20
-21.34906611865959
 30
0.0
  0
VERTEX
  5
F1
330
62
100
AcDbEntity
  8
DEFAULT
100
AcDbVertex
100
AcDb2dVertex
 10
-45.49514148438531
 20
-21.41382244861103
 30
0.0
  0
VERTEX
  5
F2
330
62
100
AcDbEntity
  8
DEFAULT
100
AcDbVertex
100
AcDb2dVertex
 10
-45.49447225672388
 20
-21.47856110862629
 30
0.0
  0
VERTEX
  5
F3
330
62
100
AcDbEntity
  8
DEFAULT
100
AcDbVertex
100
AcDb2dVertex
 10
-45.49447225672388
 20
-26.86433866072842
 30
0.0
  0
SEQEND
  5
F4
330
62
100
AcDbEntity
  8
DEFAULT
  0
ARC
  5
F5
330
1F
100
AcDbEntity
  8
DEFAULT
100
AcDbCircle
 10
-43.49447225672385
 20
-26.86433866072839
 30
0.0
 40
2.000000000000028
100
AcDbArc
 50
180.0000000000009
 51
269.9999999999992
  0
LINE
  5
F6
330
1F
100
AcDbEntity
  8
DEFAULT
100
AcDbLine
 10
-43.49447225672388
 20
-28.86433866072842
 30
0.0
 11
-41.530491541777
 21
-28.86433866072842
 31
0.0
  0
ARC
  5
F7
330
1F
100
AcDbEntity
  8
DEFAULT
100
AcDbCircle
 10
41.53049154177696
 20
-30.86433866072839
 30
0.0
 40
1.999999999999968
210
0.0
220
0.0
230
-1.0
100
AcDbArc
 50
89.99999999999898
 51
180.0000000000008
  0
LINE
  5
F8
330
1F
100
AcDbEntity
  8
DEFAULT
100
AcDbLine
 10
-39.530491541777
 20
-30.86433866072842
 30
0.0
 11
-39.530491541777
 21
-40.14325805064617
 31
0.0
  0
POLYLINE
  5
F9
330
1F
100
AcDbEntity
  8
DEFAULT
100
AcDb2dPolyline
 66
     1
 10
0.0
 20
0.0
 30
0.0
  0
VERTEX
  5
FA
330
F9
100
AcDbEntity
  8
DEFAULT
100
AcDbVertex
100
AcDb2dVertex
 10
-39.530491541777
 20
-40.14325805064617
 30
0.0
  0
VERTEX
  5
FB
330
F9
100
AcDbEntity
  8
DEFAULT
100
AcDbVertex
100
AcDb2dVertex
 10
-41.16592052545126
 20
-40.14325805064617
 30
0.0
  0
VERTEX
  5
FC
330
F9
100
AcDbEntity
  8
DEFAULT
100
AcDbVertex
100
AcDb2dVertex
 10
-41.16592052545126
 20
-41.54325805064617
 30
0.0
  0
VERTEX
  5
FD
330
F9
100
AcDbEntity
  8
DEFAULT
100
AcDbVertex
100
AcDb2dVertex
 10
-43.11556619377636
 20
-41.54325805064617
 30
0.0
  0
VERTEX
  5
FE
330
F9
100
AcDbEntity
  8
DEFAULT
100
AcDbVertex
100
AcDb2dVertex
 10
-43.11556619377636
 20
-40.14325805064617
 30
0.0
  0
VERTEX
  5
FF
330
F9
100
AcDbEntity
  8
DEFAULT
100
AcDbVertex
100
AcDb2dVertex
 10
-61.16588052545126
 20
-40.14325805064617
 30
0.0
  0
VERTEX
  5
100
330
F9
100
AcDbEntity
  8
DEFAULT
100
AcDbVertex
100
AcDb2dVertex
 10
-61.16588052545126
 20
-41.54325805064617
 30
0.0
  0
VERTEX
  5
101
330
F9
100
AcDbEntity
  8
DEFAULT
100
AcDbVertex
100
AcDb2dVertex
 10
-63.11552619377636
 20
-41.54325805064617
 30
0.0
  0
VERTEX
  5
102
330
F9
100
AcDbEntity
  8
DEFAULT
100
AcDbVertex
100
AcDb2dVertex
 10
-63.11552619377636
 20
-40.14325805064617
 30
0.0
  0
VERTEX
  5
103
330
F9
100
AcDbEntity
  8
DEFAULT
100
AcDbVertex
100
AcDb2dVertex
 10
-64.75095517745062
 20
-40.14325805064617
 30
0.0
  0
SEQEND
  5
104
330
F9
100
AcDbEntity
  8
DEFAULT
  0
LINE
  5
105
330
1F
100
AcDbEntity
  8
DEFAULT
100
AcDbLine
 10
-64.75095517745062
 20
-40.14325805064617
 30
0.0
 11
-64.75095517745063
 21
-30.86433866072842
 31
0.0
  0
ARC
  5
106
330
1F
100
AcDbEntity
  8
DEFAULT
100
AcDbCircle
 10
62.75095517865466
 20
-30.86433865952439
 30
0.0
 40
1.999999998795971
210
0.0
220
0.0
230
-1.0
100
AcDbArc
 50
359.9999999655069
 51
90.00000003449269
  0
CIRCLE
  5
107
330
1F
100
AcDbEntity
  8
DEFAULT
100
AcDbCircle
 10
-52.14072335961381
 20
-21.47856104033771
 30
0.0
 40
2.1
  0
ENDSEC
  0
SECTION
  2
OBJECTS
  0
DICTIONARY
  5
C
330
0
100
AcDbDictionary
  3
ACAD_GROUP
350
D
  3
ACAD_LAYOUT
350
1A
  3
ACAD_MATERIAL
350
43
  3
ACAD_MLEADERSTYLE
350
5B
  3
ACAD_MLINESTYLE
350
17
  3
ACAD_PLOTSETTINGS
350
19
  3
ACAD_SCALELIST
350
47
  3
ACAD_VISUALSTYLE
350
2A
  3
ACDBHEADERROUNDTRIPXREC
350
108
  3
ACDBVARIABLEDICTIONARY
350
129
  3
DWGPROPS
350
130
  0
DICTIONARY
  5
131
330
8
100
AcDbDictionary
280
     1
  3
ACAD_XREC_ROUNDTRIP
360
132
  0
DICTIONARY
  5
D
102
{ACAD_REACTORS
330
C
102
}
330
C
100
AcDbDictionary
  0
DICTIONARY
  5
1A
102
{ACAD_REACTORS
330
C
102
}
330
C
100
AcDbDictionary
  0
DICTIONARY
  5
43
102
{ACAD_REACTORS
330
C
102
}
330
C
100
AcDbDictionary
  3
BYBLOCK
350
45
  3
BYLAYER
350
44
  3
GLOBAL
350
46
  0
DICTIONARY
  5
5B
102
{ACAD_REACTORS
330
C
102
}
330
C
100
AcDbDictionary
  3
STANDARD
350
5C
  0
DICTIONARY
  5
17
102
{ACAD_REACTORS
330
C
102
}
330
C
100
AcDbDictionary
  3
STANDARD
350
18
  0
DICTIONARY
  5
19
102
{ACAD_REACTORS
330
C
102
}
330
C
100
AcDbDictionary
  0
DICTIONARY
  5
47
102
{ACAD_REACTORS
330
C
102
}
330
C
100
AcDbDictionary
  3
A0
350
48
  3
A1
350
49
  3
A2
350
4A
  3
A3
350
4B
  3
A4
350
4C
  3
A5
350
4D
  3
A6
350
4E
  3
A7
350
4F
  3
A8
350
50
  3
A9
350
51
  3
B1
350
52
  3
B2
350
53
  3
B3
350
54
  3
B4
350
55
  3
B5
350
56
  3
B6
350
57
  3
B7
350
58
  0
DICTIONARY
  5
2A
102
{ACAD_REACTORS
330
C
102
}
330
C
100
AcDbDictionary
  3
2DWIREFRAME
350
2F
  3
BASIC
350
32
  3
BRIGHTEN
350
36
  3
COLORCHANGE
350
3A
  3
CONCEPTUAL
350
34
  3
DIM
350
35
  3
EDGECOLOROFF
350
3D
  3
FACEPATTERN
350
39
  3
FLAT
350
2B
  3
FLATWITHEDGES
350
2C
  3
GOURAUD
350
2D
  3
GOURAUDWITHEDGES
350
2E
  3
HIDDEN
350
31
  3
JITTEROFF
350
3B
  3
LINEPATTERN
350
38
  3
OVERHANGOFF
350
3C
  3
REALISTIC
350
33
  3
SHADED
350
42
  3
SHADED_WITH_EDGES
350
41
  3
SHADES_OF_GRAY
350
3E
  3
SKETCHY
350
3F
  3
THICKEN
350
37
  3
WIREFRAME
350
30
  3
X-RAY
350
40
  0
DICTIONARY
  5
108
102
{ACAD_REACTORS
330
C
102
}
330
C
100
AcDbDictionary
  3
CEPSNID
350
112
  3
CEPSNTYPE
350
111
  3
DIMSTYLEDATA
350
128
  3
FINGERPRINTGUID
350
113
  3
HYPERLINKBASE
350
10B
  3
INSUNITS
350
110
  3
LAYOUTDICT
350
10D
  3
LWETCUNION
350
10F
  3
PLOTSETDICT
350
10E
  3
PSVPSCALE
350
115
  3
PUCSBASE
350
118
  3
PUCSORGBACK
350
11E
  3
PUCSORGBOTTOM
350
11A
  3
PUCSORGFRONT
350
11D
  3
PUCSORGLEFT
350
11B
  3
PUCSORGRIGHT
350
11C
  3
PUCSORGTOP
350
119
  3
PUCSORTHOREF
350
116
  3
PUCSORTHOVIEW
350
117
  3
STYLESHEET
350
10C
  3
TSTACKALIGN
350
109
  3
TSTACKSIZE
350
10A
  3
UCSBASE
350
121
  3
UCSORGBACK
350
127
  3
UCSORGBOTTOM
350
123
  3
UCSORGFRONT
350
126
  3
UCSORGLEFT
350
124
  3
UCSORGRIGHT
350
125
  3
UCSORGTOP
350
122
  3
UCSORTHOREF
350
11F
  3
UCSORTHOVIEW
350
120
  3
VERSIONGUID
350
114
  0
DICTIONARY
  5
129
102
{ACAD_REACTORS
330
C
102
}
330
C
100
AcDbDictionary
  3
CANNOSCALE
350
133
  3
CMLEADERSTYLE
350
12B
  3
CTABLESTYLE
350
12A
  3
DIMASSOC
350
12E
  3
HIDETEXT
350
12F
  3
MSLTSCALE
350
134
  0
XRECORD
  5
130
102
{ACAD_REACTORS
330
C
102
}
330
C
100
AcDbXrecord
  1
DWGPROPS COOKIE
  2

  3

  4

  6

  7

  8
owhite
  9

300
=
301
=
302
=
303
=
304
=
305
=
306
=
307
=
308
=
309
=
 40
0.0
 41
2460245.052974896
 42
2460245.05299669
  1

 90
        0
  0
XRECORD
  5
132
102
{ACAD_REACTORS
330
131
102
}
330
131
100
AcDbXrecord
102
VTR_0.000_0.000_1.000_1.000_VISUALSTYLE
340
2F
102
VTR_0.000_0.000_1.000_1.000_GRIDDISPLAY
 70
     3
102
VTR_0.000_0.000_1.000_1.000_GRIDMAJOR
 70
     5
102
VTR_0.000_0.000_1.000_1.000_DEFAULTLIGHTING
280
     1
102
VTR_0.000_0.000_1.000_1.000_DEFAULTLIGHTINGTYPE
 70
     1
102
VTR_0.000_0.000_1.000_1.000_BRIGHTNESS
141
0.0
102
VTR_0.000_0.000_1.000_1.000_CONTRAST
142
0.0
  0
MATERIAL
  5
45
102
{ACAD_REACTORS
330
43
102
}
102
{ACAD_XDICTIONARY
360
137
102
}
330
43
100
AcDbMaterial
  1
BYBLOCK
  0
MATERIAL
  5
44
102
{ACAD_REACTORS
330
43
102
}
102
{ACAD_XDICTIONARY
360
135
102
}
330
43
100
AcDbMaterial
  1
BYLAYER
  0
MATERIAL
  5
46
102
{ACAD_REACTORS
330
43
102
}
102
{ACAD_XDICTIONARY
360
139
102
}
330
43
100
AcDbMaterial
  1
GLOBAL
  0
ACAD_PROXY_OBJECT
  5
5C
102
{ACAD_REACTORS
330
5B
102
}
330
5B
100
AcDbProxyObject
 90
      499
 91
      505
 93
      610
310
40901902A4063FBFFFFFE056BD1B81E855B9FC0AD7A3703D0AD73F4214DD185B99185C9900AD7A3703D0AC73F90141901A02B5E8DC0F42B1CFC02B5E8DC0F42B1CFE5764000000000000300FC0
340
14
340
0
340
11
340
0
 94
        0
1001
ACAD_MLEADERVER
1070
     2
  0
MLINESTYLE
  5
18
102
{ACAD_REACTORS
330
17
102
}
330
17
100
AcDbMlineStyle
  2
Standard
 70
     0
  3

 62
   256
 51
90.0
 52
90.0
 71
     2
 49
0.5
 62
   256
  6
BYLAYER
 49
-0.5
 62
   256
  6
BYLAYER
  0
ACAD_PROXY_OBJECT
  5
48
102
{ACAD_REACTORS
330
47
102
}
330
47
100
AcDbProxyObject
 90
      499
 91
      503
 93
       41
310
903313A31580
  0
ACAD_PROXY_OBJECT
  5
49
102
{ACAD_REACTORS
330
47
102
}
330
47
100
AcDbProxyObject
 90
      499
 91
      503
 93
      257
310
90E312F31323822203D2031272D3022000000000000200FC000000000000284000
  0
ACAD_PROXY_OBJECT
  5
4A
102
{ACAD_REACTORS
330
47
102
}
330
47
100
AcDbProxyObject
 90
      499
 91
      503
 93
      249
310
90D312F363422203D2031272D3022000000000000240FC000000000000284000
  0
ACAD_PROXY_OBJECT
  5
4B
102
{ACAD_REACTORS
330
47
102
}
330
47
100
AcDbProxyObject
 90
      499
 91
      503
 93
      249
310
90D312F333222203D2031272D3022000000000000280FC000000000000284000
  0
ACAD_PROXY_OBJECT
  5
4C
102
{ACAD_REACTORS
330
47
102
}
330
47
100
AcDbProxyObject
 90
      499
 91
      503
 93
      249
310
90D312F313622203D2031272D30220000000000002C0FC000000000000284000
  0
ACAD_PROXY_OBJECT
  5
4D
102
{ACAD_REACTORS
330
47
102
}
330
47
100
AcDbProxyObject
 90
      499
 91
      503
 93
      249
310
90D332F333222203D2031272D30220000000000002E0FC000000000000284000
  0
ACAD_PROXY_OBJECT
  5
4E
102
{ACAD_REACTORS
330
47
102
}
330
47
100
AcDbProxyObject
 90
      499
 91
      503
 93
      241
310
90C312F3822203D2031272D3022000000000000300FC000000000000284000
  0
ACAD_PROXY_OBJECT
  5
4F
102
{ACAD_REACTORS
330
47
102
}
330
47
100
AcDbProxyObject
 90
      499
 91
      503
 93
      249
310
90D332F313622203D2031272D3022000000000000320FC000000000000284000
  0
ACAD_PROXY_OBJECT
  5
50
102
{ACAD_REACTORS
330
47
102
}
330
47
100
AcDbProxyObject
 90
      499
 91
      503
 93
      241
310
90C312F3422203D2031272D3022000000000000340FC000000000000284000
  0
ACAD_PROXY_OBJECT
  5
51
102
{ACAD_REACTORS
330
47
102
}
330
47
100
AcDbProxyObject
 90
      499
 91
      503
 93
      241
310
90C332F3822203D2031272D3022000000000000360FC000000000000284000
  0
ACAD_PROXY_OBJECT
  5
52
102
{ACAD_REACTORS
330
47
102
}
330
47
100
AcDbProxyObject
 90
      499
 91
      503
 93
      241
310
90C312F3222203D2031272D3022000000000000380FC000000000000284000
  0
ACAD_PROXY_OBJECT
  5
53
102
{ACAD_REACTORS
330
47
102
}
330
47
100
AcDbProxyObject
 90
      499
 91
      503
 93
      241
310
90C332F3422203D2031272D30220000000000003A0FC000000000000284000
  0
ACAD_PROXY_OBJECT
  5
54
102
{ACAD_REACTORS
330
47
102
}
330
47
100
AcDbProxyObject
 90
      499
 91
      503
 93
      161
310
90A3122203D2031272D30224000000000000284000
  0
ACAD_PROXY_OBJECT
  5
55
102
{ACAD_REACTORS
330
47
102
}
330
47
100
AcDbProxyObject
 90
      499
 91
      503
 93
      257
310
90E312D312F3222203D2031272D30220000000000003E0FC000000000000284000
  0
ACAD_PROXY_OBJECT
  5
56
102
{ACAD_REACTORS
330
47
102
}
330
47
100
AcDbProxyObject
 90
      499
 91
      503
 93
      225
310
90A3322203D2031272D302200000000000002100000000000000284000
  0
ACAD_PROXY_OBJECT
  5
57
102
{ACAD_REACTORS
330
47
102
}
330
47
100
AcDbProxyObject
 90
      499
 91
      503
 93
      225
310
90A3622203D2031272D302200000000000006100000000000000284000
  0
ACAD_PROXY_OBJECT
  5
58
102
{ACAD_REACTORS
330
47
102
}
330
47
100
AcDbProxyObject
 90
      499
 91
      503
 93
      249
310
90D31272D3022203D2031272D30220000000000000A100000000000000284000
  0
ACAD_PROXY_OBJECT
  5
2F
102
{ACAD_REACTORS
330
2A
102
}
330
2A
100
AcDbProxyObject
 90
      499
 91
      501
 93
      436
310
42CC9915DA5C99599C985B595049028333333333333E33F0000000000000F90107901411070040501600405405064090741402480A0340
1001
ACAD
1000
AcDbSavedByObjectVersion
1070
     0
  0
ACAD_PROXY_OBJECT
  5
32
102
{ACAD_REACTORS
330
2A
102
}
330
2A
100
AcDbProxyObject
 90
      499
 91
      501
 93
      388
310
4150985CDA58D07406404333333333333E33F0000000000000F90107A41107004050150841D405064090741402480A0350
1001
ACAD
1000
AcDbSavedByObjectVersion
1070
     0
  0
ACAD_PROXY_OBJECT
  5
36
102
{ACAD_REACTORS
330
2A
102
}
330
2A
100
AcDbProxyObject
 90
      499
 91
      501
 93
      428
310
42109C9A59DA1D195B90C409028333333333333E33F0000000000000F9010790141107004050150841D405064090741402480A029950
1001
ACAD
1000
AcDbSavedByObjectVersion
1070
     0
  0
ACAD_PROXY_OBJECT
  5
3A
102
{ACAD_REACTORS
330
2A
102
}
330
2A
100
AcDbProxyObject
 90
      499
 91
      501
 93
      452
310
42D0DBDB1BDC90DA185B99D95104090240C333333333333E33F0000000000000F90108901411070040501508421405064090741402480A0350
1001
ACAD
1000
AcDbSavedByObjectVersion
1070
     0
  0
ACAD_PROXY_OBJECT
  5
34
102
{ACAD_REACTORS
330
2A
102
}
330
2A
100
AcDbProxyObject
 90
      499
 91
      501
 93
      500
310
4290DBDB98D95C1D1D585B10940D028333333333333E33F0000000000000F90107902409070040501000000000018199010841D405064090740C02480A0340
1001
ACAD
1000
AcDbSavedByObjectVersion
1070
     0
  0
ACAD_PROXY_OBJECT
  5
35
102
{ACAD_REACTORS
330
2A
102
}
330
2A
100
AcDbProxyObject
 90
      499
 91
      501
 93
      412
310
40D11A5B50B409028333333333333E33F0000000000000F9010790141107004050150841D405064090741402480A02677FFFFFD0
1001
ACAD
1000
AcDbSavedByObjectVersion
1070
     0
  0
ACAD_PROXY_OBJECT
  5
3D
102
{ACAD_REACTORS
330
2A
102
}
330
2A
100
AcDbProxyObject
 90
      499
 91
      501
 93
      452
310
43115919D950DBDB1BDC93D999916409028333333333333E33F0000000000000F9010790141107004050150841D405064090741402480A0350
1001
ACAD
1000
AcDbSavedByObjectVersion
1070
     0
  0
ACAD_PROXY_OBJECT
  5
39
102
{ACAD_REACTORS
330
2A
102
}
330
2A
100
AcDbProxyObject
 90
      499
 91
      501
 93
      444
310
42D19858D95C185D1D195C9B90F409028333333333333E33F0000000000000F9010790141107004050150841D405064090741402480A0350
1001
ACAD
1000
AcDbSavedByObjectVersion
1070
     0
  0
ACAD_PROXY_OBJECT
  5
2B
102
{ACAD_REACTORS
330
2A
102
}
330
2A
100
AcDbProxyObject
 90
      499
 91
      501
 93
      380
310
41119B185D240901404333333333333E33F0000000000000F9010740A907004050150841D405064090741402480A1B50
1001
ACAD
1000
AcDbSavedByObjectVersion
1070
     0
  0
ACAD_PROXY_OBJECT
  5
2C
102
{ACAD_REACTORS
330
2A
102
}
330
2A
100
AcDbProxyObject
 90
      499
 91
      501
 93
      468
310
43519B185D15DA5D1A115919D95CD0140901404333333333333E33F0000000000000F90107409019070040501600405405064090741402480A1B50
1001
ACAD
1000
AcDbSavedByObjectVersion
1070
     0
  0
ACAD_PROXY_OBJECT
  5
2D
102
{ACAD_REACTORS
330
2A
102
}
330
2A
100
AcDbProxyObject
 90
      499
 91
      501
 93
      404
310
41D1DBDD5C985D5910240902404333333333333E33F0000000000000F9010740A9070040501641D405064090741402480A1B50
1001
ACAD
1000
AcDbSavedByObjectVersion
1070
     0
  0
ACAD_PROXY_OBJECT
  5
2E
102
{ACAD_REACTORS
330
2A
102
}
330
2A
100
AcDbProxyObject
 90
      499
 91
      501
 93
      492
310
4411DBDD5C985D5915DA5D1A115919D95CD0340902404333333333333E33F0000000000000F90107409019070040501600405405064090741402480A1B50
1001
ACAD
1000
AcDbSavedByObjectVersion
1070
     0
  0
ACAD_PROXY_OBJECT
  5
31
102
{ACAD_REACTORS
330
2A
102
}
330
2A
100
AcDbProxyObject
 90
      499
 91
      501
 93
      476
310
41921A5919195B90640502408333333333333E33F0000000000000F901079024090700405020000000000001110200405405064090740C02480A0340
1001
ACAD
1000
AcDbSavedByObjectVersion
1070
     0
  0
ACAD_PROXY_OBJECT
  5
3B
102
{ACAD_REACTORS
330
2A
102
}
330
2A
100
AcDbProxyObject
 90
      499
 91
      501
 93
      428
310
42529A5D1D195C93D999914409028333333333333E33F0000000000000F9010790141107004050150A41D405064090741402480A0350
1001
ACAD
1000
AcDbSavedByObjectVersion
1070
     0
  0
ACAD_PROXY_OBJECT
  5
38
102
{ACAD_REACTORS
330
2A
102
}
330
2A
100
AcDbProxyObject
 90
      499
 91
      501
 93
      444
310
42D31A5B995C185D1D195C9B90E409028333333333333E33F0000000000000F9010790141107004050750841D405064090741402483A0350
1001
ACAD
1000
AcDbSavedByObjectVersion
1070
     0
  0
ACAD_PROXY_OBJECT
  5
3C
102
{ACAD_REACTORS
330
2A
102
}
330
2A
100
AcDbProxyObject
 90
      499
 91
      501
 93
      444
310
42D3DD995C9A185B99D3D999915409028333333333333E33F0000000000000F9010790141107004050150941D405064090741402480A0350
1001
ACAD
1000
AcDbSavedByObjectVersion
1070
     0
  0
ACAD_PROXY_OBJECT
  5
33
102
{ACAD_REACTORS
330
2A
102
}
330
2A
100
AcDbProxyObject
 90
      499
 91
      501
 93
      428
310
425499585B1A5CDD1A58D08409038333333333333E33F0000000000000F9010740A907004050150800405405064090740C02480A1B40
1001
ACAD
1000
AcDbSavedByObjectVersion
1070
     0
  0
ACAD_PROXY_OBJECT
  5
42
102
{ACAD_REACTORS
330
2A
102
}
330
2A
100
AcDbProxyObject
 90
      499
 91
      501
 93
      420
310
4194DA1859195911B40902404333333333333E33F0000000000000F9010740A41107004050150800405405064090840C02480A0B40
1001
ACAD
1000
AcDbSavedByObjectVersion
1070
     0
  0
ACAD_PROXY_OBJECT
  5
41
102
{ACAD_REACTORS
330
2A
102
}
330
2A
100
AcDbProxyObject
 90
      499
 91
      501
 93
      516
310
4454DA18591959081DDA5D1A08195919D95CD1A40902404333333333333E33F0000000000000F901074090142907004050250800405405064090740C02480A0B40
1001
ACAD
1000
AcDbSavedByObjectVersion
1070
     0
  0
ACAD_PROXY_OBJECT
  5
3E
102
{ACAD_REACTORS
330
2A
102
}
330
2A
100
AcDbProxyObject
 90
      499
 91
      501
 93
      532
310
4394DA1859195CC81BD98811DC985E5174090240C333333333333E33F0000000000000F901079024090741D01000000000000111010841D405064090740C02480A0340
1001
ACAD
1000
AcDbSavedByObjectVersion
1070
     0
  0
ACAD_PROXY_OBJECT
  5
3F
102
{ACAD_REACTORS
330
2A
102
}
330
2A
100
AcDbProxyObject
 90
      499
 91
      501
 93
      476
310
41D4DAD95D18DA1E51840502408333333333333E33F0000000000000F901079024090741D01000000000000111010B41D405064090741802480A0340
1001
ACAD
1000
AcDbSavedByObjectVersion
1070
     0
  0
ACAD_PROXY_OBJECT
  5
37
102
{ACAD_REACTORS
330
2A
102
}
330
2A
100
AcDbProxyObject
 90
      499
 91
      501
 93
      412
310
41D51A1A58DAD95B90D409028333333333333E33F0000000000000F9010790141107004050150C41D405064090741402480A0350
1001
ACAD
1000
AcDbSavedByObjectVersion
1070
     0
  0
ACAD_PROXY_OBJECT
  5
30
102
{ACAD_REACTORS
330
2A
102
}
330
2A
100
AcDbProxyObject
 90
      499
 91
      501
 93
      420
310
4255DA5C99599C985B595059028333333333333E33F0000000000000F90107901411070040501600405405064090740C02480A0340
1001
ACAD
1000
AcDbSavedByObjectVersion
1070
     0
  0
ACAD_PROXY_OBJECT
  5
40
102
{ACAD_REACTORS
330
2A
102
}
330
2A
100
AcDbProxyObject
 90
      499
 91
      501
 93
      404
310
41560B54985E51940902404000000000000E03F0000000000000F9010740501907004050150841D405064090740C02480A1B40
1001
ACAD
1000
AcDbSavedByObjectVersion
1070
     0
  0
XRECORD
  5
112
102
{ACAD_REACTORS
330
108
102
}
330
108
100
AcDbXrecord
340
0
  0
XRECORD
  5
111
102
{ACAD_REACTORS
330
108
102
}
330
108
100
AcDbXrecord
 90
        0
  0
XRECORD
  5
128
102
{ACAD_REACTORS
330
108
102
}
330
108
100
AcDbXrecord
1000
DSTYLE
1002
{
1070
   171
 70
     2
1070
   143
 40
25.4
1070
   274
 70
     2
1070
    41
 40
0.18
1070
   141
 40
0.09
1070
   271
 70
     4
1070
    43
 40
0.38
1070
   278
 70
    46
1070
    44
 40
0.18
1070
    42
 40
0.0625
1070
   147
 40
0.09
1070
    77
 70
     0
1070
   272
 70
     4
1070
    73
 70
     1
1070
   279
 70
     2
1070
   172
 70
     0
1070
    74
 70
     1
1070
   283
 70
     1
1070
   340
340
11
1070
   140
 40
0.18
1070
   284
 70
     0
1070
    78
 70
     0
1002
}
  0
XRECORD
  5
113
102
{ACAD_REACTORS
330
108
102
}
330
108
100
AcDbXrecord
  1
{034f40f9-83d1-a34e-bdb0-72f8facd3982}
  0
XRECORD
  5
10B
102
{ACAD_REACTORS
330
108
102
}
330
108
100
AcDbXrecord
  1

  0
XRECORD
  5
110
102
{ACAD_REACTORS
330
108
102
}
330
108
100
AcDbXrecord
 90
        4
  0
XRECORD
  5
10D
102
{ACAD_REACTORS
330
108
102
}
330
108
100
AcDbXrecord
340
1A
  0
XRECORD
  5
10F
102
{ACAD_REACTORS
330
108
102
}
330
108
100
AcDbXrecord
 90
    10781
  0
XRECORD
  5
10E
102
{ACAD_REACTORS
330
108
102
}
330
108
100
AcDbXrecord
340
19
  0
XRECORD
  5
115
102
{ACAD_REACTORS
330
108
102
}
330
108
100
AcDbXrecord
 40
0.0
  0
XRECORD
  5
118
102
{ACAD_REACTORS
330
108
102
}
330
108
100
AcDbXrecord
340
0
  0
XRECORD
  5
11E
102
{ACAD_REACTORS
330
108
102
}
330
108
100
AcDbXrecord
 10
0.0
 20
0.0
 30
0.0
  0
XRECORD
  5
11A
102
{ACAD_REACTORS
330
108
102
}
330
108
100
AcDbXrecord
 10
0.0
 20
0.0
 30
0.0
  0
XRECORD
  5
11D
102
{ACAD_REACTORS
330
108
102
}
330
108
100
AcDbXrecord
 10
0.0
 20
0.0
 30
0.0
  0
XRECORD
  5
11B
102
{ACAD_REACTORS
330
108
102
}
330
108
100
AcDbXrecord
 10
0.0
 20
0.0
 30
0.0
  0
XRECORD
  5
11C
102
{ACAD_REACTORS
330
108
102
}
330
108
100
AcDbXrecord
 10
0.0
 20
0.0
 30
0.0
  0
XRECORD
  5
119
102
{ACAD_REACTORS
330
108
102
}
330
108
100
AcDbXrecord
 10
0.0
 20
0.0
 30
0.0
  0
XRECORD
  5
116
102
{ACAD_REACTORS
330
108
102
}
330
108
100
AcDbXrecord
340
0
  0
XRECORD
  5
117
102
{ACAD_REACTORS
330
108
102
}
330
108
100
AcDbXrecord
 70
     0
  0
XRECORD
  5
10C
102
{ACAD_REACTORS
330
108
102
}
330
108
100
AcDbXrecord
  1

  0
XRECORD
  5
109
102
{ACAD_REACTORS
330
108
102
}
330
108
100
AcDbXrecord
 90
        1
  0
XRECORD
  5
10A
102
{ACAD_REACTORS
330
108
102
}
330
108
100
AcDbXrecord
 90
       70
  0
XRECORD
  5
121
102
{ACAD_REACTORS
330
108
102
}
330
108
100
AcDbXrecord
340
0
  0
XRECORD
  5
127
102
{ACAD_REACTORS
330
108
102
}
330
108
100
AcDbXrecord
 10
0.0
 20
0.0
 30
0.0
  0
XRECORD
  5
123
102
{ACAD_REACTORS
330
108
102
}
330
108
100
AcDbXrecord
 10
0.0
 20
0.0
 30
0.0
  0
XRECORD
  5
126
102
{ACAD_REACTORS
330
108
102
}
330
108
100
AcDbXrecord
 10
0.0
 20
0.0
 30
0.0
  0
XRECORD
  5
124
102
{ACAD_REACTORS
330
108
102
}
330
108
100
AcDbXrecord
 10
0.0
 20
0.0
 30
0.0
  0
XRECORD
  5
125
102
{ACAD_REACTORS
330
108
102
}
330
108
100
AcDbXrecord
 10
0.0
 20
0.0
 30
0.0
  0
XRECORD
  5
122
102
{ACAD_REACTORS
330
108
102
}
330
108
100
AcDbXrecord
 10
0.0
 20
0.0
 30
0.0
  0
XRECORD
  5
11F
102
{ACAD_REACTORS
330
108
102
}
330
108
100
AcDbXrecord
340
0
  0
XRECORD
  5
120
102
{ACAD_REACTORS
330
108
102
}
330
108
100
AcDbXrecord
 70
     0
  0
XRECORD
  5
114
102
{ACAD_REACTORS
330
108
102
}
330
108
100
AcDbXrecord
  1
{FAEB1C32-E019-11D5-929B-00C0DF256EC4}
  0
DICTIONARYVAR
  5
133
102
{ACAD_REACTORS
330
129
102
}
330
129
100
DictionaryVariables
280
     0
  1
1:1
  0
DICTIONARYVAR
  5
12B
102
{ACAD_REACTORS
330
129
102
}
330
129
100
DictionaryVariables
280
     0
  1
Standard
  0
DICTIONARYVAR
  5
12A
102
{ACAD_REACTORS
330
129
102
}
330
129
100
DictionaryVariables
280
     0
  1
Standard
  0
DICTIONARYVAR
  5
12E
102
{ACAD_REACTORS
330
129
102
}
330
129
100
DictionaryVariables
280
     0
  1
2
  0
DICTIONARYVAR
  5
12F
102
{ACAD_REACTORS
330
129
102
}
330
129
100
DictionaryVariables
280
     0
  1
1
  0
DICTIONARYVAR
  5
134
102
{ACAD_REACTORS
330
129
102
}
330
129
100
DictionaryVariables
280
     0
  1
1
  0
DICTIONARY
  5
137
330
45
100
AcDbDictionary
280
     1
  3
ACAD_XREC_ROUNDTRIP
360
138
  0
DICTIONARY
  5
135
330
44
100
AcDbDictionary
280
     1
  3
ACAD_XREC_ROUNDTRIP
360
136
  0
DICTIONARY
  5
139
330
46
100
AcDbDictionary
280
     1
  3
ACAD_XREC_ROUNDTRIP
360
13A
  0
XRECORD
  5
138
102
{ACAD_REACTORS
330
137
102
}
330
137
100
AcDbXrecord
102
MATERIAL
148
0.0
149
0.0
149
0.0
 93
        0
 94
      127
282
     0
 72
     1
 77
     1
171
     1
175
     1
179
     1
273
     0
  0
XRECORD
  5
136
102
{ACAD_REACTORS
330
135
102
}
330
135
100
AcDbXrecord
102
MATERIAL
148
0.0
149
0.0
149
0.0
 93
        0
 94
      127
282
     0
 72
     1
 77
     1
171
     1
175
     1
179
     1
273
     0
  0
XRECORD
  5
13A
102
{ACAD_REACTORS
330
139
102
}
330
139
100
AcDbXrecord
102
MATERIAL
148
0.0
149
0.0
149
0.0
 93
        0
 94
      127
282
     0
 72
     1
 77
     1
171
     1
175
     1
179
     1
273
     0
  0
ENDSEC
  0
EOF
