M48
INCH
T1C0.0118
T2C0.0157
T3C0.0157
T4C0.0276
T5C0.0295
T6C0.0360
T7C0.0433
T8C0.0472
T9C0.0591
T10C0.0669
T11C0.0866
T12C0.1969
%
G90
G05
T1
X2.0043Y-3.6102
X2.0233Y-3.3189
X2.0512Y-2.5704
X2.0661Y-3.0118
X2.0728Y-3.9163
X2.09Y-2.7
X2.1063Y-3.2205
X2.11Y-2.51
X2.11Y-2.57
X2.113Y-4.759
X2.113Y-3.011
X2.1378Y-2.9697
X2.1378Y-3.9587
X2.1496Y-2.6693
X2.1594Y-4.0246
X2.185Y-4.5728
X2.2047Y-2.0787
X2.2047Y-2.1575
X2.2047Y-2.2362
X2.2047Y-2.315
X2.2323Y-4.2707
X2.2402Y-3.9222
X2.2835Y-2.0787
X2.2835Y-2.1575
X2.2835Y-2.2362
X2.2835Y-2.315
X2.2836Y-2.6958
X2.2894Y-4.6093
X2.3356Y-4.2766
X2.3622Y-2.0787
X2.3622Y-2.1575
X2.3622Y-2.2362
X2.3622Y-2.315
X2.4075Y-4.6073
X2.4181Y-3.9755
X2.4397Y-4.1704
X2.4409Y-2.0787
X2.4409Y-2.1575
X2.4409Y-2.2362
X2.4409Y-2.315
X2.4409Y-3.3228
X2.4411Y-2.6956
X2.4449Y-4.3425
X2.4577Y-4.4843
X2.5217Y-4.0571
X2.5276Y-2.5236
X2.5276Y-2.5787
X2.5278Y-2.7021
X2.53Y-3.1811
X2.53Y-3.2441
X2.5738Y-4.4252
X2.6004Y-4.6073
X2.6102Y-3.3228
X2.6142Y-2.0787
X2.6142Y-2.1575
X2.6142Y-2.2362
X2.6142Y-2.315
X2.6299Y-4.2234
X2.6575Y-3.9085
X2.6732Y-4.0591
X2.6772Y-4.561
X2.6929Y-2.0787
X2.6929Y-2.1575
X2.6929Y-2.2362
X2.6929Y-2.315
X2.7441Y-4.628
X2.7703Y-3.4985
X2.7703Y-3.5425
X2.7717Y-2.0787
X2.7717Y-2.1575
X2.7717Y-2.2362
X2.7717Y-2.315
X2.7953Y-4.5512
X2.8374Y-4.4184
X2.8465Y-2.6969
X2.8504Y-2.0787
X2.8504Y-2.1575
X2.8504Y-2.2362
X2.8504Y-2.315
X2.8504Y-3.3228
X2.8858Y-4.3268
X2.8858Y-4.3898
X2.9321Y-4.7726
X2.9331Y-2.5197
X2.9331Y-2.5827
X2.9331Y-2.7047
X2.9331Y-3.3583
X2.937Y-3.1732
X2.937Y-3.2362
X2.9488Y-4.0197
X2.9488Y-4.3543
X2.9764Y-3.2835
X2.9823Y-4.0197
X2.9941Y-4.3671
X3.0Y-4.4685
X3.0177Y-3.9961
X3.0192Y-3.8661
X3.0197Y-4.5984
X3.0202Y-4.2677
X3.0236Y-2.0354
X3.0236Y-2.2362
X3.0236Y-2.315
X3.0472Y-4.3228
X3.0886Y-3.8671
X3.0888Y-4.2441
X3.1024Y-2.0787
X3.1024Y-2.1575
X3.1024Y-2.2362
X3.1024Y-2.315
X3.1075Y-4.3254
X3.122Y-4.2165
X3.1496Y-4.6181
X3.1634Y-4.3652
X3.1778Y-4.2316
X3.1811Y-2.0787
X3.1811Y-2.1575
X3.1811Y-2.2362
X3.1811Y-2.315
X3.185Y-4.3346
X3.2244Y-4.3307
X3.2323Y-4.1142
X3.2524Y-4.3065
X3.2554Y-3.8903
X3.2598Y-2.0787
X3.2598Y-2.1575
X3.2598Y-2.2362
X3.2598Y-2.315
X3.2963Y-3.9961
X3.3022Y-4.2392
X3.3461Y-4.2677
X3.3661Y-3.8602
X3.3728Y-3.1773
X3.378Y-2.6196
X3.3819Y-2.5079
X3.3819Y-2.5669
X3.3819Y-2.685
X3.3898Y-4.2126
X3.3967Y-4.2972
X3.4055Y-4.561
X3.4173Y-3.2953
X3.4252Y-4.4803
X3.4439Y-4.5384
X3.4488Y-4.2244
X3.4606Y-4.3504
X3.4803Y-2.0787
X3.4803Y-2.1575
X3.4803Y-2.2362
X3.4803Y-2.315
X3.4931Y-4.3494
X3.498Y-4.4498
X3.5Y-4.1142
X3.5059Y-4.6772
X3.5079Y-4.6161
X3.5295Y-4.3179
X3.5423Y-3.878
X3.5591Y-2.0787
X3.5591Y-2.1575
X3.5591Y-2.2362
X3.5591Y-2.315
X3.5591Y-2.7008
X3.5709Y-3.998
X3.5915Y-3.813
X3.6378Y-2.0787
X3.6378Y-2.1575
X3.6378Y-2.2362
X3.6378Y-2.315
X3.6467Y-3.8612
X3.6811Y-4.2402
X3.689Y-4.312
X3.7084Y-4.5169
X3.7087Y-3.3346
X3.7165Y-2.0787
X3.7165Y-2.1575
X3.7165Y-2.2362
X3.7165Y-2.315
X3.7165Y-2.7008
X3.7933Y-4.1407
X3.7953Y-2.5276
X3.7992Y-2.5827
X3.7992Y-2.7008
X3.8031Y-3.185
X3.8031Y-3.2441
X3.8032Y-4.0935
X3.8051Y-3.0354
X3.8051Y-3.1024
X3.8278Y-4.4744
X3.8622Y-4.248
X3.8819Y-2.0787
X3.8819Y-2.1575
X3.8819Y-2.2362
X3.8819Y-2.315
X3.8819Y-4.0748
X3.8858Y-3.3346
X3.8898Y-4.3287
X3.9075Y-4.1604
X3.9291Y-3.7992
X3.9301Y-4.2785
X3.9606Y-2.0787
X3.9606Y-2.1575
X3.9606Y-2.2362
X3.9606Y-2.315
X3.9708Y-4.0581
X4.0236Y-4.1417
X4.0394Y-2.0787
X4.0394Y-2.1575
X4.0394Y-2.2362
X4.0394Y-2.315
X4.041Y-3.5057
X4.041Y-3.5467
X4.0591Y-4.1102
X4.0664Y-3.8346
X4.0669Y-3.9409
X4.1181Y-2.0787
X4.1181Y-2.1575
X4.1181Y-2.2362
X4.1181Y-2.315
X4.122Y-2.7047
X4.122Y-3.3346
X4.13Y-3.84
X4.1303Y-4.0354
X4.1319Y-4.3642
X4.1378Y-4.2598
X4.1476Y-4.4626
X4.1496Y-4.3228
X4.1732Y-4.1457
X4.1841Y-4.4341
X4.2047Y-3.2362
X4.2087Y-2.5177
X4.2087Y-2.5768
X4.2087Y-3.1772
X4.2126Y-2.7008
X4.2126Y-4.2382
X4.2165Y-4.3268
X4.2372Y-4.0443
X4.2559Y-3.9406
X4.2953Y-3.3307
X4.2972Y-3.9783
X4.2992Y-2.0787
X4.2992Y-2.1575
X4.2992Y-2.2362
X4.2992Y-2.315
X4.3081Y-4.0807
X4.3327Y-4.2657
X4.3524Y-4.4665
X4.378Y-2.0787
X4.378Y-2.1575
X4.378Y-2.2362
X4.378Y-2.315
X4.3858Y-4.0591
X4.3917Y-3.9705
X4.4035Y-4.249
X4.4341Y-4.247
X4.4567Y-2.0787
X4.4567Y-2.1575
X4.4567Y-2.2362
X4.4567Y-2.315
X4.4594Y-3.9283
X4.4724Y-4.0512
X4.4882Y-4.1811
X4.5118Y-4.3484
X4.5118Y-4.4173
X4.5135Y-4.3801
X4.5197Y-3.9941
X4.5276Y-4.1417
X4.5354Y-2.0787
X4.5354Y-2.1575
X4.5354Y-2.2362
X4.5354Y-2.315
X4.5512Y-3.9272
X4.6014Y-4.0443
X4.628Y-4.2421
X4.628Y-4.3012
X4.6319Y-3.2156
X4.6476Y-4.002
X4.6535Y-2.6378
X4.6575Y-2.5197
X4.6575Y-2.5787
X4.6575Y-2.7008
X4.6693Y-4.2953
X4.6831Y-4.1496
X4.69Y-4.0246
X4.7138Y-3.2984
X4.7402Y-4.1339
X4.7441Y-4.0187
X4.75Y-4.4626
X4.752Y-2.0787
X4.752Y-2.1575
X4.752Y-2.2362
X4.752Y-2.315
X4.7579Y-4.2854
X4.7677Y-4.248
X4.7697Y-4.0
X4.7736Y-4.3858
X4.815Y-4.185
X4.8267Y-4.3532
X4.8307Y-2.0787
X4.8307Y-2.1575
X4.8307Y-2.2362
X4.8307Y-2.315
X4.8307Y-2.7087
X4.8455Y-4.311
X4.8484Y-4.376
X4.8592Y-4.2273
X4.876Y-4.1969
X4.8818Y-4.3769
X4.8917Y-4.313
X4.9094Y-2.0787
X4.9094Y-2.1575
X4.9094Y-2.2362
X4.9094Y-2.315
X4.9104Y-3.9656
X4.9114Y-4.2264
X4.9133Y-4.3769
X4.9674Y-4.3021
X4.9882Y-2.0787
X4.9882Y-2.1575
X4.9882Y-2.2362
X4.9882Y-2.315
X4.9894Y-4.2207
X4.9921Y-2.7047
X4.9961Y-3.3346
X5.0098Y-4.1969
X5.0335Y-4.2982
X5.0433Y-3.9705
X5.0453Y-4.5669
X5.0571Y-4.1437
X5.063Y-4.3401
X5.063Y-4.43
X5.0748Y-2.5236
X5.0748Y-2.5866
X5.0748Y-2.7126
X5.0823Y-4.1248
X5.0866Y-3.189
X5.0866Y-3.248
X5.0933Y-4.444
X5.1496Y-4.1949
X5.1506Y-4.5679
X5.1543Y-4.2314
X5.1614Y-2.0787
X5.1614Y-2.1575
X5.1614Y-2.2362
X5.1614Y-2.315
X5.1654Y-3.3386
X5.1772Y-3.9665
X5.1949Y-4.3937
X5.2264Y-4.0817
X5.2402Y-2.0787
X5.2402Y-2.1575
X5.2402Y-2.2362
X5.2402Y-2.315
X5.2507Y-4.3771
X5.2822Y-4.3771
X5.3071Y-4.1142
X5.3137Y-4.3771
X5.3169Y-3.5059
X5.317Y-3.5502
X5.3189Y-2.0787
X5.3189Y-2.1575
X5.3189Y-2.2362
X5.3189Y-2.315
X5.3327Y-4.0433
X5.3452Y-4.3771
X5.3474Y-4.1624
X5.3764Y-4.3725
X5.3976Y-2.0787
X5.3976Y-2.1575
X5.3976Y-2.2362
X5.3976Y-2.315
X5.3996Y-4.0748
X5.4Y-4.5571
X5.4016Y-3.3346
X5.4232Y-4.3937
X5.4259Y-4.7747
X5.437Y-3.9646
X5.4567Y-4.122
X5.4732Y-4.2452
X5.4803Y-2.5295
X5.4803Y-2.5925
X5.4803Y-2.7126
X5.4921Y-3.185
X5.4921Y-3.2441
X5.498Y-4.5551
X5.5027Y-4.4145
X5.5046Y-4.4459
X5.5236Y-3.9567
X5.5492Y-4.2461
X5.5669Y-2.0787
X5.5669Y-2.1575
X5.5669Y-2.315
X5.5709Y-3.3346
X5.6024Y-3.9606
X5.6122Y-4.5799
X5.6171Y-4.251
X5.6299Y-4.0472
X5.6457Y-2.0787
X5.6457Y-2.1575
X5.6457Y-2.2362
X5.6457Y-2.315
X5.6457Y-2.7087
X5.6713Y-4.2343
X5.685Y-4.0305
X5.7008Y-4.5512
X5.7126Y-3.9646
X5.7244Y-2.0787
X5.7244Y-2.1575
X5.7244Y-2.2362
X5.7244Y-2.315
X5.7323Y-4.2343
X5.7343Y-4.0728
X5.7894Y-4.2343
X5.7933Y-4.0728
X5.8012Y-4.5531
X5.8216Y-4.3279
X5.8383Y-1.746
X5.8504Y-4.2343
X5.8524Y-4.0728
X5.8543Y-3.9409
T2
X1.9451Y-2.0276
X2.0159Y-2.0276
X2.0868Y-2.0276
X2.2268Y-3.622
X2.2268Y-3.7008
X2.2268Y-3.7795
X2.3056Y-3.622
X2.3056Y-3.7008
X2.3056Y-3.7795
X2.3843Y-3.622
X2.3843Y-3.7008
X2.3843Y-3.7795
X2.463Y-3.7008
X2.463Y-3.7795
X2.4921Y-1.9882
X2.53Y-3.0
X2.53Y-3.07
X2.5418Y-3.7795
X2.563Y-1.9882
X2.6205Y-3.7795
X2.6339Y-1.9882
X2.6993Y-3.7008
X2.6993Y-3.7795
X2.7047Y-1.9882
X2.7756Y-1.9882
X2.778Y-3.7008
X2.778Y-3.7795
X2.86Y-3.78
X2.9429Y-2.9961
X2.9429Y-3.0748
X2.9613Y-3.72
X3.0079Y-3.7795
X3.04Y-3.72
X3.1388Y-3.5413
X3.16Y-3.7013
X3.16Y-3.78
X3.189Y-3.5433
X3.189Y-3.622
X3.2205Y-3.7008
X3.2205Y-3.7795
X3.2795Y-1.9882
X3.3425Y-2.9022
X3.3465Y-3.622
X3.3465Y-3.7008
X3.3465Y-3.7795
X3.3474Y-2.7776
X3.3504Y-1.9882
X3.37Y-2.97
X3.3898Y-2.747
X3.3917Y-2.8238
X3.4065Y-2.9006
X3.41Y-2.97
X3.4213Y-1.9882
X3.4252Y-3.622
X3.4252Y-3.7008
X3.4921Y-1.9882
X3.5197Y-4.4961
X3.563Y-1.9882
X3.575Y-3.6263
X3.575Y-3.705
X3.5764Y-4.4961
X3.6614Y-3.622
X3.6614Y-3.7008
X3.6614Y-3.7795
X3.7402Y-3.622
X3.7402Y-3.7008
X3.7402Y-3.7795
X4.0669Y-1.9882
X4.098Y-3.6893
X4.098Y-3.768
X4.1319Y-4.6555
X4.1378Y-1.9882
X4.2087Y-1.9882
X4.2087Y-2.9961
X4.2087Y-3.0748
X4.26Y-3.78
X4.2795Y-1.9882
X4.3307Y-3.78
X4.3504Y-1.9882
X4.3701Y-3.7008
X4.4094Y-3.78
X4.437Y-3.6142
X4.4488Y-3.7008
X4.4882Y-3.78
X4.5276Y-3.622
X4.5276Y-3.7008
X4.5669Y-3.78
X4.6063Y-3.7008
X4.6211Y-3.625
X4.6412Y-2.9236
X4.6412Y-2.9636
X4.6457Y-3.78
X4.6683Y-2.7677
X4.6703Y-2.8445
X4.685Y-3.7008
X4.6919Y-2.9636
X4.6998Y-2.8061
X4.7012Y-2.9236
X4.7224Y-4.6467
X4.7244Y-3.78
X4.7323Y-3.624
X4.7638Y-3.7008
X4.8031Y-3.78
X4.8425Y-3.7008
X4.8819Y-3.78
X4.8937Y-1.9882
X4.9213Y-3.622
X4.9213Y-3.7008
X4.9606Y-3.78
X4.9646Y-1.9882
X5.0Y-3.7008
X5.0354Y-1.9882
X5.0394Y-3.78
X5.0827Y-3.0039
X5.0827Y-3.0827
X5.1063Y-1.9882
X5.1181Y-3.78
X5.1772Y-1.9882
X5.1969Y-3.78
X5.2362Y-3.7008
X5.315Y-3.622
X5.315Y-3.7008
X5.315Y-3.78
X5.3307Y-4.6299
X5.4232Y-3.622
X5.4232Y-3.7008
X5.4232Y-3.7795
X5.4862Y-3.002
X5.4862Y-3.0807
X5.502Y-3.7795
X5.5807Y-3.7795
X5.6594Y-3.7008
X5.6594Y-3.7795
X5.6654Y-1.9882
X5.7205Y-3.6181
X5.7362Y-1.9882
X5.7382Y-3.7008
X5.7382Y-3.7795
X5.8071Y-1.9882
X5.9173Y-3.0059
X5.9173Y-3.0846
X5.9173Y-3.1634
X5.9173Y-3.2421
X5.9211Y-2.5625
X5.9211Y-2.6413
X5.9211Y-2.72
X5.9511Y-3.306
X5.9862Y-3.0059
X5.9862Y-3.0846
X5.9862Y-3.1634
X5.9862Y-3.2421
X5.99Y-2.5625
X5.99Y-2.6413
X5.99Y-2.72
X6.02Y-3.306
X6.0662Y-3.0483
X6.0662Y-3.127
X6.0662Y-3.2057
X6.0819Y-2.5148
X6.0819Y-2.5848
X6.0836Y-2.6535
X6.0836Y-2.7235
X6.1811Y-3.0324
X6.1811Y-3.1024
X6.1811Y-3.1724
X6.1811Y-3.2424
X6.1936Y-2.6535
X6.1936Y-2.7235
X6.1969Y-2.5198
X6.1969Y-2.6063
X6.22Y-2.48
X6.22Y-2.78
X6.22Y-2.88
X6.22Y-3.28
X6.252Y-3.0339
X6.252Y-3.1339
X6.32Y-2.48
X6.32Y-2.58
X6.32Y-2.68
X6.32Y-2.78
X6.32Y-2.88
X6.32Y-2.98
X6.32Y-3.08
X6.32Y-3.18
X6.32Y-3.28
T3
X2.2049Y-3.0081
X2.2049Y-3.077
X2.2049Y-3.1459
X2.2049Y-3.2148
X2.2057Y-2.378
X2.2057Y-2.4469
X2.2057Y-2.5157
X2.2057Y-2.5846
X2.2836Y-3.0081
X2.2836Y-3.077
X2.2836Y-3.1459
X2.2836Y-3.2148
X2.2844Y-2.378
X2.2844Y-2.4469
X2.2844Y-2.5157
X2.2844Y-2.5846
X2.3623Y-3.0081
X2.3623Y-3.077
X2.3623Y-3.1459
X2.3623Y-3.2148
X2.3632Y-2.378
X2.3632Y-2.4469
X2.3632Y-2.5157
X2.3632Y-2.5846
X2.4411Y-3.0081
X2.4411Y-3.077
X2.4411Y-3.1459
X2.4411Y-3.2148
X2.4419Y-2.378
X2.4419Y-2.4469
X2.4419Y-2.5157
X2.4419Y-2.5846
X2.6133Y-2.3781
X2.6133Y-2.447
X2.6133Y-2.5159
X2.6133Y-2.5848
X2.6133Y-3.0081
X2.6133Y-3.077
X2.6133Y-3.1459
X2.6133Y-3.2148
X2.692Y-2.3781
X2.692Y-2.447
X2.692Y-2.5159
X2.692Y-2.5848
X2.692Y-3.0081
X2.692Y-3.077
X2.692Y-3.1459
X2.692Y-3.2148
X2.7708Y-2.3781
X2.7708Y-2.447
X2.7708Y-2.5159
X2.7708Y-2.5848
X2.7708Y-3.0081
X2.7708Y-3.077
X2.7708Y-3.1459
X2.7708Y-3.2148
X2.8495Y-2.3781
X2.8495Y-2.447
X2.8495Y-2.5159
X2.8495Y-2.5848
X2.8495Y-3.0081
X2.8495Y-3.077
X2.8495Y-3.1459
X2.8495Y-3.2148
X3.0196Y-2.3781
X3.0196Y-2.447
X3.0196Y-2.5159
X3.0196Y-2.5848
X3.0249Y-3.0081
X3.0249Y-3.077
X3.0249Y-3.1459
X3.0249Y-3.2148
X3.0984Y-2.3781
X3.0984Y-2.447
X3.0984Y-2.5159
X3.0984Y-2.5848
X3.1036Y-3.0081
X3.1036Y-3.077
X3.1036Y-3.1459
X3.1036Y-3.2148
X3.1771Y-2.3781
X3.1771Y-2.447
X3.1771Y-2.5159
X3.1771Y-2.5848
X3.1823Y-3.0081
X3.1823Y-3.077
X3.1823Y-3.1459
X3.1823Y-3.2148
X3.2559Y-2.3781
X3.2559Y-2.447
X3.2559Y-2.5159
X3.2559Y-2.5848
X3.2611Y-3.0081
X3.2611Y-3.077
X3.2611Y-3.1459
X3.2611Y-3.2148
X3.4763Y-3.0144
X3.4763Y-3.0833
X3.4763Y-3.1522
X3.4763Y-3.2211
X3.4787Y-2.3844
X3.4787Y-2.4533
X3.4787Y-2.5222
X3.4787Y-2.5911
X3.555Y-3.0144
X3.555Y-3.0833
X3.555Y-3.1522
X3.555Y-3.2211
X3.5575Y-2.3844
X3.5575Y-2.4533
X3.5575Y-2.5222
X3.5575Y-2.5911
X3.6337Y-3.0144
X3.6337Y-3.0833
X3.6337Y-3.1522
X3.6337Y-3.2211
X3.6362Y-2.3844
X3.6362Y-2.4533
X3.6362Y-2.5222
X3.6362Y-2.5911
X3.7125Y-3.0144
X3.7125Y-3.0833
X3.7125Y-3.1522
X3.7125Y-3.2211
X3.7149Y-2.3844
X3.7149Y-2.4533
X3.7149Y-2.5222
X3.7149Y-2.5911
X3.8834Y-2.3841
X3.8834Y-2.453
X3.8834Y-2.5219
X3.8834Y-2.5908
X3.8868Y-3.0168
X3.8868Y-3.0857
X3.8868Y-3.1546
X3.8868Y-3.2235
X3.9621Y-2.3841
X3.9621Y-2.453
X3.9621Y-2.5219
X3.9621Y-2.5908
X3.9655Y-3.0168
X3.9655Y-3.0857
X3.9655Y-3.1546
X3.9655Y-3.2235
X4.0408Y-2.3841
X4.0408Y-2.453
X4.0408Y-2.5219
X4.0408Y-2.5908
X4.0443Y-3.0168
X4.0443Y-3.0857
X4.0443Y-3.1546
X4.0443Y-3.2235
X4.1196Y-2.3841
X4.1196Y-2.453
X4.1196Y-2.5219
X4.1196Y-2.5908
X4.123Y-3.0168
X4.123Y-3.0857
X4.123Y-3.1546
X4.123Y-3.2235
X4.2966Y-3.0144
X4.2966Y-3.0833
X4.2966Y-3.1522
X4.2966Y-3.2211
X4.2983Y-2.3835
X4.2983Y-2.4524
X4.2983Y-2.5213
X4.2983Y-2.5902
X4.3753Y-3.0144
X4.3753Y-3.0833
X4.3753Y-3.1522
X4.3753Y-3.2211
X4.377Y-2.3835
X4.377Y-2.4524
X4.377Y-2.5213
X4.377Y-2.5902
X4.4541Y-3.0144
X4.4541Y-3.0833
X4.4541Y-3.1522
X4.4541Y-3.2211
X4.4557Y-2.3835
X4.4557Y-2.4524
X4.4557Y-2.5213
X4.4557Y-2.5902
X4.5328Y-3.0144
X4.5328Y-3.0833
X4.5328Y-3.1522
X4.5328Y-3.2211
X4.5345Y-2.3835
X4.5345Y-2.4524
X4.5345Y-2.5213
X4.5345Y-2.5902
X4.753Y-2.3889
X4.753Y-2.4578
X4.753Y-2.5267
X4.753Y-2.5956
X4.7569Y-3.0184
X4.7569Y-3.0873
X4.7569Y-3.1562
X4.7569Y-3.2251
X4.8317Y-2.3889
X4.8317Y-2.4578
X4.8317Y-2.5267
X4.8317Y-2.5956
X4.8357Y-3.0184
X4.8357Y-3.0873
X4.8357Y-3.1562
X4.8357Y-3.2251
X4.9105Y-2.3889
X4.9105Y-2.4578
X4.9105Y-2.5267
X4.9105Y-2.5956
X4.9144Y-3.0184
X4.9144Y-3.0873
X4.9144Y-3.1562
X4.9144Y-3.2251
X4.9892Y-2.3889
X4.9892Y-2.4578
X4.9892Y-2.5267
X4.9892Y-2.5956
X4.9931Y-3.0184
X4.9931Y-3.0873
X4.9931Y-3.1562
X4.9931Y-3.2251
X5.162Y-2.3889
X5.162Y-2.4578
X5.162Y-2.5267
X5.162Y-2.5956
X5.1655Y-3.0184
X5.1655Y-3.0873
X5.1655Y-3.1562
X5.1655Y-3.2251
X5.2407Y-2.3889
X5.2407Y-2.4578
X5.2407Y-2.5267
X5.2407Y-2.5956
X5.2442Y-3.0184
X5.2442Y-3.0873
X5.2442Y-3.1562
X5.2442Y-3.2251
X5.3195Y-2.3889
X5.3195Y-2.4578
X5.3195Y-2.5267
X5.3195Y-2.5956
X5.3229Y-3.0184
X5.3229Y-3.0873
X5.3229Y-3.1562
X5.3229Y-3.2251
X5.3982Y-2.3889
X5.3982Y-2.4578
X5.3982Y-2.5267
X5.3982Y-2.5956
X5.4017Y-3.0184
X5.4017Y-3.0873
X5.4017Y-3.1562
X5.4017Y-3.2251
X5.568Y-2.3889
X5.568Y-2.4578
X5.568Y-2.5267
X5.568Y-2.5956
X5.5712Y-3.0184
X5.5712Y-3.0873
X5.5712Y-3.1562
X5.5712Y-3.2251
X5.6467Y-2.3889
X5.6467Y-2.4578
X5.6467Y-2.5267
X5.6467Y-2.5956
X5.6499Y-3.0184
X5.6499Y-3.0873
X5.6499Y-3.1562
X5.6499Y-3.2251
X5.7255Y-2.3889
X5.7255Y-2.4578
X5.7255Y-2.5267
X5.7255Y-2.5956
X5.7287Y-3.0184
X5.7287Y-3.0873
X5.7287Y-3.1562
X5.7287Y-3.2251
X5.8042Y-2.3889
X5.8042Y-2.4578
X5.8042Y-2.5267
X5.8042Y-2.5956
X5.8074Y-3.0184
X5.8074Y-3.0873
X5.8074Y-3.1562
X5.8074Y-3.2251
T4
X5.2722Y-4.2787
X5.347Y-4.2787
T5
X3.5748Y-4.7126
X3.6535Y-4.7126
X3.7323Y-4.7126
X3.811Y-4.7126
X3.8898Y-4.7126
X3.9685Y-4.7126
X4.0472Y-4.7126
X4.2402Y-4.7126
X4.3189Y-4.7126
X4.3976Y-4.7126
X4.4764Y-4.7126
X4.5551Y-4.7126
X4.6339Y-4.7126
X4.8268Y-4.7126
X4.9055Y-4.7126
X4.9843Y-4.7126
X5.063Y-4.7126
X5.1417Y-4.7126
X5.2205Y-4.7126
X5.4134Y-4.7126
X5.4921Y-4.7126
X5.5709Y-4.7126
X5.6496Y-4.7126
X5.7283Y-4.7126
X5.8071Y-4.7126
T6
X3.9004Y-3.8987
X3.9004Y-4.4987
X4.0004Y-3.8987
X4.0004Y-4.4987
X4.1004Y-3.8987
X4.1004Y-4.4987
X4.2004Y-3.8987
X4.2004Y-4.4987
X4.3004Y-3.8987
X4.3004Y-4.4987
X4.4004Y-3.8987
X4.4004Y-4.4987
X4.4994Y-4.4991
X4.5004Y-3.8987
X4.6004Y-3.8987
X4.6004Y-4.4987
X4.7004Y-3.8987
X4.7004Y-4.4987
X4.8004Y-3.8987
X4.8004Y-4.4987
X4.9004Y-3.8987
X4.9004Y-4.4987
X5.0004Y-3.8987
X5.0004Y-4.4987
X5.1004Y-3.8987
X5.1004Y-4.4987
X5.2004Y-3.8987
X5.2004Y-4.4987
X5.3004Y-3.8987
X5.3004Y-4.4987
X5.4004Y-3.8987
X5.4004Y-4.4987
X5.5004Y-3.8987
X5.5004Y-4.4987
X5.6004Y-3.8987
X5.6004Y-4.4987
X5.7004Y-3.8987
X5.7004Y-4.4987
X5.8004Y-3.8987
X5.8004Y-4.4987
T7
X3.1181Y-4.5591
X3.2181Y-4.5591
X3.3181Y-4.5591
T8
X2.2638Y-1.5049
X2.2638Y-1.8002
X3.0364Y-1.5028
X3.0364Y-1.7981
X3.8209Y-1.5028
X3.8209Y-1.7981
X4.6093Y-1.5028
X4.6093Y-1.7981
X5.3907Y-1.5028
X5.3907Y-1.7981
T9
X2.0724Y-4.2071
X2.0724Y-4.4071
X2.6024Y-4.7008
X2.857Y-4.2039
X2.8724Y-3.9071
X2.8724Y-4.7071
T10
X2.5276Y-2.26
X2.5787Y-3.6339
X2.9724Y-3.6339
X3.38Y-2.26
X3.8386Y-3.6339
X4.2126Y-2.2598
X4.2323Y-3.6339
X5.0709Y-2.2598
X5.1181Y-3.6339
X5.4961Y-2.2598
X5.5512Y-3.6339
T12
X6.1024Y-2.2303
X6.1024Y-3.5827
T11
G00X2.3268Y-2.8543
M15
G01X2.3976Y-2.8543
M16
G05
G00X3.1142Y-2.8543
M15
G01X3.185Y-2.8543
M16
G05
G00X3.5866Y-2.8543
M15
G01X3.6575Y-2.8543
M16
G05
G00X4.374Y-2.8543
M15
G01X4.4449Y-2.8543
M16
G05
G00X4.8465Y-2.8543
M15
G01X4.9173Y-2.8543
M16
G05
G00X5.6339Y-2.8543
M15
G01X5.7047Y-2.8543
M16
G05
T0
M30
