%TF.GenerationSoftware,KiCad,Pcbnew,7.0.1-0*%
%TF.CreationDate,2023-10-26T13:37:28-04:00*%
%TF.ProjectId,MP2_DFN,4d50325f-4446-44e2-9e6b-696361645f70,rev?*%
%TF.SameCoordinates,Original*%
%TF.FileFunction,Legend,Bot*%
%TF.FilePolarity,Positive*%
%FSLAX46Y46*%
G04 Gerber Fmt 4.6, Leading zero omitted, Abs format (unit mm)*
G04 Created by KiCad (PCBNEW 7.0.1-0) date 2023-10-26 13:37:28*
%MOMM*%
%LPD*%
G01*
G04 APERTURE LIST*
G04 Aperture macros list*
%AMRoundRect*
0 Rectangle with rounded corners*
0 $1 Rounding radius*
0 $2 $3 $4 $5 $6 $7 $8 $9 X,Y pos of 4 corners*
0 Add a 4 corners polygon primitive as box body*
4,1,4,$2,$3,$4,$5,$6,$7,$8,$9,$2,$3,0*
0 Add four circle primitives for the rounded corners*
1,1,$1+$1,$2,$3*
1,1,$1+$1,$4,$5*
1,1,$1+$1,$6,$7*
1,1,$1+$1,$8,$9*
0 Add four rect primitives between the rounded corners*
20,1,$1+$1,$2,$3,$4,$5,0*
20,1,$1+$1,$4,$5,$6,$7,0*
20,1,$1+$1,$6,$7,$8,$9,0*
20,1,$1+$1,$8,$9,$2,$3,0*%
%AMFreePoly0*
4,1,21,0.540000,-0.740000,0.007966,-0.740000,0.007071,-0.737840,0.000000,-0.734911,-0.069719,-0.734911,-0.203510,-0.695626,-0.320814,-0.620239,-0.412128,-0.514857,-0.470052,-0.388020,-0.490000,-0.249286,-0.490000,0.249286,-0.470052,0.388020,-0.412128,0.514857,-0.320814,0.620239,-0.203510,0.695626,-0.069719,0.734911,0.000000,0.734911,0.007071,0.737840,0.007966,0.740000,0.540000,0.740000,
0.540000,-0.740000,0.540000,-0.740000,$1*%
%AMFreePoly1*
4,1,21,-0.007071,0.737840,0.000000,0.734911,0.069719,0.734911,0.203510,0.695626,0.320814,0.620239,0.412128,0.514857,0.470052,0.388020,0.490000,0.249286,0.490000,-0.249286,0.470052,-0.388020,0.412128,-0.514857,0.320814,-0.620239,0.203510,-0.695626,0.069719,-0.734911,0.000000,-0.734911,-0.007071,-0.737840,-0.007966,-0.740000,-0.540000,-0.740000,-0.540000,0.740000,-0.007966,0.740000,
-0.007071,0.737840,-0.007071,0.737840,$1*%
G04 Aperture macros list end*
%ADD10C,0.150000*%
%ADD11C,0.100000*%
%ADD12C,0.200000*%
%ADD13C,0.300000*%
%ADD14C,0.120000*%
%ADD15C,5.050000*%
%ADD16C,6.078332*%
%ADD17C,3.180000*%
%ADD18C,0.780000*%
%ADD19RoundRect,0.240000X0.350000X0.625000X-0.350000X0.625000X-0.350000X-0.625000X0.350000X-0.625000X0*%
%ADD20O,1.180000X1.730000*%
%ADD21C,2.980000*%
%ADD22C,1.504000*%
%ADD23C,1.380000*%
%ADD24O,1.380000X1.380000*%
%ADD25C,2.480000*%
%ADD26FreePoly0,90.000000*%
%ADD27R,1.480000X0.980000*%
%ADD28FreePoly1,90.000000*%
%ADD29RoundRect,0.240000X1.000000X0.650000X-1.000000X0.650000X-1.000000X-0.650000X1.000000X-0.650000X0*%
%ADD30R,2.380000X2.380000*%
%ADD31C,2.380000*%
%ADD32C,1.980000*%
%ADD33R,5.980000X3.980000*%
%ADD34RoundRect,0.240000X1.400000X2.000000X-1.400000X2.000000X-1.400000X-2.000000X1.400000X-2.000000X0*%
G04 APERTURE END LIST*
D10*
X78200000Y-54250000D02*
G75*
G03*
X78200000Y-54250000I-2800000J0D01*
G01*
X54100000Y-72500000D02*
G75*
G03*
X54100000Y-72500000I-2800000J0D01*
G01*
X120800000Y-54250000D02*
G75*
G03*
X120800000Y-54250000I-2800000J0D01*
G01*
X88550000Y-88000000D02*
G75*
G03*
X88550000Y-88000000I-2800000J0D01*
G01*
X154800000Y-72900000D02*
G75*
G03*
X154800000Y-72900000I-2800000J0D01*
G01*
X120800000Y-88000000D02*
G75*
G03*
X120800000Y-88000000I-2800000J0D01*
G01*
X69938095Y-106425238D02*
X70033333Y-106377619D01*
X70033333Y-106377619D02*
X70176190Y-106377619D01*
X70176190Y-106377619D02*
X70319047Y-106425238D01*
X70319047Y-106425238D02*
X70414285Y-106520476D01*
X70414285Y-106520476D02*
X70461904Y-106615714D01*
X70461904Y-106615714D02*
X70509523Y-106806190D01*
X70509523Y-106806190D02*
X70509523Y-106949047D01*
X70509523Y-106949047D02*
X70461904Y-107139523D01*
X70461904Y-107139523D02*
X70414285Y-107234761D01*
X70414285Y-107234761D02*
X70319047Y-107330000D01*
X70319047Y-107330000D02*
X70176190Y-107377619D01*
X70176190Y-107377619D02*
X70080952Y-107377619D01*
X70080952Y-107377619D02*
X69938095Y-107330000D01*
X69938095Y-107330000D02*
X69890476Y-107282380D01*
X69890476Y-107282380D02*
X69890476Y-106949047D01*
X69890476Y-106949047D02*
X70080952Y-106949047D01*
X69461904Y-107377619D02*
X69461904Y-106377619D01*
X69461904Y-106377619D02*
X68890476Y-107377619D01*
X68890476Y-107377619D02*
X68890476Y-106377619D01*
X68414285Y-107377619D02*
X68414285Y-106377619D01*
X68414285Y-106377619D02*
X68176190Y-106377619D01*
X68176190Y-106377619D02*
X68033333Y-106425238D01*
X68033333Y-106425238D02*
X67938095Y-106520476D01*
X67938095Y-106520476D02*
X67890476Y-106615714D01*
X67890476Y-106615714D02*
X67842857Y-106806190D01*
X67842857Y-106806190D02*
X67842857Y-106949047D01*
X67842857Y-106949047D02*
X67890476Y-107139523D01*
X67890476Y-107139523D02*
X67938095Y-107234761D01*
X67938095Y-107234761D02*
X68033333Y-107330000D01*
X68033333Y-107330000D02*
X68176190Y-107377619D01*
X68176190Y-107377619D02*
X68414285Y-107377619D01*
X122261904Y-45577619D02*
X122261904Y-44577619D01*
X122261904Y-44577619D02*
X121690476Y-45577619D01*
X121690476Y-45577619D02*
X121690476Y-44577619D01*
X121214285Y-45053809D02*
X120880952Y-45053809D01*
X120738095Y-45577619D02*
X121214285Y-45577619D01*
X121214285Y-45577619D02*
X121214285Y-44577619D01*
X121214285Y-44577619D02*
X120738095Y-44577619D01*
X119785714Y-44625238D02*
X119880952Y-44577619D01*
X119880952Y-44577619D02*
X120023809Y-44577619D01*
X120023809Y-44577619D02*
X120166666Y-44625238D01*
X120166666Y-44625238D02*
X120261904Y-44720476D01*
X120261904Y-44720476D02*
X120309523Y-44815714D01*
X120309523Y-44815714D02*
X120357142Y-45006190D01*
X120357142Y-45006190D02*
X120357142Y-45149047D01*
X120357142Y-45149047D02*
X120309523Y-45339523D01*
X120309523Y-45339523D02*
X120261904Y-45434761D01*
X120261904Y-45434761D02*
X120166666Y-45530000D01*
X120166666Y-45530000D02*
X120023809Y-45577619D01*
X120023809Y-45577619D02*
X119928571Y-45577619D01*
X119928571Y-45577619D02*
X119785714Y-45530000D01*
X119785714Y-45530000D02*
X119738095Y-45482380D01*
X119738095Y-45482380D02*
X119738095Y-45149047D01*
X119738095Y-45149047D02*
X119928571Y-45149047D01*
X81600704Y-45597619D02*
X81600704Y-44597619D01*
X81600704Y-44597619D02*
X81029276Y-45597619D01*
X81029276Y-45597619D02*
X81029276Y-44597619D01*
X80553085Y-45073809D02*
X80219752Y-45073809D01*
X80076895Y-45597619D02*
X80553085Y-45597619D01*
X80553085Y-45597619D02*
X80553085Y-44597619D01*
X80553085Y-44597619D02*
X80076895Y-44597619D01*
X79124514Y-44645238D02*
X79219752Y-44597619D01*
X79219752Y-44597619D02*
X79362609Y-44597619D01*
X79362609Y-44597619D02*
X79505466Y-44645238D01*
X79505466Y-44645238D02*
X79600704Y-44740476D01*
X79600704Y-44740476D02*
X79648323Y-44835714D01*
X79648323Y-44835714D02*
X79695942Y-45026190D01*
X79695942Y-45026190D02*
X79695942Y-45169047D01*
X79695942Y-45169047D02*
X79648323Y-45359523D01*
X79648323Y-45359523D02*
X79600704Y-45454761D01*
X79600704Y-45454761D02*
X79505466Y-45550000D01*
X79505466Y-45550000D02*
X79362609Y-45597619D01*
X79362609Y-45597619D02*
X79267371Y-45597619D01*
X79267371Y-45597619D02*
X79124514Y-45550000D01*
X79124514Y-45550000D02*
X79076895Y-45502380D01*
X79076895Y-45502380D02*
X79076895Y-45169047D01*
X79076895Y-45169047D02*
X79267371Y-45169047D01*
D11*
X105495237Y-116485047D02*
X105247618Y-116485047D01*
X105247618Y-116485047D02*
X105380951Y-116637428D01*
X105380951Y-116637428D02*
X105323808Y-116637428D01*
X105323808Y-116637428D02*
X105285713Y-116656476D01*
X105285713Y-116656476D02*
X105266665Y-116675523D01*
X105266665Y-116675523D02*
X105247618Y-116713619D01*
X105247618Y-116713619D02*
X105247618Y-116808857D01*
X105247618Y-116808857D02*
X105266665Y-116846952D01*
X105266665Y-116846952D02*
X105285713Y-116866000D01*
X105285713Y-116866000D02*
X105323808Y-116885047D01*
X105323808Y-116885047D02*
X105438094Y-116885047D01*
X105438094Y-116885047D02*
X105476189Y-116866000D01*
X105476189Y-116866000D02*
X105495237Y-116846952D01*
X105133332Y-116485047D02*
X104999999Y-116885047D01*
X104999999Y-116885047D02*
X104866666Y-116485047D01*
X104771428Y-116485047D02*
X104523809Y-116485047D01*
X104523809Y-116485047D02*
X104657142Y-116637428D01*
X104657142Y-116637428D02*
X104599999Y-116637428D01*
X104599999Y-116637428D02*
X104561904Y-116656476D01*
X104561904Y-116656476D02*
X104542856Y-116675523D01*
X104542856Y-116675523D02*
X104523809Y-116713619D01*
X104523809Y-116713619D02*
X104523809Y-116808857D01*
X104523809Y-116808857D02*
X104542856Y-116846952D01*
X104542856Y-116846952D02*
X104561904Y-116866000D01*
X104561904Y-116866000D02*
X104599999Y-116885047D01*
X104599999Y-116885047D02*
X104714285Y-116885047D01*
X104714285Y-116885047D02*
X104752380Y-116866000D01*
X104752380Y-116866000D02*
X104771428Y-116846952D01*
D10*
X101869904Y-45597619D02*
X101869904Y-44597619D01*
X101869904Y-44597619D02*
X101298476Y-45597619D01*
X101298476Y-45597619D02*
X101298476Y-44597619D01*
X100822285Y-45073809D02*
X100488952Y-45073809D01*
X100346095Y-45597619D02*
X100822285Y-45597619D01*
X100822285Y-45597619D02*
X100822285Y-44597619D01*
X100822285Y-44597619D02*
X100346095Y-44597619D01*
X99393714Y-44645238D02*
X99488952Y-44597619D01*
X99488952Y-44597619D02*
X99631809Y-44597619D01*
X99631809Y-44597619D02*
X99774666Y-44645238D01*
X99774666Y-44645238D02*
X99869904Y-44740476D01*
X99869904Y-44740476D02*
X99917523Y-44835714D01*
X99917523Y-44835714D02*
X99965142Y-45026190D01*
X99965142Y-45026190D02*
X99965142Y-45169047D01*
X99965142Y-45169047D02*
X99917523Y-45359523D01*
X99917523Y-45359523D02*
X99869904Y-45454761D01*
X99869904Y-45454761D02*
X99774666Y-45550000D01*
X99774666Y-45550000D02*
X99631809Y-45597619D01*
X99631809Y-45597619D02*
X99536571Y-45597619D01*
X99536571Y-45597619D02*
X99393714Y-45550000D01*
X99393714Y-45550000D02*
X99346095Y-45502380D01*
X99346095Y-45502380D02*
X99346095Y-45169047D01*
X99346095Y-45169047D02*
X99536571Y-45169047D01*
X61991904Y-38485619D02*
X61991904Y-37485619D01*
X61991904Y-37485619D02*
X61610952Y-37485619D01*
X61610952Y-37485619D02*
X61515714Y-37533238D01*
X61515714Y-37533238D02*
X61468095Y-37580857D01*
X61468095Y-37580857D02*
X61420476Y-37676095D01*
X61420476Y-37676095D02*
X61420476Y-37818952D01*
X61420476Y-37818952D02*
X61468095Y-37914190D01*
X61468095Y-37914190D02*
X61515714Y-37961809D01*
X61515714Y-37961809D02*
X61610952Y-38009428D01*
X61610952Y-38009428D02*
X61991904Y-38009428D01*
X60801428Y-37485619D02*
X60610952Y-37485619D01*
X60610952Y-37485619D02*
X60515714Y-37533238D01*
X60515714Y-37533238D02*
X60420476Y-37628476D01*
X60420476Y-37628476D02*
X60372857Y-37818952D01*
X60372857Y-37818952D02*
X60372857Y-38152285D01*
X60372857Y-38152285D02*
X60420476Y-38342761D01*
X60420476Y-38342761D02*
X60515714Y-38438000D01*
X60515714Y-38438000D02*
X60610952Y-38485619D01*
X60610952Y-38485619D02*
X60801428Y-38485619D01*
X60801428Y-38485619D02*
X60896666Y-38438000D01*
X60896666Y-38438000D02*
X60991904Y-38342761D01*
X60991904Y-38342761D02*
X61039523Y-38152285D01*
X61039523Y-38152285D02*
X61039523Y-37818952D01*
X61039523Y-37818952D02*
X60991904Y-37628476D01*
X60991904Y-37628476D02*
X60896666Y-37533238D01*
X60896666Y-37533238D02*
X60801428Y-37485619D01*
X59991904Y-38438000D02*
X59849047Y-38485619D01*
X59849047Y-38485619D02*
X59610952Y-38485619D01*
X59610952Y-38485619D02*
X59515714Y-38438000D01*
X59515714Y-38438000D02*
X59468095Y-38390380D01*
X59468095Y-38390380D02*
X59420476Y-38295142D01*
X59420476Y-38295142D02*
X59420476Y-38199904D01*
X59420476Y-38199904D02*
X59468095Y-38104666D01*
X59468095Y-38104666D02*
X59515714Y-38057047D01*
X59515714Y-38057047D02*
X59610952Y-38009428D01*
X59610952Y-38009428D02*
X59801428Y-37961809D01*
X59801428Y-37961809D02*
X59896666Y-37914190D01*
X59896666Y-37914190D02*
X59944285Y-37866571D01*
X59944285Y-37866571D02*
X59991904Y-37771333D01*
X59991904Y-37771333D02*
X59991904Y-37676095D01*
X59991904Y-37676095D02*
X59944285Y-37580857D01*
X59944285Y-37580857D02*
X59896666Y-37533238D01*
X59896666Y-37533238D02*
X59801428Y-37485619D01*
X59801428Y-37485619D02*
X59563333Y-37485619D01*
X59563333Y-37485619D02*
X59420476Y-37533238D01*
X115308038Y-116261904D02*
X115260419Y-116166666D01*
X115260419Y-116166666D02*
X115260419Y-116023809D01*
X115260419Y-116023809D02*
X115308038Y-115880952D01*
X115308038Y-115880952D02*
X115403276Y-115785714D01*
X115403276Y-115785714D02*
X115498514Y-115738095D01*
X115498514Y-115738095D02*
X115688990Y-115690476D01*
X115688990Y-115690476D02*
X115831847Y-115690476D01*
X115831847Y-115690476D02*
X116022323Y-115738095D01*
X116022323Y-115738095D02*
X116117561Y-115785714D01*
X116117561Y-115785714D02*
X116212800Y-115880952D01*
X116212800Y-115880952D02*
X116260419Y-116023809D01*
X116260419Y-116023809D02*
X116260419Y-116119047D01*
X116260419Y-116119047D02*
X116212800Y-116261904D01*
X116212800Y-116261904D02*
X116165180Y-116309523D01*
X116165180Y-116309523D02*
X115831847Y-116309523D01*
X115831847Y-116309523D02*
X115831847Y-116119047D01*
X116260419Y-116738095D02*
X115260419Y-116738095D01*
X115260419Y-116738095D02*
X116260419Y-117309523D01*
X116260419Y-117309523D02*
X115260419Y-117309523D01*
X116260419Y-117785714D02*
X115260419Y-117785714D01*
X115260419Y-117785714D02*
X115260419Y-118023809D01*
X115260419Y-118023809D02*
X115308038Y-118166666D01*
X115308038Y-118166666D02*
X115403276Y-118261904D01*
X115403276Y-118261904D02*
X115498514Y-118309523D01*
X115498514Y-118309523D02*
X115688990Y-118357142D01*
X115688990Y-118357142D02*
X115831847Y-118357142D01*
X115831847Y-118357142D02*
X116022323Y-118309523D01*
X116022323Y-118309523D02*
X116117561Y-118261904D01*
X116117561Y-118261904D02*
X116212800Y-118166666D01*
X116212800Y-118166666D02*
X116260419Y-118023809D01*
X116260419Y-118023809D02*
X116260419Y-117785714D01*
X104355951Y-119431666D02*
X103594047Y-119431666D01*
X136952019Y-116071428D02*
X137952019Y-116404761D01*
X137952019Y-116404761D02*
X136952019Y-116738094D01*
X137904400Y-117499999D02*
X137952019Y-117404761D01*
X137952019Y-117404761D02*
X137952019Y-117214285D01*
X137952019Y-117214285D02*
X137904400Y-117119047D01*
X137904400Y-117119047D02*
X137856780Y-117071428D01*
X137856780Y-117071428D02*
X137761542Y-117023809D01*
X137761542Y-117023809D02*
X137475828Y-117023809D01*
X137475828Y-117023809D02*
X137380590Y-117071428D01*
X137380590Y-117071428D02*
X137332971Y-117119047D01*
X137332971Y-117119047D02*
X137285352Y-117214285D01*
X137285352Y-117214285D02*
X137285352Y-117404761D01*
X137285352Y-117404761D02*
X137332971Y-117499999D01*
X137904400Y-118357142D02*
X137952019Y-118261904D01*
X137952019Y-118261904D02*
X137952019Y-118071428D01*
X137952019Y-118071428D02*
X137904400Y-117976190D01*
X137904400Y-117976190D02*
X137856780Y-117928571D01*
X137856780Y-117928571D02*
X137761542Y-117880952D01*
X137761542Y-117880952D02*
X137475828Y-117880952D01*
X137475828Y-117880952D02*
X137380590Y-117928571D01*
X137380590Y-117928571D02*
X137332971Y-117976190D01*
X137332971Y-117976190D02*
X137285352Y-118071428D01*
X137285352Y-118071428D02*
X137285352Y-118261904D01*
X137285352Y-118261904D02*
X137332971Y-118357142D01*
X122067619Y-116071428D02*
X123067619Y-116404761D01*
X123067619Y-116404761D02*
X122067619Y-116738094D01*
X123020000Y-117499999D02*
X123067619Y-117404761D01*
X123067619Y-117404761D02*
X123067619Y-117214285D01*
X123067619Y-117214285D02*
X123020000Y-117119047D01*
X123020000Y-117119047D02*
X122972380Y-117071428D01*
X122972380Y-117071428D02*
X122877142Y-117023809D01*
X122877142Y-117023809D02*
X122591428Y-117023809D01*
X122591428Y-117023809D02*
X122496190Y-117071428D01*
X122496190Y-117071428D02*
X122448571Y-117119047D01*
X122448571Y-117119047D02*
X122400952Y-117214285D01*
X122400952Y-117214285D02*
X122400952Y-117404761D01*
X122400952Y-117404761D02*
X122448571Y-117499999D01*
X123020000Y-118357142D02*
X123067619Y-118261904D01*
X123067619Y-118261904D02*
X123067619Y-118071428D01*
X123067619Y-118071428D02*
X123020000Y-117976190D01*
X123020000Y-117976190D02*
X122972380Y-117928571D01*
X122972380Y-117928571D02*
X122877142Y-117880952D01*
X122877142Y-117880952D02*
X122591428Y-117880952D01*
X122591428Y-117880952D02*
X122496190Y-117928571D01*
X122496190Y-117928571D02*
X122448571Y-117976190D01*
X122448571Y-117976190D02*
X122400952Y-118071428D01*
X122400952Y-118071428D02*
X122400952Y-118261904D01*
X122400952Y-118261904D02*
X122448571Y-118357142D01*
X142154304Y-38485619D02*
X142154304Y-37485619D01*
X142154304Y-37485619D02*
X141773352Y-37485619D01*
X141773352Y-37485619D02*
X141678114Y-37533238D01*
X141678114Y-37533238D02*
X141630495Y-37580857D01*
X141630495Y-37580857D02*
X141582876Y-37676095D01*
X141582876Y-37676095D02*
X141582876Y-37818952D01*
X141582876Y-37818952D02*
X141630495Y-37914190D01*
X141630495Y-37914190D02*
X141678114Y-37961809D01*
X141678114Y-37961809D02*
X141773352Y-38009428D01*
X141773352Y-38009428D02*
X142154304Y-38009428D01*
X140963828Y-37485619D02*
X140773352Y-37485619D01*
X140773352Y-37485619D02*
X140678114Y-37533238D01*
X140678114Y-37533238D02*
X140582876Y-37628476D01*
X140582876Y-37628476D02*
X140535257Y-37818952D01*
X140535257Y-37818952D02*
X140535257Y-38152285D01*
X140535257Y-38152285D02*
X140582876Y-38342761D01*
X140582876Y-38342761D02*
X140678114Y-38438000D01*
X140678114Y-38438000D02*
X140773352Y-38485619D01*
X140773352Y-38485619D02*
X140963828Y-38485619D01*
X140963828Y-38485619D02*
X141059066Y-38438000D01*
X141059066Y-38438000D02*
X141154304Y-38342761D01*
X141154304Y-38342761D02*
X141201923Y-38152285D01*
X141201923Y-38152285D02*
X141201923Y-37818952D01*
X141201923Y-37818952D02*
X141154304Y-37628476D01*
X141154304Y-37628476D02*
X141059066Y-37533238D01*
X141059066Y-37533238D02*
X140963828Y-37485619D01*
X140154304Y-38438000D02*
X140011447Y-38485619D01*
X140011447Y-38485619D02*
X139773352Y-38485619D01*
X139773352Y-38485619D02*
X139678114Y-38438000D01*
X139678114Y-38438000D02*
X139630495Y-38390380D01*
X139630495Y-38390380D02*
X139582876Y-38295142D01*
X139582876Y-38295142D02*
X139582876Y-38199904D01*
X139582876Y-38199904D02*
X139630495Y-38104666D01*
X139630495Y-38104666D02*
X139678114Y-38057047D01*
X139678114Y-38057047D02*
X139773352Y-38009428D01*
X139773352Y-38009428D02*
X139963828Y-37961809D01*
X139963828Y-37961809D02*
X140059066Y-37914190D01*
X140059066Y-37914190D02*
X140106685Y-37866571D01*
X140106685Y-37866571D02*
X140154304Y-37771333D01*
X140154304Y-37771333D02*
X140154304Y-37676095D01*
X140154304Y-37676095D02*
X140106685Y-37580857D01*
X140106685Y-37580857D02*
X140059066Y-37533238D01*
X140059066Y-37533238D02*
X139963828Y-37485619D01*
X139963828Y-37485619D02*
X139725733Y-37485619D01*
X139725733Y-37485619D02*
X139582876Y-37533238D01*
D12*
X61705713Y-89109928D02*
X61205713Y-90609928D01*
X61205713Y-90609928D02*
X60705713Y-89109928D01*
X59705714Y-89824214D02*
X59491428Y-89895642D01*
X59491428Y-89895642D02*
X59419999Y-89967071D01*
X59419999Y-89967071D02*
X59348571Y-90109928D01*
X59348571Y-90109928D02*
X59348571Y-90324214D01*
X59348571Y-90324214D02*
X59419999Y-90467071D01*
X59419999Y-90467071D02*
X59491428Y-90538500D01*
X59491428Y-90538500D02*
X59634285Y-90609928D01*
X59634285Y-90609928D02*
X60205714Y-90609928D01*
X60205714Y-90609928D02*
X60205714Y-89109928D01*
X60205714Y-89109928D02*
X59705714Y-89109928D01*
X59705714Y-89109928D02*
X59562857Y-89181357D01*
X59562857Y-89181357D02*
X59491428Y-89252785D01*
X59491428Y-89252785D02*
X59419999Y-89395642D01*
X59419999Y-89395642D02*
X59419999Y-89538500D01*
X59419999Y-89538500D02*
X59491428Y-89681357D01*
X59491428Y-89681357D02*
X59562857Y-89752785D01*
X59562857Y-89752785D02*
X59705714Y-89824214D01*
X59705714Y-89824214D02*
X60205714Y-89824214D01*
X58062857Y-90609928D02*
X58062857Y-89824214D01*
X58062857Y-89824214D02*
X58134285Y-89681357D01*
X58134285Y-89681357D02*
X58277142Y-89609928D01*
X58277142Y-89609928D02*
X58562857Y-89609928D01*
X58562857Y-89609928D02*
X58705714Y-89681357D01*
X58062857Y-90538500D02*
X58205714Y-90609928D01*
X58205714Y-90609928D02*
X58562857Y-90609928D01*
X58562857Y-90609928D02*
X58705714Y-90538500D01*
X58705714Y-90538500D02*
X58777142Y-90395642D01*
X58777142Y-90395642D02*
X58777142Y-90252785D01*
X58777142Y-90252785D02*
X58705714Y-90109928D01*
X58705714Y-90109928D02*
X58562857Y-90038500D01*
X58562857Y-90038500D02*
X58205714Y-90038500D01*
X58205714Y-90038500D02*
X58062857Y-89967071D01*
X57562856Y-89609928D02*
X56991428Y-89609928D01*
X57348571Y-89109928D02*
X57348571Y-90395642D01*
X57348571Y-90395642D02*
X57277142Y-90538500D01*
X57277142Y-90538500D02*
X57134285Y-90609928D01*
X57134285Y-90609928D02*
X56991428Y-90609928D01*
X56491428Y-90038500D02*
X55348571Y-90038500D01*
D10*
X102103219Y-116071428D02*
X103103219Y-116404761D01*
X103103219Y-116404761D02*
X102103219Y-116738094D01*
X103055600Y-117499999D02*
X103103219Y-117404761D01*
X103103219Y-117404761D02*
X103103219Y-117214285D01*
X103103219Y-117214285D02*
X103055600Y-117119047D01*
X103055600Y-117119047D02*
X103007980Y-117071428D01*
X103007980Y-117071428D02*
X102912742Y-117023809D01*
X102912742Y-117023809D02*
X102627028Y-117023809D01*
X102627028Y-117023809D02*
X102531790Y-117071428D01*
X102531790Y-117071428D02*
X102484171Y-117119047D01*
X102484171Y-117119047D02*
X102436552Y-117214285D01*
X102436552Y-117214285D02*
X102436552Y-117404761D01*
X102436552Y-117404761D02*
X102484171Y-117499999D01*
X103055600Y-118357142D02*
X103103219Y-118261904D01*
X103103219Y-118261904D02*
X103103219Y-118071428D01*
X103103219Y-118071428D02*
X103055600Y-117976190D01*
X103055600Y-117976190D02*
X103007980Y-117928571D01*
X103007980Y-117928571D02*
X102912742Y-117880952D01*
X102912742Y-117880952D02*
X102627028Y-117880952D01*
X102627028Y-117880952D02*
X102531790Y-117928571D01*
X102531790Y-117928571D02*
X102484171Y-117976190D01*
X102484171Y-117976190D02*
X102436552Y-118071428D01*
X102436552Y-118071428D02*
X102436552Y-118261904D01*
X102436552Y-118261904D02*
X102484171Y-118357142D01*
D11*
X105076189Y-121785047D02*
X105266665Y-121785047D01*
X105266665Y-121785047D02*
X105285713Y-121975523D01*
X105285713Y-121975523D02*
X105266665Y-121956476D01*
X105266665Y-121956476D02*
X105228570Y-121937428D01*
X105228570Y-121937428D02*
X105133332Y-121937428D01*
X105133332Y-121937428D02*
X105095237Y-121956476D01*
X105095237Y-121956476D02*
X105076189Y-121975523D01*
X105076189Y-121975523D02*
X105057142Y-122013619D01*
X105057142Y-122013619D02*
X105057142Y-122108857D01*
X105057142Y-122108857D02*
X105076189Y-122146952D01*
X105076189Y-122146952D02*
X105095237Y-122166000D01*
X105095237Y-122166000D02*
X105133332Y-122185047D01*
X105133332Y-122185047D02*
X105228570Y-122185047D01*
X105228570Y-122185047D02*
X105266665Y-122166000D01*
X105266665Y-122166000D02*
X105285713Y-122146952D01*
X104942856Y-121785047D02*
X104809523Y-122185047D01*
X104809523Y-122185047D02*
X104676190Y-121785047D01*
D10*
X145307142Y-103985952D02*
X145116666Y-104652619D01*
X145116666Y-104652619D02*
X144926190Y-104176428D01*
X144926190Y-104176428D02*
X144735714Y-104652619D01*
X144735714Y-104652619D02*
X144545238Y-103985952D01*
X144164285Y-104652619D02*
X144164285Y-103985952D01*
X144164285Y-103652619D02*
X144211904Y-103700238D01*
X144211904Y-103700238D02*
X144164285Y-103747857D01*
X144164285Y-103747857D02*
X144116666Y-103700238D01*
X144116666Y-103700238D02*
X144164285Y-103652619D01*
X144164285Y-103652619D02*
X144164285Y-103747857D01*
X143830952Y-103985952D02*
X143450000Y-103985952D01*
X143688095Y-103652619D02*
X143688095Y-104509761D01*
X143688095Y-104509761D02*
X143640476Y-104605000D01*
X143640476Y-104605000D02*
X143545238Y-104652619D01*
X143545238Y-104652619D02*
X143450000Y-104652619D01*
X143116666Y-104652619D02*
X143116666Y-103652619D01*
X142688095Y-104652619D02*
X142688095Y-104128809D01*
X142688095Y-104128809D02*
X142735714Y-104033571D01*
X142735714Y-104033571D02*
X142830952Y-103985952D01*
X142830952Y-103985952D02*
X142973809Y-103985952D01*
X142973809Y-103985952D02*
X143069047Y-104033571D01*
X143069047Y-104033571D02*
X143116666Y-104081190D01*
X141021428Y-103985952D02*
X141021428Y-104795476D01*
X141021428Y-104795476D02*
X141069047Y-104890714D01*
X141069047Y-104890714D02*
X141116666Y-104938333D01*
X141116666Y-104938333D02*
X141211904Y-104985952D01*
X141211904Y-104985952D02*
X141354761Y-104985952D01*
X141354761Y-104985952D02*
X141449999Y-104938333D01*
X141021428Y-104605000D02*
X141116666Y-104652619D01*
X141116666Y-104652619D02*
X141307142Y-104652619D01*
X141307142Y-104652619D02*
X141402380Y-104605000D01*
X141402380Y-104605000D02*
X141449999Y-104557380D01*
X141449999Y-104557380D02*
X141497618Y-104462142D01*
X141497618Y-104462142D02*
X141497618Y-104176428D01*
X141497618Y-104176428D02*
X141449999Y-104081190D01*
X141449999Y-104081190D02*
X141402380Y-104033571D01*
X141402380Y-104033571D02*
X141307142Y-103985952D01*
X141307142Y-103985952D02*
X141116666Y-103985952D01*
X141116666Y-103985952D02*
X141021428Y-104033571D01*
X140545237Y-104652619D02*
X140545237Y-103985952D01*
X140545237Y-104176428D02*
X140497618Y-104081190D01*
X140497618Y-104081190D02*
X140449999Y-104033571D01*
X140449999Y-104033571D02*
X140354761Y-103985952D01*
X140354761Y-103985952D02*
X140259523Y-103985952D01*
X139545237Y-104605000D02*
X139640475Y-104652619D01*
X139640475Y-104652619D02*
X139830951Y-104652619D01*
X139830951Y-104652619D02*
X139926189Y-104605000D01*
X139926189Y-104605000D02*
X139973808Y-104509761D01*
X139973808Y-104509761D02*
X139973808Y-104128809D01*
X139973808Y-104128809D02*
X139926189Y-104033571D01*
X139926189Y-104033571D02*
X139830951Y-103985952D01*
X139830951Y-103985952D02*
X139640475Y-103985952D01*
X139640475Y-103985952D02*
X139545237Y-104033571D01*
X139545237Y-104033571D02*
X139497618Y-104128809D01*
X139497618Y-104128809D02*
X139497618Y-104224047D01*
X139497618Y-104224047D02*
X139973808Y-104319285D01*
X138640475Y-104652619D02*
X138640475Y-104128809D01*
X138640475Y-104128809D02*
X138688094Y-104033571D01*
X138688094Y-104033571D02*
X138783332Y-103985952D01*
X138783332Y-103985952D02*
X138973808Y-103985952D01*
X138973808Y-103985952D02*
X139069046Y-104033571D01*
X138640475Y-104605000D02*
X138735713Y-104652619D01*
X138735713Y-104652619D02*
X138973808Y-104652619D01*
X138973808Y-104652619D02*
X139069046Y-104605000D01*
X139069046Y-104605000D02*
X139116665Y-104509761D01*
X139116665Y-104509761D02*
X139116665Y-104414523D01*
X139116665Y-104414523D02*
X139069046Y-104319285D01*
X139069046Y-104319285D02*
X138973808Y-104271666D01*
X138973808Y-104271666D02*
X138735713Y-104271666D01*
X138735713Y-104271666D02*
X138640475Y-104224047D01*
X138307141Y-103985952D02*
X137926189Y-103985952D01*
X138164284Y-103652619D02*
X138164284Y-104509761D01*
X138164284Y-104509761D02*
X138116665Y-104605000D01*
X138116665Y-104605000D02*
X138021427Y-104652619D01*
X138021427Y-104652619D02*
X137926189Y-104652619D01*
X136973807Y-103985952D02*
X136592855Y-103985952D01*
X136830950Y-103652619D02*
X136830950Y-104509761D01*
X136830950Y-104509761D02*
X136783331Y-104605000D01*
X136783331Y-104605000D02*
X136688093Y-104652619D01*
X136688093Y-104652619D02*
X136592855Y-104652619D01*
X136259521Y-104652619D02*
X136259521Y-103652619D01*
X135830950Y-104652619D02*
X135830950Y-104128809D01*
X135830950Y-104128809D02*
X135878569Y-104033571D01*
X135878569Y-104033571D02*
X135973807Y-103985952D01*
X135973807Y-103985952D02*
X136116664Y-103985952D01*
X136116664Y-103985952D02*
X136211902Y-104033571D01*
X136211902Y-104033571D02*
X136259521Y-104081190D01*
X134926188Y-104652619D02*
X134926188Y-104128809D01*
X134926188Y-104128809D02*
X134973807Y-104033571D01*
X134973807Y-104033571D02*
X135069045Y-103985952D01*
X135069045Y-103985952D02*
X135259521Y-103985952D01*
X135259521Y-103985952D02*
X135354759Y-104033571D01*
X134926188Y-104605000D02*
X135021426Y-104652619D01*
X135021426Y-104652619D02*
X135259521Y-104652619D01*
X135259521Y-104652619D02*
X135354759Y-104605000D01*
X135354759Y-104605000D02*
X135402378Y-104509761D01*
X135402378Y-104509761D02*
X135402378Y-104414523D01*
X135402378Y-104414523D02*
X135354759Y-104319285D01*
X135354759Y-104319285D02*
X135259521Y-104271666D01*
X135259521Y-104271666D02*
X135021426Y-104271666D01*
X135021426Y-104271666D02*
X134926188Y-104224047D01*
X134449997Y-103985952D02*
X134449997Y-104652619D01*
X134449997Y-104081190D02*
X134402378Y-104033571D01*
X134402378Y-104033571D02*
X134307140Y-103985952D01*
X134307140Y-103985952D02*
X134164283Y-103985952D01*
X134164283Y-103985952D02*
X134069045Y-104033571D01*
X134069045Y-104033571D02*
X134021426Y-104128809D01*
X134021426Y-104128809D02*
X134021426Y-104652619D01*
X133545235Y-104652619D02*
X133545235Y-103652619D01*
X133449997Y-104271666D02*
X133164283Y-104652619D01*
X133164283Y-103985952D02*
X133545235Y-104366904D01*
X132783330Y-104605000D02*
X132688092Y-104652619D01*
X132688092Y-104652619D02*
X132497616Y-104652619D01*
X132497616Y-104652619D02*
X132402378Y-104605000D01*
X132402378Y-104605000D02*
X132354759Y-104509761D01*
X132354759Y-104509761D02*
X132354759Y-104462142D01*
X132354759Y-104462142D02*
X132402378Y-104366904D01*
X132402378Y-104366904D02*
X132497616Y-104319285D01*
X132497616Y-104319285D02*
X132640473Y-104319285D01*
X132640473Y-104319285D02*
X132735711Y-104271666D01*
X132735711Y-104271666D02*
X132783330Y-104176428D01*
X132783330Y-104176428D02*
X132783330Y-104128809D01*
X132783330Y-104128809D02*
X132735711Y-104033571D01*
X132735711Y-104033571D02*
X132640473Y-103985952D01*
X132640473Y-103985952D02*
X132497616Y-103985952D01*
X132497616Y-103985952D02*
X132402378Y-104033571D01*
X131307139Y-103985952D02*
X130926187Y-103985952D01*
X131164282Y-103652619D02*
X131164282Y-104509761D01*
X131164282Y-104509761D02*
X131116663Y-104605000D01*
X131116663Y-104605000D02*
X131021425Y-104652619D01*
X131021425Y-104652619D02*
X130926187Y-104652619D01*
X130449996Y-104652619D02*
X130545234Y-104605000D01*
X130545234Y-104605000D02*
X130592853Y-104557380D01*
X130592853Y-104557380D02*
X130640472Y-104462142D01*
X130640472Y-104462142D02*
X130640472Y-104176428D01*
X130640472Y-104176428D02*
X130592853Y-104081190D01*
X130592853Y-104081190D02*
X130545234Y-104033571D01*
X130545234Y-104033571D02*
X130449996Y-103985952D01*
X130449996Y-103985952D02*
X130307139Y-103985952D01*
X130307139Y-103985952D02*
X130211901Y-104033571D01*
X130211901Y-104033571D02*
X130164282Y-104081190D01*
X130164282Y-104081190D02*
X130116663Y-104176428D01*
X130116663Y-104176428D02*
X130116663Y-104462142D01*
X130116663Y-104462142D02*
X130164282Y-104557380D01*
X130164282Y-104557380D02*
X130211901Y-104605000D01*
X130211901Y-104605000D02*
X130307139Y-104652619D01*
X130307139Y-104652619D02*
X130449996Y-104652619D01*
X129688091Y-104557380D02*
X129640472Y-104605000D01*
X129640472Y-104605000D02*
X129688091Y-104652619D01*
X129688091Y-104652619D02*
X129735710Y-104605000D01*
X129735710Y-104605000D02*
X129688091Y-104557380D01*
X129688091Y-104557380D02*
X129688091Y-104652619D01*
X129688091Y-104033571D02*
X129640472Y-104081190D01*
X129640472Y-104081190D02*
X129688091Y-104128809D01*
X129688091Y-104128809D02*
X129735710Y-104081190D01*
X129735710Y-104081190D02*
X129688091Y-104033571D01*
X129688091Y-104033571D02*
X129688091Y-104128809D01*
X144783333Y-105605952D02*
X144783333Y-106415476D01*
X144783333Y-106415476D02*
X144830952Y-106510714D01*
X144830952Y-106510714D02*
X144878571Y-106558333D01*
X144878571Y-106558333D02*
X144973809Y-106605952D01*
X144973809Y-106605952D02*
X145116666Y-106605952D01*
X145116666Y-106605952D02*
X145211904Y-106558333D01*
X144783333Y-106225000D02*
X144878571Y-106272619D01*
X144878571Y-106272619D02*
X145069047Y-106272619D01*
X145069047Y-106272619D02*
X145164285Y-106225000D01*
X145164285Y-106225000D02*
X145211904Y-106177380D01*
X145211904Y-106177380D02*
X145259523Y-106082142D01*
X145259523Y-106082142D02*
X145259523Y-105796428D01*
X145259523Y-105796428D02*
X145211904Y-105701190D01*
X145211904Y-105701190D02*
X145164285Y-105653571D01*
X145164285Y-105653571D02*
X145069047Y-105605952D01*
X145069047Y-105605952D02*
X144878571Y-105605952D01*
X144878571Y-105605952D02*
X144783333Y-105653571D01*
X144307142Y-106272619D02*
X144307142Y-105605952D01*
X144307142Y-105272619D02*
X144354761Y-105320238D01*
X144354761Y-105320238D02*
X144307142Y-105367857D01*
X144307142Y-105367857D02*
X144259523Y-105320238D01*
X144259523Y-105320238D02*
X144307142Y-105272619D01*
X144307142Y-105272619D02*
X144307142Y-105367857D01*
X143973809Y-105605952D02*
X143592857Y-105605952D01*
X143830952Y-105272619D02*
X143830952Y-106129761D01*
X143830952Y-106129761D02*
X143783333Y-106225000D01*
X143783333Y-106225000D02*
X143688095Y-106272619D01*
X143688095Y-106272619D02*
X143592857Y-106272619D01*
X143259523Y-106272619D02*
X143259523Y-105272619D01*
X142830952Y-106272619D02*
X142830952Y-105748809D01*
X142830952Y-105748809D02*
X142878571Y-105653571D01*
X142878571Y-105653571D02*
X142973809Y-105605952D01*
X142973809Y-105605952D02*
X143116666Y-105605952D01*
X143116666Y-105605952D02*
X143211904Y-105653571D01*
X143211904Y-105653571D02*
X143259523Y-105701190D01*
X141926190Y-105605952D02*
X141926190Y-106272619D01*
X142354761Y-105605952D02*
X142354761Y-106129761D01*
X142354761Y-106129761D02*
X142307142Y-106225000D01*
X142307142Y-106225000D02*
X142211904Y-106272619D01*
X142211904Y-106272619D02*
X142069047Y-106272619D01*
X142069047Y-106272619D02*
X141973809Y-106225000D01*
X141973809Y-106225000D02*
X141926190Y-106177380D01*
X141449999Y-106272619D02*
X141449999Y-105272619D01*
X141449999Y-105653571D02*
X141354761Y-105605952D01*
X141354761Y-105605952D02*
X141164285Y-105605952D01*
X141164285Y-105605952D02*
X141069047Y-105653571D01*
X141069047Y-105653571D02*
X141021428Y-105701190D01*
X141021428Y-105701190D02*
X140973809Y-105796428D01*
X140973809Y-105796428D02*
X140973809Y-106082142D01*
X140973809Y-106082142D02*
X141021428Y-106177380D01*
X141021428Y-106177380D02*
X141069047Y-106225000D01*
X141069047Y-106225000D02*
X141164285Y-106272619D01*
X141164285Y-106272619D02*
X141354761Y-106272619D01*
X141354761Y-106272619D02*
X141449999Y-106225000D01*
X140545237Y-106177380D02*
X140497618Y-106225000D01*
X140497618Y-106225000D02*
X140545237Y-106272619D01*
X140545237Y-106272619D02*
X140592856Y-106225000D01*
X140592856Y-106225000D02*
X140545237Y-106177380D01*
X140545237Y-106177380D02*
X140545237Y-106272619D01*
X139640476Y-106225000D02*
X139735714Y-106272619D01*
X139735714Y-106272619D02*
X139926190Y-106272619D01*
X139926190Y-106272619D02*
X140021428Y-106225000D01*
X140021428Y-106225000D02*
X140069047Y-106177380D01*
X140069047Y-106177380D02*
X140116666Y-106082142D01*
X140116666Y-106082142D02*
X140116666Y-105796428D01*
X140116666Y-105796428D02*
X140069047Y-105701190D01*
X140069047Y-105701190D02*
X140021428Y-105653571D01*
X140021428Y-105653571D02*
X139926190Y-105605952D01*
X139926190Y-105605952D02*
X139735714Y-105605952D01*
X139735714Y-105605952D02*
X139640476Y-105653571D01*
X139069047Y-106272619D02*
X139164285Y-106225000D01*
X139164285Y-106225000D02*
X139211904Y-106177380D01*
X139211904Y-106177380D02*
X139259523Y-106082142D01*
X139259523Y-106082142D02*
X139259523Y-105796428D01*
X139259523Y-105796428D02*
X139211904Y-105701190D01*
X139211904Y-105701190D02*
X139164285Y-105653571D01*
X139164285Y-105653571D02*
X139069047Y-105605952D01*
X139069047Y-105605952D02*
X138926190Y-105605952D01*
X138926190Y-105605952D02*
X138830952Y-105653571D01*
X138830952Y-105653571D02*
X138783333Y-105701190D01*
X138783333Y-105701190D02*
X138735714Y-105796428D01*
X138735714Y-105796428D02*
X138735714Y-106082142D01*
X138735714Y-106082142D02*
X138783333Y-106177380D01*
X138783333Y-106177380D02*
X138830952Y-106225000D01*
X138830952Y-106225000D02*
X138926190Y-106272619D01*
X138926190Y-106272619D02*
X139069047Y-106272619D01*
X138307142Y-106272619D02*
X138307142Y-105605952D01*
X138307142Y-105701190D02*
X138259523Y-105653571D01*
X138259523Y-105653571D02*
X138164285Y-105605952D01*
X138164285Y-105605952D02*
X138021428Y-105605952D01*
X138021428Y-105605952D02*
X137926190Y-105653571D01*
X137926190Y-105653571D02*
X137878571Y-105748809D01*
X137878571Y-105748809D02*
X137878571Y-106272619D01*
X137878571Y-105748809D02*
X137830952Y-105653571D01*
X137830952Y-105653571D02*
X137735714Y-105605952D01*
X137735714Y-105605952D02*
X137592857Y-105605952D01*
X137592857Y-105605952D02*
X137497618Y-105653571D01*
X137497618Y-105653571D02*
X137449999Y-105748809D01*
X137449999Y-105748809D02*
X137449999Y-106272619D01*
X136259524Y-105225000D02*
X137116666Y-106510714D01*
X135926190Y-106272619D02*
X135926190Y-105272619D01*
X135926190Y-105653571D02*
X135830952Y-105605952D01*
X135830952Y-105605952D02*
X135640476Y-105605952D01*
X135640476Y-105605952D02*
X135545238Y-105653571D01*
X135545238Y-105653571D02*
X135497619Y-105701190D01*
X135497619Y-105701190D02*
X135450000Y-105796428D01*
X135450000Y-105796428D02*
X135450000Y-106082142D01*
X135450000Y-106082142D02*
X135497619Y-106177380D01*
X135497619Y-106177380D02*
X135545238Y-106225000D01*
X135545238Y-106225000D02*
X135640476Y-106272619D01*
X135640476Y-106272619D02*
X135830952Y-106272619D01*
X135830952Y-106272619D02*
X135926190Y-106225000D01*
X134592857Y-106272619D02*
X134592857Y-105748809D01*
X134592857Y-105748809D02*
X134640476Y-105653571D01*
X134640476Y-105653571D02*
X134735714Y-105605952D01*
X134735714Y-105605952D02*
X134926190Y-105605952D01*
X134926190Y-105605952D02*
X135021428Y-105653571D01*
X134592857Y-106225000D02*
X134688095Y-106272619D01*
X134688095Y-106272619D02*
X134926190Y-106272619D01*
X134926190Y-106272619D02*
X135021428Y-106225000D01*
X135021428Y-106225000D02*
X135069047Y-106129761D01*
X135069047Y-106129761D02*
X135069047Y-106034523D01*
X135069047Y-106034523D02*
X135021428Y-105939285D01*
X135021428Y-105939285D02*
X134926190Y-105891666D01*
X134926190Y-105891666D02*
X134688095Y-105891666D01*
X134688095Y-105891666D02*
X134592857Y-105844047D01*
X133688095Y-106272619D02*
X133688095Y-105272619D01*
X133688095Y-106225000D02*
X133783333Y-106272619D01*
X133783333Y-106272619D02*
X133973809Y-106272619D01*
X133973809Y-106272619D02*
X134069047Y-106225000D01*
X134069047Y-106225000D02*
X134116666Y-106177380D01*
X134116666Y-106177380D02*
X134164285Y-106082142D01*
X134164285Y-106082142D02*
X134164285Y-105796428D01*
X134164285Y-105796428D02*
X134116666Y-105701190D01*
X134116666Y-105701190D02*
X134069047Y-105653571D01*
X134069047Y-105653571D02*
X133973809Y-105605952D01*
X133973809Y-105605952D02*
X133783333Y-105605952D01*
X133783333Y-105605952D02*
X133688095Y-105653571D01*
X132783333Y-105605952D02*
X132783333Y-106415476D01*
X132783333Y-106415476D02*
X132830952Y-106510714D01*
X132830952Y-106510714D02*
X132878571Y-106558333D01*
X132878571Y-106558333D02*
X132973809Y-106605952D01*
X132973809Y-106605952D02*
X133116666Y-106605952D01*
X133116666Y-106605952D02*
X133211904Y-106558333D01*
X132783333Y-106225000D02*
X132878571Y-106272619D01*
X132878571Y-106272619D02*
X133069047Y-106272619D01*
X133069047Y-106272619D02*
X133164285Y-106225000D01*
X133164285Y-106225000D02*
X133211904Y-106177380D01*
X133211904Y-106177380D02*
X133259523Y-106082142D01*
X133259523Y-106082142D02*
X133259523Y-105796428D01*
X133259523Y-105796428D02*
X133211904Y-105701190D01*
X133211904Y-105701190D02*
X133164285Y-105653571D01*
X133164285Y-105653571D02*
X133069047Y-105605952D01*
X133069047Y-105605952D02*
X132878571Y-105605952D01*
X132878571Y-105605952D02*
X132783333Y-105653571D01*
X132307142Y-106272619D02*
X132307142Y-105605952D01*
X132307142Y-105272619D02*
X132354761Y-105320238D01*
X132354761Y-105320238D02*
X132307142Y-105367857D01*
X132307142Y-105367857D02*
X132259523Y-105320238D01*
X132259523Y-105320238D02*
X132307142Y-105272619D01*
X132307142Y-105272619D02*
X132307142Y-105367857D01*
X131830952Y-105605952D02*
X131830952Y-106272619D01*
X131830952Y-105701190D02*
X131783333Y-105653571D01*
X131783333Y-105653571D02*
X131688095Y-105605952D01*
X131688095Y-105605952D02*
X131545238Y-105605952D01*
X131545238Y-105605952D02*
X131450000Y-105653571D01*
X131450000Y-105653571D02*
X131402381Y-105748809D01*
X131402381Y-105748809D02*
X131402381Y-106272619D01*
X130545238Y-106225000D02*
X130640476Y-106272619D01*
X130640476Y-106272619D02*
X130830952Y-106272619D01*
X130830952Y-106272619D02*
X130926190Y-106225000D01*
X130926190Y-106225000D02*
X130973809Y-106129761D01*
X130973809Y-106129761D02*
X130973809Y-105748809D01*
X130973809Y-105748809D02*
X130926190Y-105653571D01*
X130926190Y-105653571D02*
X130830952Y-105605952D01*
X130830952Y-105605952D02*
X130640476Y-105605952D01*
X130640476Y-105605952D02*
X130545238Y-105653571D01*
X130545238Y-105653571D02*
X130497619Y-105748809D01*
X130497619Y-105748809D02*
X130497619Y-105844047D01*
X130497619Y-105844047D02*
X130973809Y-105939285D01*
X129688095Y-106225000D02*
X129783333Y-106272619D01*
X129783333Y-106272619D02*
X129973809Y-106272619D01*
X129973809Y-106272619D02*
X130069047Y-106225000D01*
X130069047Y-106225000D02*
X130116666Y-106129761D01*
X130116666Y-106129761D02*
X130116666Y-105748809D01*
X130116666Y-105748809D02*
X130069047Y-105653571D01*
X130069047Y-105653571D02*
X129973809Y-105605952D01*
X129973809Y-105605952D02*
X129783333Y-105605952D01*
X129783333Y-105605952D02*
X129688095Y-105653571D01*
X129688095Y-105653571D02*
X129640476Y-105748809D01*
X129640476Y-105748809D02*
X129640476Y-105844047D01*
X129640476Y-105844047D02*
X130116666Y-105939285D01*
X129211904Y-106272619D02*
X129211904Y-105605952D01*
X129211904Y-105796428D02*
X129164285Y-105701190D01*
X129164285Y-105701190D02*
X129116666Y-105653571D01*
X129116666Y-105653571D02*
X129021428Y-105605952D01*
X129021428Y-105605952D02*
X128926190Y-105605952D01*
D11*
X120445237Y-116485047D02*
X120197618Y-116485047D01*
X120197618Y-116485047D02*
X120330951Y-116637428D01*
X120330951Y-116637428D02*
X120273808Y-116637428D01*
X120273808Y-116637428D02*
X120235713Y-116656476D01*
X120235713Y-116656476D02*
X120216665Y-116675523D01*
X120216665Y-116675523D02*
X120197618Y-116713619D01*
X120197618Y-116713619D02*
X120197618Y-116808857D01*
X120197618Y-116808857D02*
X120216665Y-116846952D01*
X120216665Y-116846952D02*
X120235713Y-116866000D01*
X120235713Y-116866000D02*
X120273808Y-116885047D01*
X120273808Y-116885047D02*
X120388094Y-116885047D01*
X120388094Y-116885047D02*
X120426189Y-116866000D01*
X120426189Y-116866000D02*
X120445237Y-116846952D01*
X120083332Y-116485047D02*
X119949999Y-116885047D01*
X119949999Y-116885047D02*
X119816666Y-116485047D01*
X119721428Y-116485047D02*
X119473809Y-116485047D01*
X119473809Y-116485047D02*
X119607142Y-116637428D01*
X119607142Y-116637428D02*
X119549999Y-116637428D01*
X119549999Y-116637428D02*
X119511904Y-116656476D01*
X119511904Y-116656476D02*
X119492856Y-116675523D01*
X119492856Y-116675523D02*
X119473809Y-116713619D01*
X119473809Y-116713619D02*
X119473809Y-116808857D01*
X119473809Y-116808857D02*
X119492856Y-116846952D01*
X119492856Y-116846952D02*
X119511904Y-116866000D01*
X119511904Y-116866000D02*
X119549999Y-116885047D01*
X119549999Y-116885047D02*
X119664285Y-116885047D01*
X119664285Y-116885047D02*
X119702380Y-116866000D01*
X119702380Y-116866000D02*
X119721428Y-116846952D01*
D10*
X136261504Y-110367619D02*
X136261504Y-109367619D01*
X136261504Y-109367619D02*
X135690076Y-110367619D01*
X135690076Y-110367619D02*
X135690076Y-109367619D01*
X135356742Y-109367619D02*
X134785314Y-109367619D01*
X135071028Y-110367619D02*
X135071028Y-109367619D01*
X133880552Y-110272380D02*
X133928171Y-110320000D01*
X133928171Y-110320000D02*
X134071028Y-110367619D01*
X134071028Y-110367619D02*
X134166266Y-110367619D01*
X134166266Y-110367619D02*
X134309123Y-110320000D01*
X134309123Y-110320000D02*
X134404361Y-110224761D01*
X134404361Y-110224761D02*
X134451980Y-110129523D01*
X134451980Y-110129523D02*
X134499599Y-109939047D01*
X134499599Y-109939047D02*
X134499599Y-109796190D01*
X134499599Y-109796190D02*
X134451980Y-109605714D01*
X134451980Y-109605714D02*
X134404361Y-109510476D01*
X134404361Y-109510476D02*
X134309123Y-109415238D01*
X134309123Y-109415238D02*
X134166266Y-109367619D01*
X134166266Y-109367619D02*
X134071028Y-109367619D01*
X134071028Y-109367619D02*
X133928171Y-109415238D01*
X133928171Y-109415238D02*
X133880552Y-109462857D01*
X132928171Y-110367619D02*
X133499599Y-110367619D01*
X133213885Y-110367619D02*
X133213885Y-109367619D01*
X133213885Y-109367619D02*
X133309123Y-109510476D01*
X133309123Y-109510476D02*
X133404361Y-109605714D01*
X133404361Y-109605714D02*
X133499599Y-109653333D01*
X66138095Y-117477619D02*
X66709523Y-117477619D01*
X66423809Y-117477619D02*
X66423809Y-116477619D01*
X66423809Y-116477619D02*
X66519047Y-116620476D01*
X66519047Y-116620476D02*
X66614285Y-116715714D01*
X66614285Y-116715714D02*
X66709523Y-116763333D01*
X65757142Y-116572857D02*
X65709523Y-116525238D01*
X65709523Y-116525238D02*
X65614285Y-116477619D01*
X65614285Y-116477619D02*
X65376190Y-116477619D01*
X65376190Y-116477619D02*
X65280952Y-116525238D01*
X65280952Y-116525238D02*
X65233333Y-116572857D01*
X65233333Y-116572857D02*
X65185714Y-116668095D01*
X65185714Y-116668095D02*
X65185714Y-116763333D01*
X65185714Y-116763333D02*
X65233333Y-116906190D01*
X65233333Y-116906190D02*
X65804761Y-117477619D01*
X65804761Y-117477619D02*
X65185714Y-117477619D01*
X64899999Y-116477619D02*
X64566666Y-117477619D01*
X64566666Y-117477619D02*
X64233333Y-116477619D01*
D12*
X149045713Y-88783928D02*
X148545713Y-90283928D01*
X148545713Y-90283928D02*
X148045713Y-88783928D01*
X147045714Y-89498214D02*
X146831428Y-89569642D01*
X146831428Y-89569642D02*
X146759999Y-89641071D01*
X146759999Y-89641071D02*
X146688571Y-89783928D01*
X146688571Y-89783928D02*
X146688571Y-89998214D01*
X146688571Y-89998214D02*
X146759999Y-90141071D01*
X146759999Y-90141071D02*
X146831428Y-90212500D01*
X146831428Y-90212500D02*
X146974285Y-90283928D01*
X146974285Y-90283928D02*
X147545714Y-90283928D01*
X147545714Y-90283928D02*
X147545714Y-88783928D01*
X147545714Y-88783928D02*
X147045714Y-88783928D01*
X147045714Y-88783928D02*
X146902857Y-88855357D01*
X146902857Y-88855357D02*
X146831428Y-88926785D01*
X146831428Y-88926785D02*
X146759999Y-89069642D01*
X146759999Y-89069642D02*
X146759999Y-89212500D01*
X146759999Y-89212500D02*
X146831428Y-89355357D01*
X146831428Y-89355357D02*
X146902857Y-89426785D01*
X146902857Y-89426785D02*
X147045714Y-89498214D01*
X147045714Y-89498214D02*
X147545714Y-89498214D01*
X145402857Y-90283928D02*
X145402857Y-89498214D01*
X145402857Y-89498214D02*
X145474285Y-89355357D01*
X145474285Y-89355357D02*
X145617142Y-89283928D01*
X145617142Y-89283928D02*
X145902857Y-89283928D01*
X145902857Y-89283928D02*
X146045714Y-89355357D01*
X145402857Y-90212500D02*
X145545714Y-90283928D01*
X145545714Y-90283928D02*
X145902857Y-90283928D01*
X145902857Y-90283928D02*
X146045714Y-90212500D01*
X146045714Y-90212500D02*
X146117142Y-90069642D01*
X146117142Y-90069642D02*
X146117142Y-89926785D01*
X146117142Y-89926785D02*
X146045714Y-89783928D01*
X146045714Y-89783928D02*
X145902857Y-89712500D01*
X145902857Y-89712500D02*
X145545714Y-89712500D01*
X145545714Y-89712500D02*
X145402857Y-89641071D01*
X144902856Y-89283928D02*
X144331428Y-89283928D01*
X144688571Y-88783928D02*
X144688571Y-90069642D01*
X144688571Y-90069642D02*
X144617142Y-90212500D01*
X144617142Y-90212500D02*
X144474285Y-90283928D01*
X144474285Y-90283928D02*
X144331428Y-90283928D01*
X143831428Y-89712500D02*
X142688571Y-89712500D01*
D10*
X127785390Y-116977619D02*
X127785390Y-117691904D01*
X127785390Y-117691904D02*
X127833009Y-117834761D01*
X127833009Y-117834761D02*
X127928247Y-117930000D01*
X127928247Y-117930000D02*
X128071104Y-117977619D01*
X128071104Y-117977619D02*
X128166342Y-117977619D01*
X127356818Y-117072857D02*
X127309199Y-117025238D01*
X127309199Y-117025238D02*
X127213961Y-116977619D01*
X127213961Y-116977619D02*
X126975866Y-116977619D01*
X126975866Y-116977619D02*
X126880628Y-117025238D01*
X126880628Y-117025238D02*
X126833009Y-117072857D01*
X126833009Y-117072857D02*
X126785390Y-117168095D01*
X126785390Y-117168095D02*
X126785390Y-117263333D01*
X126785390Y-117263333D02*
X126833009Y-117406190D01*
X126833009Y-117406190D02*
X127404437Y-117977619D01*
X127404437Y-117977619D02*
X126785390Y-117977619D01*
X147225238Y-116261904D02*
X147177619Y-116166666D01*
X147177619Y-116166666D02*
X147177619Y-116023809D01*
X147177619Y-116023809D02*
X147225238Y-115880952D01*
X147225238Y-115880952D02*
X147320476Y-115785714D01*
X147320476Y-115785714D02*
X147415714Y-115738095D01*
X147415714Y-115738095D02*
X147606190Y-115690476D01*
X147606190Y-115690476D02*
X147749047Y-115690476D01*
X147749047Y-115690476D02*
X147939523Y-115738095D01*
X147939523Y-115738095D02*
X148034761Y-115785714D01*
X148034761Y-115785714D02*
X148130000Y-115880952D01*
X148130000Y-115880952D02*
X148177619Y-116023809D01*
X148177619Y-116023809D02*
X148177619Y-116119047D01*
X148177619Y-116119047D02*
X148130000Y-116261904D01*
X148130000Y-116261904D02*
X148082380Y-116309523D01*
X148082380Y-116309523D02*
X147749047Y-116309523D01*
X147749047Y-116309523D02*
X147749047Y-116119047D01*
X148177619Y-116738095D02*
X147177619Y-116738095D01*
X147177619Y-116738095D02*
X148177619Y-117309523D01*
X148177619Y-117309523D02*
X147177619Y-117309523D01*
X148177619Y-117785714D02*
X147177619Y-117785714D01*
X147177619Y-117785714D02*
X147177619Y-118023809D01*
X147177619Y-118023809D02*
X147225238Y-118166666D01*
X147225238Y-118166666D02*
X147320476Y-118261904D01*
X147320476Y-118261904D02*
X147415714Y-118309523D01*
X147415714Y-118309523D02*
X147606190Y-118357142D01*
X147606190Y-118357142D02*
X147749047Y-118357142D01*
X147749047Y-118357142D02*
X147939523Y-118309523D01*
X147939523Y-118309523D02*
X148034761Y-118261904D01*
X148034761Y-118261904D02*
X148130000Y-118166666D01*
X148130000Y-118166666D02*
X148177619Y-118023809D01*
X148177619Y-118023809D02*
X148177619Y-117785714D01*
D12*
X61705713Y-57109928D02*
X61205713Y-58609928D01*
X61205713Y-58609928D02*
X60705713Y-57109928D01*
X59705714Y-57824214D02*
X59491428Y-57895642D01*
X59491428Y-57895642D02*
X59419999Y-57967071D01*
X59419999Y-57967071D02*
X59348571Y-58109928D01*
X59348571Y-58109928D02*
X59348571Y-58324214D01*
X59348571Y-58324214D02*
X59419999Y-58467071D01*
X59419999Y-58467071D02*
X59491428Y-58538500D01*
X59491428Y-58538500D02*
X59634285Y-58609928D01*
X59634285Y-58609928D02*
X60205714Y-58609928D01*
X60205714Y-58609928D02*
X60205714Y-57109928D01*
X60205714Y-57109928D02*
X59705714Y-57109928D01*
X59705714Y-57109928D02*
X59562857Y-57181357D01*
X59562857Y-57181357D02*
X59491428Y-57252785D01*
X59491428Y-57252785D02*
X59419999Y-57395642D01*
X59419999Y-57395642D02*
X59419999Y-57538500D01*
X59419999Y-57538500D02*
X59491428Y-57681357D01*
X59491428Y-57681357D02*
X59562857Y-57752785D01*
X59562857Y-57752785D02*
X59705714Y-57824214D01*
X59705714Y-57824214D02*
X60205714Y-57824214D01*
X58062857Y-58609928D02*
X58062857Y-57824214D01*
X58062857Y-57824214D02*
X58134285Y-57681357D01*
X58134285Y-57681357D02*
X58277142Y-57609928D01*
X58277142Y-57609928D02*
X58562857Y-57609928D01*
X58562857Y-57609928D02*
X58705714Y-57681357D01*
X58062857Y-58538500D02*
X58205714Y-58609928D01*
X58205714Y-58609928D02*
X58562857Y-58609928D01*
X58562857Y-58609928D02*
X58705714Y-58538500D01*
X58705714Y-58538500D02*
X58777142Y-58395642D01*
X58777142Y-58395642D02*
X58777142Y-58252785D01*
X58777142Y-58252785D02*
X58705714Y-58109928D01*
X58705714Y-58109928D02*
X58562857Y-58038500D01*
X58562857Y-58038500D02*
X58205714Y-58038500D01*
X58205714Y-58038500D02*
X58062857Y-57967071D01*
X57562856Y-57609928D02*
X56991428Y-57609928D01*
X57348571Y-57109928D02*
X57348571Y-58395642D01*
X57348571Y-58395642D02*
X57277142Y-58538500D01*
X57277142Y-58538500D02*
X57134285Y-58609928D01*
X57134285Y-58609928D02*
X56991428Y-58609928D01*
X56491428Y-58038500D02*
X55348571Y-58038500D01*
X55919999Y-58609928D02*
X55919999Y-57467071D01*
D10*
X142001904Y-45597619D02*
X142001904Y-44597619D01*
X142001904Y-44597619D02*
X141430476Y-45597619D01*
X141430476Y-45597619D02*
X141430476Y-44597619D01*
X140954285Y-45073809D02*
X140620952Y-45073809D01*
X140478095Y-45597619D02*
X140954285Y-45597619D01*
X140954285Y-45597619D02*
X140954285Y-44597619D01*
X140954285Y-44597619D02*
X140478095Y-44597619D01*
X139525714Y-44645238D02*
X139620952Y-44597619D01*
X139620952Y-44597619D02*
X139763809Y-44597619D01*
X139763809Y-44597619D02*
X139906666Y-44645238D01*
X139906666Y-44645238D02*
X140001904Y-44740476D01*
X140001904Y-44740476D02*
X140049523Y-44835714D01*
X140049523Y-44835714D02*
X140097142Y-45026190D01*
X140097142Y-45026190D02*
X140097142Y-45169047D01*
X140097142Y-45169047D02*
X140049523Y-45359523D01*
X140049523Y-45359523D02*
X140001904Y-45454761D01*
X140001904Y-45454761D02*
X139906666Y-45550000D01*
X139906666Y-45550000D02*
X139763809Y-45597619D01*
X139763809Y-45597619D02*
X139668571Y-45597619D01*
X139668571Y-45597619D02*
X139525714Y-45550000D01*
X139525714Y-45550000D02*
X139478095Y-45502380D01*
X139478095Y-45502380D02*
X139478095Y-45169047D01*
X139478095Y-45169047D02*
X139668571Y-45169047D01*
X130040038Y-116261904D02*
X129992419Y-116166666D01*
X129992419Y-116166666D02*
X129992419Y-116023809D01*
X129992419Y-116023809D02*
X130040038Y-115880952D01*
X130040038Y-115880952D02*
X130135276Y-115785714D01*
X130135276Y-115785714D02*
X130230514Y-115738095D01*
X130230514Y-115738095D02*
X130420990Y-115690476D01*
X130420990Y-115690476D02*
X130563847Y-115690476D01*
X130563847Y-115690476D02*
X130754323Y-115738095D01*
X130754323Y-115738095D02*
X130849561Y-115785714D01*
X130849561Y-115785714D02*
X130944800Y-115880952D01*
X130944800Y-115880952D02*
X130992419Y-116023809D01*
X130992419Y-116023809D02*
X130992419Y-116119047D01*
X130992419Y-116119047D02*
X130944800Y-116261904D01*
X130944800Y-116261904D02*
X130897180Y-116309523D01*
X130897180Y-116309523D02*
X130563847Y-116309523D01*
X130563847Y-116309523D02*
X130563847Y-116119047D01*
X130992419Y-116738095D02*
X129992419Y-116738095D01*
X129992419Y-116738095D02*
X130992419Y-117309523D01*
X130992419Y-117309523D02*
X129992419Y-117309523D01*
X130992419Y-117785714D02*
X129992419Y-117785714D01*
X129992419Y-117785714D02*
X129992419Y-118023809D01*
X129992419Y-118023809D02*
X130040038Y-118166666D01*
X130040038Y-118166666D02*
X130135276Y-118261904D01*
X130135276Y-118261904D02*
X130230514Y-118309523D01*
X130230514Y-118309523D02*
X130420990Y-118357142D01*
X130420990Y-118357142D02*
X130563847Y-118357142D01*
X130563847Y-118357142D02*
X130754323Y-118309523D01*
X130754323Y-118309523D02*
X130849561Y-118261904D01*
X130849561Y-118261904D02*
X130944800Y-118166666D01*
X130944800Y-118166666D02*
X130992419Y-118023809D01*
X130992419Y-118023809D02*
X130992419Y-117785714D01*
X84635714Y-117277619D02*
X85111904Y-117277619D01*
X85111904Y-117277619D02*
X85159523Y-117753809D01*
X85159523Y-117753809D02*
X85111904Y-117706190D01*
X85111904Y-117706190D02*
X85016666Y-117658571D01*
X85016666Y-117658571D02*
X84778571Y-117658571D01*
X84778571Y-117658571D02*
X84683333Y-117706190D01*
X84683333Y-117706190D02*
X84635714Y-117753809D01*
X84635714Y-117753809D02*
X84588095Y-117849047D01*
X84588095Y-117849047D02*
X84588095Y-118087142D01*
X84588095Y-118087142D02*
X84635714Y-118182380D01*
X84635714Y-118182380D02*
X84683333Y-118230000D01*
X84683333Y-118230000D02*
X84778571Y-118277619D01*
X84778571Y-118277619D02*
X85016666Y-118277619D01*
X85016666Y-118277619D02*
X85111904Y-118230000D01*
X85111904Y-118230000D02*
X85159523Y-118182380D01*
X84302380Y-117277619D02*
X83969047Y-118277619D01*
X83969047Y-118277619D02*
X83635714Y-117277619D01*
X97469390Y-116987619D02*
X97469390Y-117701904D01*
X97469390Y-117701904D02*
X97517009Y-117844761D01*
X97517009Y-117844761D02*
X97612247Y-117940000D01*
X97612247Y-117940000D02*
X97755104Y-117987619D01*
X97755104Y-117987619D02*
X97850342Y-117987619D01*
X96469390Y-117987619D02*
X97040818Y-117987619D01*
X96755104Y-117987619D02*
X96755104Y-116987619D01*
X96755104Y-116987619D02*
X96850342Y-117130476D01*
X96850342Y-117130476D02*
X96945580Y-117225714D01*
X96945580Y-117225714D02*
X97040818Y-117273333D01*
X143076190Y-116977619D02*
X143076190Y-117691904D01*
X143076190Y-117691904D02*
X143123809Y-117834761D01*
X143123809Y-117834761D02*
X143219047Y-117930000D01*
X143219047Y-117930000D02*
X143361904Y-117977619D01*
X143361904Y-117977619D02*
X143457142Y-117977619D01*
X142695237Y-116977619D02*
X142076190Y-116977619D01*
X142076190Y-116977619D02*
X142409523Y-117358571D01*
X142409523Y-117358571D02*
X142266666Y-117358571D01*
X142266666Y-117358571D02*
X142171428Y-117406190D01*
X142171428Y-117406190D02*
X142123809Y-117453809D01*
X142123809Y-117453809D02*
X142076190Y-117549047D01*
X142076190Y-117549047D02*
X142076190Y-117787142D01*
X142076190Y-117787142D02*
X142123809Y-117882380D01*
X142123809Y-117882380D02*
X142171428Y-117930000D01*
X142171428Y-117930000D02*
X142266666Y-117977619D01*
X142266666Y-117977619D02*
X142552380Y-117977619D01*
X142552380Y-117977619D02*
X142647618Y-117930000D01*
X142647618Y-117930000D02*
X142695237Y-117882380D01*
X113053390Y-116977619D02*
X113053390Y-117691904D01*
X113053390Y-117691904D02*
X113101009Y-117834761D01*
X113101009Y-117834761D02*
X113196247Y-117930000D01*
X113196247Y-117930000D02*
X113339104Y-117977619D01*
X113339104Y-117977619D02*
X113434342Y-117977619D01*
X112148628Y-117310952D02*
X112148628Y-117977619D01*
X112386723Y-116930000D02*
X112624818Y-117644285D01*
X112624818Y-117644285D02*
X112005771Y-117644285D01*
X102022304Y-38485619D02*
X102022304Y-37485619D01*
X102022304Y-37485619D02*
X101641352Y-37485619D01*
X101641352Y-37485619D02*
X101546114Y-37533238D01*
X101546114Y-37533238D02*
X101498495Y-37580857D01*
X101498495Y-37580857D02*
X101450876Y-37676095D01*
X101450876Y-37676095D02*
X101450876Y-37818952D01*
X101450876Y-37818952D02*
X101498495Y-37914190D01*
X101498495Y-37914190D02*
X101546114Y-37961809D01*
X101546114Y-37961809D02*
X101641352Y-38009428D01*
X101641352Y-38009428D02*
X102022304Y-38009428D01*
X100831828Y-37485619D02*
X100641352Y-37485619D01*
X100641352Y-37485619D02*
X100546114Y-37533238D01*
X100546114Y-37533238D02*
X100450876Y-37628476D01*
X100450876Y-37628476D02*
X100403257Y-37818952D01*
X100403257Y-37818952D02*
X100403257Y-38152285D01*
X100403257Y-38152285D02*
X100450876Y-38342761D01*
X100450876Y-38342761D02*
X100546114Y-38438000D01*
X100546114Y-38438000D02*
X100641352Y-38485619D01*
X100641352Y-38485619D02*
X100831828Y-38485619D01*
X100831828Y-38485619D02*
X100927066Y-38438000D01*
X100927066Y-38438000D02*
X101022304Y-38342761D01*
X101022304Y-38342761D02*
X101069923Y-38152285D01*
X101069923Y-38152285D02*
X101069923Y-37818952D01*
X101069923Y-37818952D02*
X101022304Y-37628476D01*
X101022304Y-37628476D02*
X100927066Y-37533238D01*
X100927066Y-37533238D02*
X100831828Y-37485619D01*
X100022304Y-38438000D02*
X99879447Y-38485619D01*
X99879447Y-38485619D02*
X99641352Y-38485619D01*
X99641352Y-38485619D02*
X99546114Y-38438000D01*
X99546114Y-38438000D02*
X99498495Y-38390380D01*
X99498495Y-38390380D02*
X99450876Y-38295142D01*
X99450876Y-38295142D02*
X99450876Y-38199904D01*
X99450876Y-38199904D02*
X99498495Y-38104666D01*
X99498495Y-38104666D02*
X99546114Y-38057047D01*
X99546114Y-38057047D02*
X99641352Y-38009428D01*
X99641352Y-38009428D02*
X99831828Y-37961809D01*
X99831828Y-37961809D02*
X99927066Y-37914190D01*
X99927066Y-37914190D02*
X99974685Y-37866571D01*
X99974685Y-37866571D02*
X100022304Y-37771333D01*
X100022304Y-37771333D02*
X100022304Y-37676095D01*
X100022304Y-37676095D02*
X99974685Y-37580857D01*
X99974685Y-37580857D02*
X99927066Y-37533238D01*
X99927066Y-37533238D02*
X99831828Y-37485619D01*
X99831828Y-37485619D02*
X99593733Y-37485619D01*
X99593733Y-37485619D02*
X99450876Y-37533238D01*
D12*
X145519142Y-57414328D02*
X145019142Y-58914328D01*
X145019142Y-58914328D02*
X144519142Y-57414328D01*
X143519143Y-58128614D02*
X143304857Y-58200042D01*
X143304857Y-58200042D02*
X143233428Y-58271471D01*
X143233428Y-58271471D02*
X143162000Y-58414328D01*
X143162000Y-58414328D02*
X143162000Y-58628614D01*
X143162000Y-58628614D02*
X143233428Y-58771471D01*
X143233428Y-58771471D02*
X143304857Y-58842900D01*
X143304857Y-58842900D02*
X143447714Y-58914328D01*
X143447714Y-58914328D02*
X144019143Y-58914328D01*
X144019143Y-58914328D02*
X144019143Y-57414328D01*
X144019143Y-57414328D02*
X143519143Y-57414328D01*
X143519143Y-57414328D02*
X143376286Y-57485757D01*
X143376286Y-57485757D02*
X143304857Y-57557185D01*
X143304857Y-57557185D02*
X143233428Y-57700042D01*
X143233428Y-57700042D02*
X143233428Y-57842900D01*
X143233428Y-57842900D02*
X143304857Y-57985757D01*
X143304857Y-57985757D02*
X143376286Y-58057185D01*
X143376286Y-58057185D02*
X143519143Y-58128614D01*
X143519143Y-58128614D02*
X144019143Y-58128614D01*
X141876286Y-58914328D02*
X141876286Y-58128614D01*
X141876286Y-58128614D02*
X141947714Y-57985757D01*
X141947714Y-57985757D02*
X142090571Y-57914328D01*
X142090571Y-57914328D02*
X142376286Y-57914328D01*
X142376286Y-57914328D02*
X142519143Y-57985757D01*
X141876286Y-58842900D02*
X142019143Y-58914328D01*
X142019143Y-58914328D02*
X142376286Y-58914328D01*
X142376286Y-58914328D02*
X142519143Y-58842900D01*
X142519143Y-58842900D02*
X142590571Y-58700042D01*
X142590571Y-58700042D02*
X142590571Y-58557185D01*
X142590571Y-58557185D02*
X142519143Y-58414328D01*
X142519143Y-58414328D02*
X142376286Y-58342900D01*
X142376286Y-58342900D02*
X142019143Y-58342900D01*
X142019143Y-58342900D02*
X141876286Y-58271471D01*
X141376285Y-57914328D02*
X140804857Y-57914328D01*
X141162000Y-57414328D02*
X141162000Y-58700042D01*
X141162000Y-58700042D02*
X141090571Y-58842900D01*
X141090571Y-58842900D02*
X140947714Y-58914328D01*
X140947714Y-58914328D02*
X140804857Y-58914328D01*
X140304857Y-58342900D02*
X139162000Y-58342900D01*
X139733428Y-58914328D02*
X139733428Y-57771471D01*
D10*
X100169638Y-116261904D02*
X100122019Y-116166666D01*
X100122019Y-116166666D02*
X100122019Y-116023809D01*
X100122019Y-116023809D02*
X100169638Y-115880952D01*
X100169638Y-115880952D02*
X100264876Y-115785714D01*
X100264876Y-115785714D02*
X100360114Y-115738095D01*
X100360114Y-115738095D02*
X100550590Y-115690476D01*
X100550590Y-115690476D02*
X100693447Y-115690476D01*
X100693447Y-115690476D02*
X100883923Y-115738095D01*
X100883923Y-115738095D02*
X100979161Y-115785714D01*
X100979161Y-115785714D02*
X101074400Y-115880952D01*
X101074400Y-115880952D02*
X101122019Y-116023809D01*
X101122019Y-116023809D02*
X101122019Y-116119047D01*
X101122019Y-116119047D02*
X101074400Y-116261904D01*
X101074400Y-116261904D02*
X101026780Y-116309523D01*
X101026780Y-116309523D02*
X100693447Y-116309523D01*
X100693447Y-116309523D02*
X100693447Y-116119047D01*
X101122019Y-116738095D02*
X100122019Y-116738095D01*
X100122019Y-116738095D02*
X101122019Y-117309523D01*
X101122019Y-117309523D02*
X100122019Y-117309523D01*
X101122019Y-117785714D02*
X100122019Y-117785714D01*
X100122019Y-117785714D02*
X100122019Y-118023809D01*
X100122019Y-118023809D02*
X100169638Y-118166666D01*
X100169638Y-118166666D02*
X100264876Y-118261904D01*
X100264876Y-118261904D02*
X100360114Y-118309523D01*
X100360114Y-118309523D02*
X100550590Y-118357142D01*
X100550590Y-118357142D02*
X100693447Y-118357142D01*
X100693447Y-118357142D02*
X100883923Y-118309523D01*
X100883923Y-118309523D02*
X100979161Y-118261904D01*
X100979161Y-118261904D02*
X101074400Y-118166666D01*
X101074400Y-118166666D02*
X101122019Y-118023809D01*
X101122019Y-118023809D02*
X101122019Y-117785714D01*
D11*
X120026189Y-121785047D02*
X120216665Y-121785047D01*
X120216665Y-121785047D02*
X120235713Y-121975523D01*
X120235713Y-121975523D02*
X120216665Y-121956476D01*
X120216665Y-121956476D02*
X120178570Y-121937428D01*
X120178570Y-121937428D02*
X120083332Y-121937428D01*
X120083332Y-121937428D02*
X120045237Y-121956476D01*
X120045237Y-121956476D02*
X120026189Y-121975523D01*
X120026189Y-121975523D02*
X120007142Y-122013619D01*
X120007142Y-122013619D02*
X120007142Y-122108857D01*
X120007142Y-122108857D02*
X120026189Y-122146952D01*
X120026189Y-122146952D02*
X120045237Y-122166000D01*
X120045237Y-122166000D02*
X120083332Y-122185047D01*
X120083332Y-122185047D02*
X120178570Y-122185047D01*
X120178570Y-122185047D02*
X120216665Y-122166000D01*
X120216665Y-122166000D02*
X120235713Y-122146952D01*
X119892856Y-121785047D02*
X119759523Y-122185047D01*
X119759523Y-122185047D02*
X119626190Y-121785047D01*
X135645237Y-116085047D02*
X135397618Y-116085047D01*
X135397618Y-116085047D02*
X135530951Y-116237428D01*
X135530951Y-116237428D02*
X135473808Y-116237428D01*
X135473808Y-116237428D02*
X135435713Y-116256476D01*
X135435713Y-116256476D02*
X135416665Y-116275523D01*
X135416665Y-116275523D02*
X135397618Y-116313619D01*
X135397618Y-116313619D02*
X135397618Y-116408857D01*
X135397618Y-116408857D02*
X135416665Y-116446952D01*
X135416665Y-116446952D02*
X135435713Y-116466000D01*
X135435713Y-116466000D02*
X135473808Y-116485047D01*
X135473808Y-116485047D02*
X135588094Y-116485047D01*
X135588094Y-116485047D02*
X135626189Y-116466000D01*
X135626189Y-116466000D02*
X135645237Y-116446952D01*
X135283332Y-116085047D02*
X135149999Y-116485047D01*
X135149999Y-116485047D02*
X135016666Y-116085047D01*
X134921428Y-116085047D02*
X134673809Y-116085047D01*
X134673809Y-116085047D02*
X134807142Y-116237428D01*
X134807142Y-116237428D02*
X134749999Y-116237428D01*
X134749999Y-116237428D02*
X134711904Y-116256476D01*
X134711904Y-116256476D02*
X134692856Y-116275523D01*
X134692856Y-116275523D02*
X134673809Y-116313619D01*
X134673809Y-116313619D02*
X134673809Y-116408857D01*
X134673809Y-116408857D02*
X134692856Y-116446952D01*
X134692856Y-116446952D02*
X134711904Y-116466000D01*
X134711904Y-116466000D02*
X134749999Y-116485047D01*
X134749999Y-116485047D02*
X134864285Y-116485047D01*
X134864285Y-116485047D02*
X134902380Y-116466000D01*
X134902380Y-116466000D02*
X134921428Y-116446952D01*
D10*
X61839504Y-45597619D02*
X61839504Y-44597619D01*
X61839504Y-44597619D02*
X61268076Y-45597619D01*
X61268076Y-45597619D02*
X61268076Y-44597619D01*
X60791885Y-45073809D02*
X60458552Y-45073809D01*
X60315695Y-45597619D02*
X60791885Y-45597619D01*
X60791885Y-45597619D02*
X60791885Y-44597619D01*
X60791885Y-44597619D02*
X60315695Y-44597619D01*
X59363314Y-44645238D02*
X59458552Y-44597619D01*
X59458552Y-44597619D02*
X59601409Y-44597619D01*
X59601409Y-44597619D02*
X59744266Y-44645238D01*
X59744266Y-44645238D02*
X59839504Y-44740476D01*
X59839504Y-44740476D02*
X59887123Y-44835714D01*
X59887123Y-44835714D02*
X59934742Y-45026190D01*
X59934742Y-45026190D02*
X59934742Y-45169047D01*
X59934742Y-45169047D02*
X59887123Y-45359523D01*
X59887123Y-45359523D02*
X59839504Y-45454761D01*
X59839504Y-45454761D02*
X59744266Y-45550000D01*
X59744266Y-45550000D02*
X59601409Y-45597619D01*
X59601409Y-45597619D02*
X59506171Y-45597619D01*
X59506171Y-45597619D02*
X59363314Y-45550000D01*
X59363314Y-45550000D02*
X59315695Y-45502380D01*
X59315695Y-45502380D02*
X59315695Y-45169047D01*
X59315695Y-45169047D02*
X59506171Y-45169047D01*
X122414304Y-38465619D02*
X122414304Y-37465619D01*
X122414304Y-37465619D02*
X122033352Y-37465619D01*
X122033352Y-37465619D02*
X121938114Y-37513238D01*
X121938114Y-37513238D02*
X121890495Y-37560857D01*
X121890495Y-37560857D02*
X121842876Y-37656095D01*
X121842876Y-37656095D02*
X121842876Y-37798952D01*
X121842876Y-37798952D02*
X121890495Y-37894190D01*
X121890495Y-37894190D02*
X121938114Y-37941809D01*
X121938114Y-37941809D02*
X122033352Y-37989428D01*
X122033352Y-37989428D02*
X122414304Y-37989428D01*
X121223828Y-37465619D02*
X121033352Y-37465619D01*
X121033352Y-37465619D02*
X120938114Y-37513238D01*
X120938114Y-37513238D02*
X120842876Y-37608476D01*
X120842876Y-37608476D02*
X120795257Y-37798952D01*
X120795257Y-37798952D02*
X120795257Y-38132285D01*
X120795257Y-38132285D02*
X120842876Y-38322761D01*
X120842876Y-38322761D02*
X120938114Y-38418000D01*
X120938114Y-38418000D02*
X121033352Y-38465619D01*
X121033352Y-38465619D02*
X121223828Y-38465619D01*
X121223828Y-38465619D02*
X121319066Y-38418000D01*
X121319066Y-38418000D02*
X121414304Y-38322761D01*
X121414304Y-38322761D02*
X121461923Y-38132285D01*
X121461923Y-38132285D02*
X121461923Y-37798952D01*
X121461923Y-37798952D02*
X121414304Y-37608476D01*
X121414304Y-37608476D02*
X121319066Y-37513238D01*
X121319066Y-37513238D02*
X121223828Y-37465619D01*
X120414304Y-38418000D02*
X120271447Y-38465619D01*
X120271447Y-38465619D02*
X120033352Y-38465619D01*
X120033352Y-38465619D02*
X119938114Y-38418000D01*
X119938114Y-38418000D02*
X119890495Y-38370380D01*
X119890495Y-38370380D02*
X119842876Y-38275142D01*
X119842876Y-38275142D02*
X119842876Y-38179904D01*
X119842876Y-38179904D02*
X119890495Y-38084666D01*
X119890495Y-38084666D02*
X119938114Y-38037047D01*
X119938114Y-38037047D02*
X120033352Y-37989428D01*
X120033352Y-37989428D02*
X120223828Y-37941809D01*
X120223828Y-37941809D02*
X120319066Y-37894190D01*
X120319066Y-37894190D02*
X120366685Y-37846571D01*
X120366685Y-37846571D02*
X120414304Y-37751333D01*
X120414304Y-37751333D02*
X120414304Y-37656095D01*
X120414304Y-37656095D02*
X120366685Y-37560857D01*
X120366685Y-37560857D02*
X120319066Y-37513238D01*
X120319066Y-37513238D02*
X120223828Y-37465619D01*
X120223828Y-37465619D02*
X119985733Y-37465619D01*
X119985733Y-37465619D02*
X119842876Y-37513238D01*
X119330951Y-119406666D02*
X118569047Y-119406666D01*
X134105951Y-119106666D02*
X133344047Y-119106666D01*
X81753104Y-38485619D02*
X81753104Y-37485619D01*
X81753104Y-37485619D02*
X81372152Y-37485619D01*
X81372152Y-37485619D02*
X81276914Y-37533238D01*
X81276914Y-37533238D02*
X81229295Y-37580857D01*
X81229295Y-37580857D02*
X81181676Y-37676095D01*
X81181676Y-37676095D02*
X81181676Y-37818952D01*
X81181676Y-37818952D02*
X81229295Y-37914190D01*
X81229295Y-37914190D02*
X81276914Y-37961809D01*
X81276914Y-37961809D02*
X81372152Y-38009428D01*
X81372152Y-38009428D02*
X81753104Y-38009428D01*
X80562628Y-37485619D02*
X80372152Y-37485619D01*
X80372152Y-37485619D02*
X80276914Y-37533238D01*
X80276914Y-37533238D02*
X80181676Y-37628476D01*
X80181676Y-37628476D02*
X80134057Y-37818952D01*
X80134057Y-37818952D02*
X80134057Y-38152285D01*
X80134057Y-38152285D02*
X80181676Y-38342761D01*
X80181676Y-38342761D02*
X80276914Y-38438000D01*
X80276914Y-38438000D02*
X80372152Y-38485619D01*
X80372152Y-38485619D02*
X80562628Y-38485619D01*
X80562628Y-38485619D02*
X80657866Y-38438000D01*
X80657866Y-38438000D02*
X80753104Y-38342761D01*
X80753104Y-38342761D02*
X80800723Y-38152285D01*
X80800723Y-38152285D02*
X80800723Y-37818952D01*
X80800723Y-37818952D02*
X80753104Y-37628476D01*
X80753104Y-37628476D02*
X80657866Y-37533238D01*
X80657866Y-37533238D02*
X80562628Y-37485619D01*
X79753104Y-38438000D02*
X79610247Y-38485619D01*
X79610247Y-38485619D02*
X79372152Y-38485619D01*
X79372152Y-38485619D02*
X79276914Y-38438000D01*
X79276914Y-38438000D02*
X79229295Y-38390380D01*
X79229295Y-38390380D02*
X79181676Y-38295142D01*
X79181676Y-38295142D02*
X79181676Y-38199904D01*
X79181676Y-38199904D02*
X79229295Y-38104666D01*
X79229295Y-38104666D02*
X79276914Y-38057047D01*
X79276914Y-38057047D02*
X79372152Y-38009428D01*
X79372152Y-38009428D02*
X79562628Y-37961809D01*
X79562628Y-37961809D02*
X79657866Y-37914190D01*
X79657866Y-37914190D02*
X79705485Y-37866571D01*
X79705485Y-37866571D02*
X79753104Y-37771333D01*
X79753104Y-37771333D02*
X79753104Y-37676095D01*
X79753104Y-37676095D02*
X79705485Y-37580857D01*
X79705485Y-37580857D02*
X79657866Y-37533238D01*
X79657866Y-37533238D02*
X79562628Y-37485619D01*
X79562628Y-37485619D02*
X79324533Y-37485619D01*
X79324533Y-37485619D02*
X79181676Y-37533238D01*
D11*
X135226189Y-121385047D02*
X135416665Y-121385047D01*
X135416665Y-121385047D02*
X135435713Y-121575523D01*
X135435713Y-121575523D02*
X135416665Y-121556476D01*
X135416665Y-121556476D02*
X135378570Y-121537428D01*
X135378570Y-121537428D02*
X135283332Y-121537428D01*
X135283332Y-121537428D02*
X135245237Y-121556476D01*
X135245237Y-121556476D02*
X135226189Y-121575523D01*
X135226189Y-121575523D02*
X135207142Y-121613619D01*
X135207142Y-121613619D02*
X135207142Y-121708857D01*
X135207142Y-121708857D02*
X135226189Y-121746952D01*
X135226189Y-121746952D02*
X135245237Y-121766000D01*
X135245237Y-121766000D02*
X135283332Y-121785047D01*
X135283332Y-121785047D02*
X135378570Y-121785047D01*
X135378570Y-121785047D02*
X135416665Y-121766000D01*
X135416665Y-121766000D02*
X135435713Y-121746952D01*
X135092856Y-121385047D02*
X134959523Y-121785047D01*
X134959523Y-121785047D02*
X134826190Y-121385047D01*
D13*
X145093333Y-103292714D02*
X145093333Y-101492714D01*
X145093333Y-101492714D02*
X144560000Y-102778428D01*
X144560000Y-102778428D02*
X144026666Y-101492714D01*
X144026666Y-101492714D02*
X144026666Y-103292714D01*
X143264762Y-103292714D02*
X143264762Y-101492714D01*
X143264762Y-101492714D02*
X142655238Y-101492714D01*
X142655238Y-101492714D02*
X142502857Y-101578428D01*
X142502857Y-101578428D02*
X142426667Y-101664142D01*
X142426667Y-101664142D02*
X142350476Y-101835571D01*
X142350476Y-101835571D02*
X142350476Y-102092714D01*
X142350476Y-102092714D02*
X142426667Y-102264142D01*
X142426667Y-102264142D02*
X142502857Y-102349857D01*
X142502857Y-102349857D02*
X142655238Y-102435571D01*
X142655238Y-102435571D02*
X143264762Y-102435571D01*
X141740953Y-101664142D02*
X141664762Y-101578428D01*
X141664762Y-101578428D02*
X141512381Y-101492714D01*
X141512381Y-101492714D02*
X141131429Y-101492714D01*
X141131429Y-101492714D02*
X140979048Y-101578428D01*
X140979048Y-101578428D02*
X140902857Y-101664142D01*
X140902857Y-101664142D02*
X140826667Y-101835571D01*
X140826667Y-101835571D02*
X140826667Y-102007000D01*
X140826667Y-102007000D02*
X140902857Y-102264142D01*
X140902857Y-102264142D02*
X141817143Y-103292714D01*
X141817143Y-103292714D02*
X140826667Y-103292714D01*
X140140952Y-102607000D02*
X138921905Y-102607000D01*
X138160000Y-103292714D02*
X138160000Y-101492714D01*
X138160000Y-101492714D02*
X137779048Y-101492714D01*
X137779048Y-101492714D02*
X137550476Y-101578428D01*
X137550476Y-101578428D02*
X137398095Y-101749857D01*
X137398095Y-101749857D02*
X137321905Y-101921285D01*
X137321905Y-101921285D02*
X137245714Y-102264142D01*
X137245714Y-102264142D02*
X137245714Y-102521285D01*
X137245714Y-102521285D02*
X137321905Y-102864142D01*
X137321905Y-102864142D02*
X137398095Y-103035571D01*
X137398095Y-103035571D02*
X137550476Y-103207000D01*
X137550476Y-103207000D02*
X137779048Y-103292714D01*
X137779048Y-103292714D02*
X138160000Y-103292714D01*
X136026667Y-102349857D02*
X136560000Y-102349857D01*
X136560000Y-103292714D02*
X136560000Y-101492714D01*
X136560000Y-101492714D02*
X135798095Y-101492714D01*
X135188571Y-103292714D02*
X135188571Y-101492714D01*
X135188571Y-101492714D02*
X134274285Y-103292714D01*
X134274285Y-103292714D02*
X134274285Y-101492714D01*
X132445714Y-102092714D02*
X132064762Y-103292714D01*
X132064762Y-103292714D02*
X131683809Y-102092714D01*
X130769523Y-101492714D02*
X130617142Y-101492714D01*
X130617142Y-101492714D02*
X130464761Y-101578428D01*
X130464761Y-101578428D02*
X130388571Y-101664142D01*
X130388571Y-101664142D02*
X130312380Y-101835571D01*
X130312380Y-101835571D02*
X130236190Y-102178428D01*
X130236190Y-102178428D02*
X130236190Y-102607000D01*
X130236190Y-102607000D02*
X130312380Y-102949857D01*
X130312380Y-102949857D02*
X130388571Y-103121285D01*
X130388571Y-103121285D02*
X130464761Y-103207000D01*
X130464761Y-103207000D02*
X130617142Y-103292714D01*
X130617142Y-103292714D02*
X130769523Y-103292714D01*
X130769523Y-103292714D02*
X130921904Y-103207000D01*
X130921904Y-103207000D02*
X130998095Y-103121285D01*
X130998095Y-103121285D02*
X131074285Y-102949857D01*
X131074285Y-102949857D02*
X131150476Y-102607000D01*
X131150476Y-102607000D02*
X131150476Y-102178428D01*
X131150476Y-102178428D02*
X131074285Y-101835571D01*
X131074285Y-101835571D02*
X130998095Y-101664142D01*
X130998095Y-101664142D02*
X130921904Y-101578428D01*
X130921904Y-101578428D02*
X130769523Y-101492714D01*
X129550475Y-103121285D02*
X129474285Y-103207000D01*
X129474285Y-103207000D02*
X129550475Y-103292714D01*
X129550475Y-103292714D02*
X129626666Y-103207000D01*
X129626666Y-103207000D02*
X129550475Y-103121285D01*
X129550475Y-103121285D02*
X129550475Y-103292714D01*
X128864761Y-101664142D02*
X128788570Y-101578428D01*
X128788570Y-101578428D02*
X128636189Y-101492714D01*
X128636189Y-101492714D02*
X128255237Y-101492714D01*
X128255237Y-101492714D02*
X128102856Y-101578428D01*
X128102856Y-101578428D02*
X128026665Y-101664142D01*
X128026665Y-101664142D02*
X127950475Y-101835571D01*
X127950475Y-101835571D02*
X127950475Y-102007000D01*
X127950475Y-102007000D02*
X128026665Y-102264142D01*
X128026665Y-102264142D02*
X128940951Y-103292714D01*
X128940951Y-103292714D02*
X127950475Y-103292714D01*
D14*
%TO.C,U6*%
X51042857Y-121629904D02*
X51042857Y-120982285D01*
X51042857Y-120982285D02*
X51071428Y-120906095D01*
X51071428Y-120906095D02*
X51100000Y-120868000D01*
X51100000Y-120868000D02*
X51157142Y-120829904D01*
X51157142Y-120829904D02*
X51271428Y-120829904D01*
X51271428Y-120829904D02*
X51328571Y-120868000D01*
X51328571Y-120868000D02*
X51357142Y-120906095D01*
X51357142Y-120906095D02*
X51385714Y-120982285D01*
X51385714Y-120982285D02*
X51385714Y-121629904D01*
X51928571Y-121629904D02*
X51814285Y-121629904D01*
X51814285Y-121629904D02*
X51757142Y-121591809D01*
X51757142Y-121591809D02*
X51728571Y-121553714D01*
X51728571Y-121553714D02*
X51671428Y-121439428D01*
X51671428Y-121439428D02*
X51642856Y-121287047D01*
X51642856Y-121287047D02*
X51642856Y-120982285D01*
X51642856Y-120982285D02*
X51671428Y-120906095D01*
X51671428Y-120906095D02*
X51699999Y-120868000D01*
X51699999Y-120868000D02*
X51757142Y-120829904D01*
X51757142Y-120829904D02*
X51871428Y-120829904D01*
X51871428Y-120829904D02*
X51928571Y-120868000D01*
X51928571Y-120868000D02*
X51957142Y-120906095D01*
X51957142Y-120906095D02*
X51985713Y-120982285D01*
X51985713Y-120982285D02*
X51985713Y-121172761D01*
X51985713Y-121172761D02*
X51957142Y-121248952D01*
X51957142Y-121248952D02*
X51928571Y-121287047D01*
X51928571Y-121287047D02*
X51871428Y-121325142D01*
X51871428Y-121325142D02*
X51757142Y-121325142D01*
X51757142Y-121325142D02*
X51699999Y-121287047D01*
X51699999Y-121287047D02*
X51671428Y-121248952D01*
X51671428Y-121248952D02*
X51642856Y-121172761D01*
D10*
X51902619Y-114434761D02*
X51807381Y-114482380D01*
X51807381Y-114482380D02*
X51664524Y-114482380D01*
X51664524Y-114482380D02*
X51521667Y-114434761D01*
X51521667Y-114434761D02*
X51426429Y-114339523D01*
X51426429Y-114339523D02*
X51378810Y-114244285D01*
X51378810Y-114244285D02*
X51331191Y-114053809D01*
X51331191Y-114053809D02*
X51331191Y-113910952D01*
X51331191Y-113910952D02*
X51378810Y-113720476D01*
X51378810Y-113720476D02*
X51426429Y-113625238D01*
X51426429Y-113625238D02*
X51521667Y-113530000D01*
X51521667Y-113530000D02*
X51664524Y-113482380D01*
X51664524Y-113482380D02*
X51759762Y-113482380D01*
X51759762Y-113482380D02*
X51902619Y-113530000D01*
X51902619Y-113530000D02*
X51950238Y-113577619D01*
X51950238Y-113577619D02*
X51950238Y-113910952D01*
X51950238Y-113910952D02*
X51759762Y-113910952D01*
X52378810Y-113482380D02*
X52378810Y-114482380D01*
X52378810Y-114482380D02*
X52950238Y-113482380D01*
X52950238Y-113482380D02*
X52950238Y-114482380D01*
X53426429Y-113482380D02*
X53426429Y-114482380D01*
X53426429Y-114482380D02*
X53664524Y-114482380D01*
X53664524Y-114482380D02*
X53807381Y-114434761D01*
X53807381Y-114434761D02*
X53902619Y-114339523D01*
X53902619Y-114339523D02*
X53950238Y-114244285D01*
X53950238Y-114244285D02*
X53997857Y-114053809D01*
X53997857Y-114053809D02*
X53997857Y-113910952D01*
X53997857Y-113910952D02*
X53950238Y-113720476D01*
X53950238Y-113720476D02*
X53902619Y-113625238D01*
X53902619Y-113625238D02*
X53807381Y-113530000D01*
X53807381Y-113530000D02*
X53664524Y-113482380D01*
X53664524Y-113482380D02*
X53426429Y-113482380D01*
X54426429Y-113482380D02*
X54426429Y-114149047D01*
X54426429Y-114482380D02*
X54378810Y-114434761D01*
X54378810Y-114434761D02*
X54426429Y-114387142D01*
X54426429Y-114387142D02*
X54474048Y-114434761D01*
X54474048Y-114434761D02*
X54426429Y-114482380D01*
X54426429Y-114482380D02*
X54426429Y-114387142D01*
X54902619Y-114149047D02*
X54902619Y-113482380D01*
X54902619Y-114053809D02*
X54950238Y-114101428D01*
X54950238Y-114101428D02*
X55045476Y-114149047D01*
X55045476Y-114149047D02*
X55188333Y-114149047D01*
X55188333Y-114149047D02*
X55283571Y-114101428D01*
X55283571Y-114101428D02*
X55331190Y-114006190D01*
X55331190Y-114006190D02*
X55331190Y-113482380D01*
X73852381Y-117010238D02*
X73947619Y-116962619D01*
X73947619Y-116962619D02*
X74090476Y-116962619D01*
X74090476Y-116962619D02*
X74233333Y-117010238D01*
X74233333Y-117010238D02*
X74328571Y-117105476D01*
X74328571Y-117105476D02*
X74376190Y-117200714D01*
X74376190Y-117200714D02*
X74423809Y-117391190D01*
X74423809Y-117391190D02*
X74423809Y-117534047D01*
X74423809Y-117534047D02*
X74376190Y-117724523D01*
X74376190Y-117724523D02*
X74328571Y-117819761D01*
X74328571Y-117819761D02*
X74233333Y-117915000D01*
X74233333Y-117915000D02*
X74090476Y-117962619D01*
X74090476Y-117962619D02*
X73995238Y-117962619D01*
X73995238Y-117962619D02*
X73852381Y-117915000D01*
X73852381Y-117915000D02*
X73804762Y-117867380D01*
X73804762Y-117867380D02*
X73804762Y-117534047D01*
X73804762Y-117534047D02*
X73995238Y-117534047D01*
X73376190Y-117962619D02*
X73376190Y-116962619D01*
X73376190Y-116962619D02*
X72804762Y-117962619D01*
X72804762Y-117962619D02*
X72804762Y-116962619D01*
X72328571Y-117962619D02*
X72328571Y-116962619D01*
X72328571Y-116962619D02*
X72090476Y-116962619D01*
X72090476Y-116962619D02*
X71947619Y-117010238D01*
X71947619Y-117010238D02*
X71852381Y-117105476D01*
X71852381Y-117105476D02*
X71804762Y-117200714D01*
X71804762Y-117200714D02*
X71757143Y-117391190D01*
X71757143Y-117391190D02*
X71757143Y-117534047D01*
X71757143Y-117534047D02*
X71804762Y-117724523D01*
X71804762Y-117724523D02*
X71852381Y-117819761D01*
X71852381Y-117819761D02*
X71947619Y-117915000D01*
X71947619Y-117915000D02*
X72090476Y-117962619D01*
X72090476Y-117962619D02*
X72328571Y-117962619D01*
X71185714Y-117962619D02*
X71280952Y-117915000D01*
X71280952Y-117915000D02*
X71328571Y-117867380D01*
X71328571Y-117867380D02*
X71376190Y-117772142D01*
X71376190Y-117772142D02*
X71376190Y-117486428D01*
X71376190Y-117486428D02*
X71328571Y-117391190D01*
X71328571Y-117391190D02*
X71280952Y-117343571D01*
X71280952Y-117343571D02*
X71185714Y-117295952D01*
X71185714Y-117295952D02*
X71042857Y-117295952D01*
X71042857Y-117295952D02*
X70947619Y-117343571D01*
X70947619Y-117343571D02*
X70900000Y-117391190D01*
X70900000Y-117391190D02*
X70852381Y-117486428D01*
X70852381Y-117486428D02*
X70852381Y-117772142D01*
X70852381Y-117772142D02*
X70900000Y-117867380D01*
X70900000Y-117867380D02*
X70947619Y-117915000D01*
X70947619Y-117915000D02*
X71042857Y-117962619D01*
X71042857Y-117962619D02*
X71185714Y-117962619D01*
X69995238Y-117295952D02*
X69995238Y-117962619D01*
X70423809Y-117295952D02*
X70423809Y-117819761D01*
X70423809Y-117819761D02*
X70376190Y-117915000D01*
X70376190Y-117915000D02*
X70280952Y-117962619D01*
X70280952Y-117962619D02*
X70138095Y-117962619D01*
X70138095Y-117962619D02*
X70042857Y-117915000D01*
X70042857Y-117915000D02*
X69995238Y-117867380D01*
X69661904Y-117295952D02*
X69280952Y-117295952D01*
X69519047Y-116962619D02*
X69519047Y-117819761D01*
X69519047Y-117819761D02*
X69471428Y-117915000D01*
X69471428Y-117915000D02*
X69376190Y-117962619D01*
X69376190Y-117962619D02*
X69280952Y-117962619D01*
X53663808Y-103782619D02*
X53330475Y-104782619D01*
X53330475Y-104782619D02*
X52997142Y-103782619D01*
X52663808Y-104782619D02*
X52663808Y-104115952D01*
X52663808Y-103782619D02*
X52711427Y-103830238D01*
X52711427Y-103830238D02*
X52663808Y-103877857D01*
X52663808Y-103877857D02*
X52616189Y-103830238D01*
X52616189Y-103830238D02*
X52663808Y-103782619D01*
X52663808Y-103782619D02*
X52663808Y-103877857D01*
X52187618Y-104115952D02*
X52187618Y-104782619D01*
X52187618Y-104211190D02*
X52139999Y-104163571D01*
X52139999Y-104163571D02*
X52044761Y-104115952D01*
X52044761Y-104115952D02*
X51901904Y-104115952D01*
X51901904Y-104115952D02*
X51806666Y-104163571D01*
X51806666Y-104163571D02*
X51759047Y-104258809D01*
X51759047Y-104258809D02*
X51759047Y-104782619D01*
X71436190Y-102317380D02*
X71769523Y-101317380D01*
X71769523Y-101317380D02*
X72102856Y-102317380D01*
X72579047Y-101317380D02*
X72483809Y-101365000D01*
X72483809Y-101365000D02*
X72436190Y-101412619D01*
X72436190Y-101412619D02*
X72388571Y-101507857D01*
X72388571Y-101507857D02*
X72388571Y-101793571D01*
X72388571Y-101793571D02*
X72436190Y-101888809D01*
X72436190Y-101888809D02*
X72483809Y-101936428D01*
X72483809Y-101936428D02*
X72579047Y-101984047D01*
X72579047Y-101984047D02*
X72721904Y-101984047D01*
X72721904Y-101984047D02*
X72817142Y-101936428D01*
X72817142Y-101936428D02*
X72864761Y-101888809D01*
X72864761Y-101888809D02*
X72912380Y-101793571D01*
X72912380Y-101793571D02*
X72912380Y-101507857D01*
X72912380Y-101507857D02*
X72864761Y-101412619D01*
X72864761Y-101412619D02*
X72817142Y-101365000D01*
X72817142Y-101365000D02*
X72721904Y-101317380D01*
X72721904Y-101317380D02*
X72579047Y-101317380D01*
X73769523Y-101984047D02*
X73769523Y-101317380D01*
X73340952Y-101984047D02*
X73340952Y-101460238D01*
X73340952Y-101460238D02*
X73388571Y-101365000D01*
X73388571Y-101365000D02*
X73483809Y-101317380D01*
X73483809Y-101317380D02*
X73626666Y-101317380D01*
X73626666Y-101317380D02*
X73721904Y-101365000D01*
X73721904Y-101365000D02*
X73769523Y-101412619D01*
X74102857Y-101984047D02*
X74483809Y-101984047D01*
X74245714Y-102317380D02*
X74245714Y-101460238D01*
X74245714Y-101460238D02*
X74293333Y-101365000D01*
X74293333Y-101365000D02*
X74388571Y-101317380D01*
X74388571Y-101317380D02*
X74483809Y-101317380D01*
%TO.C,D10*%
X68614285Y-97162619D02*
X68614285Y-96162619D01*
X68614285Y-96162619D02*
X68376190Y-96162619D01*
X68376190Y-96162619D02*
X68233333Y-96210238D01*
X68233333Y-96210238D02*
X68138095Y-96305476D01*
X68138095Y-96305476D02*
X68090476Y-96400714D01*
X68090476Y-96400714D02*
X68042857Y-96591190D01*
X68042857Y-96591190D02*
X68042857Y-96734047D01*
X68042857Y-96734047D02*
X68090476Y-96924523D01*
X68090476Y-96924523D02*
X68138095Y-97019761D01*
X68138095Y-97019761D02*
X68233333Y-97115000D01*
X68233333Y-97115000D02*
X68376190Y-97162619D01*
X68376190Y-97162619D02*
X68614285Y-97162619D01*
X67090476Y-97162619D02*
X67661904Y-97162619D01*
X67376190Y-97162619D02*
X67376190Y-96162619D01*
X67376190Y-96162619D02*
X67471428Y-96305476D01*
X67471428Y-96305476D02*
X67566666Y-96400714D01*
X67566666Y-96400714D02*
X67661904Y-96448333D01*
X66471428Y-96162619D02*
X66376190Y-96162619D01*
X66376190Y-96162619D02*
X66280952Y-96210238D01*
X66280952Y-96210238D02*
X66233333Y-96257857D01*
X66233333Y-96257857D02*
X66185714Y-96353095D01*
X66185714Y-96353095D02*
X66138095Y-96543571D01*
X66138095Y-96543571D02*
X66138095Y-96781666D01*
X66138095Y-96781666D02*
X66185714Y-96972142D01*
X66185714Y-96972142D02*
X66233333Y-97067380D01*
X66233333Y-97067380D02*
X66280952Y-97115000D01*
X66280952Y-97115000D02*
X66376190Y-97162619D01*
X66376190Y-97162619D02*
X66471428Y-97162619D01*
X66471428Y-97162619D02*
X66566666Y-97115000D01*
X66566666Y-97115000D02*
X66614285Y-97067380D01*
X66614285Y-97067380D02*
X66661904Y-96972142D01*
X66661904Y-96972142D02*
X66709523Y-96781666D01*
X66709523Y-96781666D02*
X66709523Y-96543571D01*
X66709523Y-96543571D02*
X66661904Y-96353095D01*
X66661904Y-96353095D02*
X66614285Y-96257857D01*
X66614285Y-96257857D02*
X66566666Y-96210238D01*
X66566666Y-96210238D02*
X66471428Y-96162619D01*
%TO.C,CR2*%
X73717380Y-37880553D02*
X73765000Y-37832934D01*
X73765000Y-37832934D02*
X73812619Y-37690077D01*
X73812619Y-37690077D02*
X73812619Y-37594839D01*
X73812619Y-37594839D02*
X73765000Y-37451982D01*
X73765000Y-37451982D02*
X73669761Y-37356744D01*
X73669761Y-37356744D02*
X73574523Y-37309125D01*
X73574523Y-37309125D02*
X73384047Y-37261506D01*
X73384047Y-37261506D02*
X73241190Y-37261506D01*
X73241190Y-37261506D02*
X73050714Y-37309125D01*
X73050714Y-37309125D02*
X72955476Y-37356744D01*
X72955476Y-37356744D02*
X72860238Y-37451982D01*
X72860238Y-37451982D02*
X72812619Y-37594839D01*
X72812619Y-37594839D02*
X72812619Y-37690077D01*
X72812619Y-37690077D02*
X72860238Y-37832934D01*
X72860238Y-37832934D02*
X72907857Y-37880553D01*
X73812619Y-38880553D02*
X73336428Y-38547220D01*
X73812619Y-38309125D02*
X72812619Y-38309125D01*
X72812619Y-38309125D02*
X72812619Y-38690077D01*
X72812619Y-38690077D02*
X72860238Y-38785315D01*
X72860238Y-38785315D02*
X72907857Y-38832934D01*
X72907857Y-38832934D02*
X73003095Y-38880553D01*
X73003095Y-38880553D02*
X73145952Y-38880553D01*
X73145952Y-38880553D02*
X73241190Y-38832934D01*
X73241190Y-38832934D02*
X73288809Y-38785315D01*
X73288809Y-38785315D02*
X73336428Y-38690077D01*
X73336428Y-38690077D02*
X73336428Y-38309125D01*
X72907857Y-39261506D02*
X72860238Y-39309125D01*
X72860238Y-39309125D02*
X72812619Y-39404363D01*
X72812619Y-39404363D02*
X72812619Y-39642458D01*
X72812619Y-39642458D02*
X72860238Y-39737696D01*
X72860238Y-39737696D02*
X72907857Y-39785315D01*
X72907857Y-39785315D02*
X73003095Y-39832934D01*
X73003095Y-39832934D02*
X73098333Y-39832934D01*
X73098333Y-39832934D02*
X73241190Y-39785315D01*
X73241190Y-39785315D02*
X73812619Y-39213887D01*
X73812619Y-39213887D02*
X73812619Y-39832934D01*
D14*
%TO.C,U7*%
X81022857Y-120004904D02*
X81022857Y-119357285D01*
X81022857Y-119357285D02*
X81051428Y-119281095D01*
X81051428Y-119281095D02*
X81080000Y-119243000D01*
X81080000Y-119243000D02*
X81137142Y-119204904D01*
X81137142Y-119204904D02*
X81251428Y-119204904D01*
X81251428Y-119204904D02*
X81308571Y-119243000D01*
X81308571Y-119243000D02*
X81337142Y-119281095D01*
X81337142Y-119281095D02*
X81365714Y-119357285D01*
X81365714Y-119357285D02*
X81365714Y-120004904D01*
X81594285Y-120004904D02*
X81994285Y-120004904D01*
X81994285Y-120004904D02*
X81737142Y-119204904D01*
D10*
X77431191Y-118032380D02*
X77764524Y-117032380D01*
X77764524Y-117032380D02*
X78097857Y-118032380D01*
X78431191Y-117032380D02*
X78431191Y-117699047D01*
X78431191Y-118032380D02*
X78383572Y-117984761D01*
X78383572Y-117984761D02*
X78431191Y-117937142D01*
X78431191Y-117937142D02*
X78478810Y-117984761D01*
X78478810Y-117984761D02*
X78431191Y-118032380D01*
X78431191Y-118032380D02*
X78431191Y-117937142D01*
X78907381Y-117699047D02*
X78907381Y-117032380D01*
X78907381Y-117603809D02*
X78955000Y-117651428D01*
X78955000Y-117651428D02*
X79050238Y-117699047D01*
X79050238Y-117699047D02*
X79193095Y-117699047D01*
X79193095Y-117699047D02*
X79288333Y-117651428D01*
X79288333Y-117651428D02*
X79335952Y-117556190D01*
X79335952Y-117556190D02*
X79335952Y-117032380D01*
%TO.C,CR4*%
X113042380Y-37580553D02*
X113090000Y-37532934D01*
X113090000Y-37532934D02*
X113137619Y-37390077D01*
X113137619Y-37390077D02*
X113137619Y-37294839D01*
X113137619Y-37294839D02*
X113090000Y-37151982D01*
X113090000Y-37151982D02*
X112994761Y-37056744D01*
X112994761Y-37056744D02*
X112899523Y-37009125D01*
X112899523Y-37009125D02*
X112709047Y-36961506D01*
X112709047Y-36961506D02*
X112566190Y-36961506D01*
X112566190Y-36961506D02*
X112375714Y-37009125D01*
X112375714Y-37009125D02*
X112280476Y-37056744D01*
X112280476Y-37056744D02*
X112185238Y-37151982D01*
X112185238Y-37151982D02*
X112137619Y-37294839D01*
X112137619Y-37294839D02*
X112137619Y-37390077D01*
X112137619Y-37390077D02*
X112185238Y-37532934D01*
X112185238Y-37532934D02*
X112232857Y-37580553D01*
X113137619Y-38580553D02*
X112661428Y-38247220D01*
X113137619Y-38009125D02*
X112137619Y-38009125D01*
X112137619Y-38009125D02*
X112137619Y-38390077D01*
X112137619Y-38390077D02*
X112185238Y-38485315D01*
X112185238Y-38485315D02*
X112232857Y-38532934D01*
X112232857Y-38532934D02*
X112328095Y-38580553D01*
X112328095Y-38580553D02*
X112470952Y-38580553D01*
X112470952Y-38580553D02*
X112566190Y-38532934D01*
X112566190Y-38532934D02*
X112613809Y-38485315D01*
X112613809Y-38485315D02*
X112661428Y-38390077D01*
X112661428Y-38390077D02*
X112661428Y-38009125D01*
X112470952Y-39437696D02*
X113137619Y-39437696D01*
X112090000Y-39199601D02*
X112804285Y-38961506D01*
X112804285Y-38961506D02*
X112804285Y-39580553D01*
%TO.C,CR5*%
X133667380Y-38030553D02*
X133715000Y-37982934D01*
X133715000Y-37982934D02*
X133762619Y-37840077D01*
X133762619Y-37840077D02*
X133762619Y-37744839D01*
X133762619Y-37744839D02*
X133715000Y-37601982D01*
X133715000Y-37601982D02*
X133619761Y-37506744D01*
X133619761Y-37506744D02*
X133524523Y-37459125D01*
X133524523Y-37459125D02*
X133334047Y-37411506D01*
X133334047Y-37411506D02*
X133191190Y-37411506D01*
X133191190Y-37411506D02*
X133000714Y-37459125D01*
X133000714Y-37459125D02*
X132905476Y-37506744D01*
X132905476Y-37506744D02*
X132810238Y-37601982D01*
X132810238Y-37601982D02*
X132762619Y-37744839D01*
X132762619Y-37744839D02*
X132762619Y-37840077D01*
X132762619Y-37840077D02*
X132810238Y-37982934D01*
X132810238Y-37982934D02*
X132857857Y-38030553D01*
X133762619Y-39030553D02*
X133286428Y-38697220D01*
X133762619Y-38459125D02*
X132762619Y-38459125D01*
X132762619Y-38459125D02*
X132762619Y-38840077D01*
X132762619Y-38840077D02*
X132810238Y-38935315D01*
X132810238Y-38935315D02*
X132857857Y-38982934D01*
X132857857Y-38982934D02*
X132953095Y-39030553D01*
X132953095Y-39030553D02*
X133095952Y-39030553D01*
X133095952Y-39030553D02*
X133191190Y-38982934D01*
X133191190Y-38982934D02*
X133238809Y-38935315D01*
X133238809Y-38935315D02*
X133286428Y-38840077D01*
X133286428Y-38840077D02*
X133286428Y-38459125D01*
X132762619Y-39935315D02*
X132762619Y-39459125D01*
X132762619Y-39459125D02*
X133238809Y-39411506D01*
X133238809Y-39411506D02*
X133191190Y-39459125D01*
X133191190Y-39459125D02*
X133143571Y-39554363D01*
X133143571Y-39554363D02*
X133143571Y-39792458D01*
X133143571Y-39792458D02*
X133191190Y-39887696D01*
X133191190Y-39887696D02*
X133238809Y-39935315D01*
X133238809Y-39935315D02*
X133334047Y-39982934D01*
X133334047Y-39982934D02*
X133572142Y-39982934D01*
X133572142Y-39982934D02*
X133667380Y-39935315D01*
X133667380Y-39935315D02*
X133715000Y-39887696D01*
X133715000Y-39887696D02*
X133762619Y-39792458D01*
X133762619Y-39792458D02*
X133762619Y-39554363D01*
X133762619Y-39554363D02*
X133715000Y-39459125D01*
X133715000Y-39459125D02*
X133667380Y-39411506D01*
%TO.C,CR1*%
X53317380Y-37858333D02*
X53365000Y-37810714D01*
X53365000Y-37810714D02*
X53412619Y-37667857D01*
X53412619Y-37667857D02*
X53412619Y-37572619D01*
X53412619Y-37572619D02*
X53365000Y-37429762D01*
X53365000Y-37429762D02*
X53269761Y-37334524D01*
X53269761Y-37334524D02*
X53174523Y-37286905D01*
X53174523Y-37286905D02*
X52984047Y-37239286D01*
X52984047Y-37239286D02*
X52841190Y-37239286D01*
X52841190Y-37239286D02*
X52650714Y-37286905D01*
X52650714Y-37286905D02*
X52555476Y-37334524D01*
X52555476Y-37334524D02*
X52460238Y-37429762D01*
X52460238Y-37429762D02*
X52412619Y-37572619D01*
X52412619Y-37572619D02*
X52412619Y-37667857D01*
X52412619Y-37667857D02*
X52460238Y-37810714D01*
X52460238Y-37810714D02*
X52507857Y-37858333D01*
X53412619Y-38858333D02*
X52936428Y-38525000D01*
X53412619Y-38286905D02*
X52412619Y-38286905D01*
X52412619Y-38286905D02*
X52412619Y-38667857D01*
X52412619Y-38667857D02*
X52460238Y-38763095D01*
X52460238Y-38763095D02*
X52507857Y-38810714D01*
X52507857Y-38810714D02*
X52603095Y-38858333D01*
X52603095Y-38858333D02*
X52745952Y-38858333D01*
X52745952Y-38858333D02*
X52841190Y-38810714D01*
X52841190Y-38810714D02*
X52888809Y-38763095D01*
X52888809Y-38763095D02*
X52936428Y-38667857D01*
X52936428Y-38667857D02*
X52936428Y-38286905D01*
X53412619Y-39810714D02*
X53412619Y-39239286D01*
X53412619Y-39525000D02*
X52412619Y-39525000D01*
X52412619Y-39525000D02*
X52555476Y-39429762D01*
X52555476Y-39429762D02*
X52650714Y-39334524D01*
X52650714Y-39334524D02*
X52698333Y-39239286D01*
%TO.C,D8*%
X54087619Y-107511905D02*
X53087619Y-107511905D01*
X53087619Y-107511905D02*
X53087619Y-107750000D01*
X53087619Y-107750000D02*
X53135238Y-107892857D01*
X53135238Y-107892857D02*
X53230476Y-107988095D01*
X53230476Y-107988095D02*
X53325714Y-108035714D01*
X53325714Y-108035714D02*
X53516190Y-108083333D01*
X53516190Y-108083333D02*
X53659047Y-108083333D01*
X53659047Y-108083333D02*
X53849523Y-108035714D01*
X53849523Y-108035714D02*
X53944761Y-107988095D01*
X53944761Y-107988095D02*
X54040000Y-107892857D01*
X54040000Y-107892857D02*
X54087619Y-107750000D01*
X54087619Y-107750000D02*
X54087619Y-107511905D01*
X53516190Y-108654762D02*
X53468571Y-108559524D01*
X53468571Y-108559524D02*
X53420952Y-108511905D01*
X53420952Y-108511905D02*
X53325714Y-108464286D01*
X53325714Y-108464286D02*
X53278095Y-108464286D01*
X53278095Y-108464286D02*
X53182857Y-108511905D01*
X53182857Y-108511905D02*
X53135238Y-108559524D01*
X53135238Y-108559524D02*
X53087619Y-108654762D01*
X53087619Y-108654762D02*
X53087619Y-108845238D01*
X53087619Y-108845238D02*
X53135238Y-108940476D01*
X53135238Y-108940476D02*
X53182857Y-108988095D01*
X53182857Y-108988095D02*
X53278095Y-109035714D01*
X53278095Y-109035714D02*
X53325714Y-109035714D01*
X53325714Y-109035714D02*
X53420952Y-108988095D01*
X53420952Y-108988095D02*
X53468571Y-108940476D01*
X53468571Y-108940476D02*
X53516190Y-108845238D01*
X53516190Y-108845238D02*
X53516190Y-108654762D01*
X53516190Y-108654762D02*
X53563809Y-108559524D01*
X53563809Y-108559524D02*
X53611428Y-108511905D01*
X53611428Y-108511905D02*
X53706666Y-108464286D01*
X53706666Y-108464286D02*
X53897142Y-108464286D01*
X53897142Y-108464286D02*
X53992380Y-108511905D01*
X53992380Y-108511905D02*
X54040000Y-108559524D01*
X54040000Y-108559524D02*
X54087619Y-108654762D01*
X54087619Y-108654762D02*
X54087619Y-108845238D01*
X54087619Y-108845238D02*
X54040000Y-108940476D01*
X54040000Y-108940476D02*
X53992380Y-108988095D01*
X53992380Y-108988095D02*
X53897142Y-109035714D01*
X53897142Y-109035714D02*
X53706666Y-109035714D01*
X53706666Y-109035714D02*
X53611428Y-108988095D01*
X53611428Y-108988095D02*
X53563809Y-108940476D01*
X53563809Y-108940476D02*
X53516190Y-108845238D01*
%TO.C,CR3*%
X93367380Y-37205553D02*
X93415000Y-37157934D01*
X93415000Y-37157934D02*
X93462619Y-37015077D01*
X93462619Y-37015077D02*
X93462619Y-36919839D01*
X93462619Y-36919839D02*
X93415000Y-36776982D01*
X93415000Y-36776982D02*
X93319761Y-36681744D01*
X93319761Y-36681744D02*
X93224523Y-36634125D01*
X93224523Y-36634125D02*
X93034047Y-36586506D01*
X93034047Y-36586506D02*
X92891190Y-36586506D01*
X92891190Y-36586506D02*
X92700714Y-36634125D01*
X92700714Y-36634125D02*
X92605476Y-36681744D01*
X92605476Y-36681744D02*
X92510238Y-36776982D01*
X92510238Y-36776982D02*
X92462619Y-36919839D01*
X92462619Y-36919839D02*
X92462619Y-37015077D01*
X92462619Y-37015077D02*
X92510238Y-37157934D01*
X92510238Y-37157934D02*
X92557857Y-37205553D01*
X93462619Y-38205553D02*
X92986428Y-37872220D01*
X93462619Y-37634125D02*
X92462619Y-37634125D01*
X92462619Y-37634125D02*
X92462619Y-38015077D01*
X92462619Y-38015077D02*
X92510238Y-38110315D01*
X92510238Y-38110315D02*
X92557857Y-38157934D01*
X92557857Y-38157934D02*
X92653095Y-38205553D01*
X92653095Y-38205553D02*
X92795952Y-38205553D01*
X92795952Y-38205553D02*
X92891190Y-38157934D01*
X92891190Y-38157934D02*
X92938809Y-38110315D01*
X92938809Y-38110315D02*
X92986428Y-38015077D01*
X92986428Y-38015077D02*
X92986428Y-37634125D01*
X92462619Y-38538887D02*
X92462619Y-39157934D01*
X92462619Y-39157934D02*
X92843571Y-38824601D01*
X92843571Y-38824601D02*
X92843571Y-38967458D01*
X92843571Y-38967458D02*
X92891190Y-39062696D01*
X92891190Y-39062696D02*
X92938809Y-39110315D01*
X92938809Y-39110315D02*
X93034047Y-39157934D01*
X93034047Y-39157934D02*
X93272142Y-39157934D01*
X93272142Y-39157934D02*
X93367380Y-39110315D01*
X93367380Y-39110315D02*
X93415000Y-39062696D01*
X93415000Y-39062696D02*
X93462619Y-38967458D01*
X93462619Y-38967458D02*
X93462619Y-38681744D01*
X93462619Y-38681744D02*
X93415000Y-38586506D01*
X93415000Y-38586506D02*
X93367380Y-38538887D01*
D14*
%TO.C,JP1*%
X134800000Y-120950000D02*
X135400000Y-120950000D01*
X136100000Y-120300000D02*
X136100000Y-117500000D01*
X134100000Y-117500000D02*
X134100000Y-120300000D01*
X135400000Y-116850000D02*
X134800000Y-116850000D01*
X134100000Y-120250000D02*
G75*
G03*
X134800000Y-120950000I699999J-1D01*
G01*
X135400000Y-120950000D02*
G75*
G03*
X136100000Y-120250000I1J699999D01*
G01*
X134800000Y-116850000D02*
G75*
G03*
X134100000Y-117550000I0J-700000D01*
G01*
X136100000Y-117550000D02*
G75*
G03*
X135400000Y-116850000I-700000J0D01*
G01*
%TO.C,U6*%
X50100000Y-122100000D02*
X75500000Y-122100000D01*
X75500000Y-122100000D02*
X75500000Y-96700000D01*
X75500000Y-96700000D02*
X50100000Y-96700000D01*
X50100000Y-96700000D02*
X50100000Y-122100000D01*
%TO.C,D10*%
X70910000Y-100850000D02*
X65400000Y-100850000D01*
X70910000Y-97550000D02*
X70910000Y-100850000D01*
X70910000Y-97550000D02*
X65400000Y-97550000D01*
%TO.C,CR2*%
X72010000Y-32162780D02*
X72010000Y-33962780D01*
X71110000Y-33062780D02*
X72910000Y-33062780D01*
X68044000Y-41922220D02*
X86206000Y-41922220D01*
X68045000Y-41962220D02*
X86205000Y-41962220D01*
X68045000Y-42002220D02*
X86205000Y-42002220D01*
X68045000Y-42042220D02*
X86205000Y-42042220D01*
X68046000Y-42082220D02*
X86204000Y-42082220D01*
X68047000Y-42122220D02*
X86203000Y-42122220D01*
X68048000Y-42162220D02*
X86202000Y-42162220D01*
X68049000Y-42202220D02*
X86201000Y-42202220D01*
X68050000Y-42242220D02*
X86200000Y-42242220D01*
X68052000Y-42282220D02*
X86198000Y-42282220D01*
X68053000Y-42322220D02*
X86197000Y-42322220D01*
X68055000Y-42362220D02*
X86195000Y-42362220D01*
X68057000Y-42402220D02*
X86193000Y-42402220D01*
X68059000Y-42442220D02*
X86191000Y-42442220D01*
X68062000Y-42482220D02*
X86188000Y-42482220D01*
X68064000Y-42522220D02*
X86186000Y-42522220D01*
X68067000Y-42562220D02*
X86183000Y-42562220D01*
X68070000Y-42602220D02*
X86180000Y-42602220D01*
X68073000Y-42643220D02*
X86177000Y-42643220D01*
X68076000Y-42683220D02*
X86174000Y-42683220D01*
X68080000Y-42723220D02*
X86170000Y-42723220D01*
X68083000Y-42763220D02*
X86167000Y-42763220D01*
X68087000Y-42803220D02*
X86163000Y-42803220D01*
X68091000Y-42843220D02*
X86159000Y-42843220D01*
X68095000Y-42883220D02*
X86155000Y-42883220D01*
X68099000Y-42923220D02*
X86151000Y-42923220D01*
X68104000Y-42963220D02*
X86146000Y-42963220D01*
X68109000Y-43003220D02*
X86141000Y-43003220D01*
X68114000Y-43043220D02*
X86136000Y-43043220D01*
X68119000Y-43083220D02*
X86131000Y-43083220D01*
X68124000Y-43123220D02*
X86126000Y-43123220D01*
X68129000Y-43163220D02*
X86121000Y-43163220D01*
X68135000Y-43203220D02*
X86115000Y-43203220D01*
X68141000Y-43243220D02*
X86109000Y-43243220D01*
X68146000Y-43283220D02*
X86104000Y-43283220D01*
X68153000Y-43323220D02*
X86097000Y-43323220D01*
X68159000Y-43363220D02*
X86091000Y-43363220D01*
X68165000Y-43403220D02*
X86085000Y-43403220D01*
X68172000Y-43443220D02*
X86078000Y-43443220D01*
X68179000Y-43483220D02*
X86071000Y-43483220D01*
X68186000Y-43523220D02*
X86064000Y-43523220D01*
X68193000Y-43563220D02*
X86057000Y-43563220D01*
X68201000Y-43603220D02*
X86049000Y-43603220D01*
X68208000Y-43643220D02*
X86042000Y-43643220D01*
X68216000Y-43683220D02*
X86034000Y-43683220D01*
X68224000Y-43723220D02*
X86026000Y-43723220D01*
X68232000Y-43763220D02*
X86018000Y-43763220D01*
X68240000Y-43803220D02*
X86010000Y-43803220D01*
X68249000Y-43843220D02*
X86001000Y-43843220D01*
X68258000Y-43883220D02*
X85992000Y-43883220D01*
X68267000Y-43923220D02*
X85983000Y-43923220D01*
X68276000Y-43963220D02*
X85974000Y-43963220D01*
X68285000Y-44003220D02*
X85965000Y-44003220D01*
X68294000Y-44043220D02*
X85956000Y-44043220D01*
X68304000Y-44083220D02*
X85946000Y-44083220D01*
X68314000Y-44123220D02*
X85936000Y-44123220D01*
X68324000Y-44163220D02*
X85926000Y-44163220D01*
X68334000Y-44203220D02*
X85916000Y-44203220D01*
X78565000Y-44243220D02*
X85905000Y-44243220D01*
X68345000Y-44243220D02*
X75685000Y-44243220D01*
X78565000Y-44283220D02*
X85895000Y-44283220D01*
X68355000Y-44283220D02*
X75685000Y-44283220D01*
X78565000Y-44323220D02*
X85884000Y-44323220D01*
X68366000Y-44323220D02*
X75685000Y-44323220D01*
X78565000Y-44363220D02*
X85873000Y-44363220D01*
X68377000Y-44363220D02*
X75685000Y-44363220D01*
X78565000Y-44403220D02*
X85862000Y-44403220D01*
X68388000Y-44403220D02*
X75685000Y-44403220D01*
X78565000Y-44443220D02*
X85850000Y-44443220D01*
X68400000Y-44443220D02*
X75685000Y-44443220D01*
X78565000Y-44483220D02*
X85839000Y-44483220D01*
X68411000Y-44483220D02*
X75685000Y-44483220D01*
X78565000Y-44523220D02*
X85827000Y-44523220D01*
X68423000Y-44523220D02*
X75685000Y-44523220D01*
X78565000Y-44563220D02*
X85815000Y-44563220D01*
X68435000Y-44563220D02*
X75685000Y-44563220D01*
X78565000Y-44603220D02*
X85803000Y-44603220D01*
X68447000Y-44603220D02*
X75685000Y-44603220D01*
X78565000Y-44643220D02*
X85790000Y-44643220D01*
X68460000Y-44643220D02*
X75685000Y-44643220D01*
X78565000Y-44683220D02*
X85778000Y-44683220D01*
X68472000Y-44683220D02*
X75685000Y-44683220D01*
X78565000Y-44723220D02*
X85765000Y-44723220D01*
X68485000Y-44723220D02*
X75685000Y-44723220D01*
X78565000Y-44763220D02*
X85752000Y-44763220D01*
X68498000Y-44763220D02*
X75685000Y-44763220D01*
X78565000Y-44803220D02*
X85739000Y-44803220D01*
X68511000Y-44803220D02*
X75685000Y-44803220D01*
X78565000Y-44843220D02*
X85725000Y-44843220D01*
X68525000Y-44843220D02*
X75685000Y-44843220D01*
X78565000Y-44883220D02*
X85712000Y-44883220D01*
X68538000Y-44883220D02*
X75685000Y-44883220D01*
X78565000Y-44923220D02*
X85698000Y-44923220D01*
X68552000Y-44923220D02*
X75685000Y-44923220D01*
X78565000Y-44963220D02*
X85684000Y-44963220D01*
X68566000Y-44963220D02*
X75685000Y-44963220D01*
X78565000Y-45003220D02*
X85670000Y-45003220D01*
X68580000Y-45003220D02*
X75685000Y-45003220D01*
X78565000Y-45043220D02*
X85655000Y-45043220D01*
X68595000Y-45043220D02*
X75685000Y-45043220D01*
X78565000Y-45083220D02*
X85641000Y-45083220D01*
X68609000Y-45083220D02*
X75685000Y-45083220D01*
X78565000Y-45123220D02*
X85626000Y-45123220D01*
X68624000Y-45123220D02*
X75685000Y-45123220D01*
X78565000Y-45163220D02*
X85611000Y-45163220D01*
X68639000Y-45163220D02*
X75685000Y-45163220D01*
X78565000Y-45203220D02*
X85595000Y-45203220D01*
X68655000Y-45203220D02*
X75685000Y-45203220D01*
X78565000Y-45243220D02*
X85580000Y-45243220D01*
X68670000Y-45243220D02*
X75685000Y-45243220D01*
X78565000Y-45283220D02*
X85564000Y-45283220D01*
X68686000Y-45283220D02*
X75685000Y-45283220D01*
X78565000Y-45323220D02*
X85548000Y-45323220D01*
X68702000Y-45323220D02*
X75685000Y-45323220D01*
X78565000Y-45363220D02*
X85532000Y-45363220D01*
X68718000Y-45363220D02*
X75685000Y-45363220D01*
X78565000Y-45403220D02*
X85515000Y-45403220D01*
X68735000Y-45403220D02*
X75685000Y-45403220D01*
X78565000Y-45443220D02*
X85499000Y-45443220D01*
X68751000Y-45443220D02*
X75685000Y-45443220D01*
X78565000Y-45483220D02*
X85482000Y-45483220D01*
X68768000Y-45483220D02*
X75685000Y-45483220D01*
X78565000Y-45523220D02*
X85465000Y-45523220D01*
X68785000Y-45523220D02*
X75685000Y-45523220D01*
X78565000Y-45563220D02*
X85448000Y-45563220D01*
X68802000Y-45563220D02*
X75685000Y-45563220D01*
X78565000Y-45603220D02*
X85430000Y-45603220D01*
X68820000Y-45603220D02*
X75685000Y-45603220D01*
X78565000Y-45643220D02*
X85412000Y-45643220D01*
X68838000Y-45643220D02*
X75685000Y-45643220D01*
X78565000Y-45683220D02*
X85394000Y-45683220D01*
X68856000Y-45683220D02*
X75685000Y-45683220D01*
X78565000Y-45723220D02*
X85376000Y-45723220D01*
X68874000Y-45723220D02*
X75685000Y-45723220D01*
X78565000Y-45763220D02*
X85358000Y-45763220D01*
X68892000Y-45763220D02*
X75685000Y-45763220D01*
X78565000Y-45803220D02*
X85339000Y-45803220D01*
X68911000Y-45803220D02*
X75685000Y-45803220D01*
X78565000Y-45843220D02*
X85320000Y-45843220D01*
X68930000Y-45843220D02*
X75685000Y-45843220D01*
X78565000Y-45883220D02*
X85301000Y-45883220D01*
X68949000Y-45883220D02*
X75685000Y-45883220D01*
X78565000Y-45923220D02*
X85281000Y-45923220D01*
X68969000Y-45923220D02*
X75685000Y-45923220D01*
X78565000Y-45963220D02*
X85262000Y-45963220D01*
X68988000Y-45963220D02*
X75685000Y-45963220D01*
X78565000Y-46003220D02*
X85242000Y-46003220D01*
X69008000Y-46003220D02*
X75685000Y-46003220D01*
X78565000Y-46043220D02*
X85222000Y-46043220D01*
X69028000Y-46043220D02*
X75685000Y-46043220D01*
X78565000Y-46083220D02*
X85201000Y-46083220D01*
X69049000Y-46083220D02*
X75685000Y-46083220D01*
X78565000Y-46123220D02*
X85181000Y-46123220D01*
X69069000Y-46123220D02*
X75685000Y-46123220D01*
X78565000Y-46163220D02*
X85160000Y-46163220D01*
X69090000Y-46163220D02*
X75685000Y-46163220D01*
X78565000Y-46203220D02*
X85139000Y-46203220D01*
X69111000Y-46203220D02*
X75685000Y-46203220D01*
X78565000Y-46243220D02*
X85117000Y-46243220D01*
X69133000Y-46243220D02*
X75685000Y-46243220D01*
X78565000Y-46283220D02*
X85096000Y-46283220D01*
X69154000Y-46283220D02*
X75685000Y-46283220D01*
X78565000Y-46323220D02*
X85074000Y-46323220D01*
X69176000Y-46323220D02*
X75685000Y-46323220D01*
X78565000Y-46363220D02*
X85052000Y-46363220D01*
X69198000Y-46363220D02*
X75685000Y-46363220D01*
X78565000Y-46403220D02*
X85029000Y-46403220D01*
X69221000Y-46403220D02*
X75685000Y-46403220D01*
X78565000Y-46443220D02*
X85007000Y-46443220D01*
X69243000Y-46443220D02*
X75685000Y-46443220D01*
X78565000Y-46483220D02*
X84984000Y-46483220D01*
X69266000Y-46483220D02*
X75685000Y-46483220D01*
X78565000Y-46523220D02*
X84960000Y-46523220D01*
X69290000Y-46523220D02*
X75685000Y-46523220D01*
X78565000Y-46563220D02*
X84937000Y-46563220D01*
X69313000Y-46563220D02*
X75685000Y-46563220D01*
X78565000Y-46603220D02*
X84913000Y-46603220D01*
X69337000Y-46603220D02*
X75685000Y-46603220D01*
X78565000Y-46643220D02*
X84889000Y-46643220D01*
X69361000Y-46643220D02*
X75685000Y-46643220D01*
X78565000Y-46683220D02*
X84865000Y-46683220D01*
X69385000Y-46683220D02*
X75685000Y-46683220D01*
X78565000Y-46723220D02*
X84840000Y-46723220D01*
X69410000Y-46723220D02*
X75685000Y-46723220D01*
X78565000Y-46763220D02*
X84815000Y-46763220D01*
X69435000Y-46763220D02*
X75685000Y-46763220D01*
X78565000Y-46803220D02*
X84790000Y-46803220D01*
X69460000Y-46803220D02*
X75685000Y-46803220D01*
X78565000Y-46843220D02*
X84765000Y-46843220D01*
X69485000Y-46843220D02*
X75685000Y-46843220D01*
X78565000Y-46883220D02*
X84739000Y-46883220D01*
X69511000Y-46883220D02*
X75685000Y-46883220D01*
X78565000Y-46923220D02*
X84713000Y-46923220D01*
X69537000Y-46923220D02*
X75685000Y-46923220D01*
X78565000Y-46963220D02*
X84686000Y-46963220D01*
X69564000Y-46963220D02*
X75685000Y-46963220D01*
X78565000Y-47003220D02*
X84660000Y-47003220D01*
X69590000Y-47003220D02*
X75685000Y-47003220D01*
X78565000Y-47043220D02*
X84633000Y-47043220D01*
X69617000Y-47043220D02*
X75685000Y-47043220D01*
X78565000Y-47083220D02*
X84605000Y-47083220D01*
X69645000Y-47083220D02*
X75685000Y-47083220D01*
X69672000Y-47123220D02*
X84578000Y-47123220D01*
X69700000Y-47163220D02*
X84550000Y-47163220D01*
X69728000Y-47203220D02*
X84522000Y-47203220D01*
X69757000Y-47243220D02*
X84493000Y-47243220D01*
X69786000Y-47283220D02*
X84464000Y-47283220D01*
X69815000Y-47323220D02*
X84435000Y-47323220D01*
X69845000Y-47363220D02*
X84405000Y-47363220D01*
X69875000Y-47403220D02*
X84375000Y-47403220D01*
X69905000Y-47443220D02*
X84345000Y-47443220D01*
X69935000Y-47483220D02*
X84315000Y-47483220D01*
X69966000Y-47523220D02*
X84284000Y-47523220D01*
X69998000Y-47563220D02*
X84252000Y-47563220D01*
X70029000Y-47603220D02*
X84221000Y-47603220D01*
X70061000Y-47643220D02*
X84189000Y-47643220D01*
X70094000Y-47683220D02*
X84156000Y-47683220D01*
X70126000Y-47723220D02*
X84124000Y-47723220D01*
X70160000Y-47763220D02*
X84090000Y-47763220D01*
X70193000Y-47803220D02*
X84057000Y-47803220D01*
X70227000Y-47843220D02*
X84023000Y-47843220D01*
X70261000Y-47883220D02*
X83989000Y-47883220D01*
X70296000Y-47923220D02*
X83954000Y-47923220D01*
X70331000Y-47963220D02*
X83919000Y-47963220D01*
X70367000Y-48003220D02*
X83883000Y-48003220D01*
X70403000Y-48043220D02*
X83847000Y-48043220D01*
X70439000Y-48083220D02*
X83811000Y-48083220D01*
X70476000Y-48123220D02*
X83774000Y-48123220D01*
X70513000Y-48163220D02*
X83737000Y-48163220D01*
X70551000Y-48203220D02*
X83699000Y-48203220D01*
X70589000Y-48243220D02*
X83661000Y-48243220D01*
X70628000Y-48283220D02*
X83622000Y-48283220D01*
X70667000Y-48323220D02*
X83583000Y-48323220D01*
X70707000Y-48363220D02*
X83543000Y-48363220D01*
X70747000Y-48403220D02*
X83503000Y-48403220D01*
X70788000Y-48443220D02*
X83462000Y-48443220D01*
X70829000Y-48483220D02*
X83421000Y-48483220D01*
X70871000Y-48523220D02*
X83379000Y-48523220D01*
X70913000Y-48563220D02*
X83337000Y-48563220D01*
X70955000Y-48603220D02*
X83295000Y-48603220D01*
X70999000Y-48643220D02*
X83251000Y-48643220D01*
X71043000Y-48683220D02*
X83207000Y-48683220D01*
X71087000Y-48723220D02*
X83163000Y-48723220D01*
X71132000Y-48763220D02*
X83118000Y-48763220D01*
X71178000Y-48803220D02*
X83072000Y-48803220D01*
X71224000Y-48843220D02*
X83026000Y-48843220D01*
X71271000Y-48883220D02*
X82979000Y-48883220D01*
X71319000Y-48923220D02*
X82931000Y-48923220D01*
X71367000Y-48963220D02*
X82883000Y-48963220D01*
X71416000Y-49003220D02*
X82834000Y-49003220D01*
X71465000Y-49043220D02*
X82785000Y-49043220D01*
X71516000Y-49083220D02*
X82734000Y-49083220D01*
X71567000Y-49123220D02*
X82683000Y-49123220D01*
X71619000Y-49163220D02*
X82631000Y-49163220D01*
X71671000Y-49203220D02*
X82579000Y-49203220D01*
X71725000Y-49243220D02*
X82525000Y-49243220D01*
X71779000Y-49283220D02*
X82471000Y-49283220D01*
X71834000Y-49323220D02*
X82416000Y-49323220D01*
X71890000Y-49363220D02*
X82360000Y-49363220D01*
X71947000Y-49403220D02*
X82303000Y-49403220D01*
X72005000Y-49443220D02*
X82245000Y-49443220D01*
X72063000Y-49483220D02*
X82187000Y-49483220D01*
X72123000Y-49523220D02*
X82127000Y-49523220D01*
X72184000Y-49563220D02*
X82066000Y-49563220D01*
X72246000Y-49603220D02*
X82004000Y-49603220D01*
X72309000Y-49643220D02*
X81941000Y-49643220D01*
X72373000Y-49683220D02*
X81877000Y-49683220D01*
X72439000Y-49723220D02*
X81811000Y-49723220D01*
X72505000Y-49763220D02*
X81745000Y-49763220D01*
X72573000Y-49803220D02*
X81677000Y-49803220D01*
X72643000Y-49843220D02*
X81607000Y-49843220D01*
X72713000Y-49883220D02*
X81537000Y-49883220D01*
X72786000Y-49923220D02*
X81464000Y-49923220D01*
X72860000Y-49963220D02*
X81390000Y-49963220D01*
X72935000Y-50003220D02*
X81315000Y-50003220D01*
X73012000Y-50043220D02*
X81238000Y-50043220D01*
X73092000Y-50083220D02*
X81158000Y-50083220D01*
X73173000Y-50122220D02*
X81077000Y-50122220D01*
X73256000Y-50162220D02*
X80994000Y-50162220D01*
X73341000Y-50202220D02*
X80909000Y-50202220D01*
X73429000Y-50242220D02*
X80821000Y-50242220D01*
X73520000Y-50282220D02*
X80730000Y-50282220D01*
X73613000Y-50322220D02*
X80637000Y-50322220D01*
X73709000Y-50362220D02*
X80541000Y-50362220D01*
X73808000Y-50402220D02*
X80442000Y-50402220D01*
X73911000Y-50442220D02*
X80339000Y-50442220D01*
X74018000Y-50482220D02*
X80232000Y-50482220D01*
X74129000Y-50522220D02*
X80121000Y-50522220D01*
X74245000Y-50562220D02*
X80005000Y-50562220D01*
X74366000Y-50602220D02*
X79884000Y-50602220D01*
X74493000Y-50642220D02*
X79757000Y-50642220D01*
X74627000Y-50682220D02*
X79623000Y-50682220D01*
X74770000Y-50722220D02*
X79480000Y-50722220D01*
X74922000Y-50762220D02*
X79328000Y-50762220D01*
X75086000Y-50802220D02*
X79164000Y-50802220D01*
X75265000Y-50842220D02*
X78985000Y-50842220D01*
X75464000Y-50882220D02*
X78786000Y-50882220D01*
X75690000Y-50922220D02*
X78560000Y-50922220D01*
X75959000Y-50962220D02*
X78291000Y-50962220D01*
X76311000Y-51002220D02*
X77939000Y-51002220D01*
X77085000Y-51042220D02*
X77165000Y-51042220D01*
X86245000Y-41922220D02*
G75*
G03*
X86245000Y-41922220I-9120000J0D01*
G01*
%TO.C,U7*%
X75906000Y-122420000D02*
X87628000Y-122420000D01*
X87628000Y-122420000D02*
X87628000Y-113640000D01*
X87628000Y-113640000D02*
X75906000Y-113640000D01*
X75906000Y-113640000D02*
X75906000Y-122420000D01*
%TO.C,CR4*%
X111960000Y-32162780D02*
X111960000Y-33962780D01*
X111060000Y-33062780D02*
X112860000Y-33062780D01*
X107994000Y-41922220D02*
X126156000Y-41922220D01*
X107995000Y-41962220D02*
X126155000Y-41962220D01*
X107995000Y-42002220D02*
X126155000Y-42002220D01*
X107995000Y-42042220D02*
X126155000Y-42042220D01*
X107996000Y-42082220D02*
X126154000Y-42082220D01*
X107997000Y-42122220D02*
X126153000Y-42122220D01*
X107998000Y-42162220D02*
X126152000Y-42162220D01*
X107999000Y-42202220D02*
X126151000Y-42202220D01*
X108000000Y-42242220D02*
X126150000Y-42242220D01*
X108002000Y-42282220D02*
X126148000Y-42282220D01*
X108003000Y-42322220D02*
X126147000Y-42322220D01*
X108005000Y-42362220D02*
X126145000Y-42362220D01*
X108007000Y-42402220D02*
X126143000Y-42402220D01*
X108009000Y-42442220D02*
X126141000Y-42442220D01*
X108012000Y-42482220D02*
X126138000Y-42482220D01*
X108014000Y-42522220D02*
X126136000Y-42522220D01*
X108017000Y-42562220D02*
X126133000Y-42562220D01*
X108020000Y-42602220D02*
X126130000Y-42602220D01*
X108023000Y-42643220D02*
X126127000Y-42643220D01*
X108026000Y-42683220D02*
X126124000Y-42683220D01*
X108030000Y-42723220D02*
X126120000Y-42723220D01*
X108033000Y-42763220D02*
X126117000Y-42763220D01*
X108037000Y-42803220D02*
X126113000Y-42803220D01*
X108041000Y-42843220D02*
X126109000Y-42843220D01*
X108045000Y-42883220D02*
X126105000Y-42883220D01*
X108049000Y-42923220D02*
X126101000Y-42923220D01*
X108054000Y-42963220D02*
X126096000Y-42963220D01*
X108059000Y-43003220D02*
X126091000Y-43003220D01*
X108064000Y-43043220D02*
X126086000Y-43043220D01*
X108069000Y-43083220D02*
X126081000Y-43083220D01*
X108074000Y-43123220D02*
X126076000Y-43123220D01*
X108079000Y-43163220D02*
X126071000Y-43163220D01*
X108085000Y-43203220D02*
X126065000Y-43203220D01*
X108091000Y-43243220D02*
X126059000Y-43243220D01*
X108096000Y-43283220D02*
X126054000Y-43283220D01*
X108103000Y-43323220D02*
X126047000Y-43323220D01*
X108109000Y-43363220D02*
X126041000Y-43363220D01*
X108115000Y-43403220D02*
X126035000Y-43403220D01*
X108122000Y-43443220D02*
X126028000Y-43443220D01*
X108129000Y-43483220D02*
X126021000Y-43483220D01*
X108136000Y-43523220D02*
X126014000Y-43523220D01*
X108143000Y-43563220D02*
X126007000Y-43563220D01*
X108151000Y-43603220D02*
X125999000Y-43603220D01*
X108158000Y-43643220D02*
X125992000Y-43643220D01*
X108166000Y-43683220D02*
X125984000Y-43683220D01*
X108174000Y-43723220D02*
X125976000Y-43723220D01*
X108182000Y-43763220D02*
X125968000Y-43763220D01*
X108190000Y-43803220D02*
X125960000Y-43803220D01*
X108199000Y-43843220D02*
X125951000Y-43843220D01*
X108208000Y-43883220D02*
X125942000Y-43883220D01*
X108217000Y-43923220D02*
X125933000Y-43923220D01*
X108226000Y-43963220D02*
X125924000Y-43963220D01*
X108235000Y-44003220D02*
X125915000Y-44003220D01*
X108244000Y-44043220D02*
X125906000Y-44043220D01*
X108254000Y-44083220D02*
X125896000Y-44083220D01*
X108264000Y-44123220D02*
X125886000Y-44123220D01*
X108274000Y-44163220D02*
X125876000Y-44163220D01*
X108284000Y-44203220D02*
X125866000Y-44203220D01*
X118515000Y-44243220D02*
X125855000Y-44243220D01*
X108295000Y-44243220D02*
X115635000Y-44243220D01*
X118515000Y-44283220D02*
X125845000Y-44283220D01*
X108305000Y-44283220D02*
X115635000Y-44283220D01*
X118515000Y-44323220D02*
X125834000Y-44323220D01*
X108316000Y-44323220D02*
X115635000Y-44323220D01*
X118515000Y-44363220D02*
X125823000Y-44363220D01*
X108327000Y-44363220D02*
X115635000Y-44363220D01*
X118515000Y-44403220D02*
X125812000Y-44403220D01*
X108338000Y-44403220D02*
X115635000Y-44403220D01*
X118515000Y-44443220D02*
X125800000Y-44443220D01*
X108350000Y-44443220D02*
X115635000Y-44443220D01*
X118515000Y-44483220D02*
X125789000Y-44483220D01*
X108361000Y-44483220D02*
X115635000Y-44483220D01*
X118515000Y-44523220D02*
X125777000Y-44523220D01*
X108373000Y-44523220D02*
X115635000Y-44523220D01*
X118515000Y-44563220D02*
X125765000Y-44563220D01*
X108385000Y-44563220D02*
X115635000Y-44563220D01*
X118515000Y-44603220D02*
X125753000Y-44603220D01*
X108397000Y-44603220D02*
X115635000Y-44603220D01*
X118515000Y-44643220D02*
X125740000Y-44643220D01*
X108410000Y-44643220D02*
X115635000Y-44643220D01*
X118515000Y-44683220D02*
X125728000Y-44683220D01*
X108422000Y-44683220D02*
X115635000Y-44683220D01*
X118515000Y-44723220D02*
X125715000Y-44723220D01*
X108435000Y-44723220D02*
X115635000Y-44723220D01*
X118515000Y-44763220D02*
X125702000Y-44763220D01*
X108448000Y-44763220D02*
X115635000Y-44763220D01*
X118515000Y-44803220D02*
X125689000Y-44803220D01*
X108461000Y-44803220D02*
X115635000Y-44803220D01*
X118515000Y-44843220D02*
X125675000Y-44843220D01*
X108475000Y-44843220D02*
X115635000Y-44843220D01*
X118515000Y-44883220D02*
X125662000Y-44883220D01*
X108488000Y-44883220D02*
X115635000Y-44883220D01*
X118515000Y-44923220D02*
X125648000Y-44923220D01*
X108502000Y-44923220D02*
X115635000Y-44923220D01*
X118515000Y-44963220D02*
X125634000Y-44963220D01*
X108516000Y-44963220D02*
X115635000Y-44963220D01*
X118515000Y-45003220D02*
X125620000Y-45003220D01*
X108530000Y-45003220D02*
X115635000Y-45003220D01*
X118515000Y-45043220D02*
X125605000Y-45043220D01*
X108545000Y-45043220D02*
X115635000Y-45043220D01*
X118515000Y-45083220D02*
X125591000Y-45083220D01*
X108559000Y-45083220D02*
X115635000Y-45083220D01*
X118515000Y-45123220D02*
X125576000Y-45123220D01*
X108574000Y-45123220D02*
X115635000Y-45123220D01*
X118515000Y-45163220D02*
X125561000Y-45163220D01*
X108589000Y-45163220D02*
X115635000Y-45163220D01*
X118515000Y-45203220D02*
X125545000Y-45203220D01*
X108605000Y-45203220D02*
X115635000Y-45203220D01*
X118515000Y-45243220D02*
X125530000Y-45243220D01*
X108620000Y-45243220D02*
X115635000Y-45243220D01*
X118515000Y-45283220D02*
X125514000Y-45283220D01*
X108636000Y-45283220D02*
X115635000Y-45283220D01*
X118515000Y-45323220D02*
X125498000Y-45323220D01*
X108652000Y-45323220D02*
X115635000Y-45323220D01*
X118515000Y-45363220D02*
X125482000Y-45363220D01*
X108668000Y-45363220D02*
X115635000Y-45363220D01*
X118515000Y-45403220D02*
X125465000Y-45403220D01*
X108685000Y-45403220D02*
X115635000Y-45403220D01*
X118515000Y-45443220D02*
X125449000Y-45443220D01*
X108701000Y-45443220D02*
X115635000Y-45443220D01*
X118515000Y-45483220D02*
X125432000Y-45483220D01*
X108718000Y-45483220D02*
X115635000Y-45483220D01*
X118515000Y-45523220D02*
X125415000Y-45523220D01*
X108735000Y-45523220D02*
X115635000Y-45523220D01*
X118515000Y-45563220D02*
X125398000Y-45563220D01*
X108752000Y-45563220D02*
X115635000Y-45563220D01*
X118515000Y-45603220D02*
X125380000Y-45603220D01*
X108770000Y-45603220D02*
X115635000Y-45603220D01*
X118515000Y-45643220D02*
X125362000Y-45643220D01*
X108788000Y-45643220D02*
X115635000Y-45643220D01*
X118515000Y-45683220D02*
X125344000Y-45683220D01*
X108806000Y-45683220D02*
X115635000Y-45683220D01*
X118515000Y-45723220D02*
X125326000Y-45723220D01*
X108824000Y-45723220D02*
X115635000Y-45723220D01*
X118515000Y-45763220D02*
X125308000Y-45763220D01*
X108842000Y-45763220D02*
X115635000Y-45763220D01*
X118515000Y-45803220D02*
X125289000Y-45803220D01*
X108861000Y-45803220D02*
X115635000Y-45803220D01*
X118515000Y-45843220D02*
X125270000Y-45843220D01*
X108880000Y-45843220D02*
X115635000Y-45843220D01*
X118515000Y-45883220D02*
X125251000Y-45883220D01*
X108899000Y-45883220D02*
X115635000Y-45883220D01*
X118515000Y-45923220D02*
X125231000Y-45923220D01*
X108919000Y-45923220D02*
X115635000Y-45923220D01*
X118515000Y-45963220D02*
X125212000Y-45963220D01*
X108938000Y-45963220D02*
X115635000Y-45963220D01*
X118515000Y-46003220D02*
X125192000Y-46003220D01*
X108958000Y-46003220D02*
X115635000Y-46003220D01*
X118515000Y-46043220D02*
X125172000Y-46043220D01*
X108978000Y-46043220D02*
X115635000Y-46043220D01*
X118515000Y-46083220D02*
X125151000Y-46083220D01*
X108999000Y-46083220D02*
X115635000Y-46083220D01*
X118515000Y-46123220D02*
X125131000Y-46123220D01*
X109019000Y-46123220D02*
X115635000Y-46123220D01*
X118515000Y-46163220D02*
X125110000Y-46163220D01*
X109040000Y-46163220D02*
X115635000Y-46163220D01*
X118515000Y-46203220D02*
X125089000Y-46203220D01*
X109061000Y-46203220D02*
X115635000Y-46203220D01*
X118515000Y-46243220D02*
X125067000Y-46243220D01*
X109083000Y-46243220D02*
X115635000Y-46243220D01*
X118515000Y-46283220D02*
X125046000Y-46283220D01*
X109104000Y-46283220D02*
X115635000Y-46283220D01*
X118515000Y-46323220D02*
X125024000Y-46323220D01*
X109126000Y-46323220D02*
X115635000Y-46323220D01*
X118515000Y-46363220D02*
X125002000Y-46363220D01*
X109148000Y-46363220D02*
X115635000Y-46363220D01*
X118515000Y-46403220D02*
X124979000Y-46403220D01*
X109171000Y-46403220D02*
X115635000Y-46403220D01*
X118515000Y-46443220D02*
X124957000Y-46443220D01*
X109193000Y-46443220D02*
X115635000Y-46443220D01*
X118515000Y-46483220D02*
X124934000Y-46483220D01*
X109216000Y-46483220D02*
X115635000Y-46483220D01*
X118515000Y-46523220D02*
X124910000Y-46523220D01*
X109240000Y-46523220D02*
X115635000Y-46523220D01*
X118515000Y-46563220D02*
X124887000Y-46563220D01*
X109263000Y-46563220D02*
X115635000Y-46563220D01*
X118515000Y-46603220D02*
X124863000Y-46603220D01*
X109287000Y-46603220D02*
X115635000Y-46603220D01*
X118515000Y-46643220D02*
X124839000Y-46643220D01*
X109311000Y-46643220D02*
X115635000Y-46643220D01*
X118515000Y-46683220D02*
X124815000Y-46683220D01*
X109335000Y-46683220D02*
X115635000Y-46683220D01*
X118515000Y-46723220D02*
X124790000Y-46723220D01*
X109360000Y-46723220D02*
X115635000Y-46723220D01*
X118515000Y-46763220D02*
X124765000Y-46763220D01*
X109385000Y-46763220D02*
X115635000Y-46763220D01*
X118515000Y-46803220D02*
X124740000Y-46803220D01*
X109410000Y-46803220D02*
X115635000Y-46803220D01*
X118515000Y-46843220D02*
X124715000Y-46843220D01*
X109435000Y-46843220D02*
X115635000Y-46843220D01*
X118515000Y-46883220D02*
X124689000Y-46883220D01*
X109461000Y-46883220D02*
X115635000Y-46883220D01*
X118515000Y-46923220D02*
X124663000Y-46923220D01*
X109487000Y-46923220D02*
X115635000Y-46923220D01*
X118515000Y-46963220D02*
X124636000Y-46963220D01*
X109514000Y-46963220D02*
X115635000Y-46963220D01*
X118515000Y-47003220D02*
X124610000Y-47003220D01*
X109540000Y-47003220D02*
X115635000Y-47003220D01*
X118515000Y-47043220D02*
X124583000Y-47043220D01*
X109567000Y-47043220D02*
X115635000Y-47043220D01*
X118515000Y-47083220D02*
X124555000Y-47083220D01*
X109595000Y-47083220D02*
X115635000Y-47083220D01*
X109622000Y-47123220D02*
X124528000Y-47123220D01*
X109650000Y-47163220D02*
X124500000Y-47163220D01*
X109678000Y-47203220D02*
X124472000Y-47203220D01*
X109707000Y-47243220D02*
X124443000Y-47243220D01*
X109736000Y-47283220D02*
X124414000Y-47283220D01*
X109765000Y-47323220D02*
X124385000Y-47323220D01*
X109795000Y-47363220D02*
X124355000Y-47363220D01*
X109825000Y-47403220D02*
X124325000Y-47403220D01*
X109855000Y-47443220D02*
X124295000Y-47443220D01*
X109885000Y-47483220D02*
X124265000Y-47483220D01*
X109916000Y-47523220D02*
X124234000Y-47523220D01*
X109948000Y-47563220D02*
X124202000Y-47563220D01*
X109979000Y-47603220D02*
X124171000Y-47603220D01*
X110011000Y-47643220D02*
X124139000Y-47643220D01*
X110044000Y-47683220D02*
X124106000Y-47683220D01*
X110076000Y-47723220D02*
X124074000Y-47723220D01*
X110110000Y-47763220D02*
X124040000Y-47763220D01*
X110143000Y-47803220D02*
X124007000Y-47803220D01*
X110177000Y-47843220D02*
X123973000Y-47843220D01*
X110211000Y-47883220D02*
X123939000Y-47883220D01*
X110246000Y-47923220D02*
X123904000Y-47923220D01*
X110281000Y-47963220D02*
X123869000Y-47963220D01*
X110317000Y-48003220D02*
X123833000Y-48003220D01*
X110353000Y-48043220D02*
X123797000Y-48043220D01*
X110389000Y-48083220D02*
X123761000Y-48083220D01*
X110426000Y-48123220D02*
X123724000Y-48123220D01*
X110463000Y-48163220D02*
X123687000Y-48163220D01*
X110501000Y-48203220D02*
X123649000Y-48203220D01*
X110539000Y-48243220D02*
X123611000Y-48243220D01*
X110578000Y-48283220D02*
X123572000Y-48283220D01*
X110617000Y-48323220D02*
X123533000Y-48323220D01*
X110657000Y-48363220D02*
X123493000Y-48363220D01*
X110697000Y-48403220D02*
X123453000Y-48403220D01*
X110738000Y-48443220D02*
X123412000Y-48443220D01*
X110779000Y-48483220D02*
X123371000Y-48483220D01*
X110821000Y-48523220D02*
X123329000Y-48523220D01*
X110863000Y-48563220D02*
X123287000Y-48563220D01*
X110905000Y-48603220D02*
X123245000Y-48603220D01*
X110949000Y-48643220D02*
X123201000Y-48643220D01*
X110993000Y-48683220D02*
X123157000Y-48683220D01*
X111037000Y-48723220D02*
X123113000Y-48723220D01*
X111082000Y-48763220D02*
X123068000Y-48763220D01*
X111128000Y-48803220D02*
X123022000Y-48803220D01*
X111174000Y-48843220D02*
X122976000Y-48843220D01*
X111221000Y-48883220D02*
X122929000Y-48883220D01*
X111269000Y-48923220D02*
X122881000Y-48923220D01*
X111317000Y-48963220D02*
X122833000Y-48963220D01*
X111366000Y-49003220D02*
X122784000Y-49003220D01*
X111415000Y-49043220D02*
X122735000Y-49043220D01*
X111466000Y-49083220D02*
X122684000Y-49083220D01*
X111517000Y-49123220D02*
X122633000Y-49123220D01*
X111569000Y-49163220D02*
X122581000Y-49163220D01*
X111621000Y-49203220D02*
X122529000Y-49203220D01*
X111675000Y-49243220D02*
X122475000Y-49243220D01*
X111729000Y-49283220D02*
X122421000Y-49283220D01*
X111784000Y-49323220D02*
X122366000Y-49323220D01*
X111840000Y-49363220D02*
X122310000Y-49363220D01*
X111897000Y-49403220D02*
X122253000Y-49403220D01*
X111955000Y-49443220D02*
X122195000Y-49443220D01*
X112013000Y-49483220D02*
X122137000Y-49483220D01*
X112073000Y-49523220D02*
X122077000Y-49523220D01*
X112134000Y-49563220D02*
X122016000Y-49563220D01*
X112196000Y-49603220D02*
X121954000Y-49603220D01*
X112259000Y-49643220D02*
X121891000Y-49643220D01*
X112323000Y-49683220D02*
X121827000Y-49683220D01*
X112389000Y-49723220D02*
X121761000Y-49723220D01*
X112455000Y-49763220D02*
X121695000Y-49763220D01*
X112523000Y-49803220D02*
X121627000Y-49803220D01*
X112593000Y-49843220D02*
X121557000Y-49843220D01*
X112663000Y-49883220D02*
X121487000Y-49883220D01*
X112736000Y-49923220D02*
X121414000Y-49923220D01*
X112810000Y-49963220D02*
X121340000Y-49963220D01*
X112885000Y-50003220D02*
X121265000Y-50003220D01*
X112962000Y-50043220D02*
X121188000Y-50043220D01*
X113042000Y-50083220D02*
X121108000Y-50083220D01*
X113123000Y-50122220D02*
X121027000Y-50122220D01*
X113206000Y-50162220D02*
X120944000Y-50162220D01*
X113291000Y-50202220D02*
X120859000Y-50202220D01*
X113379000Y-50242220D02*
X120771000Y-50242220D01*
X113470000Y-50282220D02*
X120680000Y-50282220D01*
X113563000Y-50322220D02*
X120587000Y-50322220D01*
X113659000Y-50362220D02*
X120491000Y-50362220D01*
X113758000Y-50402220D02*
X120392000Y-50402220D01*
X113861000Y-50442220D02*
X120289000Y-50442220D01*
X113968000Y-50482220D02*
X120182000Y-50482220D01*
X114079000Y-50522220D02*
X120071000Y-50522220D01*
X114195000Y-50562220D02*
X119955000Y-50562220D01*
X114316000Y-50602220D02*
X119834000Y-50602220D01*
X114443000Y-50642220D02*
X119707000Y-50642220D01*
X114577000Y-50682220D02*
X119573000Y-50682220D01*
X114720000Y-50722220D02*
X119430000Y-50722220D01*
X114872000Y-50762220D02*
X119278000Y-50762220D01*
X115036000Y-50802220D02*
X119114000Y-50802220D01*
X115215000Y-50842220D02*
X118935000Y-50842220D01*
X115414000Y-50882220D02*
X118736000Y-50882220D01*
X115640000Y-50922220D02*
X118510000Y-50922220D01*
X115909000Y-50962220D02*
X118241000Y-50962220D01*
X116261000Y-51002220D02*
X117889000Y-51002220D01*
X117035000Y-51042220D02*
X117115000Y-51042220D01*
X126195000Y-41922220D02*
G75*
G03*
X126195000Y-41922220I-9120000J0D01*
G01*
%TO.C,JP3*%
X119650000Y-121375000D02*
X120250000Y-121375000D01*
X120950000Y-120725000D02*
X120950000Y-117925000D01*
X118950000Y-117925000D02*
X118950000Y-120725000D01*
X120250000Y-117275000D02*
X119650000Y-117275000D01*
X118950000Y-120675000D02*
G75*
G03*
X119650000Y-121375000I699999J-1D01*
G01*
X120250000Y-121375000D02*
G75*
G03*
X120950000Y-120675000I1J699999D01*
G01*
X119650000Y-117275000D02*
G75*
G03*
X118950000Y-117975000I0J-700000D01*
G01*
X120950000Y-117975000D02*
G75*
G03*
X120250000Y-117275000I-700000J0D01*
G01*
%TO.C,CR5*%
X131810000Y-32162780D02*
X131810000Y-33962780D01*
X130910000Y-33062780D02*
X132710000Y-33062780D01*
X127844000Y-41922220D02*
X146006000Y-41922220D01*
X127845000Y-41962220D02*
X146005000Y-41962220D01*
X127845000Y-42002220D02*
X146005000Y-42002220D01*
X127845000Y-42042220D02*
X146005000Y-42042220D01*
X127846000Y-42082220D02*
X146004000Y-42082220D01*
X127847000Y-42122220D02*
X146003000Y-42122220D01*
X127848000Y-42162220D02*
X146002000Y-42162220D01*
X127849000Y-42202220D02*
X146001000Y-42202220D01*
X127850000Y-42242220D02*
X146000000Y-42242220D01*
X127852000Y-42282220D02*
X145998000Y-42282220D01*
X127853000Y-42322220D02*
X145997000Y-42322220D01*
X127855000Y-42362220D02*
X145995000Y-42362220D01*
X127857000Y-42402220D02*
X145993000Y-42402220D01*
X127859000Y-42442220D02*
X145991000Y-42442220D01*
X127862000Y-42482220D02*
X145988000Y-42482220D01*
X127864000Y-42522220D02*
X145986000Y-42522220D01*
X127867000Y-42562220D02*
X145983000Y-42562220D01*
X127870000Y-42602220D02*
X145980000Y-42602220D01*
X127873000Y-42643220D02*
X145977000Y-42643220D01*
X127876000Y-42683220D02*
X145974000Y-42683220D01*
X127880000Y-42723220D02*
X145970000Y-42723220D01*
X127883000Y-42763220D02*
X145967000Y-42763220D01*
X127887000Y-42803220D02*
X145963000Y-42803220D01*
X127891000Y-42843220D02*
X145959000Y-42843220D01*
X127895000Y-42883220D02*
X145955000Y-42883220D01*
X127899000Y-42923220D02*
X145951000Y-42923220D01*
X127904000Y-42963220D02*
X145946000Y-42963220D01*
X127909000Y-43003220D02*
X145941000Y-43003220D01*
X127914000Y-43043220D02*
X145936000Y-43043220D01*
X127919000Y-43083220D02*
X145931000Y-43083220D01*
X127924000Y-43123220D02*
X145926000Y-43123220D01*
X127929000Y-43163220D02*
X145921000Y-43163220D01*
X127935000Y-43203220D02*
X145915000Y-43203220D01*
X127941000Y-43243220D02*
X145909000Y-43243220D01*
X127946000Y-43283220D02*
X145904000Y-43283220D01*
X127953000Y-43323220D02*
X145897000Y-43323220D01*
X127959000Y-43363220D02*
X145891000Y-43363220D01*
X127965000Y-43403220D02*
X145885000Y-43403220D01*
X127972000Y-43443220D02*
X145878000Y-43443220D01*
X127979000Y-43483220D02*
X145871000Y-43483220D01*
X127986000Y-43523220D02*
X145864000Y-43523220D01*
X127993000Y-43563220D02*
X145857000Y-43563220D01*
X128001000Y-43603220D02*
X145849000Y-43603220D01*
X128008000Y-43643220D02*
X145842000Y-43643220D01*
X128016000Y-43683220D02*
X145834000Y-43683220D01*
X128024000Y-43723220D02*
X145826000Y-43723220D01*
X128032000Y-43763220D02*
X145818000Y-43763220D01*
X128040000Y-43803220D02*
X145810000Y-43803220D01*
X128049000Y-43843220D02*
X145801000Y-43843220D01*
X128058000Y-43883220D02*
X145792000Y-43883220D01*
X128067000Y-43923220D02*
X145783000Y-43923220D01*
X128076000Y-43963220D02*
X145774000Y-43963220D01*
X128085000Y-44003220D02*
X145765000Y-44003220D01*
X128094000Y-44043220D02*
X145756000Y-44043220D01*
X128104000Y-44083220D02*
X145746000Y-44083220D01*
X128114000Y-44123220D02*
X145736000Y-44123220D01*
X128124000Y-44163220D02*
X145726000Y-44163220D01*
X128134000Y-44203220D02*
X145716000Y-44203220D01*
X138365000Y-44243220D02*
X145705000Y-44243220D01*
X128145000Y-44243220D02*
X135485000Y-44243220D01*
X138365000Y-44283220D02*
X145695000Y-44283220D01*
X128155000Y-44283220D02*
X135485000Y-44283220D01*
X138365000Y-44323220D02*
X145684000Y-44323220D01*
X128166000Y-44323220D02*
X135485000Y-44323220D01*
X138365000Y-44363220D02*
X145673000Y-44363220D01*
X128177000Y-44363220D02*
X135485000Y-44363220D01*
X138365000Y-44403220D02*
X145662000Y-44403220D01*
X128188000Y-44403220D02*
X135485000Y-44403220D01*
X138365000Y-44443220D02*
X145650000Y-44443220D01*
X128200000Y-44443220D02*
X135485000Y-44443220D01*
X138365000Y-44483220D02*
X145639000Y-44483220D01*
X128211000Y-44483220D02*
X135485000Y-44483220D01*
X138365000Y-44523220D02*
X145627000Y-44523220D01*
X128223000Y-44523220D02*
X135485000Y-44523220D01*
X138365000Y-44563220D02*
X145615000Y-44563220D01*
X128235000Y-44563220D02*
X135485000Y-44563220D01*
X138365000Y-44603220D02*
X145603000Y-44603220D01*
X128247000Y-44603220D02*
X135485000Y-44603220D01*
X138365000Y-44643220D02*
X145590000Y-44643220D01*
X128260000Y-44643220D02*
X135485000Y-44643220D01*
X138365000Y-44683220D02*
X145578000Y-44683220D01*
X128272000Y-44683220D02*
X135485000Y-44683220D01*
X138365000Y-44723220D02*
X145565000Y-44723220D01*
X128285000Y-44723220D02*
X135485000Y-44723220D01*
X138365000Y-44763220D02*
X145552000Y-44763220D01*
X128298000Y-44763220D02*
X135485000Y-44763220D01*
X138365000Y-44803220D02*
X145539000Y-44803220D01*
X128311000Y-44803220D02*
X135485000Y-44803220D01*
X138365000Y-44843220D02*
X145525000Y-44843220D01*
X128325000Y-44843220D02*
X135485000Y-44843220D01*
X138365000Y-44883220D02*
X145512000Y-44883220D01*
X128338000Y-44883220D02*
X135485000Y-44883220D01*
X138365000Y-44923220D02*
X145498000Y-44923220D01*
X128352000Y-44923220D02*
X135485000Y-44923220D01*
X138365000Y-44963220D02*
X145484000Y-44963220D01*
X128366000Y-44963220D02*
X135485000Y-44963220D01*
X138365000Y-45003220D02*
X145470000Y-45003220D01*
X128380000Y-45003220D02*
X135485000Y-45003220D01*
X138365000Y-45043220D02*
X145455000Y-45043220D01*
X128395000Y-45043220D02*
X135485000Y-45043220D01*
X138365000Y-45083220D02*
X145441000Y-45083220D01*
X128409000Y-45083220D02*
X135485000Y-45083220D01*
X138365000Y-45123220D02*
X145426000Y-45123220D01*
X128424000Y-45123220D02*
X135485000Y-45123220D01*
X138365000Y-45163220D02*
X145411000Y-45163220D01*
X128439000Y-45163220D02*
X135485000Y-45163220D01*
X138365000Y-45203220D02*
X145395000Y-45203220D01*
X128455000Y-45203220D02*
X135485000Y-45203220D01*
X138365000Y-45243220D02*
X145380000Y-45243220D01*
X128470000Y-45243220D02*
X135485000Y-45243220D01*
X138365000Y-45283220D02*
X145364000Y-45283220D01*
X128486000Y-45283220D02*
X135485000Y-45283220D01*
X138365000Y-45323220D02*
X145348000Y-45323220D01*
X128502000Y-45323220D02*
X135485000Y-45323220D01*
X138365000Y-45363220D02*
X145332000Y-45363220D01*
X128518000Y-45363220D02*
X135485000Y-45363220D01*
X138365000Y-45403220D02*
X145315000Y-45403220D01*
X128535000Y-45403220D02*
X135485000Y-45403220D01*
X138365000Y-45443220D02*
X145299000Y-45443220D01*
X128551000Y-45443220D02*
X135485000Y-45443220D01*
X138365000Y-45483220D02*
X145282000Y-45483220D01*
X128568000Y-45483220D02*
X135485000Y-45483220D01*
X138365000Y-45523220D02*
X145265000Y-45523220D01*
X128585000Y-45523220D02*
X135485000Y-45523220D01*
X138365000Y-45563220D02*
X145248000Y-45563220D01*
X128602000Y-45563220D02*
X135485000Y-45563220D01*
X138365000Y-45603220D02*
X145230000Y-45603220D01*
X128620000Y-45603220D02*
X135485000Y-45603220D01*
X138365000Y-45643220D02*
X145212000Y-45643220D01*
X128638000Y-45643220D02*
X135485000Y-45643220D01*
X138365000Y-45683220D02*
X145194000Y-45683220D01*
X128656000Y-45683220D02*
X135485000Y-45683220D01*
X138365000Y-45723220D02*
X145176000Y-45723220D01*
X128674000Y-45723220D02*
X135485000Y-45723220D01*
X138365000Y-45763220D02*
X145158000Y-45763220D01*
X128692000Y-45763220D02*
X135485000Y-45763220D01*
X138365000Y-45803220D02*
X145139000Y-45803220D01*
X128711000Y-45803220D02*
X135485000Y-45803220D01*
X138365000Y-45843220D02*
X145120000Y-45843220D01*
X128730000Y-45843220D02*
X135485000Y-45843220D01*
X138365000Y-45883220D02*
X145101000Y-45883220D01*
X128749000Y-45883220D02*
X135485000Y-45883220D01*
X138365000Y-45923220D02*
X145081000Y-45923220D01*
X128769000Y-45923220D02*
X135485000Y-45923220D01*
X138365000Y-45963220D02*
X145062000Y-45963220D01*
X128788000Y-45963220D02*
X135485000Y-45963220D01*
X138365000Y-46003220D02*
X145042000Y-46003220D01*
X128808000Y-46003220D02*
X135485000Y-46003220D01*
X138365000Y-46043220D02*
X145022000Y-46043220D01*
X128828000Y-46043220D02*
X135485000Y-46043220D01*
X138365000Y-46083220D02*
X145001000Y-46083220D01*
X128849000Y-46083220D02*
X135485000Y-46083220D01*
X138365000Y-46123220D02*
X144981000Y-46123220D01*
X128869000Y-46123220D02*
X135485000Y-46123220D01*
X138365000Y-46163220D02*
X144960000Y-46163220D01*
X128890000Y-46163220D02*
X135485000Y-46163220D01*
X138365000Y-46203220D02*
X144939000Y-46203220D01*
X128911000Y-46203220D02*
X135485000Y-46203220D01*
X138365000Y-46243220D02*
X144917000Y-46243220D01*
X128933000Y-46243220D02*
X135485000Y-46243220D01*
X138365000Y-46283220D02*
X144896000Y-46283220D01*
X128954000Y-46283220D02*
X135485000Y-46283220D01*
X138365000Y-46323220D02*
X144874000Y-46323220D01*
X128976000Y-46323220D02*
X135485000Y-46323220D01*
X138365000Y-46363220D02*
X144852000Y-46363220D01*
X128998000Y-46363220D02*
X135485000Y-46363220D01*
X138365000Y-46403220D02*
X144829000Y-46403220D01*
X129021000Y-46403220D02*
X135485000Y-46403220D01*
X138365000Y-46443220D02*
X144807000Y-46443220D01*
X129043000Y-46443220D02*
X135485000Y-46443220D01*
X138365000Y-46483220D02*
X144784000Y-46483220D01*
X129066000Y-46483220D02*
X135485000Y-46483220D01*
X138365000Y-46523220D02*
X144760000Y-46523220D01*
X129090000Y-46523220D02*
X135485000Y-46523220D01*
X138365000Y-46563220D02*
X144737000Y-46563220D01*
X129113000Y-46563220D02*
X135485000Y-46563220D01*
X138365000Y-46603220D02*
X144713000Y-46603220D01*
X129137000Y-46603220D02*
X135485000Y-46603220D01*
X138365000Y-46643220D02*
X144689000Y-46643220D01*
X129161000Y-46643220D02*
X135485000Y-46643220D01*
X138365000Y-46683220D02*
X144665000Y-46683220D01*
X129185000Y-46683220D02*
X135485000Y-46683220D01*
X138365000Y-46723220D02*
X144640000Y-46723220D01*
X129210000Y-46723220D02*
X135485000Y-46723220D01*
X138365000Y-46763220D02*
X144615000Y-46763220D01*
X129235000Y-46763220D02*
X135485000Y-46763220D01*
X138365000Y-46803220D02*
X144590000Y-46803220D01*
X129260000Y-46803220D02*
X135485000Y-46803220D01*
X138365000Y-46843220D02*
X144565000Y-46843220D01*
X129285000Y-46843220D02*
X135485000Y-46843220D01*
X138365000Y-46883220D02*
X144539000Y-46883220D01*
X129311000Y-46883220D02*
X135485000Y-46883220D01*
X138365000Y-46923220D02*
X144513000Y-46923220D01*
X129337000Y-46923220D02*
X135485000Y-46923220D01*
X138365000Y-46963220D02*
X144486000Y-46963220D01*
X129364000Y-46963220D02*
X135485000Y-46963220D01*
X138365000Y-47003220D02*
X144460000Y-47003220D01*
X129390000Y-47003220D02*
X135485000Y-47003220D01*
X138365000Y-47043220D02*
X144433000Y-47043220D01*
X129417000Y-47043220D02*
X135485000Y-47043220D01*
X138365000Y-47083220D02*
X144405000Y-47083220D01*
X129445000Y-47083220D02*
X135485000Y-47083220D01*
X129472000Y-47123220D02*
X144378000Y-47123220D01*
X129500000Y-47163220D02*
X144350000Y-47163220D01*
X129528000Y-47203220D02*
X144322000Y-47203220D01*
X129557000Y-47243220D02*
X144293000Y-47243220D01*
X129586000Y-47283220D02*
X144264000Y-47283220D01*
X129615000Y-47323220D02*
X144235000Y-47323220D01*
X129645000Y-47363220D02*
X144205000Y-47363220D01*
X129675000Y-47403220D02*
X144175000Y-47403220D01*
X129705000Y-47443220D02*
X144145000Y-47443220D01*
X129735000Y-47483220D02*
X144115000Y-47483220D01*
X129766000Y-47523220D02*
X144084000Y-47523220D01*
X129798000Y-47563220D02*
X144052000Y-47563220D01*
X129829000Y-47603220D02*
X144021000Y-47603220D01*
X129861000Y-47643220D02*
X143989000Y-47643220D01*
X129894000Y-47683220D02*
X143956000Y-47683220D01*
X129926000Y-47723220D02*
X143924000Y-47723220D01*
X129960000Y-47763220D02*
X143890000Y-47763220D01*
X129993000Y-47803220D02*
X143857000Y-47803220D01*
X130027000Y-47843220D02*
X143823000Y-47843220D01*
X130061000Y-47883220D02*
X143789000Y-47883220D01*
X130096000Y-47923220D02*
X143754000Y-47923220D01*
X130131000Y-47963220D02*
X143719000Y-47963220D01*
X130167000Y-48003220D02*
X143683000Y-48003220D01*
X130203000Y-48043220D02*
X143647000Y-48043220D01*
X130239000Y-48083220D02*
X143611000Y-48083220D01*
X130276000Y-48123220D02*
X143574000Y-48123220D01*
X130313000Y-48163220D02*
X143537000Y-48163220D01*
X130351000Y-48203220D02*
X143499000Y-48203220D01*
X130389000Y-48243220D02*
X143461000Y-48243220D01*
X130428000Y-48283220D02*
X143422000Y-48283220D01*
X130467000Y-48323220D02*
X143383000Y-48323220D01*
X130507000Y-48363220D02*
X143343000Y-48363220D01*
X130547000Y-48403220D02*
X143303000Y-48403220D01*
X130588000Y-48443220D02*
X143262000Y-48443220D01*
X130629000Y-48483220D02*
X143221000Y-48483220D01*
X130671000Y-48523220D02*
X143179000Y-48523220D01*
X130713000Y-48563220D02*
X143137000Y-48563220D01*
X130755000Y-48603220D02*
X143095000Y-48603220D01*
X130799000Y-48643220D02*
X143051000Y-48643220D01*
X130843000Y-48683220D02*
X143007000Y-48683220D01*
X130887000Y-48723220D02*
X142963000Y-48723220D01*
X130932000Y-48763220D02*
X142918000Y-48763220D01*
X130978000Y-48803220D02*
X142872000Y-48803220D01*
X131024000Y-48843220D02*
X142826000Y-48843220D01*
X131071000Y-48883220D02*
X142779000Y-48883220D01*
X131119000Y-48923220D02*
X142731000Y-48923220D01*
X131167000Y-48963220D02*
X142683000Y-48963220D01*
X131216000Y-49003220D02*
X142634000Y-49003220D01*
X131265000Y-49043220D02*
X142585000Y-49043220D01*
X131316000Y-49083220D02*
X142534000Y-49083220D01*
X131367000Y-49123220D02*
X142483000Y-49123220D01*
X131419000Y-49163220D02*
X142431000Y-49163220D01*
X131471000Y-49203220D02*
X142379000Y-49203220D01*
X131525000Y-49243220D02*
X142325000Y-49243220D01*
X131579000Y-49283220D02*
X142271000Y-49283220D01*
X131634000Y-49323220D02*
X142216000Y-49323220D01*
X131690000Y-49363220D02*
X142160000Y-49363220D01*
X131747000Y-49403220D02*
X142103000Y-49403220D01*
X131805000Y-49443220D02*
X142045000Y-49443220D01*
X131863000Y-49483220D02*
X141987000Y-49483220D01*
X131923000Y-49523220D02*
X141927000Y-49523220D01*
X131984000Y-49563220D02*
X141866000Y-49563220D01*
X132046000Y-49603220D02*
X141804000Y-49603220D01*
X132109000Y-49643220D02*
X141741000Y-49643220D01*
X132173000Y-49683220D02*
X141677000Y-49683220D01*
X132239000Y-49723220D02*
X141611000Y-49723220D01*
X132305000Y-49763220D02*
X141545000Y-49763220D01*
X132373000Y-49803220D02*
X141477000Y-49803220D01*
X132443000Y-49843220D02*
X141407000Y-49843220D01*
X132513000Y-49883220D02*
X141337000Y-49883220D01*
X132586000Y-49923220D02*
X141264000Y-49923220D01*
X132660000Y-49963220D02*
X141190000Y-49963220D01*
X132735000Y-50003220D02*
X141115000Y-50003220D01*
X132812000Y-50043220D02*
X141038000Y-50043220D01*
X132892000Y-50083220D02*
X140958000Y-50083220D01*
X132973000Y-50122220D02*
X140877000Y-50122220D01*
X133056000Y-50162220D02*
X140794000Y-50162220D01*
X133141000Y-50202220D02*
X140709000Y-50202220D01*
X133229000Y-50242220D02*
X140621000Y-50242220D01*
X133320000Y-50282220D02*
X140530000Y-50282220D01*
X133413000Y-50322220D02*
X140437000Y-50322220D01*
X133509000Y-50362220D02*
X140341000Y-50362220D01*
X133608000Y-50402220D02*
X140242000Y-50402220D01*
X133711000Y-50442220D02*
X140139000Y-50442220D01*
X133818000Y-50482220D02*
X140032000Y-50482220D01*
X133929000Y-50522220D02*
X139921000Y-50522220D01*
X134045000Y-50562220D02*
X139805000Y-50562220D01*
X134166000Y-50602220D02*
X139684000Y-50602220D01*
X134293000Y-50642220D02*
X139557000Y-50642220D01*
X134427000Y-50682220D02*
X139423000Y-50682220D01*
X134570000Y-50722220D02*
X139280000Y-50722220D01*
X134722000Y-50762220D02*
X139128000Y-50762220D01*
X134886000Y-50802220D02*
X138964000Y-50802220D01*
X135065000Y-50842220D02*
X138785000Y-50842220D01*
X135264000Y-50882220D02*
X138586000Y-50882220D01*
X135490000Y-50922220D02*
X138360000Y-50922220D01*
X135759000Y-50962220D02*
X138091000Y-50962220D01*
X136111000Y-51002220D02*
X137739000Y-51002220D01*
X136885000Y-51042220D02*
X136965000Y-51042220D01*
X146045000Y-41922220D02*
G75*
G03*
X146045000Y-41922220I-9120000J0D01*
G01*
%TO.C,CR1*%
X52385000Y-32215560D02*
X52385000Y-34015560D01*
X51485000Y-33115560D02*
X53285000Y-33115560D01*
X48419000Y-41975000D02*
X66581000Y-41975000D01*
X48420000Y-42015000D02*
X66580000Y-42015000D01*
X48420000Y-42055000D02*
X66580000Y-42055000D01*
X48420000Y-42095000D02*
X66580000Y-42095000D01*
X48421000Y-42135000D02*
X66579000Y-42135000D01*
X48422000Y-42175000D02*
X66578000Y-42175000D01*
X48423000Y-42215000D02*
X66577000Y-42215000D01*
X48424000Y-42255000D02*
X66576000Y-42255000D01*
X48425000Y-42295000D02*
X66575000Y-42295000D01*
X48427000Y-42335000D02*
X66573000Y-42335000D01*
X48428000Y-42375000D02*
X66572000Y-42375000D01*
X48430000Y-42415000D02*
X66570000Y-42415000D01*
X48432000Y-42455000D02*
X66568000Y-42455000D01*
X48434000Y-42495000D02*
X66566000Y-42495000D01*
X48437000Y-42535000D02*
X66563000Y-42535000D01*
X48439000Y-42575000D02*
X66561000Y-42575000D01*
X48442000Y-42615000D02*
X66558000Y-42615000D01*
X48445000Y-42655000D02*
X66555000Y-42655000D01*
X48448000Y-42696000D02*
X66552000Y-42696000D01*
X48451000Y-42736000D02*
X66549000Y-42736000D01*
X48455000Y-42776000D02*
X66545000Y-42776000D01*
X48458000Y-42816000D02*
X66542000Y-42816000D01*
X48462000Y-42856000D02*
X66538000Y-42856000D01*
X48466000Y-42896000D02*
X66534000Y-42896000D01*
X48470000Y-42936000D02*
X66530000Y-42936000D01*
X48474000Y-42976000D02*
X66526000Y-42976000D01*
X48479000Y-43016000D02*
X66521000Y-43016000D01*
X48484000Y-43056000D02*
X66516000Y-43056000D01*
X48489000Y-43096000D02*
X66511000Y-43096000D01*
X48494000Y-43136000D02*
X66506000Y-43136000D01*
X48499000Y-43176000D02*
X66501000Y-43176000D01*
X48504000Y-43216000D02*
X66496000Y-43216000D01*
X48510000Y-43256000D02*
X66490000Y-43256000D01*
X48516000Y-43296000D02*
X66484000Y-43296000D01*
X48521000Y-43336000D02*
X66479000Y-43336000D01*
X48528000Y-43376000D02*
X66472000Y-43376000D01*
X48534000Y-43416000D02*
X66466000Y-43416000D01*
X48540000Y-43456000D02*
X66460000Y-43456000D01*
X48547000Y-43496000D02*
X66453000Y-43496000D01*
X48554000Y-43536000D02*
X66446000Y-43536000D01*
X48561000Y-43576000D02*
X66439000Y-43576000D01*
X48568000Y-43616000D02*
X66432000Y-43616000D01*
X48576000Y-43656000D02*
X66424000Y-43656000D01*
X48583000Y-43696000D02*
X66417000Y-43696000D01*
X48591000Y-43736000D02*
X66409000Y-43736000D01*
X48599000Y-43776000D02*
X66401000Y-43776000D01*
X48607000Y-43816000D02*
X66393000Y-43816000D01*
X48615000Y-43856000D02*
X66385000Y-43856000D01*
X48624000Y-43896000D02*
X66376000Y-43896000D01*
X48633000Y-43936000D02*
X66367000Y-43936000D01*
X48642000Y-43976000D02*
X66358000Y-43976000D01*
X48651000Y-44016000D02*
X66349000Y-44016000D01*
X48660000Y-44056000D02*
X66340000Y-44056000D01*
X48669000Y-44096000D02*
X66331000Y-44096000D01*
X48679000Y-44136000D02*
X66321000Y-44136000D01*
X48689000Y-44176000D02*
X66311000Y-44176000D01*
X48699000Y-44216000D02*
X66301000Y-44216000D01*
X48709000Y-44256000D02*
X66291000Y-44256000D01*
X58940000Y-44296000D02*
X66280000Y-44296000D01*
X48720000Y-44296000D02*
X56060000Y-44296000D01*
X58940000Y-44336000D02*
X66270000Y-44336000D01*
X48730000Y-44336000D02*
X56060000Y-44336000D01*
X58940000Y-44376000D02*
X66259000Y-44376000D01*
X48741000Y-44376000D02*
X56060000Y-44376000D01*
X58940000Y-44416000D02*
X66248000Y-44416000D01*
X48752000Y-44416000D02*
X56060000Y-44416000D01*
X58940000Y-44456000D02*
X66237000Y-44456000D01*
X48763000Y-44456000D02*
X56060000Y-44456000D01*
X58940000Y-44496000D02*
X66225000Y-44496000D01*
X48775000Y-44496000D02*
X56060000Y-44496000D01*
X58940000Y-44536000D02*
X66214000Y-44536000D01*
X48786000Y-44536000D02*
X56060000Y-44536000D01*
X58940000Y-44576000D02*
X66202000Y-44576000D01*
X48798000Y-44576000D02*
X56060000Y-44576000D01*
X58940000Y-44616000D02*
X66190000Y-44616000D01*
X48810000Y-44616000D02*
X56060000Y-44616000D01*
X58940000Y-44656000D02*
X66178000Y-44656000D01*
X48822000Y-44656000D02*
X56060000Y-44656000D01*
X58940000Y-44696000D02*
X66165000Y-44696000D01*
X48835000Y-44696000D02*
X56060000Y-44696000D01*
X58940000Y-44736000D02*
X66153000Y-44736000D01*
X48847000Y-44736000D02*
X56060000Y-44736000D01*
X58940000Y-44776000D02*
X66140000Y-44776000D01*
X48860000Y-44776000D02*
X56060000Y-44776000D01*
X58940000Y-44816000D02*
X66127000Y-44816000D01*
X48873000Y-44816000D02*
X56060000Y-44816000D01*
X58940000Y-44856000D02*
X66114000Y-44856000D01*
X48886000Y-44856000D02*
X56060000Y-44856000D01*
X58940000Y-44896000D02*
X66100000Y-44896000D01*
X48900000Y-44896000D02*
X56060000Y-44896000D01*
X58940000Y-44936000D02*
X66087000Y-44936000D01*
X48913000Y-44936000D02*
X56060000Y-44936000D01*
X58940000Y-44976000D02*
X66073000Y-44976000D01*
X48927000Y-44976000D02*
X56060000Y-44976000D01*
X58940000Y-45016000D02*
X66059000Y-45016000D01*
X48941000Y-45016000D02*
X56060000Y-45016000D01*
X58940000Y-45056000D02*
X66045000Y-45056000D01*
X48955000Y-45056000D02*
X56060000Y-45056000D01*
X58940000Y-45096000D02*
X66030000Y-45096000D01*
X48970000Y-45096000D02*
X56060000Y-45096000D01*
X58940000Y-45136000D02*
X66016000Y-45136000D01*
X48984000Y-45136000D02*
X56060000Y-45136000D01*
X58940000Y-45176000D02*
X66001000Y-45176000D01*
X48999000Y-45176000D02*
X56060000Y-45176000D01*
X58940000Y-45216000D02*
X65986000Y-45216000D01*
X49014000Y-45216000D02*
X56060000Y-45216000D01*
X58940000Y-45256000D02*
X65970000Y-45256000D01*
X49030000Y-45256000D02*
X56060000Y-45256000D01*
X58940000Y-45296000D02*
X65955000Y-45296000D01*
X49045000Y-45296000D02*
X56060000Y-45296000D01*
X58940000Y-45336000D02*
X65939000Y-45336000D01*
X49061000Y-45336000D02*
X56060000Y-45336000D01*
X58940000Y-45376000D02*
X65923000Y-45376000D01*
X49077000Y-45376000D02*
X56060000Y-45376000D01*
X58940000Y-45416000D02*
X65907000Y-45416000D01*
X49093000Y-45416000D02*
X56060000Y-45416000D01*
X58940000Y-45456000D02*
X65890000Y-45456000D01*
X49110000Y-45456000D02*
X56060000Y-45456000D01*
X58940000Y-45496000D02*
X65874000Y-45496000D01*
X49126000Y-45496000D02*
X56060000Y-45496000D01*
X58940000Y-45536000D02*
X65857000Y-45536000D01*
X49143000Y-45536000D02*
X56060000Y-45536000D01*
X58940000Y-45576000D02*
X65840000Y-45576000D01*
X49160000Y-45576000D02*
X56060000Y-45576000D01*
X58940000Y-45616000D02*
X65823000Y-45616000D01*
X49177000Y-45616000D02*
X56060000Y-45616000D01*
X58940000Y-45656000D02*
X65805000Y-45656000D01*
X49195000Y-45656000D02*
X56060000Y-45656000D01*
X58940000Y-45696000D02*
X65787000Y-45696000D01*
X49213000Y-45696000D02*
X56060000Y-45696000D01*
X58940000Y-45736000D02*
X65769000Y-45736000D01*
X49231000Y-45736000D02*
X56060000Y-45736000D01*
X58940000Y-45776000D02*
X65751000Y-45776000D01*
X49249000Y-45776000D02*
X56060000Y-45776000D01*
X58940000Y-45816000D02*
X65733000Y-45816000D01*
X49267000Y-45816000D02*
X56060000Y-45816000D01*
X58940000Y-45856000D02*
X65714000Y-45856000D01*
X49286000Y-45856000D02*
X56060000Y-45856000D01*
X58940000Y-45896000D02*
X65695000Y-45896000D01*
X49305000Y-45896000D02*
X56060000Y-45896000D01*
X58940000Y-45936000D02*
X65676000Y-45936000D01*
X49324000Y-45936000D02*
X56060000Y-45936000D01*
X58940000Y-45976000D02*
X65656000Y-45976000D01*
X49344000Y-45976000D02*
X56060000Y-45976000D01*
X58940000Y-46016000D02*
X65637000Y-46016000D01*
X49363000Y-46016000D02*
X56060000Y-46016000D01*
X58940000Y-46056000D02*
X65617000Y-46056000D01*
X49383000Y-46056000D02*
X56060000Y-46056000D01*
X58940000Y-46096000D02*
X65597000Y-46096000D01*
X49403000Y-46096000D02*
X56060000Y-46096000D01*
X58940000Y-46136000D02*
X65576000Y-46136000D01*
X49424000Y-46136000D02*
X56060000Y-46136000D01*
X58940000Y-46176000D02*
X65556000Y-46176000D01*
X49444000Y-46176000D02*
X56060000Y-46176000D01*
X58940000Y-46216000D02*
X65535000Y-46216000D01*
X49465000Y-46216000D02*
X56060000Y-46216000D01*
X58940000Y-46256000D02*
X65514000Y-46256000D01*
X49486000Y-46256000D02*
X56060000Y-46256000D01*
X58940000Y-46296000D02*
X65492000Y-46296000D01*
X49508000Y-46296000D02*
X56060000Y-46296000D01*
X58940000Y-46336000D02*
X65471000Y-46336000D01*
X49529000Y-46336000D02*
X56060000Y-46336000D01*
X58940000Y-46376000D02*
X65449000Y-46376000D01*
X49551000Y-46376000D02*
X56060000Y-46376000D01*
X58940000Y-46416000D02*
X65427000Y-46416000D01*
X49573000Y-46416000D02*
X56060000Y-46416000D01*
X58940000Y-46456000D02*
X65404000Y-46456000D01*
X49596000Y-46456000D02*
X56060000Y-46456000D01*
X58940000Y-46496000D02*
X65382000Y-46496000D01*
X49618000Y-46496000D02*
X56060000Y-46496000D01*
X58940000Y-46536000D02*
X65359000Y-46536000D01*
X49641000Y-46536000D02*
X56060000Y-46536000D01*
X58940000Y-46576000D02*
X65335000Y-46576000D01*
X49665000Y-46576000D02*
X56060000Y-46576000D01*
X58940000Y-46616000D02*
X65312000Y-46616000D01*
X49688000Y-46616000D02*
X56060000Y-46616000D01*
X58940000Y-46656000D02*
X65288000Y-46656000D01*
X49712000Y-46656000D02*
X56060000Y-46656000D01*
X58940000Y-46696000D02*
X65264000Y-46696000D01*
X49736000Y-46696000D02*
X56060000Y-46696000D01*
X58940000Y-46736000D02*
X65240000Y-46736000D01*
X49760000Y-46736000D02*
X56060000Y-46736000D01*
X58940000Y-46776000D02*
X65215000Y-46776000D01*
X49785000Y-46776000D02*
X56060000Y-46776000D01*
X58940000Y-46816000D02*
X65190000Y-46816000D01*
X49810000Y-46816000D02*
X56060000Y-46816000D01*
X58940000Y-46856000D02*
X65165000Y-46856000D01*
X49835000Y-46856000D02*
X56060000Y-46856000D01*
X58940000Y-46896000D02*
X65140000Y-46896000D01*
X49860000Y-46896000D02*
X56060000Y-46896000D01*
X58940000Y-46936000D02*
X65114000Y-46936000D01*
X49886000Y-46936000D02*
X56060000Y-46936000D01*
X58940000Y-46976000D02*
X65088000Y-46976000D01*
X49912000Y-46976000D02*
X56060000Y-46976000D01*
X58940000Y-47016000D02*
X65061000Y-47016000D01*
X49939000Y-47016000D02*
X56060000Y-47016000D01*
X58940000Y-47056000D02*
X65035000Y-47056000D01*
X49965000Y-47056000D02*
X56060000Y-47056000D01*
X58940000Y-47096000D02*
X65008000Y-47096000D01*
X49992000Y-47096000D02*
X56060000Y-47096000D01*
X58940000Y-47136000D02*
X64980000Y-47136000D01*
X50020000Y-47136000D02*
X56060000Y-47136000D01*
X50047000Y-47176000D02*
X64953000Y-47176000D01*
X50075000Y-47216000D02*
X64925000Y-47216000D01*
X50103000Y-47256000D02*
X64897000Y-47256000D01*
X50132000Y-47296000D02*
X64868000Y-47296000D01*
X50161000Y-47336000D02*
X64839000Y-47336000D01*
X50190000Y-47376000D02*
X64810000Y-47376000D01*
X50220000Y-47416000D02*
X64780000Y-47416000D01*
X50250000Y-47456000D02*
X64750000Y-47456000D01*
X50280000Y-47496000D02*
X64720000Y-47496000D01*
X50310000Y-47536000D02*
X64690000Y-47536000D01*
X50341000Y-47576000D02*
X64659000Y-47576000D01*
X50373000Y-47616000D02*
X64627000Y-47616000D01*
X50404000Y-47656000D02*
X64596000Y-47656000D01*
X50436000Y-47696000D02*
X64564000Y-47696000D01*
X50469000Y-47736000D02*
X64531000Y-47736000D01*
X50501000Y-47776000D02*
X64499000Y-47776000D01*
X50535000Y-47816000D02*
X64465000Y-47816000D01*
X50568000Y-47856000D02*
X64432000Y-47856000D01*
X50602000Y-47896000D02*
X64398000Y-47896000D01*
X50636000Y-47936000D02*
X64364000Y-47936000D01*
X50671000Y-47976000D02*
X64329000Y-47976000D01*
X50706000Y-48016000D02*
X64294000Y-48016000D01*
X50742000Y-48056000D02*
X64258000Y-48056000D01*
X50778000Y-48096000D02*
X64222000Y-48096000D01*
X50814000Y-48136000D02*
X64186000Y-48136000D01*
X50851000Y-48176000D02*
X64149000Y-48176000D01*
X50888000Y-48216000D02*
X64112000Y-48216000D01*
X50926000Y-48256000D02*
X64074000Y-48256000D01*
X50964000Y-48296000D02*
X64036000Y-48296000D01*
X51003000Y-48336000D02*
X63997000Y-48336000D01*
X51042000Y-48376000D02*
X63958000Y-48376000D01*
X51082000Y-48416000D02*
X63918000Y-48416000D01*
X51122000Y-48456000D02*
X63878000Y-48456000D01*
X51163000Y-48496000D02*
X63837000Y-48496000D01*
X51204000Y-48536000D02*
X63796000Y-48536000D01*
X51246000Y-48576000D02*
X63754000Y-48576000D01*
X51288000Y-48616000D02*
X63712000Y-48616000D01*
X51330000Y-48656000D02*
X63670000Y-48656000D01*
X51374000Y-48696000D02*
X63626000Y-48696000D01*
X51418000Y-48736000D02*
X63582000Y-48736000D01*
X51462000Y-48776000D02*
X63538000Y-48776000D01*
X51507000Y-48816000D02*
X63493000Y-48816000D01*
X51553000Y-48856000D02*
X63447000Y-48856000D01*
X51599000Y-48896000D02*
X63401000Y-48896000D01*
X51646000Y-48936000D02*
X63354000Y-48936000D01*
X51694000Y-48976000D02*
X63306000Y-48976000D01*
X51742000Y-49016000D02*
X63258000Y-49016000D01*
X51791000Y-49056000D02*
X63209000Y-49056000D01*
X51840000Y-49096000D02*
X63160000Y-49096000D01*
X51891000Y-49136000D02*
X63109000Y-49136000D01*
X51942000Y-49176000D02*
X63058000Y-49176000D01*
X51994000Y-49216000D02*
X63006000Y-49216000D01*
X52046000Y-49256000D02*
X62954000Y-49256000D01*
X52100000Y-49296000D02*
X62900000Y-49296000D01*
X52154000Y-49336000D02*
X62846000Y-49336000D01*
X52209000Y-49376000D02*
X62791000Y-49376000D01*
X52265000Y-49416000D02*
X62735000Y-49416000D01*
X52322000Y-49456000D02*
X62678000Y-49456000D01*
X52380000Y-49496000D02*
X62620000Y-49496000D01*
X52438000Y-49536000D02*
X62562000Y-49536000D01*
X52498000Y-49576000D02*
X62502000Y-49576000D01*
X52559000Y-49616000D02*
X62441000Y-49616000D01*
X52621000Y-49656000D02*
X62379000Y-49656000D01*
X52684000Y-49696000D02*
X62316000Y-49696000D01*
X52748000Y-49736000D02*
X62252000Y-49736000D01*
X52814000Y-49776000D02*
X62186000Y-49776000D01*
X52880000Y-49816000D02*
X62120000Y-49816000D01*
X52948000Y-49856000D02*
X62052000Y-49856000D01*
X53018000Y-49896000D02*
X61982000Y-49896000D01*
X53088000Y-49936000D02*
X61912000Y-49936000D01*
X53161000Y-49976000D02*
X61839000Y-49976000D01*
X53235000Y-50016000D02*
X61765000Y-50016000D01*
X53310000Y-50056000D02*
X61690000Y-50056000D01*
X53387000Y-50096000D02*
X61613000Y-50096000D01*
X53467000Y-50136000D02*
X61533000Y-50136000D01*
X53548000Y-50175000D02*
X61452000Y-50175000D01*
X53631000Y-50215000D02*
X61369000Y-50215000D01*
X53716000Y-50255000D02*
X61284000Y-50255000D01*
X53804000Y-50295000D02*
X61196000Y-50295000D01*
X53895000Y-50335000D02*
X61105000Y-50335000D01*
X53988000Y-50375000D02*
X61012000Y-50375000D01*
X54084000Y-50415000D02*
X60916000Y-50415000D01*
X54183000Y-50455000D02*
X60817000Y-50455000D01*
X54286000Y-50495000D02*
X60714000Y-50495000D01*
X54393000Y-50535000D02*
X60607000Y-50535000D01*
X54504000Y-50575000D02*
X60496000Y-50575000D01*
X54620000Y-50615000D02*
X60380000Y-50615000D01*
X54741000Y-50655000D02*
X60259000Y-50655000D01*
X54868000Y-50695000D02*
X60132000Y-50695000D01*
X55002000Y-50735000D02*
X59998000Y-50735000D01*
X55145000Y-50775000D02*
X59855000Y-50775000D01*
X55297000Y-50815000D02*
X59703000Y-50815000D01*
X55461000Y-50855000D02*
X59539000Y-50855000D01*
X55640000Y-50895000D02*
X59360000Y-50895000D01*
X55839000Y-50935000D02*
X59161000Y-50935000D01*
X56065000Y-50975000D02*
X58935000Y-50975000D01*
X56334000Y-51015000D02*
X58666000Y-51015000D01*
X56686000Y-51055000D02*
X58314000Y-51055000D01*
X57460000Y-51095000D02*
X57540000Y-51095000D01*
X66620000Y-41975000D02*
G75*
G03*
X66620000Y-41975000I-9120000J0D01*
G01*
%TO.C,D8*%
X60975000Y-101340000D02*
X54475000Y-101340000D01*
X60975000Y-101340000D02*
X60975000Y-112650000D01*
X54475000Y-101340000D02*
X54475000Y-112650000D01*
%TO.C,CR3*%
X91935000Y-32162780D02*
X91935000Y-33962780D01*
X91035000Y-33062780D02*
X92835000Y-33062780D01*
X87969000Y-41922220D02*
X106131000Y-41922220D01*
X87970000Y-41962220D02*
X106130000Y-41962220D01*
X87970000Y-42002220D02*
X106130000Y-42002220D01*
X87970000Y-42042220D02*
X106130000Y-42042220D01*
X87971000Y-42082220D02*
X106129000Y-42082220D01*
X87972000Y-42122220D02*
X106128000Y-42122220D01*
X87973000Y-42162220D02*
X106127000Y-42162220D01*
X87974000Y-42202220D02*
X106126000Y-42202220D01*
X87975000Y-42242220D02*
X106125000Y-42242220D01*
X87977000Y-42282220D02*
X106123000Y-42282220D01*
X87978000Y-42322220D02*
X106122000Y-42322220D01*
X87980000Y-42362220D02*
X106120000Y-42362220D01*
X87982000Y-42402220D02*
X106118000Y-42402220D01*
X87984000Y-42442220D02*
X106116000Y-42442220D01*
X87987000Y-42482220D02*
X106113000Y-42482220D01*
X87989000Y-42522220D02*
X106111000Y-42522220D01*
X87992000Y-42562220D02*
X106108000Y-42562220D01*
X87995000Y-42602220D02*
X106105000Y-42602220D01*
X87998000Y-42643220D02*
X106102000Y-42643220D01*
X88001000Y-42683220D02*
X106099000Y-42683220D01*
X88005000Y-42723220D02*
X106095000Y-42723220D01*
X88008000Y-42763220D02*
X106092000Y-42763220D01*
X88012000Y-42803220D02*
X106088000Y-42803220D01*
X88016000Y-42843220D02*
X106084000Y-42843220D01*
X88020000Y-42883220D02*
X106080000Y-42883220D01*
X88024000Y-42923220D02*
X106076000Y-42923220D01*
X88029000Y-42963220D02*
X106071000Y-42963220D01*
X88034000Y-43003220D02*
X106066000Y-43003220D01*
X88039000Y-43043220D02*
X106061000Y-43043220D01*
X88044000Y-43083220D02*
X106056000Y-43083220D01*
X88049000Y-43123220D02*
X106051000Y-43123220D01*
X88054000Y-43163220D02*
X106046000Y-43163220D01*
X88060000Y-43203220D02*
X106040000Y-43203220D01*
X88066000Y-43243220D02*
X106034000Y-43243220D01*
X88071000Y-43283220D02*
X106029000Y-43283220D01*
X88078000Y-43323220D02*
X106022000Y-43323220D01*
X88084000Y-43363220D02*
X106016000Y-43363220D01*
X88090000Y-43403220D02*
X106010000Y-43403220D01*
X88097000Y-43443220D02*
X106003000Y-43443220D01*
X88104000Y-43483220D02*
X105996000Y-43483220D01*
X88111000Y-43523220D02*
X105989000Y-43523220D01*
X88118000Y-43563220D02*
X105982000Y-43563220D01*
X88126000Y-43603220D02*
X105974000Y-43603220D01*
X88133000Y-43643220D02*
X105967000Y-43643220D01*
X88141000Y-43683220D02*
X105959000Y-43683220D01*
X88149000Y-43723220D02*
X105951000Y-43723220D01*
X88157000Y-43763220D02*
X105943000Y-43763220D01*
X88165000Y-43803220D02*
X105935000Y-43803220D01*
X88174000Y-43843220D02*
X105926000Y-43843220D01*
X88183000Y-43883220D02*
X105917000Y-43883220D01*
X88192000Y-43923220D02*
X105908000Y-43923220D01*
X88201000Y-43963220D02*
X105899000Y-43963220D01*
X88210000Y-44003220D02*
X105890000Y-44003220D01*
X88219000Y-44043220D02*
X105881000Y-44043220D01*
X88229000Y-44083220D02*
X105871000Y-44083220D01*
X88239000Y-44123220D02*
X105861000Y-44123220D01*
X88249000Y-44163220D02*
X105851000Y-44163220D01*
X88259000Y-44203220D02*
X105841000Y-44203220D01*
X98490000Y-44243220D02*
X105830000Y-44243220D01*
X88270000Y-44243220D02*
X95610000Y-44243220D01*
X98490000Y-44283220D02*
X105820000Y-44283220D01*
X88280000Y-44283220D02*
X95610000Y-44283220D01*
X98490000Y-44323220D02*
X105809000Y-44323220D01*
X88291000Y-44323220D02*
X95610000Y-44323220D01*
X98490000Y-44363220D02*
X105798000Y-44363220D01*
X88302000Y-44363220D02*
X95610000Y-44363220D01*
X98490000Y-44403220D02*
X105787000Y-44403220D01*
X88313000Y-44403220D02*
X95610000Y-44403220D01*
X98490000Y-44443220D02*
X105775000Y-44443220D01*
X88325000Y-44443220D02*
X95610000Y-44443220D01*
X98490000Y-44483220D02*
X105764000Y-44483220D01*
X88336000Y-44483220D02*
X95610000Y-44483220D01*
X98490000Y-44523220D02*
X105752000Y-44523220D01*
X88348000Y-44523220D02*
X95610000Y-44523220D01*
X98490000Y-44563220D02*
X105740000Y-44563220D01*
X88360000Y-44563220D02*
X95610000Y-44563220D01*
X98490000Y-44603220D02*
X105728000Y-44603220D01*
X88372000Y-44603220D02*
X95610000Y-44603220D01*
X98490000Y-44643220D02*
X105715000Y-44643220D01*
X88385000Y-44643220D02*
X95610000Y-44643220D01*
X98490000Y-44683220D02*
X105703000Y-44683220D01*
X88397000Y-44683220D02*
X95610000Y-44683220D01*
X98490000Y-44723220D02*
X105690000Y-44723220D01*
X88410000Y-44723220D02*
X95610000Y-44723220D01*
X98490000Y-44763220D02*
X105677000Y-44763220D01*
X88423000Y-44763220D02*
X95610000Y-44763220D01*
X98490000Y-44803220D02*
X105664000Y-44803220D01*
X88436000Y-44803220D02*
X95610000Y-44803220D01*
X98490000Y-44843220D02*
X105650000Y-44843220D01*
X88450000Y-44843220D02*
X95610000Y-44843220D01*
X98490000Y-44883220D02*
X105637000Y-44883220D01*
X88463000Y-44883220D02*
X95610000Y-44883220D01*
X98490000Y-44923220D02*
X105623000Y-44923220D01*
X88477000Y-44923220D02*
X95610000Y-44923220D01*
X98490000Y-44963220D02*
X105609000Y-44963220D01*
X88491000Y-44963220D02*
X95610000Y-44963220D01*
X98490000Y-45003220D02*
X105595000Y-45003220D01*
X88505000Y-45003220D02*
X95610000Y-45003220D01*
X98490000Y-45043220D02*
X105580000Y-45043220D01*
X88520000Y-45043220D02*
X95610000Y-45043220D01*
X98490000Y-45083220D02*
X105566000Y-45083220D01*
X88534000Y-45083220D02*
X95610000Y-45083220D01*
X98490000Y-45123220D02*
X105551000Y-45123220D01*
X88549000Y-45123220D02*
X95610000Y-45123220D01*
X98490000Y-45163220D02*
X105536000Y-45163220D01*
X88564000Y-45163220D02*
X95610000Y-45163220D01*
X98490000Y-45203220D02*
X105520000Y-45203220D01*
X88580000Y-45203220D02*
X95610000Y-45203220D01*
X98490000Y-45243220D02*
X105505000Y-45243220D01*
X88595000Y-45243220D02*
X95610000Y-45243220D01*
X98490000Y-45283220D02*
X105489000Y-45283220D01*
X88611000Y-45283220D02*
X95610000Y-45283220D01*
X98490000Y-45323220D02*
X105473000Y-45323220D01*
X88627000Y-45323220D02*
X95610000Y-45323220D01*
X98490000Y-45363220D02*
X105457000Y-45363220D01*
X88643000Y-45363220D02*
X95610000Y-45363220D01*
X98490000Y-45403220D02*
X105440000Y-45403220D01*
X88660000Y-45403220D02*
X95610000Y-45403220D01*
X98490000Y-45443220D02*
X105424000Y-45443220D01*
X88676000Y-45443220D02*
X95610000Y-45443220D01*
X98490000Y-45483220D02*
X105407000Y-45483220D01*
X88693000Y-45483220D02*
X95610000Y-45483220D01*
X98490000Y-45523220D02*
X105390000Y-45523220D01*
X88710000Y-45523220D02*
X95610000Y-45523220D01*
X98490000Y-45563220D02*
X105373000Y-45563220D01*
X88727000Y-45563220D02*
X95610000Y-45563220D01*
X98490000Y-45603220D02*
X105355000Y-45603220D01*
X88745000Y-45603220D02*
X95610000Y-45603220D01*
X98490000Y-45643220D02*
X105337000Y-45643220D01*
X88763000Y-45643220D02*
X95610000Y-45643220D01*
X98490000Y-45683220D02*
X105319000Y-45683220D01*
X88781000Y-45683220D02*
X95610000Y-45683220D01*
X98490000Y-45723220D02*
X105301000Y-45723220D01*
X88799000Y-45723220D02*
X95610000Y-45723220D01*
X98490000Y-45763220D02*
X105283000Y-45763220D01*
X88817000Y-45763220D02*
X95610000Y-45763220D01*
X98490000Y-45803220D02*
X105264000Y-45803220D01*
X88836000Y-45803220D02*
X95610000Y-45803220D01*
X98490000Y-45843220D02*
X105245000Y-45843220D01*
X88855000Y-45843220D02*
X95610000Y-45843220D01*
X98490000Y-45883220D02*
X105226000Y-45883220D01*
X88874000Y-45883220D02*
X95610000Y-45883220D01*
X98490000Y-45923220D02*
X105206000Y-45923220D01*
X88894000Y-45923220D02*
X95610000Y-45923220D01*
X98490000Y-45963220D02*
X105187000Y-45963220D01*
X88913000Y-45963220D02*
X95610000Y-45963220D01*
X98490000Y-46003220D02*
X105167000Y-46003220D01*
X88933000Y-46003220D02*
X95610000Y-46003220D01*
X98490000Y-46043220D02*
X105147000Y-46043220D01*
X88953000Y-46043220D02*
X95610000Y-46043220D01*
X98490000Y-46083220D02*
X105126000Y-46083220D01*
X88974000Y-46083220D02*
X95610000Y-46083220D01*
X98490000Y-46123220D02*
X105106000Y-46123220D01*
X88994000Y-46123220D02*
X95610000Y-46123220D01*
X98490000Y-46163220D02*
X105085000Y-46163220D01*
X89015000Y-46163220D02*
X95610000Y-46163220D01*
X98490000Y-46203220D02*
X105064000Y-46203220D01*
X89036000Y-46203220D02*
X95610000Y-46203220D01*
X98490000Y-46243220D02*
X105042000Y-46243220D01*
X89058000Y-46243220D02*
X95610000Y-46243220D01*
X98490000Y-46283220D02*
X105021000Y-46283220D01*
X89079000Y-46283220D02*
X95610000Y-46283220D01*
X98490000Y-46323220D02*
X104999000Y-46323220D01*
X89101000Y-46323220D02*
X95610000Y-46323220D01*
X98490000Y-46363220D02*
X104977000Y-46363220D01*
X89123000Y-46363220D02*
X95610000Y-46363220D01*
X98490000Y-46403220D02*
X104954000Y-46403220D01*
X89146000Y-46403220D02*
X95610000Y-46403220D01*
X98490000Y-46443220D02*
X104932000Y-46443220D01*
X89168000Y-46443220D02*
X95610000Y-46443220D01*
X98490000Y-46483220D02*
X104909000Y-46483220D01*
X89191000Y-46483220D02*
X95610000Y-46483220D01*
X98490000Y-46523220D02*
X104885000Y-46523220D01*
X89215000Y-46523220D02*
X95610000Y-46523220D01*
X98490000Y-46563220D02*
X104862000Y-46563220D01*
X89238000Y-46563220D02*
X95610000Y-46563220D01*
X98490000Y-46603220D02*
X104838000Y-46603220D01*
X89262000Y-46603220D02*
X95610000Y-46603220D01*
X98490000Y-46643220D02*
X104814000Y-46643220D01*
X89286000Y-46643220D02*
X95610000Y-46643220D01*
X98490000Y-46683220D02*
X104790000Y-46683220D01*
X89310000Y-46683220D02*
X95610000Y-46683220D01*
X98490000Y-46723220D02*
X104765000Y-46723220D01*
X89335000Y-46723220D02*
X95610000Y-46723220D01*
X98490000Y-46763220D02*
X104740000Y-46763220D01*
X89360000Y-46763220D02*
X95610000Y-46763220D01*
X98490000Y-46803220D02*
X104715000Y-46803220D01*
X89385000Y-46803220D02*
X95610000Y-46803220D01*
X98490000Y-46843220D02*
X104690000Y-46843220D01*
X89410000Y-46843220D02*
X95610000Y-46843220D01*
X98490000Y-46883220D02*
X104664000Y-46883220D01*
X89436000Y-46883220D02*
X95610000Y-46883220D01*
X98490000Y-46923220D02*
X104638000Y-46923220D01*
X89462000Y-46923220D02*
X95610000Y-46923220D01*
X98490000Y-46963220D02*
X104611000Y-46963220D01*
X89489000Y-46963220D02*
X95610000Y-46963220D01*
X98490000Y-47003220D02*
X104585000Y-47003220D01*
X89515000Y-47003220D02*
X95610000Y-47003220D01*
X98490000Y-47043220D02*
X104558000Y-47043220D01*
X89542000Y-47043220D02*
X95610000Y-47043220D01*
X98490000Y-47083220D02*
X104530000Y-47083220D01*
X89570000Y-47083220D02*
X95610000Y-47083220D01*
X89597000Y-47123220D02*
X104503000Y-47123220D01*
X89625000Y-47163220D02*
X104475000Y-47163220D01*
X89653000Y-47203220D02*
X104447000Y-47203220D01*
X89682000Y-47243220D02*
X104418000Y-47243220D01*
X89711000Y-47283220D02*
X104389000Y-47283220D01*
X89740000Y-47323220D02*
X104360000Y-47323220D01*
X89770000Y-47363220D02*
X104330000Y-47363220D01*
X89800000Y-47403220D02*
X104300000Y-47403220D01*
X89830000Y-47443220D02*
X104270000Y-47443220D01*
X89860000Y-47483220D02*
X104240000Y-47483220D01*
X89891000Y-47523220D02*
X104209000Y-47523220D01*
X89923000Y-47563220D02*
X104177000Y-47563220D01*
X89954000Y-47603220D02*
X104146000Y-47603220D01*
X89986000Y-47643220D02*
X104114000Y-47643220D01*
X90019000Y-47683220D02*
X104081000Y-47683220D01*
X90051000Y-47723220D02*
X104049000Y-47723220D01*
X90085000Y-47763220D02*
X104015000Y-47763220D01*
X90118000Y-47803220D02*
X103982000Y-47803220D01*
X90152000Y-47843220D02*
X103948000Y-47843220D01*
X90186000Y-47883220D02*
X103914000Y-47883220D01*
X90221000Y-47923220D02*
X103879000Y-47923220D01*
X90256000Y-47963220D02*
X103844000Y-47963220D01*
X90292000Y-48003220D02*
X103808000Y-48003220D01*
X90328000Y-48043220D02*
X103772000Y-48043220D01*
X90364000Y-48083220D02*
X103736000Y-48083220D01*
X90401000Y-48123220D02*
X103699000Y-48123220D01*
X90438000Y-48163220D02*
X103662000Y-48163220D01*
X90476000Y-48203220D02*
X103624000Y-48203220D01*
X90514000Y-48243220D02*
X103586000Y-48243220D01*
X90553000Y-48283220D02*
X103547000Y-48283220D01*
X90592000Y-48323220D02*
X103508000Y-48323220D01*
X90632000Y-48363220D02*
X103468000Y-48363220D01*
X90672000Y-48403220D02*
X103428000Y-48403220D01*
X90713000Y-48443220D02*
X103387000Y-48443220D01*
X90754000Y-48483220D02*
X103346000Y-48483220D01*
X90796000Y-48523220D02*
X103304000Y-48523220D01*
X90838000Y-48563220D02*
X103262000Y-48563220D01*
X90880000Y-48603220D02*
X103220000Y-48603220D01*
X90924000Y-48643220D02*
X103176000Y-48643220D01*
X90968000Y-48683220D02*
X103132000Y-48683220D01*
X91012000Y-48723220D02*
X103088000Y-48723220D01*
X91057000Y-48763220D02*
X103043000Y-48763220D01*
X91103000Y-48803220D02*
X102997000Y-48803220D01*
X91149000Y-48843220D02*
X102951000Y-48843220D01*
X91196000Y-48883220D02*
X102904000Y-48883220D01*
X91244000Y-48923220D02*
X102856000Y-48923220D01*
X91292000Y-48963220D02*
X102808000Y-48963220D01*
X91341000Y-49003220D02*
X102759000Y-49003220D01*
X91390000Y-49043220D02*
X102710000Y-49043220D01*
X91441000Y-49083220D02*
X102659000Y-49083220D01*
X91492000Y-49123220D02*
X102608000Y-49123220D01*
X91544000Y-49163220D02*
X102556000Y-49163220D01*
X91596000Y-49203220D02*
X102504000Y-49203220D01*
X91650000Y-49243220D02*
X102450000Y-49243220D01*
X91704000Y-49283220D02*
X102396000Y-49283220D01*
X91759000Y-49323220D02*
X102341000Y-49323220D01*
X91815000Y-49363220D02*
X102285000Y-49363220D01*
X91872000Y-49403220D02*
X102228000Y-49403220D01*
X91930000Y-49443220D02*
X102170000Y-49443220D01*
X91988000Y-49483220D02*
X102112000Y-49483220D01*
X92048000Y-49523220D02*
X102052000Y-49523220D01*
X92109000Y-49563220D02*
X101991000Y-49563220D01*
X92171000Y-49603220D02*
X101929000Y-49603220D01*
X92234000Y-49643220D02*
X101866000Y-49643220D01*
X92298000Y-49683220D02*
X101802000Y-49683220D01*
X92364000Y-49723220D02*
X101736000Y-49723220D01*
X92430000Y-49763220D02*
X101670000Y-49763220D01*
X92498000Y-49803220D02*
X101602000Y-49803220D01*
X92568000Y-49843220D02*
X101532000Y-49843220D01*
X92638000Y-49883220D02*
X101462000Y-49883220D01*
X92711000Y-49923220D02*
X101389000Y-49923220D01*
X92785000Y-49963220D02*
X101315000Y-49963220D01*
X92860000Y-50003220D02*
X101240000Y-50003220D01*
X92937000Y-50043220D02*
X101163000Y-50043220D01*
X93017000Y-50083220D02*
X101083000Y-50083220D01*
X93098000Y-50122220D02*
X101002000Y-50122220D01*
X93181000Y-50162220D02*
X100919000Y-50162220D01*
X93266000Y-50202220D02*
X100834000Y-50202220D01*
X93354000Y-50242220D02*
X100746000Y-50242220D01*
X93445000Y-50282220D02*
X100655000Y-50282220D01*
X93538000Y-50322220D02*
X100562000Y-50322220D01*
X93634000Y-50362220D02*
X100466000Y-50362220D01*
X93733000Y-50402220D02*
X100367000Y-50402220D01*
X93836000Y-50442220D02*
X100264000Y-50442220D01*
X93943000Y-50482220D02*
X100157000Y-50482220D01*
X94054000Y-50522220D02*
X100046000Y-50522220D01*
X94170000Y-50562220D02*
X99930000Y-50562220D01*
X94291000Y-50602220D02*
X99809000Y-50602220D01*
X94418000Y-50642220D02*
X99682000Y-50642220D01*
X94552000Y-50682220D02*
X99548000Y-50682220D01*
X94695000Y-50722220D02*
X99405000Y-50722220D01*
X94847000Y-50762220D02*
X99253000Y-50762220D01*
X95011000Y-50802220D02*
X99089000Y-50802220D01*
X95190000Y-50842220D02*
X98910000Y-50842220D01*
X95389000Y-50882220D02*
X98711000Y-50882220D01*
X95615000Y-50922220D02*
X98485000Y-50922220D01*
X95884000Y-50962220D02*
X98216000Y-50962220D01*
X96236000Y-51002220D02*
X97864000Y-51002220D01*
X97010000Y-51042220D02*
X97090000Y-51042220D01*
X106170000Y-41922220D02*
G75*
G03*
X106170000Y-41922220I-9120000J0D01*
G01*
%TO.C,JP2*%
X104675000Y-121400000D02*
X105275000Y-121400000D01*
X105975000Y-120750000D02*
X105975000Y-117950000D01*
X103975000Y-117950000D02*
X103975000Y-120750000D01*
X105275000Y-117300000D02*
X104675000Y-117300000D01*
X103975000Y-120700000D02*
G75*
G03*
X104675000Y-121400000I699999J-1D01*
G01*
X105275000Y-121400000D02*
G75*
G03*
X105975000Y-120700000I1J699999D01*
G01*
X104675000Y-117300000D02*
G75*
G03*
X103975000Y-118000000I0J-700000D01*
G01*
X105975000Y-118000000D02*
G75*
G03*
X105275000Y-117300000I-700000J0D01*
G01*
%TD*%
%LPC*%
D10*
X120637300Y-70057000D02*
X148182300Y-70057000D01*
X148182300Y-75057000D01*
X120637300Y-75057000D01*
X120637300Y-70057000D01*
G36*
X120637300Y-70057000D02*
G01*
X148182300Y-70057000D01*
X148182300Y-75057000D01*
X120637300Y-75057000D01*
X120637300Y-70057000D01*
G37*
X88430800Y-70057000D02*
X115340800Y-70057000D01*
X115340800Y-75057000D01*
X88430800Y-75057000D01*
X88430800Y-70057000D01*
G36*
X88430800Y-70057000D02*
G01*
X115340800Y-70057000D01*
X115340800Y-75057000D01*
X88430800Y-75057000D01*
X88430800Y-70057000D01*
G37*
X115000000Y-56500000D02*
X117000000Y-57400000D01*
X119000000Y-57400000D01*
X121000000Y-56500000D01*
X121000000Y-56000000D01*
X152000000Y-56000000D01*
X152000000Y-61000000D01*
X53682500Y-60950000D01*
X53682500Y-56060400D01*
X71500000Y-56000000D01*
X71500000Y-56500000D01*
X73500000Y-57400000D01*
X75500000Y-57400000D01*
X78000000Y-56500000D01*
X78000000Y-56000000D01*
X115000000Y-56000000D01*
X115000000Y-56500000D01*
G36*
X115000000Y-56500000D02*
G01*
X117000000Y-57400000D01*
X119000000Y-57400000D01*
X121000000Y-56500000D01*
X121000000Y-56000000D01*
X152000000Y-56000000D01*
X152000000Y-61000000D01*
X53682500Y-60950000D01*
X53682500Y-56060400D01*
X71500000Y-56000000D01*
X71500000Y-56500000D01*
X73500000Y-57400000D01*
X75500000Y-57400000D01*
X78000000Y-56500000D01*
X78000000Y-56000000D01*
X115000000Y-56000000D01*
X115000000Y-56500000D01*
G37*
D15*
X157525000Y-56650000D02*
G75*
G03*
X157525000Y-56650000I-2525000J0D01*
G01*
D16*
X158039166Y-56650000D02*
G75*
G03*
X158039166Y-56650000I-3039166J0D01*
G01*
X158039166Y-91000000D02*
G75*
G03*
X158039166Y-91000000I-3039166J0D01*
G01*
D10*
X114999935Y-91127055D02*
X116999935Y-91627055D01*
X118999935Y-91627055D01*
X120999935Y-91127055D01*
X120999935Y-90627055D01*
X151999935Y-90627055D01*
X151999935Y-95627055D01*
X53682435Y-95577055D01*
X53682435Y-90687455D01*
X82999935Y-90627055D01*
X82999935Y-91127055D01*
X84999935Y-91627055D01*
X86999935Y-91627055D01*
X88999935Y-91127055D01*
X88999935Y-90627055D01*
X114999935Y-90627055D01*
X114999935Y-91127055D01*
G36*
X114999935Y-91127055D02*
G01*
X116999935Y-91627055D01*
X118999935Y-91627055D01*
X120999935Y-91127055D01*
X120999935Y-90627055D01*
X151999935Y-90627055D01*
X151999935Y-95627055D01*
X53682435Y-95577055D01*
X53682435Y-90687455D01*
X82999935Y-90627055D01*
X82999935Y-91127055D01*
X84999935Y-91627055D01*
X86999935Y-91627055D01*
X88999935Y-91127055D01*
X88999935Y-90627055D01*
X114999935Y-90627055D01*
X114999935Y-91127055D01*
G37*
X56147400Y-70057000D02*
X83438400Y-70057000D01*
X83438400Y-75057000D01*
X56147400Y-75057000D01*
X56147400Y-70057000D01*
G36*
X56147400Y-70057000D02*
G01*
X83438400Y-70057000D01*
X83438400Y-75057000D01*
X56147400Y-75057000D01*
X56147400Y-70057000D01*
G37*
D15*
X157525000Y-91000000D02*
G75*
G03*
X157525000Y-91000000I-2525000J0D01*
G01*
D17*
%TO.C,TpGND2*%
X130000000Y-92300000D03*
%TD*%
D18*
%TO.C,QA5*%
X76699000Y-60403300D03*
X76699000Y-62153300D03*
X76699000Y-63903300D03*
X76699000Y-65653300D03*
X78699000Y-60403300D03*
X78699000Y-62153300D03*
X78699000Y-63903300D03*
X78699000Y-65653300D03*
X80699000Y-60403300D03*
X80699000Y-62153300D03*
X80699000Y-63903300D03*
X80699000Y-65653300D03*
X82699000Y-60403300D03*
X82699000Y-62153300D03*
X82699000Y-63903300D03*
X82699000Y-65653300D03*
%TD*%
%TO.C,QB3*%
X98637500Y-60557200D03*
X98637500Y-62307200D03*
X98637500Y-64057200D03*
X98637500Y-65807200D03*
X100637500Y-60557200D03*
X100637500Y-62307200D03*
X100637500Y-64057200D03*
X100637500Y-65807200D03*
X102637500Y-60557200D03*
X102637500Y-62307200D03*
X102637500Y-64057200D03*
X102637500Y-65807200D03*
X104637500Y-60557200D03*
X104637500Y-62307200D03*
X104637500Y-64057200D03*
X104637500Y-65807200D03*
%TD*%
%TO.C,QC1*%
X120726000Y-60677800D03*
X120726000Y-62427800D03*
X120726000Y-64177800D03*
X120726000Y-65927800D03*
X122726000Y-60677800D03*
X122726000Y-62427800D03*
X122726000Y-64177800D03*
X122726000Y-65927800D03*
X124726000Y-60677800D03*
X124726000Y-62427800D03*
X124726000Y-64177800D03*
X124726000Y-65927800D03*
X126726000Y-60677800D03*
X126726000Y-62427800D03*
X126726000Y-64177800D03*
X126726000Y-65927800D03*
%TD*%
%TO.C,QB1*%
X88359300Y-60565000D03*
X88359300Y-62315000D03*
X88359300Y-64065000D03*
X88359300Y-65815000D03*
X90359300Y-60565000D03*
X90359300Y-62315000D03*
X90359300Y-64065000D03*
X90359300Y-65815000D03*
X92359300Y-60565000D03*
X92359300Y-62315000D03*
X92359300Y-64065000D03*
X92359300Y-65815000D03*
X94359300Y-60565000D03*
X94359300Y-62315000D03*
X94359300Y-64065000D03*
X94359300Y-65815000D03*
%TD*%
%TO.C,QC4*%
X131202600Y-76666400D03*
X131202600Y-78416400D03*
X131202600Y-80166400D03*
X131202600Y-81916400D03*
X133202600Y-76666400D03*
X133202600Y-78416400D03*
X133202600Y-80166400D03*
X133202600Y-81916400D03*
X135202600Y-76666400D03*
X135202600Y-78416400D03*
X135202600Y-80166400D03*
X135202600Y-81916400D03*
X137202600Y-76666400D03*
X137202600Y-78416400D03*
X137202600Y-80166400D03*
X137202600Y-81916400D03*
%TD*%
D19*
%TO.C,J4*%
X117700000Y-119700000D03*
D20*
X115700000Y-119700000D03*
X113700000Y-119700000D03*
X111700000Y-119700000D03*
X109700000Y-119700000D03*
X107700000Y-119700000D03*
%TD*%
D21*
%TO.C,TpGND4*%
X72569000Y-106778260D03*
%TD*%
D18*
%TO.C,QA3*%
X66377500Y-60403300D03*
X66377500Y-62153300D03*
X66377500Y-63903300D03*
X66377500Y-65653300D03*
X68377500Y-60403300D03*
X68377500Y-62153300D03*
X68377500Y-63903300D03*
X68377500Y-65653300D03*
X70377500Y-60403300D03*
X70377500Y-62153300D03*
X70377500Y-63903300D03*
X70377500Y-65653300D03*
X72377500Y-60403300D03*
X72377500Y-62153300D03*
X72377500Y-63903300D03*
X72377500Y-65653300D03*
%TD*%
%TO.C,QB4*%
X98724400Y-76626500D03*
X98724400Y-78376500D03*
X98724400Y-80126500D03*
X98724400Y-81876500D03*
X100724400Y-76626500D03*
X100724400Y-78376500D03*
X100724400Y-80126500D03*
X100724400Y-81876500D03*
X102724400Y-76626500D03*
X102724400Y-78376500D03*
X102724400Y-80126500D03*
X102724400Y-81876500D03*
X104724400Y-76626500D03*
X104724400Y-78376500D03*
X104724400Y-80126500D03*
X104724400Y-81876500D03*
%TD*%
D17*
%TO.C,TpGND1*%
X141000000Y-92300000D03*
%TD*%
D19*
%TO.C,J2*%
X132600000Y-119700000D03*
D20*
X130600000Y-119700000D03*
X128600000Y-119700000D03*
X126600000Y-119700000D03*
X124600000Y-119700000D03*
X122600000Y-119700000D03*
%TD*%
D17*
%TO.C,TpVBAT3*%
X107000000Y-57400000D03*
%TD*%
%TO.C,TpVBAT2*%
X139600000Y-57400000D03*
%TD*%
D19*
%TO.C,J1*%
X102800000Y-119700000D03*
D20*
X100800000Y-119700000D03*
X98800000Y-119700000D03*
X96800000Y-119700000D03*
X94800000Y-119700000D03*
X92800000Y-119700000D03*
X90800000Y-119700000D03*
%TD*%
D18*
%TO.C,QC3*%
X131114600Y-60677800D03*
X131114600Y-62427800D03*
X131114600Y-64177800D03*
X131114600Y-65927800D03*
X133114600Y-60677800D03*
X133114600Y-62427800D03*
X133114600Y-64177800D03*
X133114600Y-65927800D03*
X135114600Y-60677800D03*
X135114600Y-62427800D03*
X135114600Y-64177800D03*
X135114600Y-65927800D03*
X137114600Y-60677800D03*
X137114600Y-62427800D03*
X137114600Y-64177800D03*
X137114600Y-65927800D03*
%TD*%
D17*
%TO.C,TpGND3*%
X107500000Y-92300000D03*
%TD*%
%TO.C,TpGND7*%
X97500000Y-92300000D03*
%TD*%
%TO.C,TpVBAT5*%
X128800000Y-57400000D03*
%TD*%
D18*
%TO.C,QC5*%
X141427000Y-60677800D03*
X141427000Y-62427800D03*
X141427000Y-64177800D03*
X141427000Y-65927800D03*
X143427000Y-60677800D03*
X143427000Y-62427800D03*
X143427000Y-64177800D03*
X143427000Y-65927800D03*
X145427000Y-60677800D03*
X145427000Y-62427800D03*
X145427000Y-64177800D03*
X145427000Y-65927800D03*
X147427000Y-60677800D03*
X147427000Y-62427800D03*
X147427000Y-64177800D03*
X147427000Y-65927800D03*
%TD*%
%TO.C,QA2*%
X56003500Y-76405300D03*
X56003500Y-78155300D03*
X56003500Y-79905300D03*
X56003500Y-81655300D03*
X58003500Y-76405300D03*
X58003500Y-78155300D03*
X58003500Y-79905300D03*
X58003500Y-81655300D03*
X60003500Y-76405300D03*
X60003500Y-78155300D03*
X60003500Y-79905300D03*
X60003500Y-81655300D03*
X62003500Y-76405300D03*
X62003500Y-78155300D03*
X62003500Y-79905300D03*
X62003500Y-81655300D03*
%TD*%
D22*
%TO.C,U5*%
X147329000Y-99028000D03*
X144789000Y-99028000D03*
X142249000Y-99028000D03*
X139709000Y-99028000D03*
X137169000Y-99028000D03*
X134629000Y-99028000D03*
X132089000Y-99028000D03*
X129549000Y-99028000D03*
X127009000Y-99028000D03*
X124469000Y-99028000D03*
X121929000Y-99028000D03*
X119389000Y-99028000D03*
X116849000Y-99028000D03*
X114309000Y-99028000D03*
X111769000Y-99028000D03*
X109229000Y-99028000D03*
X106689000Y-99028000D03*
X104149000Y-99028000D03*
X101609000Y-99028000D03*
X99069000Y-99028000D03*
X99069000Y-114268000D03*
X101609000Y-114268000D03*
X104149000Y-114268000D03*
X106689000Y-114268000D03*
X109229000Y-114268000D03*
X111769000Y-114268000D03*
X114285395Y-114277993D03*
X116849000Y-114268000D03*
X119389000Y-114268000D03*
X121929000Y-114268000D03*
X124469000Y-114268000D03*
X127009000Y-114268000D03*
X129549000Y-114268000D03*
X132089000Y-114268000D03*
X134629000Y-114268000D03*
X137169000Y-114268000D03*
X139709000Y-114268000D03*
X142249000Y-114268000D03*
X144789000Y-114268000D03*
X147329000Y-114268000D03*
%TD*%
D17*
%TO.C,TpGND6*%
X75500000Y-92300000D03*
%TD*%
%TO.C,TpVBAT1*%
X85852000Y-57404000D03*
%TD*%
D23*
%TO.C,NTC1*%
X133914000Y-108678260D03*
D24*
X135814000Y-108678260D03*
%TD*%
D18*
%TO.C,QA4*%
X66377500Y-76405300D03*
X66377500Y-78155300D03*
X66377500Y-79905300D03*
X66377500Y-81655300D03*
X68377500Y-76405300D03*
X68377500Y-78155300D03*
X68377500Y-79905300D03*
X68377500Y-81655300D03*
X70377500Y-76405300D03*
X70377500Y-78155300D03*
X70377500Y-79905300D03*
X70377500Y-81655300D03*
X72377500Y-76405300D03*
X72377500Y-78155300D03*
X72377500Y-79905300D03*
X72377500Y-81655300D03*
%TD*%
%TO.C,QB5*%
X109175600Y-60541400D03*
X109175600Y-62291400D03*
X109175600Y-64041400D03*
X109175600Y-65791400D03*
X111175600Y-60541400D03*
X111175600Y-62291400D03*
X111175600Y-64041400D03*
X111175600Y-65791400D03*
X113175600Y-60541400D03*
X113175600Y-62291400D03*
X113175600Y-64041400D03*
X113175600Y-65791400D03*
X115175600Y-60541400D03*
X115175600Y-62291400D03*
X115175600Y-64041400D03*
X115175600Y-65791400D03*
%TD*%
D17*
%TO.C,TpGND5*%
X65500000Y-92300000D03*
%TD*%
D18*
%TO.C,QB6*%
X109133700Y-76567000D03*
X109133700Y-78317000D03*
X109133700Y-80067000D03*
X109133700Y-81817000D03*
X111133700Y-76567000D03*
X111133700Y-78317000D03*
X111133700Y-80067000D03*
X111133700Y-81817000D03*
X113133700Y-76567000D03*
X113133700Y-78317000D03*
X113133700Y-80067000D03*
X113133700Y-81817000D03*
X115133700Y-76567000D03*
X115133700Y-78317000D03*
X115133700Y-80067000D03*
X115133700Y-81817000D03*
%TD*%
%TO.C,QA6*%
X76831500Y-76405300D03*
X76831500Y-78155300D03*
X76831500Y-79905300D03*
X76831500Y-81655300D03*
X78831500Y-76405300D03*
X78831500Y-78155300D03*
X78831500Y-79905300D03*
X78831500Y-81655300D03*
X80831500Y-76405300D03*
X80831500Y-78155300D03*
X80831500Y-79905300D03*
X80831500Y-81655300D03*
X82831500Y-76405300D03*
X82831500Y-78155300D03*
X82831500Y-79905300D03*
X82831500Y-81655300D03*
%TD*%
%TO.C,QA1*%
X56025000Y-60400000D03*
X56025000Y-62150000D03*
X56025000Y-63900000D03*
X56025000Y-65650000D03*
X58025000Y-60400000D03*
X58025000Y-62150000D03*
X58025000Y-63900000D03*
X58025000Y-65650000D03*
X60025000Y-60400000D03*
X60025000Y-62150000D03*
X60025000Y-63900000D03*
X60025000Y-65650000D03*
X62025000Y-60400000D03*
X62025000Y-62150000D03*
X62025000Y-63900000D03*
X62025000Y-65650000D03*
%TD*%
%TO.C,QB2*%
X88296800Y-76567000D03*
X88296800Y-78317000D03*
X88296800Y-80067000D03*
X88296800Y-81817000D03*
X90296800Y-76567000D03*
X90296800Y-78317000D03*
X90296800Y-80067000D03*
X90296800Y-81817000D03*
X92296800Y-76567000D03*
X92296800Y-78317000D03*
X92296800Y-80067000D03*
X92296800Y-81817000D03*
X94296800Y-76567000D03*
X94296800Y-78317000D03*
X94296800Y-80067000D03*
X94296800Y-81817000D03*
%TD*%
%TO.C,QC2*%
X120825800Y-76666400D03*
X120825800Y-78416400D03*
X120825800Y-80166400D03*
X120825800Y-81916400D03*
X122825800Y-76666400D03*
X122825800Y-78416400D03*
X122825800Y-80166400D03*
X122825800Y-81916400D03*
X124825800Y-76666400D03*
X124825800Y-78416400D03*
X124825800Y-80166400D03*
X124825800Y-81916400D03*
X126825800Y-76666400D03*
X126825800Y-78416400D03*
X126825800Y-80166400D03*
X126825800Y-81916400D03*
%TD*%
D19*
%TO.C,J3*%
X147500000Y-119700000D03*
D20*
X145500000Y-119700000D03*
X143500000Y-119700000D03*
X141500000Y-119700000D03*
X139500000Y-119700000D03*
X137500000Y-119700000D03*
%TD*%
D17*
%TO.C,TpVBAT4*%
X64200000Y-57404000D03*
%TD*%
D18*
%TO.C,QC6*%
X141508000Y-76666400D03*
X141508000Y-78416400D03*
X141508000Y-80166400D03*
X141508000Y-81916400D03*
X143508000Y-76666400D03*
X143508000Y-78416400D03*
X143508000Y-80166400D03*
X143508000Y-81916400D03*
X145508000Y-76666400D03*
X145508000Y-78416400D03*
X145508000Y-80166400D03*
X145508000Y-81916400D03*
X147508000Y-76666400D03*
X147508000Y-78416400D03*
X147508000Y-80166400D03*
X147508000Y-81916400D03*
%TD*%
D25*
%TO.C,Tp12V1*%
X66100000Y-119400000D03*
%TD*%
D26*
%TO.C,JP1*%
X135100000Y-120200000D03*
D27*
X135100000Y-118900000D03*
D28*
X135100000Y-117600000D03*
%TD*%
D25*
%TO.C,U6*%
X52640000Y-106860000D03*
X52640000Y-111940000D03*
X72960000Y-119560000D03*
X72960000Y-99240000D03*
%TD*%
D29*
%TO.C,D10*%
X69400000Y-99200000D03*
X65400000Y-99200000D03*
%TD*%
D30*
%TO.C,CR2*%
X77125000Y-38172220D03*
D31*
X77125000Y-45672220D03*
%TD*%
D32*
%TO.C,U7*%
X79200000Y-115800000D03*
X81740000Y-115800000D03*
X84280000Y-115800000D03*
%TD*%
D33*
%TO.C,PHA_1*%
X60000000Y-72500000D03*
%TD*%
%TO.C,PHB_2*%
X112000000Y-72500000D03*
%TD*%
D30*
%TO.C,CR4*%
X117075000Y-38172220D03*
D31*
X117075000Y-45672220D03*
%TD*%
D33*
%TO.C,PHC_2*%
X144000000Y-72500000D03*
%TD*%
%TO.C,PHC_1*%
X124000000Y-72500000D03*
%TD*%
D26*
%TO.C,JP3*%
X119950000Y-120625000D03*
D27*
X119950000Y-119325000D03*
D28*
X119950000Y-118025000D03*
%TD*%
D33*
%TO.C,PHB_1*%
X92000000Y-72500000D03*
%TD*%
%TO.C,PHA_2*%
X80000000Y-72500000D03*
%TD*%
D30*
%TO.C,CR5*%
X136925000Y-38172220D03*
D31*
X136925000Y-45672220D03*
%TD*%
D30*
%TO.C,CR1*%
X57500000Y-38225000D03*
D31*
X57500000Y-45725000D03*
%TD*%
D34*
%TO.C,D8*%
X57725000Y-103850000D03*
X57725000Y-112650000D03*
%TD*%
D30*
%TO.C,CR3*%
X97050000Y-38172220D03*
D31*
X97050000Y-45672220D03*
%TD*%
D26*
%TO.C,JP2*%
X104975000Y-120650000D03*
D27*
X104975000Y-119350000D03*
D28*
X104975000Y-118050000D03*
%TD*%
M02*
